<?xml version="1.0" encoding="UTF-8" standalone="no"?>
<svg
   width="576pt"
   height="360pt"
   viewBox="0 0 576 360"
   version="1.1"
   id="svg171"
   sodipodi:docname="BehaviorDurationM1_Processed.svg"
   inkscape:version="1.3.2 (091e20e, 2023-11-25)"
   inkscape:export-filename="BehaviorDurationM1_Processed.png"
   inkscape:export-xdpi="96"
   inkscape:export-ydpi="96"
   xmlns:inkscape="http://www.inkscape.org/namespaces/inkscape"
   xmlns:sodipodi="http://sodipodi.sourceforge.net/DTD/sodipodi-0.dtd"
   xmlns:xlink="http://www.w3.org/1999/xlink"
   xmlns="http://www.w3.org/2000/svg"
   xmlns:svg="http://www.w3.org/2000/svg"
   xmlns:rdf="http://www.w3.org/1999/02/22-rdf-syntax-ns#"
   xmlns:cc="http://creativecommons.org/ns#"
   xmlns:dc="http://purl.org/dc/elements/1.1/">
  <sodipodi:namedview
     id="namedview171"
     pagecolor="#ffffff"
     bordercolor="#000000"
     borderopacity="0.25"
     inkscape:showpageshadow="2"
     inkscape:pageopacity="0.0"
     inkscape:pagecheckerboard="0"
     inkscape:deskcolor="#d1d1d1"
     inkscape:document-units="pt"
     inkscape:zoom="0.49166667"
     inkscape:cx="384.40678"
     inkscape:cy="240"
     inkscape:window-width="1680"
     inkscape:window-height="997"
     inkscape:window-x="0"
     inkscape:window-y="25"
     inkscape:window-maximized="1"
     inkscape:current-layer="patch_1" />
  <metadata
     id="metadata1">
    <rdf:RDF>
      <cc:Work>
        <dc:type
           rdf:resource="http://purl.org/dc/dcmitype/StillImage" />
        <dc:date>2023-12-03T13:32:42.744221</dc:date>
        <dc:format>image/svg+xml</dc:format>
        <dc:creator>
          <cc:Agent>
            <dc:title>Matplotlib v3.8.0, https://matplotlib.org/</dc:title>
          </cc:Agent>
        </dc:creator>
      </cc:Work>
    </rdf:RDF>
  </metadata>
  <defs
     id="defs1">
    <style
       type="text/css"
       id="style1">*{stroke-linejoin: round; stroke-linecap: butt}</style>
  </defs>
  <g
     id="figure_1">
    <g
       id="patch_1" />
    <g
       id="axes_1">
      <g
         id="patch_2">
        <path
           d="M 406.08 181.8  C 406.08 165.258258 402.378306 148.924259 395.247014 133.998647  C 388.115723 119.073035 377.733953 105.930703 364.864825 95.537687  C 351.995697 85.144672 336.96245 77.76202 320.870116 73.932398  C 304.777782 70.102777 288.030558 69.922376 271.859463 73.404457  L 295.2 181.8  z "
           style="fill: #1f77b4"
           id="path2" />
      </g>
      <g
         id="patch_3">
        <path
           d="M 271.859463 73.404457  C 271.322636 73.520051 270.786675 73.639631 270.251624 73.763187  C 269.716574 73.886743 269.182449 74.014273 268.649293 74.145765  L 295.2 181.8  z "
           style="fill: #2ca02c"
           id="path3" />
      </g>
      <g
         id="patch_4">
        <path
           d="M 268.649293 74.145765  C 255.040256 77.502154 242.190271 83.408871 230.781665 91.552271  C 219.37306 99.695671 209.611402 109.929022 202.015031 121.708936  L 295.2 181.8  z "
           style="fill: #eb9393"
           id="path4" />
      </g>
      <g
         id="patch_5">
        <path
           d="M 202.015031 121.708936  C 195.887528 131.211034 191.249314 141.594709 188.261509 152.499258  C 185.273704 163.403806 183.971309 174.701483 184.399568 185.999835  L 295.2 181.8  z "
           style="fill: #d62728"
           id="path5" />
      </g>
      <g
         id="patch_6">
        <path
           d="M 184.399568 185.999835  C 184.46925 187.838191 184.584673 189.674528 184.74573 191.50714  C 184.906787 193.339753 185.113428 195.168073 185.365461 196.990404  L 295.2 181.8  z "
           style="fill: #ffdfc3"
           id="path6" />
      </g>
      <g
         id="patch_7">
        <path
           d="M 185.365461 196.990404  C 186.291431 203.685654 187.827655 210.282235 189.954936 216.697721  C 192.082218 223.113208 194.791659 229.320767 198.049406 235.242834  L 295.2 181.8  z "
           style="fill: #ffbf86"
           id="path7" />
      </g>
      <g
         id="patch_8">
        <path
           d="M 198.049406 235.242834  C 209.906375 256.796922 228.605813 273.804104 251.184656 283.569464  C 273.763498 293.334825 298.962643 295.313802 322.789096 289.192812  C 346.61555 283.071823 367.740638 269.1922 382.816931 249.753276  C 397.893225 230.314352 406.08 206.400131 406.08 181.800001  L 295.2 181.8  z "
           style="fill: #ff9f4a"
           id="path8" />
      </g>
      <g
         id="matplotlib.axis_1" />
      <g
         id="matplotlib.axis_2" />
      <g
         id="text_1">
        <!-- baseline (t=120.0s) -->
        <g
           transform="translate(371.831307 90.774581) scale(0.14 -0.14)"
           id="g26">
          <defs
             id="defs8">
            <path
               id="DejaVuSans-62"
               d="M 3116 1747  Q 3116 2381 2855 2742  Q 2594 3103 2138 3103  Q 1681 3103 1420 2742  Q 1159 2381 1159 1747  Q 1159 1113 1420 752  Q 1681 391 2138 391  Q 2594 391 2855 752  Q 3116 1113 3116 1747  z M 1159 2969  Q 1341 3281 1617 3432  Q 1894 3584 2278 3584  Q 2916 3584 3314 3078  Q 3713 2572 3713 1747  Q 3713 922 3314 415  Q 2916 -91 2278 -91  Q 1894 -91 1617 61  Q 1341 213 1159 525  L 1159 0  L 581 0  L 581 4863  L 1159 4863  L 1159 2969  z "
               transform="scale(0.015625)" />
            <path
               id="DejaVuSans-61"
               d="M 2194 1759  Q 1497 1759 1228 1600  Q 959 1441 959 1056  Q 959 750 1161 570  Q 1363 391 1709 391  Q 2188 391 2477 730  Q 2766 1069 2766 1631  L 2766 1759  L 2194 1759  z M 3341 1997  L 3341 0  L 2766 0  L 2766 531  Q 2569 213 2275 61  Q 1981 -91 1556 -91  Q 1019 -91 701 211  Q 384 513 384 1019  Q 384 1609 779 1909  Q 1175 2209 1959 2209  L 2766 2209  L 2766 2266  Q 2766 2663 2505 2880  Q 2244 3097 1772 3097  Q 1472 3097 1187 3025  Q 903 2953 641 2809  L 641 3341  Q 956 3463 1253 3523  Q 1550 3584 1831 3584  Q 2591 3584 2966 3190  Q 3341 2797 3341 1997  z "
               transform="scale(0.015625)" />
            <path
               id="DejaVuSans-73"
               d="M 2834 3397  L 2834 2853  Q 2591 2978 2328 3040  Q 2066 3103 1784 3103  Q 1356 3103 1142 2972  Q 928 2841 928 2578  Q 928 2378 1081 2264  Q 1234 2150 1697 2047  L 1894 2003  Q 2506 1872 2764 1633  Q 3022 1394 3022 966  Q 3022 478 2636 193  Q 2250 -91 1575 -91  Q 1294 -91 989 -36  Q 684 19 347 128  L 347 722  Q 666 556 975 473  Q 1284 391 1588 391  Q 1994 391 2212 530  Q 2431 669 2431 922  Q 2431 1156 2273 1281  Q 2116 1406 1581 1522  L 1381 1569  Q 847 1681 609 1914  Q 372 2147 372 2553  Q 372 3047 722 3315  Q 1072 3584 1716 3584  Q 2034 3584 2315 3537  Q 2597 3491 2834 3397  z "
               transform="scale(0.015625)" />
            <path
               id="DejaVuSans-65"
               d="M 3597 1894  L 3597 1613  L 953 1613  Q 991 1019 1311 708  Q 1631 397 2203 397  Q 2534 397 2845 478  Q 3156 559 3463 722  L 3463 178  Q 3153 47 2828 -22  Q 2503 -91 2169 -91  Q 1331 -91 842 396  Q 353 884 353 1716  Q 353 2575 817 3079  Q 1281 3584 2069 3584  Q 2775 3584 3186 3129  Q 3597 2675 3597 1894  z M 3022 2063  Q 3016 2534 2758 2815  Q 2500 3097 2075 3097  Q 1594 3097 1305 2825  Q 1016 2553 972 2059  L 3022 2063  z "
               transform="scale(0.015625)" />
            <path
               id="DejaVuSans-6c"
               d="M 603 4863  L 1178 4863  L 1178 0  L 603 0  L 603 4863  z "
               transform="scale(0.015625)" />
            <path
               id="DejaVuSans-69"
               d="M 603 3500  L 1178 3500  L 1178 0  L 603 0  L 603 3500  z M 603 4863  L 1178 4863  L 1178 4134  L 603 4134  L 603 4863  z "
               transform="scale(0.015625)" />
            <path
               id="DejaVuSans-6e"
               d="M 3513 2113  L 3513 0  L 2938 0  L 2938 2094  Q 2938 2591 2744 2837  Q 2550 3084 2163 3084  Q 1697 3084 1428 2787  Q 1159 2491 1159 1978  L 1159 0  L 581 0  L 581 3500  L 1159 3500  L 1159 2956  Q 1366 3272 1645 3428  Q 1925 3584 2291 3584  Q 2894 3584 3203 3211  Q 3513 2838 3513 2113  z "
               transform="scale(0.015625)" />
            <path
               id="DejaVuSans-20"
               transform="scale(0.015625)" />
            <path
               id="DejaVuSans-28"
               d="M 1984 4856  Q 1566 4138 1362 3434  Q 1159 2731 1159 2009  Q 1159 1288 1364 580  Q 1569 -128 1984 -844  L 1484 -844  Q 1016 -109 783 600  Q 550 1309 550 2009  Q 550 2706 781 3412  Q 1013 4119 1484 4856  L 1984 4856  z "
               transform="scale(0.015625)" />
            <path
               id="DejaVuSans-74"
               d="M 1172 4494  L 1172 3500  L 2356 3500  L 2356 3053  L 1172 3053  L 1172 1153  Q 1172 725 1289 603  Q 1406 481 1766 481  L 2356 481  L 2356 0  L 1766 0  Q 1100 0 847 248  Q 594 497 594 1153  L 594 3053  L 172 3053  L 172 3500  L 594 3500  L 594 4494  L 1172 4494  z "
               transform="scale(0.015625)" />
            <path
               id="DejaVuSans-3d"
               d="M 678 2906  L 4684 2906  L 4684 2381  L 678 2381  L 678 2906  z M 678 1631  L 4684 1631  L 4684 1100  L 678 1100  L 678 1631  z "
               transform="scale(0.015625)" />
            <path
               id="DejaVuSans-31"
               d="M 794 531  L 1825 531  L 1825 4091  L 703 3866  L 703 4441  L 1819 4666  L 2450 4666  L 2450 531  L 3481 531  L 3481 0  L 794 0  L 794 531  z "
               transform="scale(0.015625)" />
            <path
               id="DejaVuSans-32"
               d="M 1228 531  L 3431 531  L 3431 0  L 469 0  L 469 531  Q 828 903 1448 1529  Q 2069 2156 2228 2338  Q 2531 2678 2651 2914  Q 2772 3150 2772 3378  Q 2772 3750 2511 3984  Q 2250 4219 1831 4219  Q 1534 4219 1204 4116  Q 875 4013 500 3803  L 500 4441  Q 881 4594 1212 4672  Q 1544 4750 1819 4750  Q 2544 4750 2975 4387  Q 3406 4025 3406 3419  Q 3406 3131 3298 2873  Q 3191 2616 2906 2266  Q 2828 2175 2409 1742  Q 1991 1309 1228 531  z "
               transform="scale(0.015625)" />
            <path
               id="DejaVuSans-30"
               d="M 2034 4250  Q 1547 4250 1301 3770  Q 1056 3291 1056 2328  Q 1056 1369 1301 889  Q 1547 409 2034 409  Q 2525 409 2770 889  Q 3016 1369 3016 2328  Q 3016 3291 2770 3770  Q 2525 4250 2034 4250  z M 2034 4750  Q 2819 4750 3233 4129  Q 3647 3509 3647 2328  Q 3647 1150 3233 529  Q 2819 -91 2034 -91  Q 1250 -91 836 529  Q 422 1150 422 2328  Q 422 3509 836 4129  Q 1250 4750 2034 4750  z "
               transform="scale(0.015625)" />
            <path
               id="DejaVuSans-2e"
               d="M 684 794  L 1344 794  L 1344 0  L 684 0  L 684 794  z "
               transform="scale(0.015625)" />
            <path
               id="DejaVuSans-29"
               d="M 513 4856  L 1013 4856  Q 1481 4119 1714 3412  Q 1947 2706 1947 2009  Q 1947 1309 1714 600  Q 1481 -109 1013 -844  L 513 -844  Q 928 -128 1133 580  Q 1338 1288 1338 2009  Q 1338 2731 1133 3434  Q 928 4138 513 4856  z "
               transform="scale(0.015625)" />
          </defs>
          <use
             xlink:href="#DejaVuSans-62"
             id="use8" />
          <use
             xlink:href="#DejaVuSans-61"
             x="63.476562"
             id="use9" />
          <use
             xlink:href="#DejaVuSans-73"
             x="124.755859"
             id="use10" />
          <use
             xlink:href="#DejaVuSans-65"
             x="176.855469"
             id="use11" />
          <use
             xlink:href="#DejaVuSans-6c"
             x="238.378906"
             id="use12" />
          <use
             xlink:href="#DejaVuSans-69"
             x="266.162109"
             id="use13" />
          <use
             xlink:href="#DejaVuSans-6e"
             x="293.945312"
             id="use14" />
          <use
             xlink:href="#DejaVuSans-65"
             x="357.324219"
             id="use15" />
          <use
             xlink:href="#DejaVuSans-20"
             x="418.847656"
             id="use16" />
          <use
             xlink:href="#DejaVuSans-28"
             x="450.634766"
             id="use17" />
          <use
             xlink:href="#DejaVuSans-74"
             x="489.648438"
             id="use18" />
          <use
             xlink:href="#DejaVuSans-3d"
             x="528.857422"
             id="use19" />
          <use
             xlink:href="#DejaVuSans-31"
             x="612.646484"
             id="use20" />
          <use
             xlink:href="#DejaVuSans-32"
             x="676.269531"
             id="use21" />
          <use
             xlink:href="#DejaVuSans-30"
             x="739.892578"
             id="use22" />
          <use
             xlink:href="#DejaVuSans-2e"
             x="803.515625"
             id="use23" />
          <use
             xlink:href="#DejaVuSans-30"
             x="835.302734"
             id="use24" />
          <use
             xlink:href="#DejaVuSans-73"
             x="898.925781"
             id="use25" />
          <use
             xlink:href="#DejaVuSans-29"
             x="951.025391"
             id="use26" />
        </g>
      </g>
      <g
         id="text_2">
        <!-- 28.4% -->
        <g
           transform="translate(314.761864 133.905737) scale(0.14 -0.14)"
           id="g31">
          <defs
             id="defs26">
            <path
               id="DejaVuSans-38"
               d="M 2034 2216  Q 1584 2216 1326 1975  Q 1069 1734 1069 1313  Q 1069 891 1326 650  Q 1584 409 2034 409  Q 2484 409 2743 651  Q 3003 894 3003 1313  Q 3003 1734 2745 1975  Q 2488 2216 2034 2216  z M 1403 2484  Q 997 2584 770 2862  Q 544 3141 544 3541  Q 544 4100 942 4425  Q 1341 4750 2034 4750  Q 2731 4750 3128 4425  Q 3525 4100 3525 3541  Q 3525 3141 3298 2862  Q 3072 2584 2669 2484  Q 3125 2378 3379 2068  Q 3634 1759 3634 1313  Q 3634 634 3220 271  Q 2806 -91 2034 -91  Q 1263 -91 848 271  Q 434 634 434 1313  Q 434 1759 690 2068  Q 947 2378 1403 2484  z M 1172 3481  Q 1172 3119 1398 2916  Q 1625 2713 2034 2713  Q 2441 2713 2670 2916  Q 2900 3119 2900 3481  Q 2900 3844 2670 4047  Q 2441 4250 2034 4250  Q 1625 4250 1398 4047  Q 1172 3844 1172 3481  z "
               transform="scale(0.015625)" />
            <path
               id="DejaVuSans-34"
               d="M 2419 4116  L 825 1625  L 2419 1625  L 2419 4116  z M 2253 4666  L 3047 4666  L 3047 1625  L 3713 1625  L 3713 1100  L 3047 1100  L 3047 0  L 2419 0  L 2419 1100  L 313 1100  L 313 1709  L 2253 4666  z "
               transform="scale(0.015625)" />
            <path
               id="DejaVuSans-25"
               d="M 4653 2053  Q 4381 2053 4226 1822  Q 4072 1591 4072 1178  Q 4072 772 4226 539  Q 4381 306 4653 306  Q 4919 306 5073 539  Q 5228 772 5228 1178  Q 5228 1588 5073 1820  Q 4919 2053 4653 2053  z M 4653 2450  Q 5147 2450 5437 2106  Q 5728 1763 5728 1178  Q 5728 594 5436 251  Q 5144 -91 4653 -91  Q 4153 -91 3862 251  Q 3572 594 3572 1178  Q 3572 1766 3864 2108  Q 4156 2450 4653 2450  z M 1428 4353  Q 1159 4353 1004 4120  Q 850 3888 850 3481  Q 850 3069 1003 2837  Q 1156 2606 1428 2606  Q 1700 2606 1854 2837  Q 2009 3069 2009 3481  Q 2009 3884 1853 4118  Q 1697 4353 1428 4353  z M 4250 4750  L 4750 4750  L 1831 -91  L 1331 -91  L 4250 4750  z M 1428 4750  Q 1922 4750 2215 4408  Q 2509 4066 2509 3481  Q 2509 2891 2217 2550  Q 1925 2209 1428 2209  Q 931 2209 642 2551  Q 353 2894 353 3481  Q 353 4063 643 4406  Q 934 4750 1428 4750  z "
               transform="scale(0.015625)" />
          </defs>
          <use
             xlink:href="#DejaVuSans-32"
             id="use27" />
          <use
             xlink:href="#DejaVuSans-38"
             x="63.623047"
             id="use28" />
          <use
             xlink:href="#DejaVuSans-2e"
             x="127.246094"
             id="use29" />
          <use
             xlink:href="#DejaVuSans-34"
             x="159.033203"
             id="use30" />
          <use
             xlink:href="#DejaVuSans-25"
             x="222.65625"
             id="use31" />
        </g>
      </g>
      <g
         id="text_3">
        <!-- introduction (t=2.0s) -->
        <g
           transform="translate(121.073974 66.822631) scale(0.14 -0.14)"
           id="g52">
          <defs
             id="defs31">
            <path
               id="DejaVuSans-72"
               d="M 2631 2963  Q 2534 3019 2420 3045  Q 2306 3072 2169 3072  Q 1681 3072 1420 2755  Q 1159 2438 1159 1844  L 1159 0  L 581 0  L 581 3500  L 1159 3500  L 1159 2956  Q 1341 3275 1631 3429  Q 1922 3584 2338 3584  Q 2397 3584 2469 3576  Q 2541 3569 2628 3553  L 2631 2963  z "
               transform="scale(0.015625)" />
            <path
               id="DejaVuSans-6f"
               d="M 1959 3097  Q 1497 3097 1228 2736  Q 959 2375 959 1747  Q 959 1119 1226 758  Q 1494 397 1959 397  Q 2419 397 2687 759  Q 2956 1122 2956 1747  Q 2956 2369 2687 2733  Q 2419 3097 1959 3097  z M 1959 3584  Q 2709 3584 3137 3096  Q 3566 2609 3566 1747  Q 3566 888 3137 398  Q 2709 -91 1959 -91  Q 1206 -91 779 398  Q 353 888 353 1747  Q 353 2609 779 3096  Q 1206 3584 1959 3584  z "
               transform="scale(0.015625)" />
            <path
               id="DejaVuSans-64"
               d="M 2906 2969  L 2906 4863  L 3481 4863  L 3481 0  L 2906 0  L 2906 525  Q 2725 213 2448 61  Q 2172 -91 1784 -91  Q 1150 -91 751 415  Q 353 922 353 1747  Q 353 2572 751 3078  Q 1150 3584 1784 3584  Q 2172 3584 2448 3432  Q 2725 3281 2906 2969  z M 947 1747  Q 947 1113 1208 752  Q 1469 391 1925 391  Q 2381 391 2643 752  Q 2906 1113 2906 1747  Q 2906 2381 2643 2742  Q 2381 3103 1925 3103  Q 1469 3103 1208 2742  Q 947 2381 947 1747  z "
               transform="scale(0.015625)" />
            <path
               id="DejaVuSans-75"
               d="M 544 1381  L 544 3500  L 1119 3500  L 1119 1403  Q 1119 906 1312 657  Q 1506 409 1894 409  Q 2359 409 2629 706  Q 2900 1003 2900 1516  L 2900 3500  L 3475 3500  L 3475 0  L 2900 0  L 2900 538  Q 2691 219 2414 64  Q 2138 -91 1772 -91  Q 1169 -91 856 284  Q 544 659 544 1381  z M 1991 3584  L 1991 3584  z "
               transform="scale(0.015625)" />
            <path
               id="DejaVuSans-63"
               d="M 3122 3366  L 3122 2828  Q 2878 2963 2633 3030  Q 2388 3097 2138 3097  Q 1578 3097 1268 2742  Q 959 2388 959 1747  Q 959 1106 1268 751  Q 1578 397 2138 397  Q 2388 397 2633 464  Q 2878 531 3122 666  L 3122 134  Q 2881 22 2623 -34  Q 2366 -91 2075 -91  Q 1284 -91 818 406  Q 353 903 353 1747  Q 353 2603 823 3093  Q 1294 3584 2113 3584  Q 2378 3584 2631 3529  Q 2884 3475 3122 3366  z "
               transform="scale(0.015625)" />
          </defs>
          <use
             xlink:href="#DejaVuSans-69"
             id="use32" />
          <use
             xlink:href="#DejaVuSans-6e"
             x="27.783203"
             id="use33" />
          <use
             xlink:href="#DejaVuSans-74"
             x="91.162109"
             id="use34" />
          <use
             xlink:href="#DejaVuSans-72"
             x="130.371094"
             id="use35" />
          <use
             xlink:href="#DejaVuSans-6f"
             x="169.234375"
             id="use36" />
          <use
             xlink:href="#DejaVuSans-64"
             x="230.416016"
             id="use37" />
          <use
             xlink:href="#DejaVuSans-75"
             x="293.892578"
             id="use38" />
          <use
             xlink:href="#DejaVuSans-63"
             x="357.271484"
             id="use39" />
          <use
             xlink:href="#DejaVuSans-74"
             x="412.251953"
             id="use40" />
          <use
             xlink:href="#DejaVuSans-69"
             x="451.460938"
             id="use41" />
          <use
             xlink:href="#DejaVuSans-6f"
             x="479.244141"
             id="use42" />
          <use
             xlink:href="#DejaVuSans-6e"
             x="540.425781"
             id="use43" />
          <use
             xlink:href="#DejaVuSans-20"
             x="603.804688"
             id="use44" />
          <use
             xlink:href="#DejaVuSans-28"
             x="635.591797"
             id="use45" />
          <use
             xlink:href="#DejaVuSans-74"
             x="674.605469"
             id="use46" />
          <use
             xlink:href="#DejaVuSans-3d"
             x="713.814453"
             id="use47" />
          <use
             xlink:href="#DejaVuSans-32"
             x="797.603516"
             id="use48" />
          <use
             xlink:href="#DejaVuSans-2e"
             x="861.226562"
             id="use49" />
          <use
             xlink:href="#DejaVuSans-30"
             x="893.013672"
             id="use50" />
          <use
             xlink:href="#DejaVuSans-73"
             x="956.636719"
             id="use51" />
          <use
             xlink:href="#DejaVuSans-29"
             x="1008.736328"
             id="use52" />
        </g>
      </g>
      <g
         id="text_4">
        <!-- 0.5% -->
        <g
           transform="translate(262.447693 120.841037) scale(0.14 -0.14)"
           id="g56">
          <defs
             id="defs52">
            <path
               id="DejaVuSans-35"
               d="M 691 4666  L 3169 4666  L 3169 4134  L 1269 4134  L 1269 2991  Q 1406 3038 1543 3061  Q 1681 3084 1819 3084  Q 2600 3084 3056 2656  Q 3513 2228 3513 1497  Q 3513 744 3044 326  Q 2575 -91 1722 -91  Q 1428 -91 1123 -41  Q 819 9 494 109  L 494 744  Q 775 591 1075 516  Q 1375 441 1709 441  Q 2250 441 2565 725  Q 2881 1009 2881 1497  Q 2881 1984 2565 2268  Q 2250 2553 1709 2553  Q 1456 2553 1204 2497  Q 953 2441 691 2322  L 691 4666  z "
               transform="scale(0.015625)" />
          </defs>
          <use
             xlink:href="#DejaVuSans-30"
             id="use53" />
          <use
             xlink:href="#DejaVuSans-2e"
             x="63.623047"
             id="use54" />
          <use
             xlink:href="#DejaVuSans-35"
             x="95.410156"
             id="use55" />
          <use
             xlink:href="#DejaVuSans-25"
             x="159.033203"
             id="use56" />
        </g>
      </g>
      <g
         id="text_5">
        <!-- sniffM (t=50.9s) -->
        <g
           transform="translate(111.289832 86.390623) scale(0.14 -0.14)"
           id="g72">
          <defs
             id="defs56">
            <path
               id="DejaVuSans-66"
               d="M 2375 4863  L 2375 4384  L 1825 4384  Q 1516 4384 1395 4259  Q 1275 4134 1275 3809  L 1275 3500  L 2222 3500  L 2222 3053  L 1275 3053  L 1275 0  L 697 0  L 697 3053  L 147 3053  L 147 3500  L 697 3500  L 697 3744  Q 697 4328 969 4595  Q 1241 4863 1831 4863  L 2375 4863  z "
               transform="scale(0.015625)" />
            <path
               id="DejaVuSans-4d"
               d="M 628 4666  L 1569 4666  L 2759 1491  L 3956 4666  L 4897 4666  L 4897 0  L 4281 0  L 4281 4097  L 3078 897  L 2444 897  L 1241 4097  L 1241 0  L 628 0  L 628 4666  z "
               transform="scale(0.015625)" />
            <path
               id="DejaVuSans-39"
               d="M 703 97  L 703 672  Q 941 559 1184 500  Q 1428 441 1663 441  Q 2288 441 2617 861  Q 2947 1281 2994 2138  Q 2813 1869 2534 1725  Q 2256 1581 1919 1581  Q 1219 1581 811 2004  Q 403 2428 403 3163  Q 403 3881 828 4315  Q 1253 4750 1959 4750  Q 2769 4750 3195 4129  Q 3622 3509 3622 2328  Q 3622 1225 3098 567  Q 2575 -91 1691 -91  Q 1453 -91 1209 -44  Q 966 3 703 97  z M 1959 2075  Q 2384 2075 2632 2365  Q 2881 2656 2881 3163  Q 2881 3666 2632 3958  Q 2384 4250 1959 4250  Q 1534 4250 1286 3958  Q 1038 3666 1038 3163  Q 1038 2656 1286 2365  Q 1534 2075 1959 2075  z "
               transform="scale(0.015625)" />
          </defs>
          <use
             xlink:href="#DejaVuSans-73"
             id="use57" />
          <use
             xlink:href="#DejaVuSans-6e"
             x="52.099609"
             id="use58" />
          <use
             xlink:href="#DejaVuSans-69"
             x="115.478516"
             id="use59" />
          <use
             xlink:href="#DejaVuSans-66"
             x="143.261719"
             id="use60" />
          <use
             xlink:href="#DejaVuSans-66"
             x="178.466797"
             id="use61" />
          <use
             xlink:href="#DejaVuSans-4d"
             x="213.671875"
             id="use62" />
          <use
             xlink:href="#DejaVuSans-20"
             x="299.951172"
             id="use63" />
          <use
             xlink:href="#DejaVuSans-28"
             x="331.738281"
             id="use64" />
          <use
             xlink:href="#DejaVuSans-74"
             x="370.751953"
             id="use65" />
          <use
             xlink:href="#DejaVuSans-3d"
             x="409.960938"
             id="use66" />
          <use
             xlink:href="#DejaVuSans-35"
             x="493.75"
             id="use67" />
          <use
             xlink:href="#DejaVuSans-30"
             x="557.373047"
             id="use68" />
          <use
             xlink:href="#DejaVuSans-2e"
             x="620.996094"
             id="use69" />
          <use
             xlink:href="#DejaVuSans-39"
             x="652.783203"
             id="use70" />
          <use
             xlink:href="#DejaVuSans-73"
             x="716.40625"
             id="use71" />
          <use
             xlink:href="#DejaVuSans-29"
             x="768.505859"
             id="use72" />
        </g>
      </g>
      <g
         id="text_6">
        <!-- 12.0% -->
        <g
           transform="translate(234.311968 131.514488) scale(0.14 -0.14)"
           id="g77">
          <use
             xlink:href="#DejaVuSans-31"
             id="use73" />
          <use
             xlink:href="#DejaVuSans-32"
             x="63.623047"
             id="use74" />
          <use
             xlink:href="#DejaVuSans-2e"
             x="127.246094"
             id="use75" />
          <use
             xlink:href="#DejaVuSans-30"
             x="159.033203"
             id="use76" />
          <use
             xlink:href="#DejaVuSans-25"
             x="222.65625"
             id="use77" />
        </g>
      </g>
      <g
         id="text_7">
        <!-- attack (t=41.1s) -->
        <g
           transform="translate(62.568597 153.432308) scale(0.14 -0.14)"
           id="g93">
          <defs
             id="defs77">
            <path
               id="DejaVuSans-6b"
               d="M 581 4863  L 1159 4863  L 1159 1991  L 2875 3500  L 3609 3500  L 1753 1863  L 3688 0  L 2938 0  L 1159 1709  L 1159 0  L 581 0  L 581 4863  z "
               transform="scale(0.015625)" />
          </defs>
          <use
             xlink:href="#DejaVuSans-61"
             id="use78" />
          <use
             xlink:href="#DejaVuSans-74"
             x="61.279297"
             id="use79" />
          <use
             xlink:href="#DejaVuSans-74"
             x="100.488281"
             id="use80" />
          <use
             xlink:href="#DejaVuSans-61"
             x="139.697266"
             id="use81" />
          <use
             xlink:href="#DejaVuSans-63"
             x="200.976562"
             id="use82" />
          <use
             xlink:href="#DejaVuSans-6b"
             x="255.957031"
             id="use83" />
          <use
             xlink:href="#DejaVuSans-20"
             x="313.867188"
             id="use84" />
          <use
             xlink:href="#DejaVuSans-28"
             x="345.654297"
             id="use85" />
          <use
             xlink:href="#DejaVuSans-74"
             x="384.667969"
             id="use86" />
          <use
             xlink:href="#DejaVuSans-3d"
             x="423.876953"
             id="use87" />
          <use
             xlink:href="#DejaVuSans-34"
             x="507.666016"
             id="use88" />
          <use
             xlink:href="#DejaVuSans-31"
             x="571.289062"
             id="use89" />
          <use
             xlink:href="#DejaVuSans-2e"
             x="634.912109"
             id="use90" />
          <use
             xlink:href="#DejaVuSans-31"
             x="666.699219"
             id="use91" />
          <use
             xlink:href="#DejaVuSans-73"
             x="730.322266"
             id="use92" />
          <use
             xlink:href="#DejaVuSans-29"
             x="782.421875"
             id="use93" />
        </g>
      </g>
      <g
         id="text_8">
        <!-- 9.7% -->
        <g
           transform="translate(213.253624 168.08268) scale(0.14 -0.14)"
           id="g97">
          <defs
             id="defs93">
            <path
               id="DejaVuSans-37"
               d="M 525 4666  L 3525 4666  L 3525 4397  L 1831 0  L 1172 0  L 2766 4134  L 525 4134  L 525 4666  z "
               transform="scale(0.015625)" />
          </defs>
          <use
             xlink:href="#DejaVuSans-39"
             id="use94" />
          <use
             xlink:href="#DejaVuSans-2e"
             x="63.623047"
             id="use95" />
          <use
             xlink:href="#DejaVuSans-37"
             x="95.410156"
             id="use96" />
          <use
             xlink:href="#DejaVuSans-25"
             x="159.033203"
             id="use97" />
        </g>
      </g>
      <g
         id="text_9">
        <!-- food_approach (t=6.7s) -->
        <g
           transform="translate(8.089053 196.146292) scale(0.14 -0.14)"
           id="g119">
          <defs
             id="defs97">
            <path
               id="DejaVuSans-5f"
               d="M 3263 -1063  L 3263 -1509  L -63 -1509  L -63 -1063  L 3263 -1063  z "
               transform="scale(0.015625)" />
            <path
               id="DejaVuSans-70"
               d="M 1159 525  L 1159 -1331  L 581 -1331  L 581 3500  L 1159 3500  L 1159 2969  Q 1341 3281 1617 3432  Q 1894 3584 2278 3584  Q 2916 3584 3314 3078  Q 3713 2572 3713 1747  Q 3713 922 3314 415  Q 2916 -91 2278 -91  Q 1894 -91 1617 61  Q 1341 213 1159 525  z M 3116 1747  Q 3116 2381 2855 2742  Q 2594 3103 2138 3103  Q 1681 3103 1420 2742  Q 1159 2381 1159 1747  Q 1159 1113 1420 752  Q 1681 391 2138 391  Q 2594 391 2855 752  Q 3116 1113 3116 1747  z "
               transform="scale(0.015625)" />
            <path
               id="DejaVuSans-68"
               d="M 3513 2113  L 3513 0  L 2938 0  L 2938 2094  Q 2938 2591 2744 2837  Q 2550 3084 2163 3084  Q 1697 3084 1428 2787  Q 1159 2491 1159 1978  L 1159 0  L 581 0  L 581 4863  L 1159 4863  L 1159 2956  Q 1366 3272 1645 3428  Q 1925 3584 2291 3584  Q 2894 3584 3203 3211  Q 3513 2838 3513 2113  z "
               transform="scale(0.015625)" />
            <path
               id="DejaVuSans-36"
               d="M 2113 2584  Q 1688 2584 1439 2293  Q 1191 2003 1191 1497  Q 1191 994 1439 701  Q 1688 409 2113 409  Q 2538 409 2786 701  Q 3034 994 3034 1497  Q 3034 2003 2786 2293  Q 2538 2584 2113 2584  z M 3366 4563  L 3366 3988  Q 3128 4100 2886 4159  Q 2644 4219 2406 4219  Q 1781 4219 1451 3797  Q 1122 3375 1075 2522  Q 1259 2794 1537 2939  Q 1816 3084 2150 3084  Q 2853 3084 3261 2657  Q 3669 2231 3669 1497  Q 3669 778 3244 343  Q 2819 -91 2113 -91  Q 1303 -91 875 529  Q 447 1150 447 2328  Q 447 3434 972 4092  Q 1497 4750 2381 4750  Q 2619 4750 2861 4703  Q 3103 4656 3366 4563  z "
               transform="scale(0.015625)" />
          </defs>
          <use
             xlink:href="#DejaVuSans-66"
             id="use98" />
          <use
             xlink:href="#DejaVuSans-6f"
             x="35.205078"
             id="use99" />
          <use
             xlink:href="#DejaVuSans-6f"
             x="96.386719"
             id="use100" />
          <use
             xlink:href="#DejaVuSans-64"
             x="157.568359"
             id="use101" />
          <use
             xlink:href="#DejaVuSans-5f"
             x="221.044922"
             id="use102" />
          <use
             xlink:href="#DejaVuSans-61"
             x="271.044922"
             id="use103" />
          <use
             xlink:href="#DejaVuSans-70"
             x="332.324219"
             id="use104" />
          <use
             xlink:href="#DejaVuSans-70"
             x="395.800781"
             id="use105" />
          <use
             xlink:href="#DejaVuSans-72"
             x="459.277344"
             id="use106" />
          <use
             xlink:href="#DejaVuSans-6f"
             x="498.140625"
             id="use107" />
          <use
             xlink:href="#DejaVuSans-61"
             x="559.322266"
             id="use108" />
          <use
             xlink:href="#DejaVuSans-63"
             x="620.601562"
             id="use109" />
          <use
             xlink:href="#DejaVuSans-68"
             x="675.582031"
             id="use110" />
          <use
             xlink:href="#DejaVuSans-20"
             x="738.960938"
             id="use111" />
          <use
             xlink:href="#DejaVuSans-28"
             x="770.748047"
             id="use112" />
          <use
             xlink:href="#DejaVuSans-74"
             x="809.761719"
             id="use113" />
          <use
             xlink:href="#DejaVuSans-3d"
             x="848.970703"
             id="use114" />
          <use
             xlink:href="#DejaVuSans-36"
             x="932.759766"
             id="use115" />
          <use
             xlink:href="#DejaVuSans-2e"
             x="996.382812"
             id="use116" />
          <use
             xlink:href="#DejaVuSans-37"
             x="1028.169922"
             id="use117" />
          <use
             xlink:href="#DejaVuSans-73"
             x="1091.792969"
             id="use118" />
          <use
             xlink:href="#DejaVuSans-29"
             x="1143.892578"
             id="use119" />
        </g>
      </g>
      <g
         id="text_10">
        <!-- 1.6% -->
        <g
           transform="translate(211.144157 191.487409) scale(0.14 -0.14)"
           id="g123">
          <use
             xlink:href="#DejaVuSans-31"
             id="use120" />
          <use
             xlink:href="#DejaVuSans-2e"
             x="63.623047"
             id="use121" />
          <use
             xlink:href="#DejaVuSans-36"
             x="95.410156"
             id="use122" />
          <use
             xlink:href="#DejaVuSans-25"
             x="159.033203"
             id="use123" />
        </g>
      </g>
      <g
         id="text_11">
        <!-- food_sniff (t=24.6s) -->
        <g
           transform="translate(40.511055 223.855931) scale(0.14 -0.14)"
           id="g143">
          <use
             xlink:href="#DejaVuSans-66"
             id="use124" />
          <use
             xlink:href="#DejaVuSans-6f"
             x="35.205078"
             id="use125" />
          <use
             xlink:href="#DejaVuSans-6f"
             x="96.386719"
             id="use126" />
          <use
             xlink:href="#DejaVuSans-64"
             x="157.568359"
             id="use127" />
          <use
             xlink:href="#DejaVuSans-5f"
             x="221.044922"
             id="use128" />
          <use
             xlink:href="#DejaVuSans-73"
             x="271.044922"
             id="use129" />
          <use
             xlink:href="#DejaVuSans-6e"
             x="323.144531"
             id="use130" />
          <use
             xlink:href="#DejaVuSans-69"
             x="386.523438"
             id="use131" />
          <use
             xlink:href="#DejaVuSans-66"
             x="414.306641"
             id="use132" />
          <use
             xlink:href="#DejaVuSans-66"
             x="449.511719"
             id="use133" />
          <use
             xlink:href="#DejaVuSans-20"
             x="484.716797"
             id="use134" />
          <use
             xlink:href="#DejaVuSans-28"
             x="516.503906"
             id="use135" />
          <use
             xlink:href="#DejaVuSans-74"
             x="555.517578"
             id="use136" />
          <use
             xlink:href="#DejaVuSans-3d"
             x="594.726562"
             id="use137" />
          <use
             xlink:href="#DejaVuSans-32"
             x="678.515625"
             id="use138" />
          <use
             xlink:href="#DejaVuSans-34"
             x="742.138672"
             id="use139" />
          <use
             xlink:href="#DejaVuSans-2e"
             x="805.761719"
             id="use140" />
          <use
             xlink:href="#DejaVuSans-36"
             x="837.548828"
             id="use141" />
          <use
             xlink:href="#DejaVuSans-73"
             x="901.171875"
             id="use142" />
          <use
             xlink:href="#DejaVuSans-29"
             x="953.271484"
             id="use143" />
        </g>
      </g>
      <g
         id="text_12">
        <!-- 5.8% -->
        <g
           transform="translate(214.26968 206.601758) scale(0.14 -0.14)"
           id="g147">
          <use
             xlink:href="#DejaVuSans-35"
             id="use144" />
          <use
             xlink:href="#DejaVuSans-2e"
             x="63.623047"
             id="use145" />
          <use
             xlink:href="#DejaVuSans-38"
             x="95.410156"
             id="use146" />
          <use
             xlink:href="#DejaVuSans-25"
             x="159.033203"
             id="use147" />
        </g>
      </g>
      <g
         id="text_13">
        <!-- eating (t=177.6s) -->
        <g
           transform="translate(325.548006 303.795219) scale(0.14 -0.14)"
           id="g164">
          <defs
             id="defs147">
            <path
               id="DejaVuSans-67"
               d="M 2906 1791  Q 2906 2416 2648 2759  Q 2391 3103 1925 3103  Q 1463 3103 1205 2759  Q 947 2416 947 1791  Q 947 1169 1205 825  Q 1463 481 1925 481  Q 2391 481 2648 825  Q 2906 1169 2906 1791  z M 3481 434  Q 3481 -459 3084 -895  Q 2688 -1331 1869 -1331  Q 1566 -1331 1297 -1286  Q 1028 -1241 775 -1147  L 775 -588  Q 1028 -725 1275 -790  Q 1522 -856 1778 -856  Q 2344 -856 2625 -561  Q 2906 -266 2906 331  L 2906 616  Q 2728 306 2450 153  Q 2172 0 1784 0  Q 1141 0 747 490  Q 353 981 353 1791  Q 353 2603 747 3093  Q 1141 3584 1784 3584  Q 2172 3584 2450 3431  Q 2728 3278 2906 2969  L 2906 3500  L 3481 3500  L 3481 434  z "
               transform="scale(0.015625)" />
          </defs>
          <use
             xlink:href="#DejaVuSans-65"
             id="use148" />
          <use
             xlink:href="#DejaVuSans-61"
             x="61.523438"
             id="use149" />
          <use
             xlink:href="#DejaVuSans-74"
             x="122.802734"
             id="use150" />
          <use
             xlink:href="#DejaVuSans-69"
             x="162.011719"
             id="use151" />
          <use
             xlink:href="#DejaVuSans-6e"
             x="189.794922"
             id="use152" />
          <use
             xlink:href="#DejaVuSans-67"
             x="253.173828"
             id="use153" />
          <use
             xlink:href="#DejaVuSans-20"
             x="316.650391"
             id="use154" />
          <use
             xlink:href="#DejaVuSans-28"
             x="348.4375"
             id="use155" />
          <use
             xlink:href="#DejaVuSans-74"
             x="387.451172"
             id="use156" />
          <use
             xlink:href="#DejaVuSans-3d"
             x="426.660156"
             id="use157" />
          <use
             xlink:href="#DejaVuSans-31"
             x="510.449219"
             id="use158" />
          <use
             xlink:href="#DejaVuSans-37"
             x="574.072266"
             id="use159" />
          <use
             xlink:href="#DejaVuSans-37"
             x="637.695312"
             id="use160" />
          <use
             xlink:href="#DejaVuSans-2e"
             x="701.318359"
             id="use161" />
          <use
             xlink:href="#DejaVuSans-36"
             x="733.105469"
             id="use162" />
          <use
             xlink:href="#DejaVuSans-73"
             x="796.728516"
             id="use163" />
          <use
             xlink:href="#DejaVuSans-29"
             x="848.828125"
             id="use164" />
        </g>
      </g>
      <g
         id="text_14">
        <!-- 42.0% -->
        <g
           transform="translate(289.516427 250.098812) scale(0.14 -0.14)"
           id="g169">
          <use
             xlink:href="#DejaVuSans-34"
             id="use165" />
          <use
             xlink:href="#DejaVuSans-32"
             x="63.623047"
             id="use166" />
          <use
             xlink:href="#DejaVuSans-2e"
             x="127.246094"
             id="use167" />
          <use
             xlink:href="#DejaVuSans-30"
             x="159.033203"
             id="use168" />
          <use
             xlink:href="#DejaVuSans-25"
             x="222.65625"
             id="use169" />
        </g>
      </g>
      <g
         id="text_15">
        <!-- M1 -->
        <g
           transform="translate(280.209375 37.2) scale(0.2 -0.2)"
           id="g171">
          <use
             xlink:href="#DejaVuSans-4d"
             id="use170" />
          <use
             xlink:href="#DejaVuSans-31"
             x="86.279297"
             id="use171" />
        </g>
      </g>
    </g>
  </g>
</svg>
