<?xml version="1.0" encoding="utf-8" standalone="no"?>
<!DOCTYPE svg PUBLIC "-//W3C//DTD SVG 1.1//EN"
  "http://www.w3.org/Graphics/SVG/1.1/DTD/svg11.dtd">
<svg xmlns:xlink="http://www.w3.org/1999/xlink" width="504pt" height="216pt" viewBox="0 0 504 216" xmlns="http://www.w3.org/2000/svg" version="1.1">
 <metadata>
  <rdf:RDF xmlns:dc="http://purl.org/dc/elements/1.1/" xmlns:cc="http://creativecommons.org/ns#" xmlns:rdf="http://www.w3.org/1999/02/22-rdf-syntax-ns#">
   <cc:Work>
    <dc:type rdf:resource="http://purl.org/dc/dcmitype/StillImage"/>
    <dc:date>2023-12-03T20:10:15.146182</dc:date>
    <dc:format>image/svg+xml</dc:format>
    <dc:creator>
     <cc:Agent>
      <dc:title>Matplotlib v3.8.0, https://matplotlib.org/</dc:title>
     </cc:Agent>
    </dc:creator>
   </cc:Work>
  </rdf:RDF>
 </metadata>
 <defs>
  <style type="text/css">*{stroke-linejoin: round; stroke-linecap: butt}</style>
 </defs>
 <g id="figure_1">
  <g id="patch_1">
   <path d="M 0 216 
L 504 216 
L 504 0 
L 0 0 
z
" style="fill: #ffffff"/>
  </g>
  <g id="axes_1">
   <g id="patch_2">
    <path d="M 71.350928 149.1 
L 484.56 149.1 
L 484.56 19.44 
L 71.350928 19.44 
z
" style="fill: #ffffff"/>
   </g>
   <g id="matplotlib.axis_1">
    <g id="xtick_1">
     <g id="text_1">
      <!-- 0 -->
      <g style="fill: #262626" transform="translate(85.545385 173.410391) scale(0.165 -0.165)">
       <defs>
        <path id="ArialMT-30" d="M 266 2259 
Q 266 3072 433 3567 
Q 600 4063 929 4331 
Q 1259 4600 1759 4600 
Q 2128 4600 2406 4451 
Q 2684 4303 2865 4023 
Q 3047 3744 3150 3342 
Q 3253 2941 3253 2259 
Q 3253 1453 3087 958 
Q 2922 463 2592 192 
Q 2263 -78 1759 -78 
Q 1097 -78 719 397 
Q 266 969 266 2259 
z
M 844 2259 
Q 844 1131 1108 757 
Q 1372 384 1759 384 
Q 2147 384 2411 759 
Q 2675 1134 2675 2259 
Q 2675 3391 2411 3762 
Q 2147 4134 1753 4134 
Q 1366 4134 1134 3806 
Q 844 3388 844 2259 
z
" transform="scale(0.015625)"/>
       </defs>
       <use xlink:href="#ArialMT-30"/>
      </g>
     </g>
    </g>
    <g id="xtick_2">
     <g id="text_2">
      <!-- 1000 -->
      <g style="fill: #262626" transform="translate(130.55919 173.410391) scale(0.165 -0.165)">
       <defs>
        <path id="ArialMT-31" d="M 2384 0 
L 1822 0 
L 1822 3584 
Q 1619 3391 1289 3197 
Q 959 3003 697 2906 
L 697 3450 
Q 1169 3672 1522 3987 
Q 1875 4303 2022 4600 
L 2384 4600 
L 2384 0 
z
" transform="scale(0.015625)"/>
       </defs>
       <use xlink:href="#ArialMT-31"/>
       <use xlink:href="#ArialMT-30" x="55.615234"/>
       <use xlink:href="#ArialMT-30" x="111.230469"/>
       <use xlink:href="#ArialMT-30" x="166.845703"/>
      </g>
     </g>
    </g>
    <g id="xtick_3">
     <g id="text_3">
      <!-- 2000 -->
      <g style="fill: #262626" transform="translate(189.336316 173.410391) scale(0.165 -0.165)">
       <defs>
        <path id="ArialMT-32" d="M 3222 541 
L 3222 0 
L 194 0 
Q 188 203 259 391 
Q 375 700 629 1000 
Q 884 1300 1366 1694 
Q 2113 2306 2375 2664 
Q 2638 3022 2638 3341 
Q 2638 3675 2398 3904 
Q 2159 4134 1775 4134 
Q 1369 4134 1125 3890 
Q 881 3647 878 3216 
L 300 3275 
Q 359 3922 746 4261 
Q 1134 4600 1788 4600 
Q 2447 4600 2831 4234 
Q 3216 3869 3216 3328 
Q 3216 3053 3103 2787 
Q 2991 2522 2730 2228 
Q 2469 1934 1863 1422 
Q 1356 997 1212 845 
Q 1069 694 975 541 
L 3222 541 
z
" transform="scale(0.015625)"/>
       </defs>
       <use xlink:href="#ArialMT-32"/>
       <use xlink:href="#ArialMT-30" x="55.615234"/>
       <use xlink:href="#ArialMT-30" x="111.230469"/>
       <use xlink:href="#ArialMT-30" x="166.845703"/>
      </g>
     </g>
    </g>
    <g id="xtick_4">
     <g id="text_4">
      <!-- 3000 -->
      <g style="fill: #262626" transform="translate(248.113442 173.410391) scale(0.165 -0.165)">
       <defs>
        <path id="ArialMT-33" d="M 269 1209 
L 831 1284 
Q 928 806 1161 595 
Q 1394 384 1728 384 
Q 2125 384 2398 659 
Q 2672 934 2672 1341 
Q 2672 1728 2419 1979 
Q 2166 2231 1775 2231 
Q 1616 2231 1378 2169 
L 1441 2663 
Q 1497 2656 1531 2656 
Q 1891 2656 2178 2843 
Q 2466 3031 2466 3422 
Q 2466 3731 2256 3934 
Q 2047 4138 1716 4138 
Q 1388 4138 1169 3931 
Q 950 3725 888 3313 
L 325 3413 
Q 428 3978 793 4289 
Q 1159 4600 1703 4600 
Q 2078 4600 2393 4439 
Q 2709 4278 2876 4000 
Q 3044 3722 3044 3409 
Q 3044 3113 2884 2869 
Q 2725 2625 2413 2481 
Q 2819 2388 3044 2092 
Q 3269 1797 3269 1353 
Q 3269 753 2831 336 
Q 2394 -81 1725 -81 
Q 1122 -81 723 278 
Q 325 638 269 1209 
z
" transform="scale(0.015625)"/>
       </defs>
       <use xlink:href="#ArialMT-33"/>
       <use xlink:href="#ArialMT-30" x="55.615234"/>
       <use xlink:href="#ArialMT-30" x="111.230469"/>
       <use xlink:href="#ArialMT-30" x="166.845703"/>
      </g>
     </g>
    </g>
    <g id="xtick_5">
     <g id="text_5">
      <!-- 4000 -->
      <g style="fill: #262626" transform="translate(306.890568 173.410391) scale(0.165 -0.165)">
       <defs>
        <path id="ArialMT-34" d="M 2069 0 
L 2069 1097 
L 81 1097 
L 81 1613 
L 2172 4581 
L 2631 4581 
L 2631 1613 
L 3250 1613 
L 3250 1097 
L 2631 1097 
L 2631 0 
L 2069 0 
z
M 2069 1613 
L 2069 3678 
L 634 1613 
L 2069 1613 
z
" transform="scale(0.015625)"/>
       </defs>
       <use xlink:href="#ArialMT-34"/>
       <use xlink:href="#ArialMT-30" x="55.615234"/>
       <use xlink:href="#ArialMT-30" x="111.230469"/>
       <use xlink:href="#ArialMT-30" x="166.845703"/>
      </g>
     </g>
    </g>
    <g id="xtick_6">
     <g id="text_6">
      <!-- 5000 -->
      <g style="fill: #262626" transform="translate(365.667694 173.410391) scale(0.165 -0.165)">
       <defs>
        <path id="ArialMT-35" d="M 266 1200 
L 856 1250 
Q 922 819 1161 601 
Q 1400 384 1738 384 
Q 2144 384 2425 690 
Q 2706 997 2706 1503 
Q 2706 1984 2436 2262 
Q 2166 2541 1728 2541 
Q 1456 2541 1237 2417 
Q 1019 2294 894 2097 
L 366 2166 
L 809 4519 
L 3088 4519 
L 3088 3981 
L 1259 3981 
L 1013 2750 
Q 1425 3038 1878 3038 
Q 2478 3038 2890 2622 
Q 3303 2206 3303 1553 
Q 3303 931 2941 478 
Q 2500 -78 1738 -78 
Q 1113 -78 717 272 
Q 322 622 266 1200 
z
" transform="scale(0.015625)"/>
       </defs>
       <use xlink:href="#ArialMT-35"/>
       <use xlink:href="#ArialMT-30" x="55.615234"/>
       <use xlink:href="#ArialMT-30" x="111.230469"/>
       <use xlink:href="#ArialMT-30" x="166.845703"/>
      </g>
     </g>
    </g>
    <g id="xtick_7">
     <g id="text_7">
      <!-- 6000 -->
      <g style="fill: #262626" transform="translate(424.444819 173.410391) scale(0.165 -0.165)">
       <defs>
        <path id="ArialMT-36" d="M 3184 3459 
L 2625 3416 
Q 2550 3747 2413 3897 
Q 2184 4138 1850 4138 
Q 1581 4138 1378 3988 
Q 1113 3794 959 3422 
Q 806 3050 800 2363 
Q 1003 2672 1297 2822 
Q 1591 2972 1913 2972 
Q 2475 2972 2870 2558 
Q 3266 2144 3266 1488 
Q 3266 1056 3080 686 
Q 2894 316 2569 119 
Q 2244 -78 1831 -78 
Q 1128 -78 684 439 
Q 241 956 241 2144 
Q 241 3472 731 4075 
Q 1159 4600 1884 4600 
Q 2425 4600 2770 4297 
Q 3116 3994 3184 3459 
z
M 888 1484 
Q 888 1194 1011 928 
Q 1134 663 1356 523 
Q 1578 384 1822 384 
Q 2178 384 2434 671 
Q 2691 959 2691 1453 
Q 2691 1928 2437 2201 
Q 2184 2475 1800 2475 
Q 1419 2475 1153 2201 
Q 888 1928 888 1484 
z
" transform="scale(0.015625)"/>
       </defs>
       <use xlink:href="#ArialMT-36"/>
       <use xlink:href="#ArialMT-30" x="55.615234"/>
       <use xlink:href="#ArialMT-30" x="111.230469"/>
       <use xlink:href="#ArialMT-30" x="166.845703"/>
      </g>
     </g>
    </g>
    <g id="text_8">
     <!-- Index -->
     <g style="fill: #262626" transform="translate(255.94062 193.573828) scale(0.18 -0.18)">
      <defs>
       <path id="ArialMT-49" d="M 597 0 
L 597 4581 
L 1203 4581 
L 1203 0 
L 597 0 
z
" transform="scale(0.015625)"/>
       <path id="ArialMT-6e" d="M 422 0 
L 422 3319 
L 928 3319 
L 928 2847 
Q 1294 3394 1984 3394 
Q 2284 3394 2536 3286 
Q 2788 3178 2913 3003 
Q 3038 2828 3088 2588 
Q 3119 2431 3119 2041 
L 3119 0 
L 2556 0 
L 2556 2019 
Q 2556 2363 2490 2533 
Q 2425 2703 2258 2804 
Q 2091 2906 1866 2906 
Q 1506 2906 1245 2678 
Q 984 2450 984 1813 
L 984 0 
L 422 0 
z
" transform="scale(0.015625)"/>
       <path id="ArialMT-64" d="M 2575 0 
L 2575 419 
Q 2259 -75 1647 -75 
Q 1250 -75 917 144 
Q 584 363 401 755 
Q 219 1147 219 1656 
Q 219 2153 384 2558 
Q 550 2963 881 3178 
Q 1213 3394 1622 3394 
Q 1922 3394 2156 3267 
Q 2391 3141 2538 2938 
L 2538 4581 
L 3097 4581 
L 3097 0 
L 2575 0 
z
M 797 1656 
Q 797 1019 1065 703 
Q 1334 388 1700 388 
Q 2069 388 2326 689 
Q 2584 991 2584 1609 
Q 2584 2291 2321 2609 
Q 2059 2928 1675 2928 
Q 1300 2928 1048 2622 
Q 797 2316 797 1656 
z
" transform="scale(0.015625)"/>
       <path id="ArialMT-65" d="M 2694 1069 
L 3275 997 
Q 3138 488 2766 206 
Q 2394 -75 1816 -75 
Q 1088 -75 661 373 
Q 234 822 234 1631 
Q 234 2469 665 2931 
Q 1097 3394 1784 3394 
Q 2450 3394 2872 2941 
Q 3294 2488 3294 1666 
Q 3294 1616 3291 1516 
L 816 1516 
Q 847 969 1125 678 
Q 1403 388 1819 388 
Q 2128 388 2347 550 
Q 2566 713 2694 1069 
z
M 847 1978 
L 2700 1978 
Q 2663 2397 2488 2606 
Q 2219 2931 1791 2931 
Q 1403 2931 1139 2672 
Q 875 2413 847 1978 
z
" transform="scale(0.015625)"/>
       <path id="ArialMT-78" d="M 47 0 
L 1259 1725 
L 138 3319 
L 841 3319 
L 1350 2541 
Q 1494 2319 1581 2169 
Q 1719 2375 1834 2534 
L 2394 3319 
L 3066 3319 
L 1919 1756 
L 3153 0 
L 2463 0 
L 1781 1031 
L 1600 1309 
L 728 0 
L 47 0 
z
" transform="scale(0.015625)"/>
      </defs>
      <use xlink:href="#ArialMT-49"/>
      <use xlink:href="#ArialMT-6e" x="27.783203"/>
      <use xlink:href="#ArialMT-64" x="83.398438"/>
      <use xlink:href="#ArialMT-65" x="139.013672"/>
      <use xlink:href="#ArialMT-78" x="194.628906"/>
     </g>
    </g>
   </g>
   <g id="matplotlib.axis_2"/>
   <g id="line2d_1">
    <path d="M 90.133158 125.852738 
L 90.191935 125.884394 
L 90.368267 126.484611 
L 90.603375 127.975219 
L 90.72093 128.465287 
L 91.132369 132.132509 
L 91.308701 132.637301 
L 91.426255 132.910375 
L 91.543809 133.75156 
L 91.602586 133.697581 
L 91.778918 134.704015 
L 91.837695 135.091282 
L 91.896472 134.991498 
L 91.955249 135.013327 
L 92.014026 134.631762 
L 92.072803 134.795072 
L 92.131581 134.683245 
L 92.307912 133.442602 
L 92.366689 133.201605 
L 92.425466 133.350537 
L 92.484243 133.407004 
L 92.660575 134.296509 
L 92.719352 133.699994 
L 92.778129 133.882403 
L 92.836906 133.81072 
L 93.072015 134.500898 
L 93.130792 134.311841 
L 93.307123 135.24467 
L 93.483454 136.109629 
L 93.601009 135.684747 
L 93.953671 133.522016 
L 94.071226 132.361287 
L 94.247557 131.463913 
L 94.306334 131.651749 
L 94.365111 131.462646 
L 94.423888 131.575923 
L 94.60022 131.352431 
L 94.717774 131.56403 
L 95.305545 134.771207 
L 95.364322 134.706653 
L 95.540654 134.649626 
L 95.599431 134.741102 
L 95.775762 135.755477 
L 95.834539 135.726459 
L 96.128425 137.062033 
L 96.187202 136.710216 
L 96.304757 136.655708 
L 96.363534 136.388308 
L 96.422311 136.476454 
L 96.539865 136.594286 
L 96.774974 137.292955 
L 97.010082 137.86258 
L 97.068859 137.620321 
L 97.480299 138.915478 
L 97.891739 139.940828 
L 98.009293 139.790002 
L 98.06807 139.877801 
L 98.185625 140.00199 
L 98.244402 140.425024 
L 98.303179 140.115955 
L 98.361956 140.305762 
L 98.47951 139.944702 
L 99.008504 141.232741 
L 99.067281 141.145069 
L 99.655053 139.216534 
L 99.948938 137.760047 
L 100.12527 137.729349 
L 100.360378 136.182745 
L 100.713041 135.789513 
L 100.771818 135.506394 
L 100.830595 135.690692 
L 100.889372 135.916008 
L 101.006927 135.596996 
L 101.065704 135.726807 
L 101.124481 135.665759 
L 101.183258 135.464768 
L 101.594698 136.991568 
L 101.653475 136.841805 
L 101.947361 137.858784 
L 102.006138 138.45591 
L 102.064915 138.090566 
L 102.123692 138.124253 
L 102.182469 138.009502 
L 102.241246 138.079974 
L 102.300023 138.295577 
L 102.3588 138.143441 
L 102.417578 137.979058 
L 102.476355 138.28298 
L 102.535132 138.002739 
L 102.711463 138.682138 
L 102.887795 138.11838 
L 102.946572 138.000302 
L 103.005349 138.146282 
L 103.064126 138.04879 
L 103.358012 136.836972 
L 103.475566 136.25655 
L 103.534343 136.771996 
L 103.59312 136.552687 
L 103.887006 135.096203 
L 104.00456 135.199491 
L 104.180891 134.658027 
L 104.298446 134.879144 
L 104.357223 134.698676 
L 104.416 134.749959 
L 104.651108 136.09433 
L 104.886217 135.503974 
L 105.062548 136.052516 
L 105.356434 134.826154 
L 105.473988 134.309939 
L 105.65032 133.744998 
L 105.767874 134.348869 
L 105.826651 134.080209 
L 105.885428 133.894088 
L 106.179314 135.784612 
L 106.296868 134.758982 
L 106.355645 134.809642 
L 106.825862 136.206577 
L 107.002193 135.105159 
L 107.060971 135.171414 
L 107.119748 135.04076 
L 107.354856 133.336777 
L 107.531188 135.768876 
L 107.589965 135.628391 
L 107.766296 136.265448 
L 107.825073 136.1552 
L 107.88385 135.743739 
L 107.942627 135.87559 
L 108.001405 135.873021 
L 108.177736 136.531386 
L 108.412844 135.027354 
L 108.530399 135.050081 
L 108.765507 134.393783 
L 109.294501 129.626703 
L 109.52961 128.888516 
L 109.588387 129.203044 
L 109.764718 128.740308 
L 109.882273 128.131786 
L 109.94105 128.24284 
L 109.999827 128.64287 
L 110.058604 128.446197 
L 110.117381 128.503992 
L 110.470044 130.182566 
L 110.528821 130.174403 
L 110.763929 130.64883 
L 110.822707 131.116127 
L 110.881484 130.871227 
L 111.175369 131.67882 
L 111.410478 133.118788 
L 111.469255 133.13935 
L 111.586809 133.793925 
L 111.821918 134.606121 
L 111.939472 134.995097 
L 111.998249 134.896021 
L 112.115803 135.589188 
L 112.17458 135.564724 
L 112.233358 135.814982 
L 112.292135 135.639302 
L 112.350912 135.679555 
L 112.527243 136.648235 
L 112.58602 136.435445 
L 112.644797 136.599833 
L 112.703575 136.627084 
L 112.821129 135.884331 
L 112.879906 135.987707 
L 113.056237 135.851713 
L 113.115014 135.783925 
L 113.173792 136.163635 
L 113.232569 135.749009 
L 113.291346 135.886682 
L 113.350123 136.277789 
L 113.4089 136.086946 
L 113.467677 136.077203 
L 113.702786 135.334413 
L 114.055449 136.437322 
L 114.349334 134.702215 
L 114.408111 134.999508 
L 114.525666 134.87398 
L 114.64322 134.895543 
L 114.819551 135.315969 
L 114.878328 135.365586 
L 114.995883 134.35598 
L 115.230991 131.518031 
L 115.4661 132.680785 
L 115.524877 132.635951 
L 115.701208 132.270151 
L 115.818762 133.223785 
L 115.877539 133.136886 
L 115.936317 132.951143 
L 116.465311 136.82434 
L 116.700419 138.427609 
L 116.935528 138.700321 
L 116.994305 137.979992 
L 117.053082 138.123648 
L 117.111859 138.16794 
L 117.170636 137.737788 
L 117.229413 137.750703 
L 117.346968 137.767864 
L 117.582076 138.463311 
L 117.817185 136.88796 
L 118.11107 134.470176 
L 118.169847 134.917181 
L 118.228624 134.821842 
L 118.404956 134.524671 
L 118.463733 134.201116 
L 118.52251 134.297769 
L 118.581287 134.303957 
L 119.051504 137.740293 
L 119.227836 139.737455 
L 119.75683 141.707287 
L 119.874384 141.048273 
L 119.933161 141.170966 
L 119.991938 141.161758 
L 120.285824 138.040973 
L 120.462155 136.656744 
L 120.697264 134.462619 
L 120.814818 134.794674 
L 121.167481 133.461808 
L 121.402589 135.32597 
L 121.696475 137.434578 
L 121.931583 138.844519 
L 121.99036 138.588538 
L 122.049138 138.620808 
L 122.107915 138.63181 
L 122.166692 138.515128 
L 122.4018 139.052637 
L 122.519355 139.272371 
L 122.695686 138.459881 
L 122.81324 138.572489 
L 123.048349 139.499485 
L 123.107126 139.48823 
L 123.577343 141.373659 
L 123.63612 141.270015 
L 123.694897 141.140122 
L 123.753674 141.206286 
L 123.812451 141.227729 
L 123.871229 141.481765 
L 124.223891 137.019267 
L 124.282668 136.964792 
L 124.576554 136.20322 
L 124.635331 136.616031 
L 124.694108 136.465567 
L 124.929217 137.262646 
L 125.046771 138.425372 
L 125.28188 141.686948 
L 125.340657 141.595931 
L 125.516988 139.991433 
L 125.575765 140.2046 
L 125.987205 138.363406 
L 126.045982 138.528996 
L 126.104759 138.335288 
L 126.516199 132.931221 
L 126.574976 133.715783 
L 126.633753 134.661441 
L 126.692531 134.635564 
L 126.751308 134.493941 
L 126.986416 135.866683 
L 127.221525 137.285315 
L 127.456633 139.715112 
L 127.750519 143.206364 
L 127.92685 143.013446 
L 127.985627 142.997345 
L 128.514621 137.652376 
L 128.808507 136.029602 
L 129.102393 135.281491 
L 129.219947 135.888337 
L 129.278724 135.610337 
L 129.337501 135.834746 
L 129.690164 137.337691 
L 129.748941 137.081269 
L 129.925272 135.745281 
L 129.98405 135.813931 
L 130.042827 135.678557 
L 130.101604 135.73629 
L 130.219158 136.218766 
L 130.277935 136.186955 
L 130.336712 135.719393 
L 130.395489 135.973368 
L 130.454267 136.322325 
L 130.513044 136.224751 
L 130.571821 135.966477 
L 131.218369 138.279076 
L 131.277146 138.153311 
L 131.335923 138.260786 
L 131.394701 138.291759 
L 131.453478 138.157575 
L 131.629809 138.326261 
L 131.688586 138.214881 
L 131.806141 138.394444 
L 132.100026 137.955882 
L 132.276358 138.565826 
L 132.746575 139.625358 
L 132.981683 137.804453 
L 133.216792 136.032202 
L 133.275569 136.322986 
L 133.393123 136.006633 
L 133.510677 135.585698 
L 133.687009 134.790349 
L 133.922117 133.773591 
L 134.098448 135.671368 
L 134.333557 138.356935 
L 134.451111 138.596802 
L 134.509888 138.390708 
L 134.568665 138.409595 
L 134.68622 138.980212 
L 134.862551 139.773459 
L 134.921328 139.908569 
L 135.09766 140.902975 
L 135.273991 140.423236 
L 135.332768 140.154365 
L 135.391545 140.304173 
L 135.626654 139.63281 
L 135.744208 140.497165 
L 135.802985 140.355222 
L 135.920539 139.404527 
L 136.038094 139.656417 
L 136.273202 139.781126 
L 136.449533 140.288196 
L 136.508311 140.310847 
L 136.567088 140.014772 
L 136.625865 140.249372 
L 136.743419 140.612967 
L 136.860973 141.195574 
L 136.91975 141.185386 
L 137.448745 142.622739 
L 137.566299 142.442842 
L 137.801407 140.305452 
L 138.212847 138.093342 
L 138.800618 129.713743 
L 138.859396 129.781315 
L 138.97695 129.625922 
L 139.447167 132.046728 
L 139.917384 137.178326 
L 140.152492 137.818116 
L 140.328824 136.805047 
L 140.446378 136.171537 
L 140.505155 136.248533 
L 140.563932 136.359559 
L 140.857818 135.466024 
L 140.916595 135.502727 
L 140.975372 135.173681 
L 141.445589 137.891734 
L 141.680698 137.666167 
L 141.798252 137.948029 
L 141.974583 138.403658 
L 142.03336 138.314407 
L 142.268469 138.94034 
L 142.503577 137.66168 
L 142.621132 137.980427 
L 142.738686 138.164243 
L 142.797463 138.082443 
L 142.915017 137.886253 
L 143.032572 137.645124 
L 143.091349 137.842373 
L 143.150126 137.788806 
L 143.208903 137.552874 
L 143.26768 137.764168 
L 143.385234 137.501162 
L 143.444011 137.606474 
L 143.561566 138.092321 
L 143.855451 137.1879 
L 144.208114 139.136277 
L 144.266891 138.933615 
L 144.325668 138.971751 
L 144.384445 139.291043 
L 144.502 138.821063 
L 145.030994 142.284614 
L 145.207325 141.777884 
L 145.383657 141.236788 
L 145.442434 141.564951 
L 145.501211 141.446955 
L 145.559988 141.382451 
L 145.618765 141.902756 
L 145.677542 141.719426 
L 146.030205 139.266006 
L 146.206536 139.188268 
L 146.265313 139.158499 
L 146.559199 140.260355 
L 146.794308 138.941124 
L 146.853085 138.973108 
L 146.911862 139.102868 
L 147.088193 139.792995 
L 147.264525 140.263426 
L 147.323302 139.833666 
L 147.382079 139.891428 
L 147.440856 140.009719 
L 147.734742 138.545718 
L 147.852296 138.644291 
L 147.911073 139.055319 
L 147.96985 138.846052 
L 148.204959 138.351959 
L 148.675176 135.400888 
L 148.733953 135.795683 
L 148.79273 135.735656 
L 148.851507 135.794753 
L 148.969061 136.373269 
L 149.262947 135.530838 
L 149.439278 135.751369 
L 149.556833 136.324606 
L 149.674387 135.492916 
L 149.733164 135.778061 
L 149.791941 135.784912 
L 149.850718 135.545741 
L 150.085827 133.625151 
L 150.379712 134.031951 
L 150.791152 136.317013 
L 151.026261 138.417626 
L 151.261369 138.992561 
L 151.378923 138.929481 
L 151.437701 139.079945 
L 151.496478 138.949075 
L 151.907918 136.415866 
L 152.26058 134.037195 
L 152.319357 133.939263 
L 152.378135 134.01165 
L 152.730797 136.883797 
L 152.848352 137.037322 
L 153.436123 139.626532 
L 153.553677 140.631395 
L 153.90634 137.158305 
L 153.965117 137.067086 
L 154.023894 137.148616 
L 154.200225 137.384643 
L 154.259003 137.365511 
L 154.435334 136.392364 
L 154.494111 136.460321 
L 154.611665 135.81821 
L 154.72922 134.753895 
L 154.787997 134.905667 
L 154.905551 135.25115 
L 154.964328 135.554536 
L 155.023105 135.40626 
L 155.199437 135.786968 
L 155.258214 135.287577 
L 155.316991 135.472365 
L 155.375768 135.68212 
L 155.493322 135.100189 
L 155.610876 135.498099 
L 155.728431 135.296051 
L 156.433756 137.863289 
L 156.55131 137.38294 
L 156.610088 137.60686 
L 156.727642 137.95048 
L 156.786419 137.870103 
L 156.96275 138.237375 
L 157.080305 137.539994 
L 157.37419 135.550189 
L 157.432967 135.439547 
L 157.726853 133.93957 
L 157.78563 133.942202 
L 158.020739 134.815298 
L 158.19707 135.627652 
L 158.255847 135.36887 
L 158.314624 135.581178 
L 158.373401 135.583781 
L 158.902396 137.737104 
L 159.078727 137.050582 
L 159.372613 135.283605 
L 159.43139 135.671322 
L 159.490167 135.442065 
L 159.607721 135.234036 
L 159.725275 135.451086 
L 159.901607 135.259845 
L 160.019161 135.644942 
L 160.077938 135.640156 
L 160.136715 135.806018 
L 160.195492 135.681589 
L 160.254269 135.752964 
L 160.489378 136.631926 
L 160.548155 136.650994 
L 160.724486 137.494117 
L 160.783264 137.281725 
L 160.959595 136.814512 
L 161.077149 137.066447 
L 161.135926 137.001631 
L 161.194703 136.970674 
L 161.312258 137.938421 
L 161.429812 138.850801 
L 161.547366 138.723649 
L 161.66492 139.033061 
L 162.135137 141.34892 
L 162.311469 141.251828 
L 162.429023 141.295892 
L 162.722909 139.785999 
L 162.89924 139.220398 
L 162.958017 139.25367 
L 163.251903 137.521703 
L 163.369457 137.484051 
L 163.780897 136.046867 
L 163.957228 136.251202 
L 164.13356 135.45844 
L 164.251114 135.966009 
L 164.486222 135.142993 
L 164.545 135.106177 
L 164.662554 134.734143 
L 164.721331 135.04775 
L 164.780108 134.801877 
L 164.838885 134.8451 
L 165.015217 135.991064 
L 165.073994 135.907556 
L 165.191548 136.332617 
L 165.426656 135.865317 
L 165.602988 136.253491 
L 165.838096 136.536983 
L 165.896873 136.589971 
L 166.131982 137.61577 
L 166.190759 137.585187 
L 166.249536 137.544619 
L 166.660976 134.779745 
L 166.837307 134.514778 
L 166.896085 134.512943 
L 166.954862 134.871068 
L 167.013639 134.821941 
L 167.072416 134.888524 
L 167.248747 134.227569 
L 167.366302 133.774832 
L 167.895296 137.484436 
L 168.189181 136.367181 
L 168.600621 133.485467 
L 168.659398 133.431722 
L 168.953284 129.802456 
L 169.012061 129.865806 
L 169.24717 131.095102 
L 169.364724 131.025019 
L 169.541055 132.110566 
L 169.599832 132.051578 
L 169.65861 132.039919 
L 169.834941 131.651399 
L 169.952495 132.334011 
L 170.187604 134.118672 
L 170.481489 132.968604 
L 170.599044 132.101617 
L 170.834152 129.906357 
L 170.892929 129.795813 
L 171.598255 124.512471 
L 171.774586 125.004393 
L 171.950917 126.716119 
L 172.009695 126.745467 
L 172.068472 126.570323 
L 172.244803 127.266052 
L 172.30358 127.04885 
L 172.421134 128.200839 
L 173.067683 123.431593 
L 173.12646 123.737886 
L 173.420346 124.925911 
L 173.479123 124.956635 
L 173.714231 126.319871 
L 173.773008 126.11642 
L 173.831785 126.07854 
L 173.890563 125.842708 
L 174.008117 126.558087 
L 174.125671 126.366028 
L 174.184448 126.569537 
L 174.243225 126.512428 
L 174.36078 125.112523 
L 175.066105 113.989019 
L 175.477545 108.554488 
L 175.712653 109.649218 
L 175.771431 109.644122 
L 175.830208 109.461154 
L 176.006539 107.832792 
L 176.182871 108.614118 
L 176.653088 110.847325 
L 176.829419 109.697678 
L 176.946973 109.43549 
L 177.123305 111.031925 
L 177.299636 109.099021 
L 177.475967 108.103511 
L 177.534744 107.740567 
L 177.887407 109.377892 
L 177.946184 108.974284 
L 178.004961 109.177173 
L 178.063739 109.146369 
L 178.181293 108.598009 
L 178.24007 108.758257 
L 178.357624 110.286543 
L 178.769064 116.383155 
L 178.827841 116.457517 
L 179.121727 118.424521 
L 179.356835 120.456181 
L 179.768275 119.115731 
L 180.943818 130.140915 
L 181.002595 130.046217 
L 181.355258 127.538886 
L 181.649143 125.330123 
L 181.884252 123.735058 
L 181.943029 123.669206 
L 182.001806 123.82367 
L 182.472023 116.599111 
L 183.177348 95.835979 
L 183.236126 95.808998 
L 183.35368 96.572354 
L 183.471234 97.662214 
L 183.530011 97.597956 
L 183.647565 98.233609 
L 184.411668 117.357783 
L 184.764331 120.360141 
L 184.823108 120.351899 
L 184.881885 120.077716 
L 185.116994 121.363266 
L 185.469656 119.644518 
L 185.939873 116.672498 
L 186.057428 118.016847 
L 186.292536 116.453243 
L 186.351313 116.548469 
L 186.41009 116.459848 
L 186.527645 116.314841 
L 186.645199 115.574727 
L 186.703976 115.850252 
L 186.762753 115.748408 
L 186.82153 115.77581 
L 186.880307 115.403355 
L 186.939085 115.620067 
L 186.997862 115.700501 
L 187.056639 115.619208 
L 187.174193 112.585041 
L 187.468079 106.459474 
L 187.938296 99.968518 
L 188.232181 93.699546 
L 188.290958 93.924882 
L 188.46729 96.814096 
L 188.526067 96.538623 
L 188.761175 92.696733 
L 188.87873 92.440079 
L 188.996284 91.786543 
L 189.113838 93.955521 
L 189.172615 92.87401 
L 189.231392 93.985285 
L 189.29017 93.520816 
L 189.348947 93.582997 
L 189.407724 93.337177 
L 189.642832 90.768153 
L 189.995495 96.037275 
L 190.054272 96.234192 
L 190.465712 101.496076 
L 190.583266 103.114579 
L 190.818375 106.085234 
L 190.877152 105.914355 
L 191.11226 108.583582 
L 191.347369 109.676256 
L 191.406146 109.788589 
L 191.641255 108.016671 
L 191.700032 108.501952 
L 191.758809 108.34402 
L 191.817586 108.256626 
L 191.876363 107.033917 
L 191.93514 107.212608 
L 191.993917 107.653741 
L 192.052694 107.296923 
L 192.111472 107.406692 
L 192.34658 104.872891 
L 192.522911 103.967565 
L 192.75802 106.193611 
L 192.816797 105.97497 
L 192.875574 105.336856 
L 193.404568 111.192639 
L 193.463345 111.165889 
L 193.698454 109.406178 
L 193.816008 109.239888 
L 193.933562 109.622184 
L 194.168671 106.476612 
L 194.227448 106.727168 
L 194.286225 107.008853 
L 194.345002 106.862669 
L 194.40378 106.914705 
L 194.638888 105.399581 
L 194.697665 105.647355 
L 194.756442 105.701862 
L 195.109105 100.972551 
L 195.402991 103.758331 
L 195.461768 103.141129 
L 195.579322 102.877816 
L 196.167093 108.026163 
L 196.460979 111.963602 
L 196.696087 109.746746 
L 197.107527 106.53859 
L 197.401413 103.524163 
L 197.577744 101.619952 
L 197.812853 99.931362 
L 197.87163 100.426066 
L 197.930407 100.34264 
L 198.047961 100.69647 
L 198.106738 100.643176 
L 198.224293 101.047644 
L 198.28307 100.606602 
L 198.341847 100.805782 
L 198.459401 101.404285 
L 198.518178 101.273 
L 198.812064 102.176777 
L 198.988395 103.635062 
L 199.047172 103.193908 
L 199.10595 103.393552 
L 199.223504 103.185187 
L 199.458612 104.585461 
L 200.340269 109.230168 
L 200.399046 108.934603 
L 200.516601 109.112305 
L 200.692932 108.229791 
L 200.751709 108.417451 
L 200.986818 107.253552 
L 201.633366 102.761475 
L 201.692143 102.79892 
L 201.75092 102.646406 
L 201.809697 102.181335 
L 201.868474 102.228914 
L 201.927252 102.205264 
L 202.16236 104.683151 
L 202.221137 105.40484 
L 202.279914 105.199242 
L 202.338691 105.195538 
L 202.515023 106.712747 
L 202.750131 108.773901 
L 202.808908 108.72659 
L 202.867686 108.681116 
L 203.102794 110.224984 
L 203.161571 110.061967 
L 203.279126 109.209838 
L 203.39668 108.270861 
L 203.514234 108.989013 
L 203.573011 108.81469 
L 203.631788 108.659963 
L 203.80812 110.198399 
L 203.866897 110.104376 
L 204.337114 102.512521 
L 204.454668 102.357248 
L 204.513445 102.76555 
L 204.689777 101.948456 
L 204.807331 102.274656 
L 204.866108 102.088464 
L 205.042439 101.039554 
L 205.630211 108.775439 
L 205.688988 108.422669 
L 205.924096 107.104488 
L 206.100428 105.5488 
L 206.159205 105.440869 
L 206.217982 105.564658 
L 206.335536 106.695844 
L 206.394313 106.168546 
L 206.511867 106.382056 
L 206.629422 104.951848 
L 206.86453 101.068296 
L 206.982084 100.803575 
L 207.099639 100.28315 
L 207.217193 100.968097 
L 207.27597 100.779618 
L 207.452301 99.622942 
L 207.511079 99.201537 
L 207.628633 100.631319 
L 207.68741 100.530871 
L 207.863741 102.798964 
L 208.040073 104.956249 
L 208.157627 106.245678 
L 208.51029 110.518783 
L 208.745398 112.56509 
L 208.862952 113.145775 
L 208.92173 112.966165 
L 208.980507 113.163757 
L 209.098061 111.686246 
L 209.156838 111.96095 
L 209.450724 113.993087 
L 209.685832 115.035488 
L 209.744609 114.89023 
L 209.803386 114.653343 
L 210.038495 111.542734 
L 210.097272 111.877743 
L 210.156049 111.705219 
L 210.332381 113.245034 
L 210.802598 110.555564 
L 211.214037 113.276714 
L 211.507923 112.269802 
L 211.5667 112.455225 
L 211.684254 112.694715 
L 212.036917 103.773733 
L 212.272026 97.21271 
L 212.330803 97.291233 
L 212.38958 97.19342 
L 212.507134 96.120799 
L 212.565911 96.577368 
L 212.683466 96.965068 
L 212.742243 96.845127 
L 212.859797 96.539395 
L 213.330014 107.239187 
L 213.506345 109.971846 
L 213.859008 112.605486 
L 213.917785 112.854406 
L 214.094117 111.571061 
L 214.446779 107.85152 
L 214.505557 107.633283 
L 215.093328 101.043184 
L 215.152105 101.39816 
L 215.563545 106.782287 
L 215.622322 106.776358 
L 215.798653 107.632013 
L 216.386425 114.560217 
L 216.68031 113.710096 
L 216.739087 113.818492 
L 216.797864 114.083786 
L 216.856642 113.925967 
L 217.09175 110.208099 
L 217.50319 101.320521 
L 218.032184 88.329587 
L 218.561178 82.280398 
L 218.678732 82.524599 
L 218.73751 82.541843 
L 218.972618 83.158708 
L 219.442835 80.907719 
L 219.619166 78.680205 
L 220.324492 66.326907 
L 220.677155 60.462407 
L 220.735932 60.553728 
L 220.794709 60.529705 
L 220.912263 61.246398 
L 220.97104 61.180194 
L 221.264926 62.169404 
L 221.441257 62.78574 
L 221.617589 62.155602 
L 221.735143 62.62549 
L 221.79392 62.542535 
L 221.970252 61.888075 
L 222.146583 61.168634 
L 222.381691 60.038119 
L 222.6168 57.714011 
L 222.675577 57.519925 
L 222.851908 58.31299 
L 222.910686 58.485198 
L 223.087017 58.192424 
L 223.263348 57.964678 
L 223.380903 58.558334 
L 223.43968 58.493578 
L 223.557234 58.30195 
L 224.145005 63.06118 
L 224.203782 63.041825 
L 224.380114 63.890021 
L 224.438891 63.817351 
L 224.497668 63.880103 
L 224.556445 63.899873 
L 224.732776 64.642043 
L 224.967885 63.627924 
L 225.320548 59.631488 
L 225.438102 59.233767 
L 225.67321 57.771822 
L 225.908319 56.758977 
L 226.143427 58.04207 
L 226.202205 57.953101 
L 226.260982 58.074044 
L 226.437313 57.140899 
L 226.613644 57.97767 
L 227.554078 76.871385 
L 227.789187 80.242043 
L 228.024295 81.614437 
L 228.200627 81.30418 
L 228.259404 81.423885 
L 228.318181 81.387132 
L 228.435735 80.690538 
L 228.494512 80.78543 
L 228.55329 80.826562 
L 228.670844 80.148116 
L 228.729621 80.228792 
L 228.788398 80.249846 
L 229.023507 81.32638 
L 229.082284 81.146629 
L 229.376169 83.302514 
L 229.434946 82.975307 
L 229.670055 81.288261 
L 230.081495 77.714806 
L 230.257826 78.230042 
L 230.492935 77.024781 
L 230.610489 78.005418 
L 231.021929 83.625425 
L 231.257037 85.879422 
L 231.550923 86.839389 
L 231.6097 86.710761 
L 231.668477 86.98363 
L 231.844809 86.460685 
L 231.903586 86.653345 
L 231.962363 86.467964 
L 232.02114 86.636462 
L 232.256249 84.77311 
L 233.25546 73.651354 
L 233.549345 69.584784 
L 233.725677 69.045758 
L 233.843231 69.261954 
L 233.902008 69.53681 
L 234.019562 68.889777 
L 234.078339 68.972129 
L 234.195894 69.107433 
L 234.313448 67.896937 
L 234.372225 68.265086 
L 234.431002 68.2954 
L 234.842442 72.657655 
L 234.901219 72.608905 
L 234.959996 73.006689 
L 235.018773 72.681087 
L 235.077551 72.506733 
L 235.48899 75.31698 
L 235.547768 74.743608 
L 235.606545 75.098609 
L 235.665322 75.036343 
L 235.724099 75.579204 
L 235.90043 74.168228 
L 236.076762 75.111777 
L 236.135539 74.996658 
L 236.253093 76.126179 
L 236.370647 75.853578 
L 236.605756 74.726709 
L 236.840864 75.829302 
L 236.899641 75.524634 
L 236.958419 76.488509 
L 237.017196 76.16198 
L 237.487413 71.872898 
L 237.722521 67.209986 
L 238.192738 55.975628 
L 238.662955 47.818719 
L 238.839287 48.964104 
L 238.898064 48.894122 
L 238.956841 48.95121 
L 239.250727 52.27637 
L 239.309504 52.042963 
L 239.368281 52.011215 
L 239.485835 52.30618 
L 239.544612 53.245608 
L 239.603389 53.152385 
L 239.662166 52.935534 
L 239.720944 53.533269 
L 239.779721 53.441367 
L 239.838498 53.555497 
L 239.897275 53.362799 
L 239.956052 53.487072 
L 240.014829 53.366084 
L 240.132383 54.144783 
L 240.191161 53.714044 
L 240.249938 53.194713 
L 240.308715 53.325425 
L 240.367492 53.213837 
L 240.426269 53.45431 
L 240.896486 59.819516 
L 241.01404 60.678119 
L 241.072817 60.49132 
L 241.190372 61.59498 
L 241.42548 65.202048 
L 241.601812 65.376121 
L 241.660589 65.055582 
L 241.895697 67.379667 
L 241.954474 68.140212 
L 242.013251 67.759585 
L 242.130806 67.54174 
L 242.307137 68.542944 
L 242.718577 63.939207 
L 242.777354 64.082022 
L 242.836131 64.307431 
L 243.012463 63.252444 
L 243.247571 62.935435 
L 243.306348 63.0179 
L 243.365125 63.509453 
L 243.423902 63.298802 
L 243.600234 62.55072 
L 243.659011 62.553004 
L 243.835342 60.749026 
L 244.540668 47.758265 
L 244.775776 44.778918 
L 244.834553 44.45937 
L 244.893331 44.665306 
L 244.952108 44.482204 
L 245.187216 46.657629 
L 245.245993 46.897148 
L 245.481102 49.946248 
L 245.539879 49.807893 
L 245.598656 50.056001 
L 246.245204 60.08347 
L 246.303982 59.882472 
L 246.421536 60.510954 
L 246.656644 59.308812 
L 246.832976 60.214392 
L 246.95053 59.45952 
L 247.009307 58.648919 
L 247.068084 59.024825 
L 247.185638 58.267788 
L 247.303193 57.749828 
L 247.420747 58.026771 
L 247.655856 59.669198 
L 248.537512 66.004081 
L 248.59629 65.822053 
L 248.655067 65.693613 
L 248.831398 64.483001 
L 248.890175 64.640241 
L 248.948952 65.313401 
L 249.007729 65.156261 
L 249.125284 65.340418 
L 249.184061 65.25083 
L 249.242838 65.29299 
L 249.595501 66.69238 
L 249.654278 66.480045 
L 250.124495 68.821883 
L 250.300826 68.36157 
L 250.41838 69.190268 
L 250.477158 68.71368 
L 250.653489 68.001363 
L 250.712266 67.872319 
L 250.82982 68.172919 
L 251.123706 66.550465 
L 251.182483 66.79115 
L 251.24126 66.839705 
L 251.300037 66.591961 
L 251.711477 68.868627 
L 251.829031 68.854321 
L 251.946586 68.179135 
L 252.06414 68.256054 
L 252.299248 70.720953 
L 252.358026 70.64327 
L 252.416803 70.710418 
L 253.004574 65.72143 
L 253.122128 65.925604 
L 253.239682 65.291785 
L 253.29846 65.344349 
L 253.416014 65.721623 
L 253.533568 65.354853 
L 253.651122 66.827213 
L 253.709899 67.842657 
L 253.768677 67.319012 
L 253.827454 66.803074 
L 253.945008 68.136899 
L 254.238894 71.579958 
L 254.415225 72.139238 
L 254.885442 66.505174 
L 254.944219 66.68371 
L 255.12055 69.879953 
L 255.179328 69.754894 
L 255.414436 66.794384 
L 255.590767 65.294168 
L 255.767099 66.148577 
L 256.119762 68.948134 
L 256.35487 65.656888 
L 256.472424 65.669896 
L 256.883864 72.393196 
L 257.060196 74.165724 
L 257.118973 73.98236 
L 257.295304 75.577732 
L 257.647967 79.424989 
L 258.118184 76.279835 
L 258.294515 75.311835 
L 258.705955 76.599494 
L 258.764732 76.501189 
L 258.999841 78.205229 
L 259.058618 78.368727 
L 259.352504 76.974735 
L 259.411281 77.258314 
L 259.470058 77.208425 
L 259.822721 74.684032 
L 259.881498 75.038915 
L 260.116606 76.782125 
L 260.175383 76.603699 
L 260.351715 74.653471 
L 260.469269 74.486309 
L 260.528046 74.773179 
L 260.586823 74.414059 
L 260.998263 77.506853 
L 261.292149 71.151618 
L 261.350926 71.458282 
L 261.703589 77.043179 
L 261.762366 77.113288 
L 261.938697 74.892712 
L 261.997474 74.976056 
L 262.056251 74.97951 
L 262.115028 75.215396 
L 262.173806 75.030738 
L 262.408914 80.180657 
L 262.467691 80.010537 
L 262.937908 75.748341 
L 263.11424 76.776207 
L 263.231794 75.724864 
L 263.290571 75.859041 
L 263.466902 75.178604 
L 263.525679 75.323202 
L 263.643234 74.436352 
L 263.995896 76.499907 
L 264.172228 78.267509 
L 264.231005 78.478463 
L 264.701222 75.743388 
L 264.877553 76.586099 
L 264.93633 76.173785 
L 264.995108 76.521112 
L 265.171439 77.060048 
L 265.288993 76.62111 
L 265.34777 76.699761 
L 265.406548 77.081497 
L 265.582879 73.575013 
L 265.641656 73.747953 
L 266.111873 75.234081 
L 266.229427 74.083161 
L 266.288204 74.154272 
L 266.58209 73.356561 
L 266.875976 77.880717 
L 266.99353 77.9042 
L 267.228638 75.396392 
L 268.404181 60.407891 
L 268.815621 57.20658 
L 268.874398 57.097239 
L 268.991952 54.651486 
L 269.050729 54.767273 
L 269.109506 54.993157 
L 269.227061 54.555966 
L 269.344615 55.518682 
L 269.873609 63.510012 
L 269.932386 63.47043 
L 270.04994 64.494101 
L 270.285049 69.761404 
L 270.520157 72.192381 
L 270.696489 71.772067 
L 270.990374 69.345664 
L 271.049152 69.370481 
L 271.225483 69.730629 
L 271.636923 67.427915 
L 271.813254 65.5978 
L 271.872031 65.405119 
L 271.989586 66.062128 
L 272.224694 63.769207 
L 272.812465 53.611621 
L 273.106351 49.470724 
L 273.341459 47.005096 
L 273.400237 47.056207 
L 273.517791 46.649402 
L 273.576568 47.158867 
L 273.694122 46.53757 
L 273.752899 46.551208 
L 273.811676 46.690759 
L 273.870454 46.503215 
L 273.929231 46.537277 
L 274.046785 47.583806 
L 274.105562 47.491216 
L 274.223116 47.018559 
L 274.399448 46.202631 
L 274.869665 43.174838 
L 275.281105 37.974401 
L 275.398659 38.029495 
L 275.457436 38.336605 
L 275.810099 35.668737 
L 275.868876 35.808792 
L 275.927653 36.040758 
L 276.103984 37.746576 
L 276.162762 37.765602 
L 276.339093 38.391926 
L 276.39787 38.075016 
L 276.456647 38.384802 
L 276.515424 38.204445 
L 276.750533 39.271691 
L 276.926864 40.623082 
L 277.044418 40.14214 
L 277.63219 34.804944 
L 277.690967 34.948345 
L 278.102407 31.842776 
L 278.278738 33.089107 
L 278.513847 34.097364 
L 278.572624 34.08451 
L 278.925286 35.103835 
L 279.042841 34.700483 
L 279.101618 34.38489 
L 279.219172 35.130944 
L 279.277949 35.044519 
L 279.924498 30.606278 
L 279.983275 30.421578 
L 280.159606 29.394401 
L 280.335937 30.335676 
L 280.394715 30.279577 
L 280.747377 35.468068 
L 281.805366 52.525624 
L 281.92292 52.797025 
L 282.33436 56.054897 
L 282.510691 56.689525 
L 282.569468 56.51282 
L 282.628245 56.999928 
L 282.687022 56.747239 
L 282.804577 56.066572 
L 282.863354 56.229929 
L 283.098462 56.788733 
L 283.216017 56.634368 
L 283.274794 56.246939 
L 283.568679 51.887232 
L 283.862565 51.737494 
L 284.038896 52.6125 
L 284.450336 47.067693 
L 284.626668 49.065535 
L 284.802999 48.285791 
L 284.861776 48.265632 
L 284.920553 48.00369 
L 284.97933 48.119588 
L 285.096885 48.005789 
L 285.214439 49.073885 
L 285.919764 59.956497 
L 286.037319 59.232951 
L 286.096096 58.76943 
L 286.154873 58.803725 
L 286.331204 59.556605 
L 286.566313 58.345705 
L 286.801421 54.806347 
L 286.918976 54.142052 
L 286.977753 54.310986 
L 287.03653 54.260354 
L 287.095307 54.218589 
L 287.389193 55.247166 
L 287.506747 53.5257 
L 287.624301 52.368501 
L 288.035741 56.589978 
L 288.153295 56.482442 
L 288.212072 56.321231 
L 288.388404 57.453167 
L 288.505958 56.341087 
L 288.623512 55.46827 
L 288.682289 55.915635 
L 288.741066 55.606189 
L 289.093729 51.220922 
L 289.857832 41.93154 
L 289.975386 42.894049 
L 290.445603 39.001231 
L 290.563157 39.712413 
L 291.033374 35.833311 
L 291.386037 32.691084 
L 291.444814 32.846544 
L 291.679923 33.149702 
L 291.856254 31.983289 
L 291.915031 32.095905 
L 291.973808 32.114696 
L 292.091363 32.707471 
L 292.15014 32.473321 
L 292.208917 32.504261 
L 292.326471 31.489952 
L 292.385248 31.582976 
L 292.444025 31.616915 
L 292.679134 30.774259 
L 292.737911 30.849412 
L 292.914242 31.804403 
L 293.031797 32.344197 
L 293.149351 33.513083 
L 293.208128 33.393267 
L 293.325682 33.476585 
L 293.384459 33.187016 
L 293.443237 33.218258 
L 293.560791 34.16788 
L 293.619568 34.061993 
L 293.854676 35.00092 
L 294.031008 35.600541 
L 294.089785 35.328423 
L 294.736333 43.860193 
L 294.912665 45.07601 
L 294.971442 45.042623 
L 295.030219 45.030033 
L 295.324105 44.337179 
L 295.735544 47.042433 
L 295.911876 45.828218 
L 295.970653 45.819182 
L 296.02943 45.677492 
L 296.205761 46.002613 
L 296.323316 45.962076 
L 296.44087 46.778858 
L 296.499647 46.551998 
L 296.617201 45.282413 
L 297.204973 38.135603 
L 297.26375 37.75161 
L 297.498858 38.83543 
L 297.616412 38.666915 
L 297.851521 39.83569 
L 298.027852 41.338315 
L 298.380515 45.116095 
L 298.439292 45.37277 
L 298.556846 45.031094 
L 298.615624 45.099388 
L 298.791955 44.538644 
L 298.850732 44.765702 
L 299.085841 44.111535 
L 299.320949 45.035161 
L 299.438503 46.356564 
L 300.496492 63.266118 
L 300.7316 65.222295 
L 300.849154 65.019408 
L 301.025486 65.857076 
L 301.55448 69.7223 
L 301.730811 70.620666 
L 301.848366 71.057384 
L 301.907143 70.728335 
L 301.96592 71.409245 
L 302.024697 71.32743 
L 302.318583 68.251021 
L 302.37736 68.862882 
L 302.436137 68.587455 
L 302.494914 68.207229 
L 302.553691 68.504542 
L 302.906354 70.338578 
L 303.023908 70.277097 
L 303.141462 69.958446 
L 303.552902 74.262428 
L 303.670456 75.220851 
L 303.729234 74.638969 
L 303.788011 74.890055 
L 303.905565 74.686033 
L 304.140673 73.135986 
L 304.199451 73.109332 
L 304.434559 73.836733 
L 304.552113 74.246692 
L 304.728445 73.477107 
L 304.787222 73.498468 
L 304.845999 73.310978 
L 304.904776 73.385981 
L 305.02233 72.304028 
L 305.081107 72.322728 
L 305.316216 73.542116 
L 305.374993 73.785755 
L 305.492547 73.337715 
L 305.551324 73.380558 
L 305.610102 73.396503 
L 305.668879 74.073536 
L 305.727656 73.693422 
L 305.786433 73.905787 
L 305.903987 73.600329 
L 306.021541 73.674456 
L 306.25665 75.027913 
L 306.315427 74.850018 
L 306.432981 75.270556 
L 306.491758 75.189343 
L 306.609313 75.541398 
L 306.785644 76.224924 
L 306.844421 76.330969 
L 307.07953 78.452697 
L 307.197084 78.949861 
L 307.314638 78.551616 
L 307.373415 78.693266 
L 307.432192 78.641771 
L 307.49097 79.275286 
L 307.549747 79.067545 
L 307.843632 75.86947 
L 307.961187 76.141561 
L 308.313849 72.983174 
L 308.431404 72.361428 
L 308.607735 72.70983 
L 308.666512 72.408421 
L 308.784066 73.858536 
L 308.960398 77.787629 
L 309.077952 77.901209 
L 309.606946 80.460565 
L 309.959609 78.569251 
L 310.13594 76.244254 
L 310.253495 75.153615 
L 310.429826 73.600846 
L 310.606157 72.867401 
L 310.782489 70.89578 
L 310.900043 70.70681 
L 311.076374 68.325903 
L 311.429037 61.864982 
L 311.899254 52.347952 
L 312.075585 49.954891 
L 312.310694 45.290411 
L 312.487025 44.385834 
L 312.545802 44.274312 
L 312.60458 44.371521 
L 312.722134 44.673081 
L 312.780911 45.1939 
L 312.839688 45.02438 
L 313.133574 42.053689 
L 313.251128 40.750318 
L 313.309905 41.202409 
L 313.368682 41.53582 
L 313.545014 37.561743 
L 313.662568 35.913724 
L 313.721345 35.932912 
L 313.780122 35.268016 
L 313.838899 35.302644 
L 313.897676 35.662246 
L 314.132785 34.325158 
L 314.250339 34.5941 
L 314.309116 34.454142 
L 314.42667 34.652175 
L 314.485448 34.335506 
L 314.544225 34.459564 
L 314.603002 34.62539 
L 314.779333 36.935838 
L 314.83811 36.925024 
L 314.896887 36.792879 
L 314.955665 37.000548 
L 315.073219 36.031215 
L 315.190773 36.336452 
L 315.425882 37.108735 
L 315.602213 37.303617 
L 315.66099 37.363579 
L 315.837321 37.188401 
L 315.896099 37.198531 
L 316.131207 35.156284 
L 316.307538 35.783257 
L 316.425093 35.901273 
L 316.836533 32.383141 
L 316.89531 32.528211 
L 316.954087 32.118442 
L 317.012864 32.339957 
L 317.541858 33.820073 
L 317.600635 33.755035 
L 317.835744 35.062173 
L 317.894521 35.047296 
L 318.247184 36.678956 
L 318.305961 36.702701 
L 318.776178 38.844577 
L 319.128841 41.847763 
L 319.246395 42.052712 
L 319.422726 41.218167 
L 319.54028 40.277109 
L 319.657835 39.354698 
L 320.010497 34.600142 
L 320.186829 33.422123 
L 320.304383 34.33927 
L 320.715823 40.673004 
L 321.068486 45.871628 
L 322.479137 63.333622 
L 322.773022 61.578173 
L 323.184462 57.067153 
L 323.360794 58.095533 
L 323.713456 53.628911 
L 323.948565 50.470502 
L 324.066119 48.696529 
L 324.183673 47.203289 
L 325.006553 35.16086 
L 325.300439 32.731921 
L 325.47677 31.817979 
L 325.88821 25.333636 
L 325.946987 25.61508 
L 326.123318 25.492173 
L 326.29965 27.003327 
L 326.358427 26.879721 
L 326.417204 26.022433 
L 326.475981 26.256348 
L 326.71109 29.266206 
L 326.946198 32.633079 
L 327.063752 33.066218 
L 327.181307 33.004731 
L 327.240084 32.935534 
L 327.298861 33.302615 
L 327.53397 32.343161 
L 327.651524 32.693862 
L 327.710301 32.561859 
L 328.004187 29.967357 
L 328.062964 30.008594 
L 328.121741 29.842381 
L 328.239295 30.299265 
L 328.298072 30.265781 
L 328.474404 30.090437 
L 328.591958 29.451101 
L 329.238506 34.172029 
L 329.414838 33.61044 
L 329.7675 35.637352 
L 329.826277 35.364191 
L 330.002609 34.830563 
L 330.120163 34.759751 
L 330.237717 34.054618 
L 330.296494 34.319051 
L 330.472826 34.888169 
L 330.531603 34.737967 
L 330.766711 35.924755 
L 330.825489 35.637277 
L 330.943043 35.73115 
L 331.060597 36.129145 
L 331.119374 36.051587 
L 331.178151 36.319226 
L 331.236928 36.149168 
L 331.295706 36.172236 
L 331.354483 36.459303 
L 331.41326 36.327561 
L 331.530814 36.027882 
L 331.589591 36.279549 
L 331.648368 36.102888 
L 331.707145 36.047985 
L 331.8247 35.498674 
L 331.942254 34.362935 
L 332.001031 34.537857 
L 332.412471 32.901601 
L 332.530025 33.030837 
L 332.647579 32.781688 
L 332.765134 32.036534 
L 333.059019 32.6184 
L 333.117796 32.681681 
L 333.294128 32.26367 
L 333.529236 32.344488 
L 333.999453 35.691378 
L 334.117008 36.271419 
L 334.88111 43.887813 
L 334.998664 44.021519 
L 335.880321 49.301577 
L 336.11543 49.908022 
L 336.174207 50.515871 
L 336.232984 50.453833 
L 336.52687 49.982297 
L 336.820755 46.182559 
L 336.879533 46.340131 
L 336.93831 46.246838 
L 336.997087 46.166627 
L 337.173418 46.914834 
L 337.526081 48.542786 
L 337.937521 52.390983 
L 338.231406 51.178568 
L 338.936732 46.119593 
L 339.113063 47.196363 
L 339.406949 50.567515 
L 339.524503 51.072619 
L 339.58328 51.016281 
L 339.642057 50.942732 
L 340.112274 53.512131 
L 340.171052 53.169397 
L 340.229829 53.289895 
L 340.288606 53.767612 
L 340.347383 53.730418 
L 340.40616 53.656499 
L 340.464937 53.821874 
L 340.582491 52.751253 
L 340.641269 52.871714 
L 340.700046 52.797739 
L 340.758823 53.088163 
L 340.8176 53.015746 
L 341.346594 49.7891 
L 341.64048 45.805083 
L 341.699257 46.164142 
L 341.758034 46.071062 
L 341.816811 45.605245 
L 341.875588 45.776222 
L 341.934365 45.785689 
L 342.110697 46.708889 
L 342.287028 48.144611 
L 342.404582 48.409967 
L 342.816022 52.686217 
L 342.874799 52.43178 
L 343.168685 54.044535 
L 343.638902 58.362213 
L 343.87401 56.63678 
L 343.932788 56.767611 
L 343.991565 56.603417 
L 344.050342 56.876361 
L 344.226673 56.045567 
L 344.344227 54.486785 
L 344.579336 51.47322 
L 344.814444 47.486509 
L 344.873222 47.322892 
L 345.225884 49.200363 
L 345.813656 57.20511 
L 345.872433 57.213266 
L 346.107541 59.29576 
L 346.34265 56.400531 
L 346.75409 50.889334 
L 346.989198 49.506102 
L 347.047975 49.586709 
L 347.283084 47.750956 
L 347.341861 47.697894 
L 347.400638 47.813956 
L 347.518192 47.041369 
L 347.576969 47.130942 
L 348.223518 36.669259 
L 348.634958 31.030266 
L 348.870066 28.900083 
L 348.98762 29.196494 
L 349.046398 29.053346 
L 349.163952 29.616779 
L 349.39906 32.049399 
L 349.457837 32.150674 
L 349.928054 35.062434 
L 350.104386 36.70514 
L 350.22194 36.866154 
L 350.280717 36.785203 
L 350.986043 43.258464 
L 351.221151 45.742741 
L 351.515037 47.224369 
L 351.573814 47.320738 
L 351.632591 47.037429 
L 351.926477 49.617912 
L 352.161585 51.725948 
L 352.220362 51.802601 
L 352.455471 54.148243 
L 353.043242 63.513744 
L 353.102019 63.700115 
L 353.160796 63.626389 
L 353.395905 65.620319 
L 353.513459 65.55765 
L 353.748568 66.292255 
L 353.866122 65.775349 
L 353.983676 66.372311 
L 354.10123 66.272734 
L 354.277562 66.004728 
L 354.336339 66.147578 
L 354.630225 65.427312 
L 354.689002 65.392004 
L 354.747779 65.541663 
L 354.92411 64.928992 
L 355.041664 65.361966 
L 355.100442 65.307076 
L 355.159219 65.090372 
L 355.394327 66.345959 
L 355.453104 65.897109 
L 355.805767 63.580721 
L 355.864544 63.533674 
L 356.040876 63.234134 
L 356.099653 63.122606 
L 356.452315 60.871467 
L 356.511093 60.906424 
L 356.56987 60.220992 
L 356.922532 65.271634 
L 357.392749 68.93392 
L 357.510304 67.57394 
L 357.569081 67.915217 
L 357.980521 70.248487 
L 358.039298 70.291674 
L 358.333183 73.444865 
L 358.450738 73.654643 
L 359.097286 80.071267 
L 359.156063 80.159928 
L 359.21484 80.501568 
L 359.449949 79.605879 
L 359.567503 80.427501 
L 359.62628 80.350589 
L 359.685057 80.031939 
L 359.743834 80.145323 
L 359.802612 80.125994 
L 359.861389 79.96338 
L 359.978943 80.467881 
L 360.507937 74.395368 
L 360.566714 74.485281 
L 360.625491 74.530922 
L 360.801823 73.71874 
L 361.977365 51.013428 
L 362.094919 50.63952 
L 362.271251 51.263818 
L 362.330028 51.10846 
L 362.506359 50.303454 
L 362.565136 50.797199 
L 362.623914 50.369417 
L 362.682691 50.534476 
L 362.800245 50.071618 
L 362.859022 50.321594 
L 363.035353 51.737172 
L 363.152908 50.605325 
L 363.270462 52.097995 
L 363.446793 50.764545 
L 363.623125 53.645866 
L 364.034565 61.364933 
L 364.093342 61.545469 
L 364.32845 64.405329 
L 364.387227 63.396355 
L 364.446005 63.848085 
L 364.974999 72.201028 
L 365.445216 77.910895 
L 365.680324 82.250474 
L 365.915433 83.088921 
L 365.97421 83.047468 
L 366.032987 82.811265 
L 366.326873 80.329999 
L 367.149752 76.050312 
L 367.208529 76.109149 
L 367.737524 78.085611 
L 367.796301 77.926836 
L 367.913855 77.156741 
L 368.031409 77.606178 
L 368.266518 78.980657 
L 369.44206 85.948049 
L 369.618392 85.839892 
L 369.677169 85.819557 
L 370.029831 84.441723 
L 370.088609 84.599874 
L 370.206163 85.04902 
L 370.26494 84.993211 
L 370.382494 84.297336 
L 370.441271 84.40617 
L 370.558826 84.145271 
L 370.617603 83.888176 
L 370.67638 84.035553 
L 370.735157 84.320129 
L 370.970265 83.419315 
L 371.029043 83.632447 
L 371.146597 83.121766 
L 371.205374 83.143755 
L 371.381705 82.517704 
L 371.440482 82.797268 
L 371.558037 83.088301 
L 371.616814 83.016846 
L 371.734368 83.602402 
L 371.793145 84.200498 
L 371.851922 84.167079 
L 371.910699 84.187046 
L 371.969477 84.615318 
L 372.028254 84.315364 
L 372.087031 84.421664 
L 372.263362 85.393001 
L 372.322139 85.564358 
L 372.557248 87.487785 
L 372.616025 87.533327 
L 373.086242 91.537211 
L 373.909122 99.684022 
L 374.026676 99.452323 
L 374.085453 99.910665 
L 374.14423 99.761968 
L 374.203007 99.517247 
L 374.438116 97.811077 
L 374.732002 96.827346 
L 374.790779 97.025986 
L 374.908333 97.411072 
L 374.96711 97.923833 
L 375.025887 97.699911 
L 375.143441 97.407041 
L 375.202219 97.476438 
L 375.319773 97.218471 
L 375.37855 97.384579 
L 375.554881 98.783761 
L 375.613658 98.892049 
L 375.731213 99.617274 
L 375.78999 99.230234 
L 375.848767 99.541292 
L 376.260207 97.406751 
L 376.318984 97.796461 
L 376.436538 97.56857 
L 376.554092 98.012165 
L 376.61287 97.855802 
L 376.730424 98.647096 
L 376.789201 98.623933 
L 376.906755 99.138012 
L 376.965532 99.518531 
L 377.024309 99.409458 
L 377.259418 98.594694 
L 377.318195 98.50952 
L 377.612081 96.876122 
L 377.964743 91.714118 
L 378.199852 88.829761 
L 378.258629 89.093822 
L 378.317406 89.025288 
L 378.787623 83.497402 
L 378.8464 83.344018 
L 379.25784 78.801446 
L 380.08072 65.023236 
L 380.49216 60.662459 
L 380.550937 60.420414 
L 380.609714 60.526103 
L 380.727268 61.45303 
L 380.962377 63.484723 
L 381.021154 63.858415 
L 381.256263 66.411338 
L 381.491371 67.49155 
L 381.550148 67.278165 
L 381.608925 67.441504 
L 381.844034 68.716884 
L 381.961588 68.590162 
L 382.137919 68.944615 
L 383.019576 78.771607 
L 383.137131 78.326125 
L 383.195908 77.975623 
L 383.431016 78.686849 
L 383.724902 77.218772 
L 383.783679 76.892548 
L 384.253896 70.653935 
L 384.37145 69.708505 
L 385.370661 53.550525 
L 385.60577 53.125396 
L 385.782101 53.942371 
L 386.075987 57.506059 
L 386.252318 60.788643 
L 386.487427 63.705293 
L 386.663758 64.15218 
L 386.781312 64.685529 
L 386.840089 64.652964 
L 386.898867 64.570058 
L 387.075198 63.263417 
L 387.192752 63.334372 
L 387.369084 64.712899 
L 387.427861 64.546831 
L 387.486638 64.366708 
L 388.191963 74.390802 
L 388.427072 77.41771 
L 388.603403 77.79938 
L 388.838512 78.382446 
L 388.956066 78.828301 
L 389.014843 78.810483 
L 389.07362 78.692542 
L 389.426283 80.254365 
L 389.48506 80.241542 
L 389.602614 79.920152 
L 391.189597 94.079779 
L 391.307151 94.842921 
L 391.365928 95.284749 
L 391.424705 95.049314 
L 391.718591 94.085394 
L 391.894922 94.838964 
L 391.953699 94.881793 
L 392.012477 94.557036 
L 392.071254 94.785073 
L 392.247585 95.491288 
L 392.365139 95.112368 
L 392.423916 95.166708 
L 392.541471 94.895379 
L 392.894133 95.786852 
L 393.129242 95.155993 
L 393.188019 95.217745 
L 393.599459 93.202088 
L 393.658236 93.335289 
L 393.717013 93.673477 
L 393.77579 93.483859 
L 393.834567 93.433818 
L 394.539893 90.300799 
L 394.59867 90.211466 
L 394.892556 88.70497 
L 395.186441 89.671591 
L 395.245218 89.49447 
L 395.362773 88.911863 
L 395.539104 88.053792 
L 395.597881 88.161384 
L 395.656658 87.733071 
L 395.715435 87.777167 
L 395.83299 88.032022 
L 396.068098 86.871316 
L 396.420761 82.98722 
L 396.479538 83.037199 
L 396.538315 83.161647 
L 396.655869 82.304155 
L 396.890978 78.716422 
L 397.243641 70.862411 
L 397.596303 64.528062 
L 398.007743 58.188092 
L 398.47796 53.336372 
L 398.771846 51.482176 
L 398.8894 50.990379 
L 398.948177 51.161146 
L 399.183286 49.158701 
L 399.30084 49.274432 
L 399.535949 51.262527 
L 399.594726 51.225993 
L 399.653503 50.759769 
L 399.71228 51.062936 
L 399.771057 51.095714 
L 399.947389 51.862001 
L 400.064943 51.749184 
L 400.12372 51.801849 
L 400.182497 52.149467 
L 400.241274 52.076648 
L 400.300051 52.055884 
L 400.476383 53.016259 
L 400.53516 52.863046 
L 401.064154 57.292653 
L 401.122931 57.240693 
L 401.240485 57.307735 
L 401.299262 56.796839 
L 401.35804 56.931685 
L 401.416817 56.944458 
L 402.122142 62.77569 
L 402.357251 68.162492 
L 402.886245 82.440425 
L 403.18013 86.339586 
L 403.356462 87.498035 
L 403.532793 86.87079 
L 404.120564 75.023425 
L 404.82589 62.862066 
L 405.060998 61.950851 
L 405.119776 61.834742 
L 405.413661 59.419349 
L 405.589993 58.403378 
L 405.64877 58.430624 
L 405.707547 58.176217 
L 405.766324 58.35475 
L 405.825101 58.541557 
L 406.412872 55.874863 
L 406.589204 54.255847 
L 406.647981 54.412242 
L 407.647192 48.473132 
L 407.705969 48.395379 
L 407.823523 47.278305 
L 407.882301 47.517868 
L 407.941078 47.463631 
L 408.176186 46.271578 
L 408.234963 46.289634 
L 408.29374 46.469616 
L 408.470072 45.653816 
L 408.587626 46.111443 
L 408.646403 46.910881 
L 408.70518 46.794158 
L 408.881512 46.454846 
L 408.999066 47.121174 
L 409.175397 46.750999 
L 409.292952 47.282191 
L 409.351729 46.917431 
L 409.410506 47.017067 
L 409.52806 47.303985 
L 409.645614 47.740123 
L 409.821946 46.738339 
L 409.880723 47.011561 
L 410.057054 48.448475 
L 410.233386 47.720498 
L 410.409717 47.589411 
L 410.468494 47.231534 
L 410.527271 47.706385 
L 410.586048 47.404266 
L 410.644825 47.269305 
L 410.821157 47.753592 
L 410.938711 48.284498 
L 411.17382 49.328219 
L 411.820368 56.223595 
L 411.879145 56.202534 
L 411.996699 55.875935 
L 412.055476 56.28212 
L 412.114254 56.224757 
L 412.290585 55.304136 
L 412.702025 50.769634 
L 412.878356 48.749693 
L 413.054688 48.079573 
L 413.172242 48.703716 
L 413.348573 47.894963 
L 413.466127 47.926992 
L 413.701236 49.620539 
L 413.760013 49.560802 
L 413.81879 49.559462 
L 413.936344 50.365416 
L 413.995122 50.236823 
L 414.876778 45.526783 
L 414.935556 45.844405 
L 414.994333 46.173538 
L 415.05311 45.962924 
L 415.699658 48.61254 
L 415.87599 49.357594 
L 415.934767 49.623496 
L 416.111098 51.064751 
L 416.228652 51.673197 
L 416.287429 51.351504 
L 416.346207 51.186543 
L 416.640092 52.406623 
L 416.698869 52.311557 
L 416.757647 52.244501 
L 416.875201 52.599716 
L 416.992755 52.27785 
L 417.051532 52.479826 
L 417.110309 52.402039 
L 417.345418 51.734487 
L 417.698081 53.772918 
L 418.050743 57.91436 
L 418.227075 59.422925 
L 418.403406 60.164502 
L 418.638515 61.31401 
L 418.697292 61.536238 
L 418.756069 61.501247 
L 419.285063 56.546552 
L 419.34384 56.801487 
L 419.520171 57.484895 
L 419.578949 57.50699 
L 419.931611 55.223359 
L 419.990388 55.261713 
L 420.107943 55.067444 
L 420.16672 55.472716 
L 420.225497 55.452355 
L 420.460605 52.815897 
L 420.57816 52.520225 
L 420.636937 52.706755 
L 420.695714 52.377146 
L 420.754491 52.5522 
L 420.813268 53.076715 
L 420.872045 52.669466 
L 421.107154 54.091289 
L 421.224708 54.907176 
L 421.283485 54.72329 
L 421.342262 54.707039 
L 421.518594 55.92828 
L 421.577371 55.689906 
L 421.636148 55.941513 
L 421.812479 55.144146 
L 421.871256 55.297073 
L 421.930034 55.161813 
L 421.988811 55.196855 
L 422.047588 55.724775 
L 422.106365 55.338499 
L 422.165142 55.485751 
L 422.341473 54.357441 
L 422.400251 54.523034 
L 422.459028 54.879288 
L 422.517805 54.574416 
L 422.694136 52.857747 
L 422.752913 53.033869 
L 422.81169 53.00643 
L 422.929245 52.276593 
L 423.340685 48.869495 
L 423.575793 47.448233 
L 423.693347 48.555947 
L 423.987233 53.20271 
L 424.633781 61.433036 
L 424.810113 63.324561 
L 426.455872 84.221339 
L 426.514649 84.289774 
L 426.808535 87.152209 
L 426.926089 88.055252 
L 426.984866 87.904821 
L 427.043644 88.137731 
L 427.102421 87.889115 
L 427.161198 88.042013 
L 427.337529 87.841858 
L 427.396306 87.812114 
L 427.455083 87.946485 
L 427.572638 87.561258 
L 427.690192 87.812552 
L 427.748969 87.748176 
L 427.866523 87.383565 
L 427.9253 87.556894 
L 427.984078 87.211024 
L 428.042855 87.475074 
L 428.101632 87.435109 
L 428.160409 87.693611 
L 428.219186 87.39044 
L 428.454295 88.082745 
L 428.924512 86.374752 
L 429.042066 86.073401 
L 429.277174 84.492871 
L 429.394729 84.12389 
L 429.453506 84.223484 
L 429.57106 84.198005 
L 429.629837 84.290692 
L 429.806168 83.582935 
L 429.864946 83.715886 
L 429.9825 83.933243 
L 430.276385 85.832879 
L 430.511494 86.857969 
L 430.746602 87.478745 
L 430.80538 87.563489 
L 430.981711 88.965927 
L 431.040488 88.945193 
L 431.099265 88.891786 
L 431.275597 89.984633 
L 431.393151 90.200199 
L 431.628259 92.23526 
L 431.804591 92.688783 
L 431.863368 93.212655 
L 431.922145 92.896203 
L 431.980922 93.086727 
L 432.039699 92.554245 
L 432.098476 92.707974 
L 432.157253 92.546885 
L 432.274808 93.182321 
L 432.568693 91.975139 
L 432.803802 90.546053 
L 433.03891 89.320253 
L 433.332796 91.187154 
L 433.391573 91.252601 
L 433.45035 91.802714 
L 433.509127 91.424614 
L 433.567904 91.760813 
L 433.626682 91.568582 
L 433.744236 91.926286 
L 433.920567 92.474852 
L 434.096899 92.078723 
L 434.214453 92.231462 
L 434.449561 91.042327 
L 434.625893 88.613576 
L 434.68467 88.640636 
L 434.802224 88.849975 
L 434.978556 88.036206 
L 435.037333 88.0491 
L 435.09611 87.730617 
L 435.272441 88.350419 
L 435.331218 88.228499 
L 435.389995 88.289903 
L 435.566327 88.626306 
L 435.625104 88.738434 
L 435.860212 90.248495 
L 435.91899 90.097296 
L 435.977767 90.258161 
L 436.565538 95.154869 
L 436.683092 95.393663 
L 436.976978 96.659248 
L 437.035755 96.588978 
L 437.329641 97.98471 
L 437.388418 97.910263 
L 437.623526 96.355656 
L 437.74108 96.605971 
L 438.15252 94.502547 
L 438.211297 94.647773 
L 438.56396 93.55982 
L 438.681514 94.473489 
L 438.799069 95.282822 
L 438.857846 95.1904 
L 439.034177 94.83551 
L 439.151731 95.496071 
L 439.621948 99.271133 
L 439.857057 100.337011 
L 439.915834 100.419424 
L 439.974611 100.172586 
L 440.386051 102.264808 
L 440.503605 101.475939 
L 440.562382 101.977746 
L 440.62116 101.711966 
L 440.973822 100.27618 
L 441.091377 99.989036 
L 441.150154 100.020495 
L 441.561594 100.347269 
L 441.914256 103.607835 
L 442.031811 104.103414 
L 442.44325 103.04537 
L 442.678359 103.849394 
L 442.795913 103.131782 
L 443.148576 99.265648 
L 443.207353 98.801829 
L 443.26613 98.961587 
L 443.442462 98.892386 
L 443.618793 99.548508 
L 443.736347 98.565711 
L 443.795124 98.793077 
L 443.853902 98.686313 
L 443.971456 99.033606 
L 444.265341 100.723935 
L 444.324119 100.627513 
L 444.50045 100.896456 
L 444.559227 100.995829 
L 444.618004 100.882589 
L 444.735558 100.427157 
L 444.794336 100.59014 
L 444.853113 100.705394 
L 444.91189 101.282343 
L 444.970667 101.175311 
L 445.088221 101.209553 
L 445.32333 99.999218 
L 445.382107 99.980521 
L 445.558438 98.322963 
L 445.617215 98.295083 
L 445.675992 98.094843 
L 445.969878 99.045863 
L 446.087432 98.742343 
L 446.204987 98.976185 
L 446.263764 98.843257 
L 446.381318 99.233374 
L 446.440095 99.120962 
L 447.086643 104.19295 
L 447.145421 104.149868 
L 447.204198 104.489581 
L 447.262975 104.287431 
L 447.321752 104.164102 
L 447.674415 105.892139 
L 447.791969 104.908988 
L 447.9683 103.311456 
L 448.614849 100.32191 
L 448.673626 100.328252 
L 448.908734 99.010554 
L 449.378951 102.512394 
L 449.496506 102.688715 
L 449.61406 103.518824 
L 449.731614 103.355094 
L 449.790391 103.532067 
L 449.849168 103.25078 
L 449.907945 103.382672 
L 450.084277 104.821138 
L 450.201831 104.66685 
L 450.319385 104.891819 
L 450.378162 104.855757 
L 450.613271 103.389083 
L 450.789602 103.41874 
L 450.907157 104.011813 
L 450.965934 103.950901 
L 451.083488 104.066602 
L 451.318596 103.760225 
L 451.788813 102.661435 
L 452.259031 100.53823 
L 452.317808 100.398384 
L 452.494139 99.721716 
L 452.729248 99.963807 
L 452.788025 100.031724 
L 452.964356 100.71741 
L 453.023133 100.66289 
L 453.199465 101.270477 
L 453.258242 101.145091 
L 453.317019 101.343376 
L 453.49335 102.408162 
L 453.552127 102.545829 
L 453.728459 102.239581 
L 453.846013 102.623257 
L 453.963567 103.208867 
L 454.022344 103.029348 
L 454.198676 103.391325 
L 454.551338 102.57451 
L 454.786447 103.060926 
L 454.904001 103.459098 
L 455.021555 103.281181 
L 455.13911 102.908607 
L 455.197887 103.20987 
L 455.256664 103.021106 
L 455.315441 103.146761 
L 455.374218 102.835132 
L 455.432995 102.967972 
L 455.491772 103.022246 
L 455.55055 103.352351 
L 455.609327 103.31478 
L 455.668104 103.335939 
L 455.726881 103.622068 
L 455.785658 103.419918 
L 455.844435 103.591326 
L 455.961989 103.100013 
L 456.138321 103.23773 
L 456.197098 103.120648 
L 456.667315 104.435774 
L 456.726092 104.325716 
L 456.784869 104.393865 
L 456.843646 104.509347 
L 457.019978 104.029448 
L 457.078755 104.260282 
L 457.137532 104.004999 
L 457.196309 104.049955 
L 457.255086 104.138466 
L 457.431418 103.48213 
L 457.607749 102.258667 
L 457.78408 102.977713 
L 457.842857 102.897537 
L 458.019189 103.554493 
L 458.077966 104.025623 
L 458.136743 103.853137 
L 458.19552 103.763617 
L 458.489406 102.554257 
L 458.548183 102.357259 
L 458.783291 103.144317 
L 459.0184 102.163437 
L 459.077177 102.323444 
L 459.135954 102.220662 
L 459.194731 102.194732 
L 459.371063 102.979816 
L 459.664948 105.522543 
L 459.900057 107.089931 
L 460.017611 107.780542 
L 460.370274 109.681355 
L 460.429051 109.513609 
L 460.487828 109.536085 
L 460.546605 109.680635 
L 460.605382 109.443118 
L 460.664159 109.691231 
L 460.722937 109.604993 
L 460.958045 108.539097 
L 461.134377 109.093371 
L 461.193154 109.086402 
L 461.369485 108.283936 
L 461.839702 105.737833 
L 462.133588 106.506616 
L 462.192365 106.408762 
L 462.309919 106.031658 
L 462.368696 106.078874 
L 462.427473 106.49049 
L 462.48625 106.397609 
L 462.603805 106.624091 
L 462.89769 108.38643 
L 463.074022 109.93367 
L 463.250353 110.067601 
L 463.367907 109.555132 
L 463.426684 109.57196 
L 463.485462 109.628315 
L 463.544239 109.540548 
L 463.603016 109.569955 
L 463.896901 110.104853 
L 464.073233 109.866286 
L 464.190787 109.010495 
L 464.249564 109.179622 
L 464.308341 109.158649 
L 464.367118 108.762219 
L 464.425896 108.773678 
L 464.661004 109.508075 
L 464.778558 109.039939 
L 464.896113 108.748389 
L 464.95489 108.926915 
L 465.013667 108.889161 
L 465.248775 108.165892 
L 465.307552 108.253038 
L 465.36633 108.441236 
L 465.483884 107.920144 
L 465.660215 108.45811 
L 465.777769 108.122297 
L 465.777769 108.122297 
" clip-path="url(#p1d4494c453)" style="fill: none; stroke: #1f77b4; stroke-width: 2.25; stroke-linecap: round"/>
   </g>
   <g id="patch_3">
    <path d="M 71.350928 149.1 
L 71.350928 19.44 
" style="fill: none; stroke: #262626; stroke-width: 1.875; stroke-linejoin: miter; stroke-linecap: square"/>
   </g>
   <g id="patch_4">
    <path d="M 484.56 149.1 
L 484.56 19.44 
" style="fill: none; stroke: #262626; stroke-width: 1.875; stroke-linejoin: miter; stroke-linecap: square"/>
   </g>
   <g id="patch_5">
    <path d="M 71.350928 149.1 
L 484.56 149.1 
" style="fill: none; stroke: #262626; stroke-width: 1.875; stroke-linejoin: miter; stroke-linecap: square"/>
   </g>
   <g id="patch_6">
    <path d="M 71.350928 19.44 
L 484.56 19.44 
" style="fill: none; stroke: #262626; stroke-width: 1.875; stroke-linejoin: miter; stroke-linecap: square"/>
   </g>
   <g id="text_9">
    <!-- PLS $X_{eating}$ -->
    <g style="fill: #262626" transform="translate(-31.95134 78.27) scale(0.18 -0.18)">
     <defs>
      <path id="ArialMT-50" d="M 494 0 
L 494 4581 
L 2222 4581 
Q 2678 4581 2919 4538 
Q 3256 4481 3484 4323 
Q 3713 4166 3852 3881 
Q 3991 3597 3991 3256 
Q 3991 2672 3619 2267 
Q 3247 1863 2275 1863 
L 1100 1863 
L 1100 0 
L 494 0 
z
M 1100 2403 
L 2284 2403 
Q 2872 2403 3119 2622 
Q 3366 2841 3366 3238 
Q 3366 3525 3220 3729 
Q 3075 3934 2838 4000 
Q 2684 4041 2272 4041 
L 1100 4041 
L 1100 2403 
z
" transform="scale(0.015625)"/>
      <path id="ArialMT-4c" d="M 469 0 
L 469 4581 
L 1075 4581 
L 1075 541 
L 3331 541 
L 3331 0 
L 469 0 
z
" transform="scale(0.015625)"/>
      <path id="ArialMT-53" d="M 288 1472 
L 859 1522 
Q 900 1178 1048 958 
Q 1197 738 1509 602 
Q 1822 466 2213 466 
Q 2559 466 2825 569 
Q 3091 672 3220 851 
Q 3350 1031 3350 1244 
Q 3350 1459 3225 1620 
Q 3100 1781 2813 1891 
Q 2628 1963 1997 2114 
Q 1366 2266 1113 2400 
Q 784 2572 623 2826 
Q 463 3081 463 3397 
Q 463 3744 659 4045 
Q 856 4347 1234 4503 
Q 1613 4659 2075 4659 
Q 2584 4659 2973 4495 
Q 3363 4331 3572 4012 
Q 3781 3694 3797 3291 
L 3216 3247 
Q 3169 3681 2898 3903 
Q 2628 4125 2100 4125 
Q 1550 4125 1298 3923 
Q 1047 3722 1047 3438 
Q 1047 3191 1225 3031 
Q 1400 2872 2139 2705 
Q 2878 2538 3153 2413 
Q 3553 2228 3743 1945 
Q 3934 1663 3934 1294 
Q 3934 928 3725 604 
Q 3516 281 3123 101 
Q 2731 -78 2241 -78 
Q 1619 -78 1198 103 
Q 778 284 539 648 
Q 300 1013 288 1472 
z
" transform="scale(0.015625)"/>
      <path id="ArialMT-20" transform="scale(0.015625)"/>
      <path id="DejaVuSans-Oblique-58" d="M 878 4666 
L 1516 4666 
L 2316 2981 
L 3763 4666 
L 4500 4666 
L 2578 2438 
L 3738 0 
L 3103 0 
L 2163 1966 
L 459 0 
L -275 0 
L 1906 2509 
L 878 4666 
z
" transform="scale(0.015625)"/>
      <path id="DejaVuSans-Oblique-65" d="M 3078 2063 
Q 3088 2113 3092 2166 
Q 3097 2219 3097 2272 
Q 3097 2653 2873 2875 
Q 2650 3097 2266 3097 
Q 1838 3097 1509 2826 
Q 1181 2556 1013 2059 
L 3078 2063 
z
M 3578 1613 
L 903 1613 
Q 884 1494 878 1425 
Q 872 1356 872 1306 
Q 872 872 1139 634 
Q 1406 397 1894 397 
Q 2269 397 2603 481 
Q 2938 566 3225 728 
L 3116 159 
Q 2806 34 2476 -28 
Q 2147 -91 1806 -91 
Q 1078 -91 686 257 
Q 294 606 294 1247 
Q 294 1794 489 2264 
Q 684 2734 1063 3103 
Q 1306 3334 1642 3459 
Q 1978 3584 2356 3584 
Q 2950 3584 3301 3228 
Q 3653 2872 3653 2272 
Q 3653 2128 3634 1964 
Q 3616 1800 3578 1613 
z
" transform="scale(0.015625)"/>
      <path id="DejaVuSans-Oblique-61" d="M 3438 1997 
L 3047 0 
L 2472 0 
L 2578 531 
Q 2325 219 2001 64 
Q 1678 -91 1281 -91 
Q 834 -91 548 182 
Q 263 456 263 884 
Q 263 1497 752 1853 
Q 1241 2209 2100 2209 
L 2900 2209 
L 2931 2363 
Q 2938 2388 2941 2417 
Q 2944 2447 2944 2509 
Q 2944 2788 2717 2942 
Q 2491 3097 2081 3097 
Q 1800 3097 1504 3025 
Q 1209 2953 897 2809 
L 997 3341 
Q 1322 3463 1633 3523 
Q 1944 3584 2234 3584 
Q 2853 3584 3176 3315 
Q 3500 3047 3500 2534 
Q 3500 2431 3484 2292 
Q 3469 2153 3438 1997 
z
M 2816 1759 
L 2241 1759 
Q 1534 1759 1195 1570 
Q 856 1381 856 984 
Q 856 709 1029 553 
Q 1203 397 1509 397 
Q 1978 397 2328 733 
Q 2678 1069 2791 1631 
L 2816 1759 
z
" transform="scale(0.015625)"/>
      <path id="DejaVuSans-Oblique-74" d="M 2706 3500 
L 2619 3053 
L 1472 3053 
L 1100 1153 
Q 1081 1047 1072 975 
Q 1063 903 1063 863 
Q 1063 663 1183 572 
Q 1303 481 1569 481 
L 2150 481 
L 2053 0 
L 1503 0 
Q 991 0 739 200 
Q 488 400 488 806 
Q 488 878 497 964 
Q 506 1050 525 1153 
L 897 3053 
L 409 3053 
L 500 3500 
L 978 3500 
L 1172 4494 
L 1747 4494 
L 1556 3500 
L 2706 3500 
z
" transform="scale(0.015625)"/>
      <path id="DejaVuSans-Oblique-69" d="M 1172 4863 
L 1747 4863 
L 1606 4134 
L 1031 4134 
L 1172 4863 
z
M 909 3500 
L 1484 3500 
L 800 0 
L 225 0 
L 909 3500 
z
" transform="scale(0.015625)"/>
      <path id="DejaVuSans-Oblique-6e" d="M 3566 2113 
L 3156 0 
L 2578 0 
L 2988 2091 
Q 3016 2238 3031 2350 
Q 3047 2463 3047 2528 
Q 3047 2791 2881 2937 
Q 2716 3084 2419 3084 
Q 1956 3084 1622 2776 
Q 1288 2469 1184 1941 
L 800 0 
L 225 0 
L 903 3500 
L 1478 3500 
L 1363 2950 
Q 1603 3253 1940 3418 
Q 2278 3584 2650 3584 
Q 3113 3584 3367 3334 
Q 3622 3084 3622 2631 
Q 3622 2519 3608 2391 
Q 3594 2263 3566 2113 
z
" transform="scale(0.015625)"/>
      <path id="DejaVuSans-Oblique-67" d="M 3816 3500 
L 3219 434 
Q 3047 -456 2561 -893 
Q 2075 -1331 1253 -1331 
Q 950 -1331 690 -1286 
Q 431 -1241 206 -1147 
L 313 -588 
Q 525 -725 762 -790 
Q 1000 -856 1269 -856 
Q 1816 -856 2167 -557 
Q 2519 -259 2631 300 
L 2681 563 
Q 2441 288 2122 144 
Q 1803 0 1434 0 
Q 903 0 598 351 
Q 294 703 294 1319 
Q 294 1803 478 2267 
Q 663 2731 997 3091 
Q 1219 3328 1514 3456 
Q 1809 3584 2131 3584 
Q 2484 3584 2746 3420 
Q 3009 3256 3138 2956 
L 3238 3500 
L 3816 3500 
z
M 2950 2216 
Q 2950 2641 2750 2872 
Q 2550 3103 2181 3103 
Q 1953 3103 1747 3012 
Q 1541 2922 1394 2759 
Q 1156 2491 1023 2127 
Q 891 1763 891 1375 
Q 891 944 1092 712 
Q 1294 481 1672 481 
Q 2219 481 2584 976 
Q 2950 1472 2950 2216 
z
" transform="scale(0.015625)"/>
     </defs>
     <use xlink:href="#ArialMT-50" transform="translate(0 0.09375)"/>
     <use xlink:href="#ArialMT-4c" transform="translate(66.699219 0.09375)"/>
     <use xlink:href="#ArialMT-53" transform="translate(122.314453 0.09375)"/>
     <use xlink:href="#ArialMT-20" transform="translate(189.013672 0.09375)"/>
     <use xlink:href="#DejaVuSans-Oblique-58" transform="translate(216.796875 0.09375)"/>
     <use xlink:href="#DejaVuSans-Oblique-65" transform="translate(285.302734 -16.3125) scale(0.7)"/>
     <use xlink:href="#DejaVuSans-Oblique-61" transform="translate(328.369141 -16.3125) scale(0.7)"/>
     <use xlink:href="#DejaVuSans-Oblique-74" transform="translate(371.264648 -16.3125) scale(0.7)"/>
     <use xlink:href="#DejaVuSans-Oblique-69" transform="translate(398.710938 -16.3125) scale(0.7)"/>
     <use xlink:href="#DejaVuSans-Oblique-6e" transform="translate(418.15918 -16.3125) scale(0.7)"/>
     <use xlink:href="#DejaVuSans-Oblique-67" transform="translate(462.524414 -16.3125) scale(0.7)"/>
    </g>
   </g>
  </g>
 </g>
 <defs>
  <clipPath id="p1d4494c453">
   <rect x="71.350928" y="19.44" width="413.209072" height="129.66"/>
  </clipPath>
 </defs>
</svg>
