<?xml version="1.0" encoding="UTF-8" standalone="no"?>
<svg
   width="520pt"
   height="180pt"
   viewBox="0 0 520 180"
   version="1.1"
   id="svg37"
   sodipodi:docname="PLSDimAttackM2_Processed.svg"
   inkscape:version="1.3.2 (091e20e, 2023-11-25)"
   inkscape:export-filename="PLSDimAttackM2_Processed.png"
   inkscape:export-xdpi="96"
   inkscape:export-ydpi="96"
   xmlns:inkscape="http://www.inkscape.org/namespaces/inkscape"
   xmlns:sodipodi="http://sodipodi.sourceforge.net/DTD/sodipodi-0.dtd"
   xmlns:xlink="http://www.w3.org/1999/xlink"
   xmlns="http://www.w3.org/2000/svg"
   xmlns:svg="http://www.w3.org/2000/svg"
   xmlns:rdf="http://www.w3.org/1999/02/22-rdf-syntax-ns#"
   xmlns:cc="http://creativecommons.org/ns#"
   xmlns:dc="http://purl.org/dc/elements/1.1/">
  <sodipodi:namedview
     id="namedview37"
     pagecolor="#ffffff"
     bordercolor="#000000"
     borderopacity="0.25"
     inkscape:showpageshadow="2"
     inkscape:pageopacity="0.0"
     inkscape:pagecheckerboard="0"
     inkscape:deskcolor="#d1d1d1"
     inkscape:document-units="pt"
     inkscape:zoom="0.81944444"
     inkscape:cx="335.59322"
     inkscape:cy="144"
     inkscape:window-width="1680"
     inkscape:window-height="997"
     inkscape:window-x="0"
     inkscape:window-y="25"
     inkscape:window-maximized="1"
     inkscape:current-layer="line2d_1" />
  <metadata
     id="metadata1">
    <rdf:RDF>
      <cc:Work>
        <dc:type
           rdf:resource="http://purl.org/dc/dcmitype/StillImage" />
        <dc:date>2023-12-03T20:11:26.642207</dc:date>
        <dc:format>image/svg+xml</dc:format>
        <dc:creator>
          <cc:Agent>
            <dc:title>Matplotlib v3.8.0, https://matplotlib.org/</dc:title>
          </cc:Agent>
        </dc:creator>
      </cc:Work>
    </rdf:RDF>
  </metadata>
  <defs
     id="defs1">
    <style
       type="text/css"
       id="style1">*{stroke-linejoin: round; stroke-linecap: butt}</style>
  </defs>
  <g
     id="figure_1">
    <g
       id="patch_1" />
    <g
       id="axes_1"
       transform="translate(33,-16.5)">
      <g
         id="patch_2">
        <path
           d="M 71.350928,149.1 H 484.56 V 19.44 H 71.350928 Z"
           style="fill:#ffffff"
           id="path2" />
      </g>
      <g
         id="matplotlib.axis_1">
        <g
           id="xtick_1">
          <g
             id="text_1">
            <!-- 0 -->
            <g
               style="fill:#262626"
               transform="matrix(0.165,0,0,-0.165,85.545385,173.41039)"
               id="g2">
              <defs
                 id="defs2">
                <path
                   id="ArialMT-30"
                   d="m 266,2259 q 0,813 167,1308 167,496 496,764 330,269 830,269 369,0 647,-149 278,-148 459,-428 182,-279 285,-681 103,-401 103,-1083 0,-806 -166,-1301 Q 2922,463 2592,192 2263,-78 1759,-78 1097,-78 719,397 266,969 266,2259 Z m 578,0 q 0,-1128 264,-1502 264,-373 651,-373 388,0 652,375 264,375 264,1500 0,1132 -264,1503 -264,372 -658,372 -387,0 -619,-328 Q 844,3388 844,2259 Z"
                   transform="scale(0.015625)" />
              </defs>
              <use
                 xlink:href="#ArialMT-30"
                 id="use2" />
            </g>
          </g>
        </g>
        <g
           id="xtick_2">
          <g
             id="text_2">
            <!-- 2000 -->
            <g
               style="fill:#262626"
               transform="matrix(0.165,0,0,-0.165,163.94217,173.41039)"
               id="g6">
              <defs
                 id="defs3">
                <path
                   id="ArialMT-32"
                   d="M 3222,541 V 0 H 194 q -6,203 65,391 116,309 370,609 255,300 737,694 747,612 1009,970 263,358 263,677 0,334 -240,563 -239,230 -623,230 -406,0 -650,-244 -244,-243 -247,-674 l -578,59 q 59,647 446,986 388,339 1042,339 659,0 1043,-366 385,-365 385,-906 0,-275 -113,-541 Q 2991,2522 2730,2228 2469,1934 1863,1422 1356,997 1212,845 1069,694 975,541 Z"
                   transform="scale(0.015625)" />
              </defs>
              <use
                 xlink:href="#ArialMT-32"
                 id="use3" />
              <use
                 xlink:href="#ArialMT-30"
                 x="55.615234"
                 id="use4" />
              <use
                 xlink:href="#ArialMT-30"
                 x="111.23047"
                 id="use5" />
              <use
                 xlink:href="#ArialMT-30"
                 x="166.8457"
                 id="use6" />
            </g>
          </g>
        </g>
        <g
           id="xtick_3">
          <g
             id="text_3">
            <!-- 4000 -->
            <g
               style="fill:#262626"
               transform="matrix(0.165,0,0,-0.165,256.10229,173.41039)"
               id="g10">
              <defs
                 id="defs6">
                <path
                   id="ArialMT-34"
                   d="M 2069,0 V 1097 H 81 v 516 l 2091,2968 h 459 V 1613 h 619 V 1097 H 2631 V 0 Z m 0,1613 V 3678 L 634,1613 Z"
                   transform="scale(0.015625)" />
              </defs>
              <use
                 xlink:href="#ArialMT-34"
                 id="use7" />
              <use
                 xlink:href="#ArialMT-30"
                 x="55.615234"
                 id="use8" />
              <use
                 xlink:href="#ArialMT-30"
                 x="111.23047"
                 id="use9" />
              <use
                 xlink:href="#ArialMT-30"
                 x="166.8457"
                 id="use10" />
            </g>
          </g>
        </g>
        <g
           id="xtick_4">
          <g
             id="text_4">
            <!-- 6000 -->
            <g
               style="fill:#262626"
               transform="matrix(0.165,0,0,-0.165,348.2624,173.41039)"
               id="g14">
              <defs
                 id="defs10">
                <path
                   id="ArialMT-36"
                   d="m 3184,3459 -559,-43 q -75,331 -212,481 -229,241 -563,241 -269,0 -472,-150 -265,-194 -419,-566 -153,-372 -159,-1059 203,309 497,459 294,150 616,150 562,0 957,-414 396,-414 396,-1070 0,-432 -186,-802 Q 2894,316 2569,119 2244,-78 1831,-78 1128,-78 684,439 241,956 241,2144 q 0,1328 490,1931 428,525 1153,525 541,0 886,-303 346,-303 414,-838 z M 888,1484 q 0,-290 123,-556 123,-265 345,-405 222,-139 466,-139 356,0 612,287 257,288 257,782 0,475 -254,748 -253,274 -637,274 -381,0 -647,-274 -265,-273 -265,-717 z"
                   transform="scale(0.015625)" />
              </defs>
              <use
                 xlink:href="#ArialMT-36"
                 id="use11" />
              <use
                 xlink:href="#ArialMT-30"
                 x="55.615234"
                 id="use12" />
              <use
                 xlink:href="#ArialMT-30"
                 x="111.23047"
                 id="use13" />
              <use
                 xlink:href="#ArialMT-30"
                 x="166.8457"
                 id="use14" />
            </g>
          </g>
        </g>
        <g
           id="xtick_5">
          <g
             id="text_5">
            <!-- 8000 -->
            <g
               style="fill:#262626"
               transform="matrix(0.165,0,0,-0.165,440.42251,173.41039)"
               id="g18">
              <defs
                 id="defs14">
                <path
                   id="ArialMT-38"
                   d="m 1131,2484 q -350,129 -519,366 -168,238 -168,569 0,500 359,840 360,341 956,341 600,0 966,-349 366,-348 366,-848 0,-319 -168,-555 -167,-235 -507,-364 422,-137 642,-444 220,-306 220,-731 0,-587 -416,-987 Q 2447,-78 1769,-78 1091,-78 675,323 259,725 259,1325 q 0,447 227,748 227,302 645,411 z m -112,954 q 0,-325 209,-532 210,-206 544,-206 325,0 533,204 208,205 208,502 0,310 -215,521 -214,211 -532,211 -322,0 -535,-207 -212,-206 -212,-493 z M 838,1322 q 0,-241 114,-466 114,-225 339,-349 225,-123 484,-123 403,0 665,259 263,260 263,660 0,406 -270,672 -270,266 -677,266 -397,0 -658,-263 -260,-262 -260,-656 z"
                   transform="scale(0.015625)" />
              </defs>
              <use
                 xlink:href="#ArialMT-38"
                 id="use15" />
              <use
                 xlink:href="#ArialMT-30"
                 x="55.615234"
                 id="use16" />
              <use
                 xlink:href="#ArialMT-30"
                 x="111.23047"
                 id="use17" />
              <use
                 xlink:href="#ArialMT-30"
                 x="166.8457"
                 id="use18" />
            </g>
          </g>
        </g>
        <g
           id="text_6">
          <!-- Index -->
          <g
             style="fill:#262626"
             transform="matrix(0.18,0,0,-0.18,255.94062,193.57383)"
             id="g23">
            <defs
               id="defs18">
              <path
                 id="ArialMT-49"
                 d="m 597,0 v 4581 h 606 V 0 Z"
                 transform="scale(0.015625)" />
              <path
                 id="ArialMT-6e"
                 d="m 422,0 v 3319 h 506 v -472 q 366,547 1056,547 300,0 552,-108 252,-108 377,-283 125,-175 175,-415 31,-157 31,-547 V 0 h -563 v 2019 q 0,344 -66,514 -65,170 -232,271 -167,102 -392,102 -360,0 -621,-228 Q 984,2450 984,1813 V 0 Z"
                 transform="scale(0.015625)" />
              <path
                 id="ArialMT-64"
                 d="M 2575,0 V 419 Q 2259,-75 1647,-75 1250,-75 917,144 584,363 401,755 q -182,392 -182,901 0,497 165,902 166,405 497,620 332,216 741,216 300,0 534,-127 235,-126 382,-329 v 1643 h 559 V 0 Z M 797,1656 q 0,-637 268,-953 269,-315 635,-315 369,0 626,301 258,302 258,920 0,682 -263,1000 -262,319 -646,319 -375,0 -627,-306 -251,-306 -251,-966 z"
                 transform="scale(0.015625)" />
              <path
                 id="ArialMT-65"
                 d="m 2694,1069 581,-72 Q 3138,488 2766,206 2394,-75 1816,-75 1088,-75 661,373 234,822 234,1631 q 0,838 431,1300 432,463 1119,463 666,0 1088,-453 422,-453 422,-1275 0,-50 -3,-150 H 816 q 31,-547 309,-838 278,-290 694,-290 309,0 528,162 219,163 347,519 z M 847,1978 h 1853 q -37,419 -212,628 -269,325 -697,325 -388,0 -652,-259 -264,-259 -292,-694 z"
                 transform="scale(0.015625)" />
              <path
                 id="ArialMT-78"
                 d="M 47,0 1259,1725 138,3319 h 703 l 509,-778 q 144,-222 231,-372 138,206 253,365 l 560,785 h 672 L 1919,1756 3153,0 H 2463 L 1781,1031 1600,1309 728,0 Z"
                 transform="scale(0.015625)" />
            </defs>
            <use
               xlink:href="#ArialMT-49"
               id="use19" />
            <use
               xlink:href="#ArialMT-6e"
               x="27.783203"
               id="use20" />
            <use
               xlink:href="#ArialMT-64"
               x="83.398438"
               id="use21" />
            <use
               xlink:href="#ArialMT-65"
               x="139.01367"
               id="use22" />
            <use
               xlink:href="#ArialMT-78"
               x="194.62891"
               id="use23" />
          </g>
        </g>
      </g>
      <g
         id="matplotlib.axis_2" />
      <g
         id="line2d_1">
        <path
           d="m 90.133158,140.20573 0.04608,0.0703 0.04608,-0.20166 0.04608,0.18328 0.184321,0.11322 0.09216,-0.037 0.13824,-0.24664 0.04608,0.11945 0.13824,-0.0575 0.04608,0.0772 0.599041,-1.57657 0.04608,-0.0293 0.04608,0.11534 0.04608,-0.0424 0.27648,-1.13978 0.138241,0.49934 0.04608,-0.0402 0.09216,-0.26603 0.04608,0.063 0.04608,-0.0172 0.36864,1.5658 0.506881,2.85423 0.32256,0.99373 0.13824,-0.14246 0.138241,-0.0859 0.04608,0.0476 0.27648,-1.31917 0.09216,0.13164 0.04608,0.0659 0.2304,-0.92596 0.184321,-0.36974 0.36864,0.74633 0.18432,-0.61829 0.09216,0.27556 0.04608,-0.15355 0.04608,-0.0354 0.13824,0.64105 0.04608,-0.14279 0.2304,-0.68725 0.414721,0.85499 0.09216,0.0549 0.27648,-0.77037 0.04608,0.0162 0.27648,-1.31501 0.230401,-1.45024 0.04608,0.2186 0.04608,-0.11697 0.04608,0.0943 0.2304,0.0803 0.552961,1.91118 0.09216,-0.2257 0.18432,-0.11827 0.09216,-0.40634 0.04608,0.0809 0.04608,-0.001 0.599041,-3.11611 0.09216,-0.41565 0.04608,0.0473 0.18432,-0.38361 0.184321,1.22557 0.04608,-0.0615 0.13824,-0.13022 0.322561,1.1845 0.0461,0.0555 0.2304,0.88148 0.0461,-0.23929 0.0461,0.22374 0.0461,-0.0794 0.18432,1.16255 0.0461,-0.0483 0.0461,0.0106 0.18432,0.39414 0.0461,0.0307 0.0461,0.32816 0.0461,-0.16562 0.18432,-0.34437 0.0461,0.4774 0.0922,-0.15102 0.18432,-1.0162 0.0922,-0.0889 0.50688,-1.65846 0.13824,-0.71307 0.0461,0.15785 0.0461,-0.15639 0.0922,-0.0819 0.18432,-0.57517 0.0461,0.12579 0.0461,-0.1296 0.2304,-0.49886 0.27648,-0.43863 0.0461,-0.0985 0.13824,0.32862 0.0461,-0.0495 0.36865,-1.38614 0.0461,-0.0508 0.18432,-0.42599 0.27649,-1.0626 0.0461,0.0764 0.41472,1.4028 0.2304,1.68685 0.32256,1.59981 0.0922,-0.0905 0.18432,0.54124 0.0461,0.0483 0.32256,-1.16554 0.13824,0.0339 0.27648,-1.49467 0.13824,-0.75189 0.27648,-1.43666 0.13824,-0.40785 0.13824,-0.80002 0.0461,0.29307 0.0922,0.23381 0.0461,-0.11033 0.0461,-0.10767 0.27648,1.3919 0.0922,-0.0731 0.0922,0.0425 0.2304,1.21414 0.0461,-0.15166 0.0461,-0.20328 0.0461,0.0212 0.2304,0.5985 0.0461,-0.0861 0.0922,-0.0312 0.18432,0.54587 0.0461,-0.004 0.2304,0.8194 0.41472,1.64542 0.32256,0.65683 0.0461,-0.14432 0.0461,-0.0231 0.0461,-0.16714 0.0461,0.16949 0.0461,0.0222 0.0922,-0.44034 0.0461,0.0323 0.0922,-0.0167 0.32256,0.63766 0.13824,-0.21799 0.50688,2.04057 0.0461,-0.0505 0.13824,0.0367 0.13824,-0.0463 0.0461,-0.0559 0.0461,0.20003 0.0461,-0.075 0.0461,-0.19957 0.0461,0.12858 0.0461,0.0826 0.0461,-0.0952 0.0461,-0.008 0.18432,-0.8054 0.0922,0.14975 0.32256,-0.14544 1.05984,-4.40708 0.0922,0.0857 0.18432,0.53595 0.32256,1.88831 0.0922,-0.028 0.0922,0.15853 0.0461,0.26018 0.0461,-0.36544 0.41472,-1.36123 0.32256,-1.90795 0.0461,0.0249 0.0461,-0.0949 0.0461,-0.16754 0.0461,0.20154 0.13824,-0.0335 0.18432,0.60815 0.0461,-0.0746 0.36864,1.41014 0.0461,-0.0686 0.0461,-0.0142 1.01376,-3.01381 0.18432,0.23684 0.0461,-0.17415 0.0461,0.21951 0.0461,-0.0176 0.0461,-0.14802 0.41472,2.19573 0.27648,1.09218 0.0461,-0.10047 0.0461,-0.0452 0.32256,-1.7477 0.32256,-0.97125 0.0461,-7.1e-4 0.13824,-0.72769 0.0461,0.0312 1.19809,2.26034 0.32255,-1.42312 0.18432,-0.46109 0.0461,0.13458 0.18432,0.15371 0.0922,-0.0391 0.41472,1.30863 0.27648,-0.32796 0.0922,0.22802 0.0461,-0.0778 0.18432,-0.36031 0.0461,0.0821 0.13824,-0.14621 0.18432,0.30468 0.13824,0.94166 0.18432,-0.49207 0.2304,0.86423 0.0922,-0.0985 0.18432,-0.23786 0.0922,0.12836 0.13824,-0.4674 0.0461,0.0174 0.32256,-1.33782 0.0461,0.059 0.0461,0.20324 0.0461,-0.25314 0.0461,-0.0173 0.36864,-1.22809 0.0461,0.0856 0.2304,-0.24661 0.0461,0.0752 0.2304,-0.66786 0.0461,0.0185 0.13824,-0.16484 0.0922,0.12748 0.0461,0.0163 0.50688,3.0507 0.32256,1.3096 0.0461,-0.15886 0.0461,0.0824 0.13824,0.18063 0.0461,-0.0419 0.36864,-0.77143 0.18432,-0.29374 0.0922,-0.24564 0.0461,0.1593 0.0461,-0.0913 0.13824,-0.23135 0.0461,0.0591 0.27648,-1.38618 0.13824,-0.24185 0.32256,0.67487 0.0461,-0.0917 0.0461,-0.14692 0.32256,2.10567 0.2304,0.36944 0.2304,0.53926 0.82945,3.87797 0.0922,-0.17443 0.0461,0.11431 0.13824,0.30003 0.0922,-0.22073 0.0461,0.1005 0.0922,-0.52234 0.13824,-0.7803 0.0461,0.12725 0.0461,-0.18779 0.0461,0.034 0.13824,0.41724 0.0461,-0.0479 0.0461,0.15547 0.0461,-0.13726 0.0461,-0.2819 0.0461,0.0914 0.0922,0.32489 0.18432,-0.49825 0.0461,0.0261 0.36864,-1.2419 0.0461,0.0481 0.27648,-0.9255 0.0461,0.33015 0.0461,-0.13449 0.13824,0.0299 0.0461,0.0453 0.41472,-1.54854 0.0461,-0.37116 0.0922,0.13186 0.13824,-0.17717 0.18432,-0.4953 0.0461,0.0513 0.2304,0.64408 0.0461,-0.26313 0.0461,0.18452 0.27648,0.81179 0.13824,-0.17694 0.18432,0.36908 0.0922,-0.0532 0.0922,-0.0598 0.2304,0.61877 0.0922,-0.26273 0.0461,0.13002 0.0922,-0.12457 0.36864,-1.15426 0.13824,0.1715 0.0461,-0.29883 0.0922,0.0955 0.0461,-0.12755 0.0461,0.12448 0.13824,0.1244 0.0461,-0.0406 0.0922,-0.0555 0.13824,0.70294 0.13824,0.87793 0.0461,-0.176 0.0461,-0.0814 0.0461,-0.31561 0.0922,0.11901 0.27648,-0.82878 0.0461,0.0245 0.0461,0.15718 0.0461,-0.14035 0.18433,-1.18378 0.0461,0.006 0.18432,0.32557 0.2304,-0.46924 0.0461,-0.074 0.0922,0.49146 0.0461,-0.0514 0.0461,-0.27517 0.0461,0.22049 0.18432,0.50271 0.18432,-0.37109 0.32256,1.47332 0.0461,-0.18746 0.0461,-0.12511 0.50688,1.76615 1.05984,-3.51134 0.0922,0.30436 0.0461,-0.24784 0.0461,0.037 0.13824,0.0929 0.0461,-0.089 0.0461,0.10179 0.0922,0.13712 0.0461,-0.0215 0.0922,0.0171 0.0461,0.2653 0.0461,-0.11679 0.2304,-0.90022 0.0922,-0.57414 0.0461,0.19751 0.0922,-0.38712 0.0461,0.12464 0.0922,0.14729 0.0461,-0.10561 0.27648,0.31468 0.18432,1.1195 0.0461,0.0409 0.2304,1.52271 0.0922,0.1198 0.18432,-0.40776 0.18432,0.39534 0.0461,-0.0472 0.0461,-0.0513 0.59904,2.90241 0.0461,-0.0277 0.0922,0.49016 0.0461,-0.10702 0.2304,0.45991 0.0461,-0.0709 0.41472,-1.51408 0.0922,-0.41764 0.13824,-0.55746 0.0922,-0.0668 0.0922,0.48346 0.0461,-0.23694 0.0461,-0.0703 0.0461,0.41936 0.0461,-0.0796 0.0461,-0.12764 0.41473,2.125 0.0461,-0.23339 0.0461,0.1663 0.18432,0.45997 0.0922,0.3848 0.0461,-0.21357 0.0461,-0.0212 0.0461,0.13769 0.18432,-0.47778 0.0922,0.0963 0.0461,-0.2124 0.0922,0.0436 0.0922,0.39581 0.0461,-0.15379 0.27648,-0.88786 0.13824,0.22534 0.2304,-1.22178 0.0922,0.25702 0.0461,-0.036 0.0922,-0.28352 0.0461,0.10487 0.0922,-0.013 0.13824,-0.12676 0.0461,0.0706 0.27648,0.75012 0.0461,0.0354 0.27648,0.87692 0.2304,-0.76731 0.27648,0.0605 0.27648,0.0853 0.0922,-0.62267 0.0461,0.0689 0.27648,1.18051 0.0922,-0.10921 0.0461,-0.13933 0.0461,0.0511 0.18432,0.4777 0.0461,-0.13254 0.13824,0.0438 0.0461,0.0578 1.01376,-4.87117 0.0461,0.24377 0.0461,0.0839 0.32256,-1.99119 0.13824,0.0387 0.13824,0.3627 0.0461,-0.15167 0.0461,0.18973 0.0461,-0.13083 0.0461,0.0785 0.13824,-0.18459 0.13824,0.39274 0.0922,-0.21942 0.0922,0.35737 0.0461,-0.13636 0.27648,-0.96479 0.2304,-0.82871 0.0922,0.10535 0.18432,0.69791 0.0461,-0.0791 0.0461,-0.0662 0.0461,0.0731 0.0461,0.0822 0.0461,-0.11302 0.0922,0.0352 0.32256,0.63429 0.50688,-2.07874 0.0461,0.0641 0.0461,-0.10266 0.13824,-0.0989 0.18432,-0.4881 0.0461,0.005 0.18432,0.59533 0.0461,-0.19856 0.0461,0.17176 0.18432,0.76933 0.0461,-0.0872 0.27648,-0.20986 0.0922,-0.057 0.0461,0.19086 0.0922,-0.21655 0.0461,0.21611 0.27648,0.12016 0.13824,-0.50338 0.0461,-0.009 0.0922,-0.36403 0.0922,0.0732 0.59904,2.13775 0.2304,1.35762 0.0461,-0.1408 0.0922,0.0653 0.0922,0.34246 0.0461,-0.1752 0.0922,-0.0254 0.55296,-1.89542 0.0461,0.21928 0.0461,-0.20912 0.78336,-3.38595 0.18432,0.24458 0.27648,0.60589 0.2304,1.27141 0.0461,-0.20423 0.50688,-1.37614 0.0461,-0.0424 0.13824,-0.3264 0.0922,0.12074 0.0461,-0.2787 0.0461,0.26698 0.0922,0.0781 0.32256,1.30211 0.0461,-0.0346 0.0922,-0.008 0.0461,-0.19681 0.13824,0.50402 0.0461,-0.003 0.13824,0.172 0.0461,-0.0623 0.18432,-0.50665 0.18432,-0.28972 0.2304,0.0485 0.0922,-0.58317 0.0922,-0.61287 0.0461,0.25812 0.0461,-0.0284 0.27649,0.46138 0.13824,-0.79288 0.36864,-10.96059 0.9216,-36.489833 0.13824,-1.490651 0.96768,-16.984672 0.36864,-7.1698 0.78336,-7.937653 0.13824,-0.642391 0.18432,-1.288157 0.2304,-2.186232 0.13824,-0.910417 0.59904,-3.466899 0.0461,0.216431 0.0461,-0.01771 0.36864,-0.925756 0.0922,0.04715 0.18432,0.704841 0.0461,-0.201147 0.2304,-0.560173 0.0461,0.08011 0.0922,0.408727 0.0461,-0.0975 0.0461,2.81e-4 0.64512,-1.860629 0.0922,0.139832 0.0461,-0.211783 0.0461,0.182267 0.18432,1.7612 0.96769,9.661545 0.13824,-0.552647 0.27648,1.703337 0.0922,0.281944 0.0461,-0.09634 1.05984,-7.069175 0.0461,-0.06734 0.0922,0.282059 0.0461,-0.279174 0.0461,0.164625 0.0922,0.489371 0.0461,-0.193541 0.0922,0.07311 0.0461,-0.108594 0.27648,-1.9044 0.32256,-2.545614 0.32256,-1.348871 0.4608,-6.394337 0.13824,-1.586808 0.4608,-5.816074 0.2304,0.6912 0.41472,3.594418 0.27648,3.665146 0.55296,3.851973 0.0461,-0.152436 0.27648,-1.092631 0.36864,1.515262 0.0461,-0.272095 0.0461,-0.101778 0.13824,-0.907612 0.32256,2.230247 0.0461,-0.05166 0.87552,4.079647 0.32256,2.385322 0.0922,0.748037 0.0922,-0.188053 0.0461,-0.0081 0.0922,0.166602 0.0461,-0.122755 0.32256,-1.074774 0.13824,-0.478891 0.0461,0.02523 0.0461,-0.01319 0.4608,2.06001 0.18432,0.793582 0.2304,1.149612 0.32256,-2.675468 0.2304,-1.661734 0.0922,0.330833 0.0922,-0.204587 0.13824,-0.462809 0.0461,-0.033 0.2304,1.255611 0.55296,4.93343 0.0461,-0.04341 0.59904,4.009314 0.2304,-0.417375 0.27648,1.938145 0.0461,-0.04476 0.27648,-0.717207 0.0922,0.176194 0.18432,0.684186 0.0461,0.261073 0.0461,-0.06387 0.0461,-0.09829 0.0461,0.118422 0.13824,0.04542 0.36864,1.632859 0.0461,-0.04143 0.0922,0.193535 0.0461,-0.0721 0.32256,-2.035387 0.0461,0.02847 0.2304,0.704283 0.0461,-0.157325 0.18432,-0.746628 0.0922,-0.191938 0.50688,2.474947 0.13824,-0.24857 0.32256,1.634854 0.2304,-0.42376 0.0922,0.2351 0.23041,-0.63535 0.2304,0.976829 0.0461,-0.02226 0.32256,1.170556 0.59904,-3.958264 0.32256,-1.562734 0.32256,1.757006 0.55296,3.450231 0.2304,-0.219242 0.36864,-0.841052 0.50688,1.066722 0.27648,2.240385 0.13824,0.419267 0.0461,0.06393 0.0461,-0.164057 0.0922,0.04931 0.27648,2.107389 0.18432,0.613538 0.0922,0.530174 0.32256,1.476966 0.0461,0.260078 0.0461,-0.03562 0.0461,-0.159287 0.0922,0.04021 0.18432,-0.659148 0.32256,-0.884628 0.18432,0.298121 0.41472,-0.521977 0.27648,0.733915 0.0461,-0.110104 0.0922,-0.258196 0.18432,-0.674745 0.13824,0.320887 0.0922,-0.34409 0.0461,0.09707 0.18432,0.326049 0.0461,-0.06827 0.0922,-0.237233 0.2304,0.85719 0.0461,-0.220705 0.0461,0.05529 0.0922,0.219122 0.0461,-0.154402 0.59905,-2.230507 0.9216,4.995883 0.18432,-0.62927 0.0922,0.328098 0.0461,0.269196 0.0461,-0.291052 0.0461,0.172518 0.18432,0.35956 0.0922,0.12259 0.0922,-0.16853 0.32256,1.391496 0.0461,-0.228049 0.0461,-0.06916 0.0461,-0.404158 0.0461,0.178068 0.27648,0.315879 0.0461,-0.06205 0.0461,0.0917 0.0461,0.07564 0.0461,-0.09841 0.2304,-0.942284 0.0922,-0.04289 0.0922,0.17638 0.0461,-0.13005 0.36864,-0.539098 0.13824,0.03834 0.0461,-0.212425 0.0461,0.06678 0.32256,0.747684 0.0461,0.05934 0.27648,0.909449 0.13824,0.264537 0.2304,-2.425191 0.50688,-6.6031 0.2304,-1.790568 0.0461,0.116526 0.0461,-0.141935 0.13824,0.593897 0.0922,0.371237 0.0461,-0.07459 0.0461,-0.06316 0.0461,0.05447 0.0922,0.261377 0.27648,-1.36793 0.0461,-0.120132 0.0461,0.09092 0.2304,0.263885 0.36864,0.347293 0.2304,0.980912 0.32256,1.516938 0.0461,-0.02302 0.78336,2.717119 0.18432,0.810432 0.18432,0.679354 0.18432,0.639525 0.0922,-0.09391 0.0922,-0.141708 0.13824,0.52229 0.18432,-0.230164 0.0922,-0.04872 0.0461,0.105265 0.0922,4.61e-4 0.18432,0.593038 0.59904,1.784502 0.0461,-0.07204 0.27648,0.263461 0.4608,-2.23673 0.0461,0.178056 0.27648,0.347486 0.0922,-0.127334 0.0461,0.05159 0.27648,1.917769 0.0922,0.228038 0.13824,-0.588423 0.0922,0.219911 0.0461,-0.04004 0.36864,-0.969513 0.0922,-0.359396 0.0461,0.06423 0.0461,-0.0606 0.0461,0.09007 0.18432,-0.119006 0.2304,-1.255668 0.18432,-0.06319 0.0461,0.02933 0.13824,-0.472562 0.18432,-0.919288 0.0922,-0.11735 0.0461,0.05157 0.55296,0.102874 0.4608,1.043803 0.32256,1.063474 0.0922,-0.139815 0.0461,0.06636 0.0461,0.0501 0.50688,2.496332 0.27648,0.83104 0.41473,2.432666 0.0461,-0.240891 0.18432,-0.608368 0.0461,0.02383 0.27648,0.576243 0.0461,-0.06678 0.0461,-0.145989 0.0461,0.06024 0.18432,0.401059 0.0461,0.0237 0.2304,1.414667 0.0461,-0.147277 0.0461,-0.165957 0.0461,0.110481 0.0922,0.261796 0.2304,1.502906 0.13824,0.28016 0.0461,-0.139814 0.0461,-0.165592 0.0461,0.09322 0.32256,1.55109 0.0461,-0.09569 0.13824,-0.384932 0.0461,-0.110021 0.0461,0.104716 0.18432,0.333619 0.32256,1.151961 0.0461,0.09382 0.0461,-0.07332 0.0461,-0.187998 0.0461,0.214466 0.0461,0.412889 0.0922,-0.09782 0.2304,-0.523413 0.0461,-0.326624 0.0922,0.02834 0.0461,0.10766 0.0461,-0.144692 0.18432,-0.606703 0.0461,0.03317 0.0922,0.01465 0.18432,-0.79772 0.2304,-0.581018 0.2304,-1.092784 0.0922,0.0371 0.0461,-0.394272 0.64512,-6.111921 0.0461,-0.10197 0.27648,-2.672384 0.13824,-0.04498 0.0461,0.08744 0.0461,-0.119952 0.0461,-0.249943 0.0461,0.133776 0.18432,0.502094 0.0922,-0.172856 0.0461,-0.312511 0.0922,0.09016 0.4608,2.020756 0.18432,-1.018161 0.2304,-1.630592 0.0922,-0.409095 0.0461,0.09212 0.13824,-0.124603 0.18432,-0.848135 0.0461,0.12484 0.2304,1.604517 0.18432,1.577608 0.0922,-0.152273 0.2304,-0.792894 0.0461,-0.148517 0.0461,0.139189 0.0461,0.141792 0.41472,-2.347696 0.0461,-0.0033 0.27648,1.531324 0.59904,2.117713 0.18432,0.07397 0.0922,-0.117106 0.18432,-0.903185 0.0922,0.308143 0.0461,-0.07436 0.2304,-0.209094 0.18432,-1.052322 0.0922,0.354023 0.0461,-0.209148 0.0461,-0.01964 0.27648,1.093556 0.50688,1.864366 0.0461,0.02378 0.13824,0.715636 0.0461,-0.04924 0.0922,-0.05438 0.0461,-0.0425 0.2304,0.774288 0.0922,0.206298 0.0922,0.526611 0.0922,-0.167084 0.41472,1.66099 0.0461,-0.161428 0.0461,-0.14175 0.18432,0.613004 0.0922,0.151636 0.13824,0.200767 0.0922,-0.237084 0.0461,0.152092 0.0461,0.125756 0.0461,-0.103816 0.13824,-0.120353 0.0461,0.168122 0.36864,1.028025 0.0461,-0.155562 0.0461,0.103101 0.13824,0.391186 0.18432,0.01192 0.13824,-0.592105 0.2304,-1.067444 0.18432,0.6817 0.0461,0.306742 0.0922,-0.06644 0.0461,0.07409 0.0461,-0.04855 0.0922,0.04208 0.0461,0.02611 0.23041,1.394218 0.27648,-0.07806 0.41472,1.328603 0.18432,-0.636567 0.13824,-0.07106 0.0922,-0.57999 0.4608,-3.614709 0.32256,-2.583619 0.13824,-0.323389 0.13824,0.340637 0.0461,0.178046 0.0461,-0.139949 0.13824,-0.600101 0.13824,0.08507 0.0461,-0.187592 0.0461,0.123547 0.18432,0.318652 0.0922,0.307335 0.0461,-0.104102 0.0461,0.09351 0.18432,-1.075585 0.0461,0.130596 0.0461,0.07348 0.36864,-1.282807 0.0461,0.0098 0.0461,0.188934 0.0461,-0.220295 0.13824,-0.707892 0.13824,-0.70402 0.0922,0.04675 0.41472,0.895462 0.0461,0.118297 0.0461,-0.160904 0.13824,0.268101 0.27648,1.649336 0.0461,0.05253 0.0461,0.225923 0.0461,-0.140704 0.0461,-0.194836 0.0461,0.184558 0.13824,0.316983 0.0461,-0.06494 0.0922,0.02599 0.18432,-0.54326 0.0922,-0.573569 0.0461,0.259188 0.59904,2.142395 0.0922,0.514068 0.50688,3.253161 0.13824,0.578961 0.0461,-0.212961 0.0461,0.135563 0.0922,0.482684 0.18432,1.017824 0.0922,0.109453 0.0461,-0.04619 0.0461,-0.08216 0.0461,0.272089 0.0461,-0.116192 0.2304,-0.952163 0.0461,0.04604 0.0461,0.06856 0.18433,-0.870016 0.2304,-1.543405 0.32256,-0.903447 0.0461,0.143313 0.50688,1.482085 0.36864,1.987018 0.0461,-0.0947 0.2304,0.993982 0.0461,-0.237357 0.0461,0.09589 0.18432,0.449751 0.0461,3.33e-4 0.18432,-0.485289 0.13824,0.241044 0.0461,0.356281 0.0461,-0.138326 0.13824,-0.06611 0.0461,0.0917 0.2304,0.984023 0.0922,0.04768 0.2304,1.240589 0.0461,0.02979 0.13824,-0.364073 0.0461,0.10317 0.0461,-0.164946 0.0922,-0.140849 0.27648,-1.084729 0.2304,-1.469056 0.18432,-1.116245 0.0461,-0.06216 0.18432,-0.72191 0.18432,0.199008 0.0461,0.103274 0.27648,1.730535 0.6912,3.999911 0.13824,0.01042 0.27648,1.145053 0.0922,0.363346 0.0461,-0.109518 0.13824,-0.109887 0.13824,0.328641 0.0461,-0.01145 0.0461,-0.238471 0.0461,0.254394 0.13824,-0.09883 0.18432,-0.40296 0.2304,-0.315511 0.13824,-0.835069 0.4608,-2.872844 0.18432,-0.271671 0.0461,-0.06426 0.0461,0.124253 0.0461,0.0074 0.13825,1.215129 0.18432,0.791274 0.0922,0.656112 0.2304,1.896107 0.0461,0.126087 0.0461,-0.09558 0.13824,-0.05892 0.18432,-0.737782 0.0461,0.227929 0.0922,-0.02985 0.0461,-0.01991 0.0922,-0.533036 0.2304,-1.283415 0.0922,0.23104 0.0461,-0.139855 0.0922,-0.535465 0.0461,0.364956 0.0461,0.224103 0.0461,-0.0757 0.27648,-0.395352 0.13824,0.08155 0.2304,-1.752336 0.32256,-2.898097 0.27648,-2.376306 0.41472,-1.308132 0.0461,0.06458 0.32256,0.503514 0.13824,-0.04247 0.13824,-0.0657 0.36864,2.321105 0.0461,-0.08866 0.0922,-0.06336 0.18432,-1.103123 0.13824,-2.083467 0.64512,-10.134493 0.0461,0.04465 0.0461,-0.0961 0.0922,-0.178978 0.27648,2.238409 0.96768,5.025363 0.0461,-0.06306 0.0461,-0.235583 0.0461,0.315699 0.0922,-0.06919 0.2304,-1.785977 0.4608,-2.788901 0.0461,0.02 0.18432,0.285091 0.18433,0.350383 1.19808,7.801324 0.0461,-0.0096 0.2304,0.238668 0.18432,0.0157 0.0922,-0.01563 0.0461,0.167846 0.0922,-0.04799 0.18432,-0.761558 0.82944,-5.691139 0.0922,0.317971 0.0461,-0.198647 0.0461,0.194061 0.13824,-0.252823 0.36864,-1.929896 0.0461,0.167689 0.0461,-0.187497 0.0922,-0.03939 0.32256,-1.8493 0.0922,0.04881 0.13824,0.01329 0.18432,0.54404 0.13824,-0.329822 0.0922,0.167799 0.27648,1.475907 0.0461,0.0039 0.36864,1.298019 0.2304,1.455549 0.0461,-0.06576 0.0461,0.04968 0.13824,0.817942 0.36864,2.195094 0.0461,-0.187569 0.0461,0.0736 0.0461,0.213154 0.0922,-0.03296 0.0922,-0.234361 0.0461,0.120412 0.0461,0.208833 0.0461,-0.02633 0.32256,-1.265206 0.18432,0.443456 0.18432,-0.789536 0.0461,0.08519 0.0461,0.0039 0.23041,-0.415767 0.36863,0.427448 0.0461,0.04496 0.41473,2.03007 0.0461,0.05335 0.0461,-0.04033 0.13824,-0.05985 0.32256,1.14788 0.0461,0.09657 0.36864,2.53546 0.50688,3.492726 0.18432,0.200885 0.0461,-0.09613 0.0461,0.108654 0.0922,0.57149 0.0922,0.54938 0.0461,-0.06243 0.0922,0.201389 0.0461,-0.127755 0.0461,0.03698 0.27648,-1.068704 0.18432,-0.313806 0.0461,0.04414 0.0461,0.19307 0.0461,-0.05477 0.13824,-0.439241 0.0461,-0.202357 0.0461,0.05326 0.0461,0.145608 0.0461,-0.212847 0.0922,0.01728 0.0461,-0.208787 0.0461,0.237232 0.32256,1.673531 0.0922,-0.247486 0.0461,0.275848 0.0461,-0.156106 0.2304,-0.835782 0.64512,-5.325157 0.0461,0.17464 0.32256,0.675161 0.0461,-0.125173 0.13824,-0.320097 0.0461,0.0098 0.13824,0.512979 0.50688,-2.921859 0.2304,-2.005068 0.2304,-4.449454 0.55296,-14.403841 0.27648,-2.799772 0.18433,0.965042 0.27647,3.133974 1.05985,6.030971 0.2304,1.840322 0.78336,2.725421 0.18432,0.09035 1.29024,5.622327 0.0461,-0.03612 0.2304,-0.260969 0.0922,0.09725 0.64512,3.347681 0.0461,0.04493 0.13824,0.713694 0.0461,-0.121561 0.18432,0.349522 0.2304,-0.804127 0.0461,0.225257 0.0922,-0.16584 0.2304,0.650996 0.0922,-0.04657 0.18432,0.331833 0.41472,1.030544 0.0461,-0.108957 0.0461,-0.113341 0.0461,0.140322 0.0922,0.11428 0.13824,0.651206 0.0461,-0.01031 0.0461,-0.19661 0.0461,0.146106 0.13824,0.230576 0.0461,0.304782 0.0461,-0.0086 0.0922,-0.56022 0.0922,0.106992 0.4608,-1.287973 0.27648,-1.627581 0.0461,-0.056 0.18431,-0.49424 0.2304,0.718476 0.73729,3.352441 0.0461,-0.164597 0.0461,0.197117 0.0461,0.09742 0.13824,-0.513376 0.0461,0.09007 0.13824,0.429515 0.0461,-0.0352 0.32256,-1.556339 0.0922,-0.334214 0.2304,-1.721265 0.0461,0.09738 0.27648,-1.219696 0.32256,1.356946 0.13824,1.287844 0.41472,3.448648 0.13824,0.5315 0.36864,3.405909 0.27648,0.848648 0.0461,-0.05553 0.0461,0.05363 0.13824,0.523544 0.0461,-0.02366 0.18432,-0.831722 0.0461,0.03866 0.32256,0.76872 0.59904,3.592111 0.0461,0.0057 0.13824,0.685899 0.0922,-0.124223 0.2304,0.50357 0.32256,0.673755 0.59904,-1.601765 0.0461,0.139886 0.0461,-0.176233 0.2304,-0.678848 0.0461,0.103129 0.0461,-0.26686 0.0922,0.03522 0.0922,-0.225976 0.0461,0.04085 0.0922,0.102041 0.0461,-0.07223 0.50688,-3.3179 0.0461,0.15086 0.2304,-0.800172 0.13824,0.03283 0.23041,0.952828 0.0461,-0.03857 0.13824,0.858891 0.32256,2.516119 0.0461,0.03208 0.41472,1.708144 0.18432,0.292299 0.2304,-1.414393 0.0461,0.22204 0.0461,-0.102616 0.2304,-0.478023 0.0461,-0.02625 0.9216,-4.575341 0.0461,-0.0898 0.0461,0.181942 0.0461,-0.166102 0.18432,-0.566984 0.0461,0.04055 0.32256,1.589876 0.13824,0.22802 0.0922,0.446969 0.2304,1.082911 0.2304,0.811967 0.2304,-1.066401 0.0922,0.357195 0.0461,-0.02698 0.13824,-0.358863 0.18432,0.230928 0.13824,0.495669 0.0922,0.462929 0.18432,0.912802 0.0922,-0.14918 0.2304,0.798156 0.0461,-0.152099 0.0461,0.311786 0.0922,-0.08394 0.0461,-0.01004 0.0922,0.439876 0.0461,-0.242464 0.0461,0.01133 0.41472,1.162193 0.18432,-0.419847 0.13824,0.560886 0.0461,-0.232337 0.0461,-0.01686 0.18432,0.730488 0.0922,0.04688 0.32256,-0.739874 0.18433,-0.257492 0.13824,0.383484 0.0461,-0.110399 0.13824,-0.09373 0.18432,-0.249507 0.13824,0.26971 0.0461,-0.0087 0.13825,0.482751 0.0461,-0.01351 0.13824,-0.391528 0.0461,0.03935 0.0922,0.327028 0.0461,-0.158305 0.0461,0.03246 0.2304,-0.383886 0.13824,0.09972 0.0461,-0.150007 0.0461,0.125511 0.18432,0.254282 0.0922,-0.07961 0.0922,-0.658064 0.0461,0.197306 0.0922,0.54768 0.18432,0.922847 0.13824,-0.315676 0.0461,0.04186 0.27648,-0.495092 0.78336,-4.308659 0.32256,-0.763936 0.0461,0.211251 0.0461,-0.239946 0.0461,0.0037 0.0461,-0.302348 0.0461,0.110805 0.0922,0.100901 0.2304,-0.513092 0.18432,0.706483 0.0461,-0.06082 0.0461,-0.05011 0.0461,0.134112 0.0461,-0.07914 0.0461,-0.03986 0.0461,0.155196 0.0461,-0.115944 0.0922,-0.528643 0.2304,-1.505652 0.55296,-4.016796 0.18432,1.077157 0.13824,0.732427 0.18432,0.477149 0.27648,1.365308 0.0461,-0.03008 0.36864,-2.624552 0.87552,-9.708691 0.32256,1.388605 0.0922,0.779953 0.0461,-0.207996 0.13824,0.07069 0.0922,-0.26738 0.0461,0.182978 0.13824,0.437455 0.0461,-0.16812 0.0922,-0.03875 0.0922,-0.36664 0.13825,0.325398 0.0461,-0.167743 0.0461,0.07602 0.32256,1.279652 0.0461,-0.03108 0.18432,0.299754 0.0461,-0.04159 0.18432,0.701556 0.0461,0.03068 1.19808,6.679288 0.18432,1.4115 0.0461,0.116558 0.0461,-0.198106 0.0461,0.264111 0.0922,0.166692 0.0922,-0.498767 0.0461,0.122216 0.0461,0.04022 0.4608,-3.231364 0.13824,0.210349 0.32256,-1.141628 0.0461,0.04558 0.27648,1.46968 0.0461,-0.05551 0.0461,0.05925 0.0461,0.03303 0.0922,-0.764448 0.0461,0.02376 0.0461,-0.06982 0.2304,0.61624 0.50688,-2.364055 -0.41472,2.4433 0.4608,-2.149373 0.0461,0.219818 0.0461,-0.154736 0.0461,0.03879 0.0461,-0.100122 0.18432,-0.796611 0.0461,0.08357 0.0922,-0.393509 0.0461,0.23019 0.0461,-0.03622 0.0461,-0.183952 0.0461,0.08971 0.18432,0.905846 0.0461,-0.04225 0.18432,0.655071 0.4608,4.373555 0.27648,1.151363 0.0922,-0.320813 0.18432,-0.09984 0.2304,-0.852757 0.0922,-0.695913 0.0461,0.128856 0.36864,0.92874 0.27648,-0.612482 0.23041,0.447963 0.0461,-0.06929 0.0461,-0.0162 0.27648,-1.094191 0.2304,0.242888 1.10592,5.502782 0.2304,-0.763245 0.0461,0.161736 0.0922,-0.04738 0.13824,0.616859 0.0922,0.312107 0.0922,-0.08934 0.36864,-0.688102 0.0922,0.267206 0.0922,-0.374269 0.0461,0.215331 0.18432,0.316089 0.0922,0.183141 0.2304,1.006603 0.41472,3.395566 0.0922,-0.50647 0.0461,0.103672 0.18432,0.0516 0.2304,-0.771001 0.0461,5.66e-4 0.32256,-2.150089 0.18432,0.701804 0.0461,-0.196357 0.13824,0.119537 0.0461,-0.148863 0.13824,0.413356 0.0461,0.05477 0.36864,1.778551 0.0461,-0.0011 0.32256,0.874377 0.13824,-0.529614 0.0922,0.06105 0.0461,-0.127749 0.0461,0.168337 0.0461,0.176584 0.0461,-0.05859 0.13824,-0.760548 0.32256,-2.234326 0.27649,-1.417045 0.36863,-2.791371 0.0922,0.249028 0.13824,0.371028 0.18433,-0.380119 0.50688,2.690298 0.4608,1.409403 0.18432,0.640663 0.0922,0.119583 0.2304,0.601776 0.0461,-0.191028 0.0461,0.168842 0.0461,-0.01853 0.13824,0.404049 0.0461,-0.133278 0.0461,0.0094 0.13824,0.475523 0.0461,-0.296357 0.0922,0.100147 0.0461,0.0052 0.18432,-0.392186 0.0461,0.01232 0.18432,0.332641 0.32256,-0.898517 0.0922,0.555313 0.0461,-0.12677 0.18432,-0.338124 0.0461,-0.02353 0.18432,-0.54922 0.0922,0.09773 0.32256,0.695283 0.18432,-0.848298 0.32256,-1.061478 0.50688,-4.136936 0.0461,0.003 0.0461,0.144482 0.0461,-0.209189 0.0461,-0.157039 0.0461,0.185863 0.0461,-0.1336 0.0461,-0.04261 0.0461,0.183847 0.0461,-0.173663 0.2304,-0.107756 0.0461,-0.292005 0.0461,0.243448 0.0461,0.112688 0.2304,1.580744 0.0461,0.0361 0.0461,0.187038 0.0922,-0.08208 0.32256,1.324693 0.0922,0.611961 0.0922,-0.124403 0.0922,-0.408085 0.55296,4.175828 0.27648,1.600552 0.36865,1.297388 0.0461,-0.07307 0.36865,-1.831464 0.13824,0.523222 0.27648,-1.81713 0.13824,-0.848167 0.0461,0.02487 0.0922,-0.03509 0.0461,-0.03668 0.13824,-0.383546 0.0461,-0.02993 0.0922,-0.522987 0.0461,0.190703 0.55296,2.67343 0.2304,-0.407864 0.0461,0.126945 0.0461,0.464543 0.0922,-0.02353 0.2304,-0.688968 0.13824,0.102355 0.36864,-0.898864 0.13824,-1.162555 0.4608,-3.798877 0.0461,0.179785 0.32256,-2.59472 0.2304,-1.33077 0.13824,0.166019 0.0922,-0.0393 0.13824,-0.360267 0.0922,-0.05269 0.18432,0.798042 0.18432,1.53681 0.0461,-0.260737 0.0922,0.02824 0.0461,0.01711 0.13824,-0.195398 0.0461,0.136549 0.2304,-0.825997 0.18432,-0.462331 0.13824,-0.470015 0.0461,0.105269 0.0922,0.173486 0.0461,-0.170775 0.0461,0.25346 0.0922,-0.126901 0.0461,0.08302 0.27648,0.843538 0.18432,0.603077 0.27648,1.499489 0.0461,-0.01438 0.13824,0.690014 0.0461,-0.03052 0.13824,-0.202837 0.0461,0.11847 0.0461,-0.156795 0.0922,0.132655 0.2304,-0.598588 0.0461,0.08997 0.0461,-0.128083 0.23041,-0.805803 0.0461,0.0794 0.13825,0.719812 0.18431,-0.925275 0.23041,-1.349389 1.24416,-6.62767 0.13824,-0.952748 0.0461,0.0541 0.13824,-0.451564 0.27648,1.04906 0.0461,-0.128396 0.0461,0.156892 0.13824,0.69811 0.2304,2.475971 0.0461,0.06191 0.64512,4.440557 0.13824,-0.660953 0.0461,0.06716 0.36864,1.44739 0.0922,-0.135669 0.32256,-1.361127 0.0461,0.126956 0.13824,0.278992 0.18432,-0.691356 0.13824,-0.233317 0.50688,1.243291 0.0461,0.0075 0.13824,-0.477135 0.13824,0.424926 0.0922,-0.115197 0.32256,-1.711143 0.27648,0.911982 0.18432,-0.442475 0.0461,0.03515 0.13824,0.339287 0.0461,0.395516 0.0461,-0.232211 0.18432,-0.261328 0.0461,0.01727 0.0922,-0.641556 0.18432,-1.171057 0.0461,0.08813 0.0461,-0.121757 0.0922,-0.03841 0.18433,-0.901926 0.0461,0.01843 0.0461,0.299572 0.0922,-0.07277 0.0922,-0.346975 0.0922,0.06133 0.0461,0.08629 0.0922,-0.385008 0.0461,0.221366 0.0922,0.215137 0.0922,0.336659 0.0461,-0.165008 0.0461,-0.01678 0.0461,-0.196583 0.0461,0.260589 0.41472,-1.06426 0.0922,0.288081 0.0461,-0.167425 0.18432,-0.415901 0.64512,3.59554 0.0922,0.148579 0.0461,-0.07379 0.13824,-0.0729 0.2304,-1.300599 0.32256,-1.909389 0.0461,-0.02858 0.27648,-1.709054 0.0461,0.123423 0.6912,3.047572 0.2304,1.972091 0.0461,-0.01422 0.27648,1.367705 0.13824,0.977532 0.13824,0.696472 0.18432,-0.252471 0.18432,0.462053 0.0461,-0.02566 0.41472,-2.405943 0.13824,-0.115366 0.13824,0.05601 0.2304,-1.014574 0.13824,0.391078 0.0461,-0.129203 0.0461,0.186688 0.18432,0.436746 0.0461,-0.002 0.18432,-0.742511 0.0461,-0.285012 0.0461,0.06527 0.0461,0.1401 0.0461,-0.164225 0.13824,0.01486 0.0922,-0.337449 0.0461,0.360396 0.0461,-0.137283 0.18432,-0.505814 0.0461,-0.04932 0.27648,0.94996 0.0461,-0.128806 0.0461,0.178723 0.13824,0.103659 0.0461,0.234774 0.0461,-0.0372 0.18433,-0.537242 0.18431,0.98796 0.0922,-0.211434 0.0461,0.07434 0.0461,-0.217567 0.0461,0.05942 0.0922,0.164673 0.0461,-0.08453 0.13825,-0.561974 0.0461,0.12543 0.18432,0.38586 0.0461,-0.03798 0.32256,-1.353904 0.0922,-0.385128 0.0461,0.08295 0.0461,0.176856 0.0461,-0.189249 0.0461,-0.04313 0.64512,-5.100592 0.2304,-1.091332 0.41472,2.933351 0.0922,-0.07108 0.0922,0.09412 0.50688,1.621946 0.0461,-0.288441 0.0461,0.07928 0.2304,0.825504 0.18432,-0.213064 0.2304,1.054522 0.0461,-0.01939 0.0461,-0.05899 0.0461,0.03739 0.0922,0.616065 0.13824,-0.11626 0.18432,0.517219 0.2304,0.743789 0.0461,0.01764 0.18432,-0.777895 0.13824,-1.004699 0.0461,0.07005 0.0461,0.08924 0.27648,-0.863594 0.0461,0.01404 0.2304,-1.296737 0.0922,0.221562 0.2304,1.221929 0.36864,1.590479 0.18432,1.195457 0.0922,-0.214369 0.13824,-0.624041 0.27648,-1.708082 0.0461,0.04955 0.0922,-0.757623 0.2304,-0.950431 0.9216,3.152641 0.13824,-0.08285 0.0922,0.524022 0.13824,0.466868 0.0461,0.134388 0.18432,-0.462709 0.0461,0.02231 0.0461,-0.13059 0.0461,0.186448 0.0922,0.1919 0.36864,-1.372658 0.0461,0.102455 0.13824,0.551735 0.13824,0.691276 0.0461,-0.0388 0.41472,2.043123 0.32256,2.423733 0.0461,-0.238087 0.0461,0.325197 0.0461,-0.0085 0.18432,0.920588 0.18432,-0.182539 0.0922,0.486587 0.0461,-0.04595 0.27648,-2.305784 0.13824,0.602855 0.0461,-0.309203 0.0922,0.03707 0.50688,-2.350455 0.27648,-1.855339 0.13824,-0.670276 0.27648,-0.903458 0.82944,6.571642 0.0461,-0.03458 0.13824,0.363979 0.13824,-0.154387 0.0461,0.06267 0.0461,-0.112492 0.0461,3.3e-4 0.0922,0.317904 0.0461,-0.04237 0.0922,-0.288228 0.32256,-3.901361 0.0461,-0.05042 0.13824,-1.168216 0.4608,-4.887935 0.0922,0.259982 0.13824,0.29995 0.0461,-0.06086 0.0922,-0.375168 0.0461,0.187314 0.0922,-0.173964 0.55296,2.123275 0.0461,0.02009 0.32256,2.046173 0.0461,-0.04922 0.0461,0.06102 0.0461,-0.111841 0.0922,-0.166263 0.50688,-3.042903 0.0922,0.445094 0.0922,-0.471614 0.0922,0.09375 0.13824,0.07602 0.0922,0.144714 0.32256,1.580252 0.0461,-0.339237 0.0461,-6.87e-4 1.24416,-6.216349 0.0922,0.219748 0.13824,-0.373791 0.32256,1.697716 0.59904,2.651132 0.18432,-1.154314 0.2304,1.581975 0.32256,2.388686 0.0461,0.03177 0.0922,0.875675 0.41472,4.279392 0.18432,0.738086 0.0461,-0.08153 0.0922,-0.845311 0.0461,0.114285 0.0922,0.476971 0.0461,-0.108275 0.13824,-0.161825 0.0922,-0.190746 0.2304,0.487124 0.0461,-0.211663 0.0461,0.257202 0.0922,0.284635 0.18432,1.283933 0.13824,0.07336 0.2304,0.992855 0.0922,0.06325 0.2304,0.210862 0.23041,-0.933917 0.13824,0.373115 0.0461,-0.242818 0.0461,0.246923 0.18432,-0.287065 0.23041,-1.216828 0.0461,0.04512 0.13824,0.69814 0.0461,-0.01333 0.27648,-0.471226 0.13824,0.21763 0.0461,0.0027 0.2304,1.275036 0.0922,-0.124539 0.27648,0.716857 0.0461,-0.02544 0.0461,0.0839 0.0461,0.0011 0.0461,-0.173212 0.0461,0.30216 0.0922,-0.05414 0.13824,-0.587495 0.0922,0.132356 0.0922,0.359924 0.0461,-0.132686 0.18432,0.01131 0.6912,-3.133583 0.0922,0.05158 0.0922,0.336523 0.0461,-0.11158 0.0922,-0.106517 0.2304,-0.487863 0.13824,0.848797 0.0461,-0.20941 0.0461,0.009 0.41472,-1.284929 0.0461,-0.233422 0.0461,0.05866 0.0461,0.06651 0.27648,-1.423689 0.0461,-0.01261 0.27648,-2.433771 0.2304,0.828939 0.0461,-0.144948 0.13824,-0.216942 0.0922,0.272504 0.13824,0.769368 0.27648,3.020676 0.13824,-0.130942 0.13824,1.012388 0.2304,1.306744 0.0461,0.04493 0.0922,-0.491616 0.18432,-0.902385 0.0461,0.0947 0.0461,-0.133409 0.13824,-0.423896 0.18432,-0.992862 0.0461,0.09728 0.0461,-0.03836 0.36864,1.513111 0.13824,0.675632 0.13824,0.804827 0.2304,1.76661 0.0922,-0.136473 0.0461,0.09228 0.27649,0.598843 0.2304,0.549174 0.6912,-2.621124 0.0461,-0.0043 0.32256,-1.751675 0.32256,-0.784527 0.13824,0.116801 0.0461,-0.106462 0.2304,0.224571 0.13824,0.73266 0.2304,1.771338 0.64512,3.839759 0.13824,-0.774166 0.0461,0.131028 0.0461,0.04427 0.0461,-0.09113 0.0461,-0.05398 0.0461,0.05269 0.0461,0.01115 0.0461,0.156254 0.4608,-1.9835 0.82944,2.14322 0.0461,-0.276083 0.0461,0.02122 0.32256,0.929019 0.0461,-0.06864 0.0461,-0.183666 0.0461,0.103097 0.18432,0.05808 0.13824,-0.52904 0.0461,0.116221 0.13824,0.267091 0.0461,-0.0036 0.0922,0.553632 0.0461,-0.0851 0.0461,-0.157691 0.0922,0.0586 0.13824,0.314467 0.0461,-0.01806 0.0922,0.339184 0.0461,-0.125844 0.13824,-0.112154 0.0461,0.198383 0.0461,-0.02916 0.18432,-0.408167 0.0461,-0.02314 0.0461,0.177548 0.0461,-0.07178 0.0461,-0.08864 0.0461,0.09505 0.18432,-0.186127 0.0461,-0.106442 0.0461,0.146754 0.0461,0.17744 0.0461,-0.23192 0.69121,-3.477185 0.0461,0.01172 0.23041,0.572747 0.0461,-0.122023 0.0461,0.147179 0.50688,1.36054 0.0922,0.05263 0.13824,-0.346293 0.0922,0.469493 0.0922,0.383723 0.0461,-0.03747 0.32256,-1.259008 0.2304,-0.360351 0.2304,-0.921439 0.0922,0.07558 0.13824,-0.124617 0.13824,0.146329 0.18432,0.447605 0.0461,-0.161944 0.0461,0.04967 0.27648,0.484626 0.0922,-0.310108 0.0461,0.150538 0.13824,-0.172499 0.27648,-1.293661 0.32256,-1.356609 0.0922,0.182759 0.0461,-0.08439 0.0922,-0.357875 0.0461,0.08107 0.13824,0.778128 0.0461,-0.333276 0.13824,0.127583 0.0461,-0.0127 0.13824,0.40171 0.2304,-0.474702 0.0922,0.1239 0.0461,0.143267 0.0461,-0.04516 0.0461,-0.410583 0.0922,0.0709 0.2304,1.58166 0.0461,0.06111 0.27648,1.58823 0.0461,-0.12212 0.18432,-0.120315 0.0461,0.317746 0.0461,-0.166857 0.18432,-0.26206 0.18432,0.521083 0.2304,-0.604253 0.18432,1.445027 1.01377,6.351654 0.4608,-1.18623 0.18432,0.150751 0.0461,-0.05191 0.13824,-0.313227 0.0922,-0.04902 0.13824,0.349763 0.13824,0.330153 0.0922,0.252047 0.2304,-0.457165 0.0461,0.102465 0.36864,-1.116433 0.0922,0.07207 0.2304,-1.309914 0.0461,0.101605 0.64512,-2.373817 0.0461,0.13493 0.0461,-0.185636 0.13824,-0.445518 0.0922,0.146448 0.0461,-0.09683 0.0922,-0.07626 0.0461,0.04367 0.2304,0.617837 0.2304,-0.763337 0.18432,0.968871 0.2304,-1.316414 0.0461,0.07187 0.2304,-0.806855 0.13824,-0.08285 0.0461,0.103704 0.0461,-0.09725 0.13824,-0.938658 0.0461,0.134377 0.13824,-0.0018 0.0461,0.360869 0.0461,-0.295063 0.0461,-0.153446 0.0461,0.136173 0.0461,0.02599 0.36864,-2.038561 0.2304,-0.770239 0.0922,-0.225801 0.2304,-0.941745 0.0922,0.176158 0.27648,1.367013 0.13824,0.375 0.0922,-0.366893 0.0461,0.03359 0.0461,-0.03396 0.13824,-0.346378 0.0461,0.05307 0.13824,0.634311 0.0461,-0.290357 0.32256,-1.101852 0.27648,-0.606419 0.0461,0.112217 0.0922,0.03818 0.0461,0.252546 0.13824,-0.561564 0.0461,0.07196 0.0461,-0.05606 0.0461,-0.08866 0.0922,0.174001 0.0461,-0.12987 0.0461,0.02609 0.0922,0.306428 0.0922,0.25502 0.0461,-0.022 0.0461,-0.0062 0.18432,-0.567555 0.27648,0.615117 0.0461,0.02626 0.13824,-0.349635 0.0461,0.217081 0.0461,-0.170777 0.0461,-0.161478 0.0461,0.09799 0.0922,0.321833 0.0461,-0.118459 0.0461,-0.291448 0.0461,0.134278 0.0461,0.05251 0.0922,-0.213906 0.0461,0.04461 0.32256,1.619622 0.0461,-0.220242 0.0461,0.262621 0.0461,0.186178 0.0461,-0.105019 0.0922,-0.574613 0.0922,0.223216 0.13824,0.279343 0.27648,-0.822845 0.0461,0.272981 0.0461,-0.241833 0.0461,-0.154155 0.0461,0.206336 0.0461,0.03927 0.2304,1.391625 0.18432,0.717593 0.0922,0.723679 0.0461,-0.04305 0.0461,-0.146831 0.0461,0.04722 0.13824,0.501989 0.0461,0.246114 0.0922,-0.04121 0.32256,-1.248671 0.0461,-0.202682 0.0461,0.343568 0.0922,-0.130017 0.0922,0.04016 0.32256,-0.858163 0.27648,1.17204 0.64512,4.536593 0.0461,-0.05663 0.0461,0.04268 0.18432,0.332841 0.13824,-0.03278 0.13824,0.196975 0.13824,-0.336709 0.18432,-0.409304 0.2304,1.148387 0.0461,-0.02458 0.18432,-0.412172 0.13824,-0.448877 0.0461,0.183016 0.0461,-0.270575 0.2304,0.41932 0.13824,-0.193324 0.0922,-0.04685 0.32257,1.635648 0.13824,0.446917 0.0922,0.08206 0.0461,0.295498 0.0461,-0.122792 0.0461,-0.09716 0.0922,0.399111 0.0461,-0.06412 0.0461,-0.09503 0.0461,0.145238 0.18432,0.581039 0.0461,0.02873 0.18432,0.397449 0.13824,-0.451547 0.13824,-0.153613 0.13824,0.130683 0.0922,0.466948 0.0461,-0.13995 0.0922,-0.150109 0.0922,-0.438326 0.13824,0.396379 0.0461,-0.155411 0.73728,4.819619 0.0461,-0.114255 0.18432,0.297852 0.0461,0.100433 0.27648,-0.914977 0.0461,0.02246 0.4608,-2.649098 0.18432,0.885313 0.0461,-0.136853 0.0461,0.290504 0.0461,-0.317376 0.0461,0.0319 0.0461,-0.06936 0.0461,-0.203843 0.0922,0.03873 0.0461,0.235639 0.0461,-0.264939 0.0461,0.163984 0.27648,0.468242 0.78336,4.387804 0.18432,0.12484 0.18432,-0.903885 0.27648,-2.207372 0.0461,0.0181 0.0922,-0.229835 0.0461,0.162637 0.0922,-0.05457 0.36864,-2.249861 0.0461,-0.03883 0.50688,3.09191 0.4608,5.920336 0.2304,1.73081 0.4608,2.62831 0.0922,-0.11845 0.18432,0.63464 0.0461,-0.0343 0.0461,0.22819 0.0461,-0.0763 0.9216,-5.29089 0.0461,0.11027 0.0461,-0.0929 0.18432,-0.33477 0.0461,0.32038 0.0461,-0.13135 0.0461,-0.2285 0.0461,0.19779 0.32256,0.60432 0.32256,1.76301 0.0461,-0.16798 0.0461,0.25805 0.0461,-0.19541 0.0922,0.0495 0.0461,-0.27828 0.0461,0.20157 0.0461,0.066 0.32256,1.96778 0.0461,-0.22284 0.0922,0.0281 0.0461,-0.14435 0.0461,0.0155 0.18432,1.05275 0.0461,0.0802 0.0461,0.49511 0.0922,-0.0248 0.13824,-0.69699 0.0461,0.0114 0.13824,1.7e-4 0.27648,0.85578 0.0922,0.10312 0.0461,-0.0594 0.0461,-0.0467 0.0461,-0.3905 0.0922,0.15941 0.0461,0.19315 0.0461,-0.14156 0.13824,-0.81045 0.2304,-0.82584 0.0461,0.027 0.18432,-1.52592 0.0461,0.11013 0.0461,0.0578 0.13824,0.30647 0.4608,-2.36229 0.18432,-0.99967 0.0461,-0.15675 0.18432,-1.2847 0.0922,-0.22803 0.2304,0.74702 0.0922,-0.21927 0.0461,0.10544 0.32256,2.02948 0.0461,-0.17141 0.18432,-0.74323 0.2304,-0.78378 0.0461,0.0153 0.0922,-0.0982 0.32256,-1.9624 0.96769,4.50048 0.0922,-0.30013 0.0461,0.0454 0.0922,0.0538 0.32256,1.0983 0.2304,1.63149 0.0461,-0.10326 0.50688,2.36306 0.13824,0.16066 0.2304,-0.39314 0.0461,0.0277 0.13824,-0.48678 0.0922,0.0314 0.18432,-0.43212 0.0922,-0.0745 0.18432,-0.57748 0.36864,0.99493 0.41472,-1.44434 0.13824,-0.43678 0.32256,-2.55544 0.27648,-1.46522 0.2304,-0.90465 0.0461,-0.0489 0.27648,-1.0299 0.13824,-0.27568 0.13824,0.27119 0.2304,-1.140286 0.18432,-0.518101 0.0922,0.23815 0.0461,-0.06875 0.13824,0.16166 0.13824,-0.361496 0.0461,0.282354 0.0461,-0.128285 0.0461,-0.03275 0.0922,0.366106 0.13824,0.534528 0.0461,-0.04754 0.18432,-0.401573 0.18432,-0.639056 0.0461,0.241483 0.0461,-0.230693 0.55296,-2.589056 0.0461,-0.208122 0.0461,0.06587 0.0461,0.110735 0.18433,-0.92931 0.0461,0.307255 0.0922,-0.0976 0.0922,0.217281 0.0461,-0.164067 0.0461,0.08973 0.0461,-0.11993 0.0461,-0.09489 0.0461,0.0814 0.41473,1.306208 0.13824,0.332756 0.0461,0.04891 0.0461,-0.05503 0.0461,-0.118295 0.0461,0.06953 0.18432,0.937572 0.0461,-0.170099 0.0461,0.0396 0.0922,-0.17878 0.4608,1.890181 0.13824,1.21028 0.0461,-0.0262 0.13824,0.21399 0.18432,1.09606 0.0461,-0.0233 0.13824,-0.67559 0.36864,-1.905482 0.27648,-0.974798 0.0461,0.04205 0.13824,-0.305396 0.41472,0.936162 0.0922,0.622183 0.18432,0.427001 0.0922,-0.0771 0.0461,-0.20929 0.0461,0.11888 0.13824,0.50061 0.0922,-0.22481 0.0461,0.0291 0.0922,0.0667 0.2304,-1.356543 0.0461,-0.430292 0.0461,0.274184 0.0461,-0.0622 0.13824,0.188456 0.13824,-0.364534 0.0922,0.05976 0.0461,-0.0019 0.13824,-0.507089 0.0922,0.396592 0.0922,-0.122947 0.0922,0.135402 0.50688,-3.189065 0.41472,-1.402966 0.0461,0.251679 0.0461,0.09206 0.4608,4.029993 0.4608,1.48121 0.0461,0.0754 0.27648,-0.867788 0.0461,0.02627 0.0461,0.0346 0.0922,-0.173739 0.32256,1.123977 0.13824,-0.36489 0.36865,1.88216 0.0922,-0.29622 0.0461,0.19579 0.0922,-0.0471 0.27648,1.25378 0.0461,0.12885 0.13824,-0.42491 0.0922,0.25449 0.0922,-0.0515 0.0922,0.10189 0.0461,0.2901 0.0461,-0.17552 0.2304,-1.28141 0.18432,-0.75053 0.0922,0.15654 0.0461,-0.0865 0.13824,-0.79023 0.0461,0.0204 0.0922,-0.18736 0.2304,-1.101312 0.18432,0.511082 0.0922,-0.342526 0.0461,0.143499 0.41472,0.900127 0.32256,1.16871 0.0461,-0.0669 0.18432,-0.30155 0.32256,-1.406575 0.27648,-1.635118 0.27648,-1.49905 0.0461,0.02512 0.18432,-0.573537 0.0461,-0.260279 0.0922,0.07041 0.0922,0.0935 0.0461,-0.12427 0.0461,0.07668 0.0461,0.06741 0.0922,0.637371 0.0461,-0.119921 0.0461,0.06861 0.0461,-0.150002 0.0461,0.111438 0.2304,1.151639 0.0461,0.04232 0.0461,-0.0618 0.18432,-0.321622 0.0922,-7.86e-4 0.0922,-0.414876 0.18432,-0.877342 0.0922,-0.344084 0.0922,-0.552609 0.0461,0.03575 0.2304,0.993014 0.18432,1.231246 0.18432,0.826782 0.27648,1.222572 0.18433,-0.873669 0.13824,0.133761 0.0922,-0.366137 0.0922,-0.374476 0.13825,0.799651 0.0461,-0.02614 0.0461,-0.199518 0.0461,0.117287 0.0461,0.02058 0.18432,-0.703506 0.32256,0.536852 0.27648,-1.040397 0.0461,0.19918 0.41472,1.317694 0.18432,-0.659484 0.27648,0.636642 0.0461,0.09979 0.13824,-0.366512 0.2304,0.536824 0.2304,-1.264354 0.13824,-0.696852 0.0922,0.102403 0.0461,0.154886 0.0461,-0.07495 0.0461,-0.02251 0.0461,-0.20782 0.0922,0.06328 0.0461,0.08026 0.36864,-1.308042 v 0"
           clip-path="url(#p5ab3af0e93)"
           style="fill:none;stroke:#990000;stroke-width:2.25;stroke-linecap:round;stroke-opacity:1"
           id="path23" />
      </g>
      <g
         id="patch_3">
        <path
           d="M 71.350928,149.1 V 19.44"
           style="fill:none;stroke:#262626;stroke-width:1.875;stroke-linecap:square;stroke-linejoin:miter"
           id="path24" />
      </g>
      <g
         id="patch_4">
        <path
           d="M 484.56,149.1 V 19.44"
           style="fill:none;stroke:#262626;stroke-width:1.875;stroke-linecap:square;stroke-linejoin:miter"
           id="path25" />
      </g>
      <g
         id="patch_5">
        <path
           d="M 71.350928,149.1 H 484.56"
           style="fill:none;stroke:#262626;stroke-width:1.875;stroke-linecap:square;stroke-linejoin:miter"
           id="path26" />
      </g>
      <g
         id="patch_6">
        <path
           d="M 71.350928,19.44 H 484.56"
           style="fill:none;stroke:#262626;stroke-width:1.875;stroke-linecap:square;stroke-linejoin:miter"
           id="path27" />
      </g>
      <g
         id="text_7">
        <!-- PLS $X_{eating}$ -->
        <g
           style="fill:#262626"
           transform="matrix(0.18,0,0,-0.18,-31.95134,78.27)"
           id="g37">
          <defs
             id="defs27">
            <path
               id="ArialMT-50"
               d="m 494,0 v 4581 h 1728 q 456,0 697,-43 337,-57 565,-215 229,-157 368,-442 139,-284 139,-625 0,-584 -372,-989 -372,-404 -1344,-404 H 1100 V 0 Z m 606,2403 h 1184 q 588,0 835,219 247,219 247,616 0,287 -146,491 -145,205 -382,271 -154,41 -566,41 H 1100 Z"
               transform="scale(0.015625)" />
            <path
               id="ArialMT-4c"
               d="m 469,0 v 4581 h 606 V 541 H 3331 V 0 Z"
               transform="scale(0.015625)" />
            <path
               id="ArialMT-53"
               d="m 288,1472 571,50 q 41,-344 189,-564 149,-220 461,-356 313,-136 704,-136 346,0 612,103 266,103 395,282 130,180 130,393 0,215 -125,376 -125,161 -412,271 -185,72 -816,223 -631,152 -884,286 -329,172 -490,426 -160,255 -160,571 0,347 196,648 197,302 575,458 379,156 841,156 509,0 898,-164 390,-164 599,-483 209,-318 225,-721 l -581,-44 q -47,434 -318,656 -270,222 -798,222 -550,0 -802,-202 -251,-201 -251,-485 0,-247 178,-407 175,-159 914,-326 739,-167 1014,-292 400,-185 590,-468 191,-282 191,-651 0,-366 -209,-690 Q 3516,281 3123,101 2731,-78 2241,-78 1619,-78 1198,103 778,284 539,648 300,1013 288,1472 Z"
               transform="scale(0.015625)" />
            <path
               id="ArialMT-20"
               transform="scale(0.015625)"
               d="" />
            <path
               id="DejaVuSans-Oblique-58"
               d="m 878,4666 h 638 l 800,-1685 1447,1685 h 737 L 2578,2438 3738,0 H 3103 L 2163,1966 459,0 h -734 l 2181,2509 z"
               transform="scale(0.015625)" />
            <path
               id="DejaVuSans-Oblique-65"
               d="m 3078,2063 q 10,50 14,103 5,53 5,106 0,381 -224,603 -223,222 -607,222 -428,0 -757,-271 -328,-270 -496,-767 z m 500,-450 H 903 q -19,-119 -25,-188 -6,-69 -6,-119 0,-434 267,-672 267,-237 755,-237 375,0 709,84 335,85 622,247 L 3116,159 Q 2806,34 2476,-28 2147,-91 1806,-91 1078,-91 686,257 294,606 294,1247 q 0,547 195,1017 195,470 574,839 243,231 579,356 336,125 714,125 594,0 945,-356 352,-356 352,-956 0,-144 -19,-308 -18,-164 -56,-351 z"
               transform="scale(0.015625)" />
            <path
               id="DejaVuSans-Oblique-61"
               d="M 3438,1997 3047,0 h -575 l 106,531 Q 2325,219 2001,64 1678,-91 1281,-91 834,-91 548,182 263,456 263,884 q 0,613 489,969 489,356 1348,356 h 800 l 31,154 q 7,25 10,54 3,30 3,92 0,279 -227,433 -226,155 -636,155 -281,0 -577,-72 -295,-72 -607,-216 l 100,532 q 325,122 636,182 311,61 601,61 619,0 942,-269 324,-268 324,-781 0,-103 -16,-242 -15,-139 -46,-295 z m -622,-238 h -575 q -707,0 -1046,-189 -339,-189 -339,-586 0,-275 173,-431 174,-156 480,-156 469,0 819,336 350,336 463,898 z"
               transform="scale(0.015625)" />
            <path
               id="DejaVuSans-Oblique-74"
               d="m 2706,3500 -87,-447 H 1472 L 1100,1153 q -19,-106 -28,-178 -9,-72 -9,-112 0,-200 120,-291 120,-91 386,-91 h 581 L 2053,0 H 1503 Q 991,0 739,200 488,400 488,806 q 0,72 9,158 9,86 28,189 L 897,3053 H 409 l 91,447 h 478 l 194,994 h 575 l -191,-994 z"
               transform="scale(0.015625)" />
            <path
               id="DejaVuSans-Oblique-69"
               d="m 1172,4863 h 575 L 1606,4134 H 1031 Z M 909,3500 h 575 L 800,0 H 225 Z"
               transform="scale(0.015625)" />
            <path
               id="DejaVuSans-Oblique-6e"
               d="M 3566,2113 3156,0 h -578 l 410,2091 q 28,147 43,259 16,113 16,178 0,263 -166,409 -165,147 -462,147 -463,0 -797,-308 -334,-307 -438,-835 L 800,0 H 225 l 678,3500 h 575 l -115,-550 q 240,303 577,468 338,166 710,166 463,0 717,-250 255,-250 255,-703 0,-112 -14,-240 -14,-128 -42,-278 z"
               transform="scale(0.015625)" />
            <path
               id="DejaVuSans-Oblique-67"
               d="M 3816,3500 3219,434 q -172,-890 -658,-1327 -486,-438 -1308,-438 -303,0 -563,45 -259,45 -484,139 l 107,559 q 212,-137 449,-202 238,-66 507,-66 547,0 898,299 352,298 464,857 l 50,263 Q 2441,288 2122,144 1803,0 1434,0 903,0 598,351 294,703 294,1319 q 0,484 184,948 185,464 519,824 222,237 517,365 295,128 617,128 353,0 615,-164 263,-164 392,-464 l 100,544 z M 2950,2216 q 0,425 -200,656 -200,231 -569,231 -228,0 -434,-91 -206,-90 -353,-253 -238,-268 -371,-632 -132,-364 -132,-752 0,-431 201,-663 202,-231 580,-231 547,0 912,495 366,496 366,1240 z"
               transform="scale(0.015625)" />
          </defs>
          <use
             xlink:href="#ArialMT-50"
             transform="translate(0,0.09375)"
             id="use27" />
          <use
             xlink:href="#ArialMT-4c"
             transform="translate(66.699219,0.09375)"
             id="use28" />
          <use
             xlink:href="#ArialMT-53"
             transform="translate(122.31445,0.09375)"
             id="use29" />
          <use
             xlink:href="#ArialMT-20"
             transform="translate(189.01367,0.09375)"
             id="use30" />
          <use
             xlink:href="#DejaVuSans-Oblique-58"
             transform="translate(216.79687,0.09375)"
             id="use31" />
          <use
             xlink:href="#DejaVuSans-Oblique-65"
             transform="matrix(0.7,0,0,0.7,285.30273,-16.3125)"
             id="use32" />
          <use
             xlink:href="#DejaVuSans-Oblique-61"
             transform="matrix(0.7,0,0,0.7,328.36914,-16.3125)"
             id="use33" />
          <use
             xlink:href="#DejaVuSans-Oblique-74"
             transform="matrix(0.7,0,0,0.7,371.26465,-16.3125)"
             id="use34" />
          <use
             xlink:href="#DejaVuSans-Oblique-69"
             transform="matrix(0.7,0,0,0.7,398.71094,-16.3125)"
             id="use35" />
          <use
             xlink:href="#DejaVuSans-Oblique-6e"
             transform="matrix(0.7,0,0,0.7,418.15918,-16.3125)"
             id="use36" />
          <use
             xlink:href="#DejaVuSans-Oblique-67"
             transform="matrix(0.7,0,0,0.7,462.52441,-16.3125)"
             id="use37" />
        </g>
      </g>
    </g>
  </g>
  <defs
     id="defs37">
    <clipPath
       id="p5ab3af0e93">
      <rect
         x="71.350929"
         y="19.440001"
         width="413.20908"
         height="129.66"
         id="rect37" />
    </clipPath>
  </defs>
</svg>
