<?xml version="1.0" encoding="utf-8" standalone="no"?>
<!DOCTYPE svg PUBLIC "-//W3C//DTD SVG 1.1//EN"
  "http://www.w3.org/Graphics/SVG/1.1/DTD/svg11.dtd">
<svg xmlns:xlink="http://www.w3.org/1999/xlink" width="504pt" height="216pt" viewBox="0 0 504 216" xmlns="http://www.w3.org/2000/svg" version="1.1">
 <metadata>
  <rdf:RDF xmlns:dc="http://purl.org/dc/elements/1.1/" xmlns:cc="http://creativecommons.org/ns#" xmlns:rdf="http://www.w3.org/1999/02/22-rdf-syntax-ns#">
   <cc:Work>
    <dc:type rdf:resource="http://purl.org/dc/dcmitype/StillImage"/>
    <dc:date>2023-12-03T20:12:26.175465</dc:date>
    <dc:format>image/svg+xml</dc:format>
    <dc:creator>
     <cc:Agent>
      <dc:title>Matplotlib v3.8.0, https://matplotlib.org/</dc:title>
     </cc:Agent>
    </dc:creator>
   </cc:Work>
  </rdf:RDF>
 </metadata>
 <defs>
  <style type="text/css">*{stroke-linejoin: round; stroke-linecap: butt}</style>
 </defs>
 <g id="figure_1">
  <g id="patch_1">
   <path d="M 0 216 
L 504 216 
L 504 0 
L 0 0 
z
" style="fill: #ffffff"/>
  </g>
  <g id="axes_1">
   <g id="patch_2">
    <path d="M 71.350928 149.1 
L 484.56 149.1 
L 484.56 19.44 
L 71.350928 19.44 
z
" style="fill: #ffffff"/>
   </g>
   <g id="matplotlib.axis_1">
    <g id="xtick_1">
     <g id="text_1">
      <!-- 0 -->
      <g style="fill: #262626" transform="translate(85.545385 173.410391) scale(0.165 -0.165)">
       <defs>
        <path id="ArialMT-30" d="M 266 2259 
Q 266 3072 433 3567 
Q 600 4063 929 4331 
Q 1259 4600 1759 4600 
Q 2128 4600 2406 4451 
Q 2684 4303 2865 4023 
Q 3047 3744 3150 3342 
Q 3253 2941 3253 2259 
Q 3253 1453 3087 958 
Q 2922 463 2592 192 
Q 2263 -78 1759 -78 
Q 1097 -78 719 397 
Q 266 969 266 2259 
z
M 844 2259 
Q 844 1131 1108 757 
Q 1372 384 1759 384 
Q 2147 384 2411 759 
Q 2675 1134 2675 2259 
Q 2675 3391 2411 3762 
Q 2147 4134 1753 4134 
Q 1366 4134 1134 3806 
Q 844 3388 844 2259 
z
" transform="scale(0.015625)"/>
       </defs>
       <use xlink:href="#ArialMT-30"/>
      </g>
     </g>
    </g>
    <g id="xtick_2">
     <g id="text_2">
      <!-- 2000 -->
      <g style="fill: #262626" transform="translate(163.942175 173.410391) scale(0.165 -0.165)">
       <defs>
        <path id="ArialMT-32" d="M 3222 541 
L 3222 0 
L 194 0 
Q 188 203 259 391 
Q 375 700 629 1000 
Q 884 1300 1366 1694 
Q 2113 2306 2375 2664 
Q 2638 3022 2638 3341 
Q 2638 3675 2398 3904 
Q 2159 4134 1775 4134 
Q 1369 4134 1125 3890 
Q 881 3647 878 3216 
L 300 3275 
Q 359 3922 746 4261 
Q 1134 4600 1788 4600 
Q 2447 4600 2831 4234 
Q 3216 3869 3216 3328 
Q 3216 3053 3103 2787 
Q 2991 2522 2730 2228 
Q 2469 1934 1863 1422 
Q 1356 997 1212 845 
Q 1069 694 975 541 
L 3222 541 
z
" transform="scale(0.015625)"/>
       </defs>
       <use xlink:href="#ArialMT-32"/>
       <use xlink:href="#ArialMT-30" x="55.615234"/>
       <use xlink:href="#ArialMT-30" x="111.230469"/>
       <use xlink:href="#ArialMT-30" x="166.845703"/>
      </g>
     </g>
    </g>
    <g id="xtick_3">
     <g id="text_3">
      <!-- 4000 -->
      <g style="fill: #262626" transform="translate(256.102286 173.410391) scale(0.165 -0.165)">
       <defs>
        <path id="ArialMT-34" d="M 2069 0 
L 2069 1097 
L 81 1097 
L 81 1613 
L 2172 4581 
L 2631 4581 
L 2631 1613 
L 3250 1613 
L 3250 1097 
L 2631 1097 
L 2631 0 
L 2069 0 
z
M 2069 1613 
L 2069 3678 
L 634 1613 
L 2069 1613 
z
" transform="scale(0.015625)"/>
       </defs>
       <use xlink:href="#ArialMT-34"/>
       <use xlink:href="#ArialMT-30" x="55.615234"/>
       <use xlink:href="#ArialMT-30" x="111.230469"/>
       <use xlink:href="#ArialMT-30" x="166.845703"/>
      </g>
     </g>
    </g>
    <g id="xtick_4">
     <g id="text_4">
      <!-- 6000 -->
      <g style="fill: #262626" transform="translate(348.262397 173.410391) scale(0.165 -0.165)">
       <defs>
        <path id="ArialMT-36" d="M 3184 3459 
L 2625 3416 
Q 2550 3747 2413 3897 
Q 2184 4138 1850 4138 
Q 1581 4138 1378 3988 
Q 1113 3794 959 3422 
Q 806 3050 800 2363 
Q 1003 2672 1297 2822 
Q 1591 2972 1913 2972 
Q 2475 2972 2870 2558 
Q 3266 2144 3266 1488 
Q 3266 1056 3080 686 
Q 2894 316 2569 119 
Q 2244 -78 1831 -78 
Q 1128 -78 684 439 
Q 241 956 241 2144 
Q 241 3472 731 4075 
Q 1159 4600 1884 4600 
Q 2425 4600 2770 4297 
Q 3116 3994 3184 3459 
z
M 888 1484 
Q 888 1194 1011 928 
Q 1134 663 1356 523 
Q 1578 384 1822 384 
Q 2178 384 2434 671 
Q 2691 959 2691 1453 
Q 2691 1928 2437 2201 
Q 2184 2475 1800 2475 
Q 1419 2475 1153 2201 
Q 888 1928 888 1484 
z
" transform="scale(0.015625)"/>
       </defs>
       <use xlink:href="#ArialMT-36"/>
       <use xlink:href="#ArialMT-30" x="55.615234"/>
       <use xlink:href="#ArialMT-30" x="111.230469"/>
       <use xlink:href="#ArialMT-30" x="166.845703"/>
      </g>
     </g>
    </g>
    <g id="xtick_5">
     <g id="text_5">
      <!-- 8000 -->
      <g style="fill: #262626" transform="translate(440.422507 173.410391) scale(0.165 -0.165)">
       <defs>
        <path id="ArialMT-38" d="M 1131 2484 
Q 781 2613 612 2850 
Q 444 3088 444 3419 
Q 444 3919 803 4259 
Q 1163 4600 1759 4600 
Q 2359 4600 2725 4251 
Q 3091 3903 3091 3403 
Q 3091 3084 2923 2848 
Q 2756 2613 2416 2484 
Q 2838 2347 3058 2040 
Q 3278 1734 3278 1309 
Q 3278 722 2862 322 
Q 2447 -78 1769 -78 
Q 1091 -78 675 323 
Q 259 725 259 1325 
Q 259 1772 486 2073 
Q 713 2375 1131 2484 
z
M 1019 3438 
Q 1019 3113 1228 2906 
Q 1438 2700 1772 2700 
Q 2097 2700 2305 2904 
Q 2513 3109 2513 3406 
Q 2513 3716 2298 3927 
Q 2084 4138 1766 4138 
Q 1444 4138 1231 3931 
Q 1019 3725 1019 3438 
z
M 838 1322 
Q 838 1081 952 856 
Q 1066 631 1291 507 
Q 1516 384 1775 384 
Q 2178 384 2440 643 
Q 2703 903 2703 1303 
Q 2703 1709 2433 1975 
Q 2163 2241 1756 2241 
Q 1359 2241 1098 1978 
Q 838 1716 838 1322 
z
" transform="scale(0.015625)"/>
       </defs>
       <use xlink:href="#ArialMT-38"/>
       <use xlink:href="#ArialMT-30" x="55.615234"/>
       <use xlink:href="#ArialMT-30" x="111.230469"/>
       <use xlink:href="#ArialMT-30" x="166.845703"/>
      </g>
     </g>
    </g>
    <g id="text_6">
     <!-- Index -->
     <g style="fill: #262626" transform="translate(255.94062 193.573828) scale(0.18 -0.18)">
      <defs>
       <path id="ArialMT-49" d="M 597 0 
L 597 4581 
L 1203 4581 
L 1203 0 
L 597 0 
z
" transform="scale(0.015625)"/>
       <path id="ArialMT-6e" d="M 422 0 
L 422 3319 
L 928 3319 
L 928 2847 
Q 1294 3394 1984 3394 
Q 2284 3394 2536 3286 
Q 2788 3178 2913 3003 
Q 3038 2828 3088 2588 
Q 3119 2431 3119 2041 
L 3119 0 
L 2556 0 
L 2556 2019 
Q 2556 2363 2490 2533 
Q 2425 2703 2258 2804 
Q 2091 2906 1866 2906 
Q 1506 2906 1245 2678 
Q 984 2450 984 1813 
L 984 0 
L 422 0 
z
" transform="scale(0.015625)"/>
       <path id="ArialMT-64" d="M 2575 0 
L 2575 419 
Q 2259 -75 1647 -75 
Q 1250 -75 917 144 
Q 584 363 401 755 
Q 219 1147 219 1656 
Q 219 2153 384 2558 
Q 550 2963 881 3178 
Q 1213 3394 1622 3394 
Q 1922 3394 2156 3267 
Q 2391 3141 2538 2938 
L 2538 4581 
L 3097 4581 
L 3097 0 
L 2575 0 
z
M 797 1656 
Q 797 1019 1065 703 
Q 1334 388 1700 388 
Q 2069 388 2326 689 
Q 2584 991 2584 1609 
Q 2584 2291 2321 2609 
Q 2059 2928 1675 2928 
Q 1300 2928 1048 2622 
Q 797 2316 797 1656 
z
" transform="scale(0.015625)"/>
       <path id="ArialMT-65" d="M 2694 1069 
L 3275 997 
Q 3138 488 2766 206 
Q 2394 -75 1816 -75 
Q 1088 -75 661 373 
Q 234 822 234 1631 
Q 234 2469 665 2931 
Q 1097 3394 1784 3394 
Q 2450 3394 2872 2941 
Q 3294 2488 3294 1666 
Q 3294 1616 3291 1516 
L 816 1516 
Q 847 969 1125 678 
Q 1403 388 1819 388 
Q 2128 388 2347 550 
Q 2566 713 2694 1069 
z
M 847 1978 
L 2700 1978 
Q 2663 2397 2488 2606 
Q 2219 2931 1791 2931 
Q 1403 2931 1139 2672 
Q 875 2413 847 1978 
z
" transform="scale(0.015625)"/>
       <path id="ArialMT-78" d="M 47 0 
L 1259 1725 
L 138 3319 
L 841 3319 
L 1350 2541 
Q 1494 2319 1581 2169 
Q 1719 2375 1834 2534 
L 2394 3319 
L 3066 3319 
L 1919 1756 
L 3153 0 
L 2463 0 
L 1781 1031 
L 1600 1309 
L 728 0 
L 47 0 
z
" transform="scale(0.015625)"/>
      </defs>
      <use xlink:href="#ArialMT-49"/>
      <use xlink:href="#ArialMT-6e" x="27.783203"/>
      <use xlink:href="#ArialMT-64" x="83.398438"/>
      <use xlink:href="#ArialMT-65" x="139.013672"/>
      <use xlink:href="#ArialMT-78" x="194.628906"/>
     </g>
    </g>
   </g>
   <g id="matplotlib.axis_2"/>
   <g id="line2d_1">
    <path d="M 90.133158 96.858818 
L 90.363559 98.821219 
L 90.409639 98.944167 
L 90.455719 98.802109 
L 90.547879 98.38213 
L 90.593959 98.454972 
L 90.778279 99.077743 
L 90.824359 98.985275 
L 90.870439 98.451501 
L 90.916519 98.815293 
L 90.962599 98.95261 
L 91.008679 98.866503 
L 91.100839 98.781337 
L 91.33124 98.404509 
L 91.60772 101.225484 
L 91.79204 102.02238 
L 91.8842 102.755169 
L 92.068521 104.69636 
L 92.114601 104.619411 
L 92.206761 104.464241 
L 92.252841 104.796492 
L 92.437161 103.023545 
L 92.483241 103.058135 
L 92.759721 104.6622 
L 92.805802 104.456788 
L 92.990122 103.526854 
L 93.036202 103.665616 
L 93.174442 104.866709 
L 93.358762 106.34898 
L 93.635242 105.341826 
L 93.911723 104.651322 
L 94.003883 104.881226 
L 94.049963 104.764213 
L 94.096043 104.264876 
L 94.188203 104.473434 
L 94.372523 105.610955 
L 94.464683 105.898031 
L 94.510764 105.723177 
L 94.695084 105.364657 
L 94.833324 104.866374 
L 95.017644 106.055882 
L 95.063724 105.798796 
L 95.109804 105.74849 
L 95.570605 102.859217 
L 95.708845 103.360722 
L 95.754925 104.166972 
L 95.801005 103.353973 
L 96.077485 101.927959 
L 96.215726 102.324761 
L 96.261806 102.333634 
L 96.400046 102.875568 
L 96.446126 102.319775 
L 96.492206 102.79762 
L 96.630446 102.208038 
L 96.814766 100.850238 
L 96.860846 100.733968 
L 96.906926 100.96143 
L 96.953006 100.690338 
L 97.045167 100.4225 
L 97.275567 101.887999 
L 97.321647 101.221701 
L 97.413807 101.370021 
L 97.552047 102.295578 
L 97.598127 102.072535 
L 97.782447 103.736617 
L 97.920688 103.438277 
L 97.966768 103.605324 
L 98.105008 102.600104 
L 98.151088 102.822237 
L 98.197168 102.997552 
L 98.289328 103.744532 
L 98.335408 103.738424 
L 98.381488 103.669291 
L 98.473648 103.019451 
L 98.611888 103.6646 
L 98.842289 104.198895 
L 98.888369 104.167116 
L 99.210929 101.906847 
L 99.257009 101.778794 
L 99.303089 100.973976 
L 99.349169 101.078863 
L 99.395249 101.369849 
L 99.441329 101.002036 
L 99.71781 99.567835 
L 99.90213 98.456849 
L 99.99429 98.73173 
L 100.04037 98.200602 
L 100.08645 98.358805 
L 100.17861 98.661988 
L 100.409011 100.735154 
L 100.455091 100.762824 
L 100.685491 102.608839 
L 100.731571 102.657381 
L 100.777651 102.571361 
L 101.422772 96.10863 
L 101.653172 91.574979 
L 101.699252 91.480063 
L 101.837492 92.116446 
L 101.883572 91.381587 
L 101.929652 91.642593 
L 101.975733 92.268888 
L 102.021813 91.922188 
L 102.298293 90.642291 
L 102.528693 91.686169 
L 102.574773 92.351099 
L 102.620853 92.22803 
L 102.713013 91.93105 
L 102.805174 92.440353 
L 102.851254 92.413358 
L 102.897334 92.153689 
L 102.989494 93.333344 
L 103.081654 93.272589 
L 103.265974 93.942842 
L 103.358134 94.262364 
L 103.404214 94.097949 
L 103.450294 94.060959 
L 103.588534 93.413144 
L 103.634615 93.462528 
L 103.680695 93.148617 
L 103.726775 93.509437 
L 103.818935 93.750943 
L 103.865015 93.679915 
L 104.049335 92.974981 
L 104.141495 93.406888 
L 104.187575 93.185328 
L 104.371895 93.496219 
L 104.924856 98.07185 
L 104.970936 98.113298 
L 105.017016 98.050118 
L 105.063096 97.98066 
L 105.477817 99.810405 
L 105.754297 98.796089 
L 105.800377 98.836 
L 106.030777 99.76917 
L 106.122937 99.587905 
L 106.215098 98.905935 
L 106.261178 99.223577 
L 106.307258 99.440431 
L 106.445498 97.986936 
L 106.491578 98.009364 
L 106.675898 98.913149 
L 106.721978 98.781914 
L 106.768058 98.34312 
L 106.814138 98.65663 
L 106.860218 98.690381 
L 106.952378 98.278316 
L 106.998459 98.577704 
L 107.136699 99.026382 
L 107.182779 98.818391 
L 107.228859 99.031679 
L 107.367099 100.685917 
L 107.413179 100.563745 
L 107.459259 100.734333 
L 107.505339 100.685484 
L 107.551419 100.603196 
L 107.597499 100.733419 
L 107.689659 101.550695 
L 107.8279 101.501691 
L 108.10438 100.584423 
L 108.2887 98.97753 
L 108.33478 98.919535 
L 108.56518 97.965226 
L 108.657341 97.841742 
L 108.703421 98.34946 
L 108.749501 97.971497 
L 108.887741 97.186576 
L 108.933821 97.51843 
L 109.072061 98.011514 
L 109.118141 97.908238 
L 109.164221 98.002549 
L 109.302461 98.678819 
L 109.348541 98.282995 
L 109.394621 98.36287 
L 109.440701 98.568492 
L 109.486782 98.505027 
L 109.532862 98.151659 
L 109.578942 98.415503 
L 109.625022 98.40744 
L 109.809342 99.644224 
L 109.855422 99.520242 
L 109.901502 99.61773 
L 109.993662 100.013654 
L 110.039742 100.195159 
L 110.085822 100.836749 
L 110.177982 100.72485 
L 110.224062 100.730762 
L 110.408383 101.359619 
L 110.454463 101.386932 
L 110.638783 100.345256 
L 110.684863 100.444925 
L 110.730943 100.325745 
L 110.823103 100.209796 
L 110.869183 100.341168 
L 110.915263 100.22079 
L 110.961343 100.034458 
L 111.145664 98.677789 
L 111.376064 96.887408 
L 111.422144 97.131674 
L 111.468224 97.547195 
L 111.560384 97.422993 
L 111.652544 98.17345 
L 111.698624 97.856046 
L 111.790784 97.128399 
L 111.882944 97.519943 
L 112.297665 99.402599 
L 112.343745 99.094745 
L 112.574145 96.735413 
L 112.620225 97.2519 
L 113.034946 100.594249 
L 113.173186 101.351766 
L 113.541826 104.515176 
L 113.633987 104.260269 
L 113.680067 103.615104 
L 113.772227 103.720513 
L 113.956547 102.601748 
L 114.002627 102.639822 
L 114.417347 101.052417 
L 114.601668 102.017848 
L 114.693828 101.769439 
L 114.832068 101.877884 
L 114.878148 102.347314 
L 114.924228 101.974351 
L 114.970308 101.837701 
L 115.154628 103.224627 
L 115.477189 106.295185 
L 115.753669 108.599846 
L 115.799749 108.007849 
L 115.845829 108.017787 
L 115.937989 108.42085 
L 116.076229 107.769906 
L 116.21447 107.017956 
L 116.30663 106.589253 
L 116.39879 107.212117 
L 116.67527 104.044491 
L 116.72135 104.572067 
L 116.76743 105.28301 
L 116.81351 105.040245 
L 116.951751 104.797289 
L 117.043911 105.945914 
L 117.089991 105.229627 
L 117.136071 104.667217 
L 117.182151 105.015311 
L 117.228231 105.565428 
L 117.412551 103.608081 
L 117.550791 104.247973 
L 117.596871 105.102502 
L 117.642951 104.995853 
L 117.689031 104.508783 
L 117.781191 104.626896 
L 118.103752 102.379488 
L 118.149832 101.81473 
L 118.195912 102.069927 
L 118.241992 102.12115 
L 118.334152 102.938705 
L 118.380232 102.873812 
L 118.656713 101.600524 
L 118.979273 103.25948 
L 119.163593 104.417236 
L 119.209673 104.686545 
L 119.255753 104.566586 
L 119.393993 104.222697 
L 119.440073 104.245252 
L 119.486154 104.764271 
L 119.532234 104.431946 
L 119.578314 104.526967 
L 119.716554 103.257952 
L 119.762634 103.292702 
L 119.808714 103.450276 
L 119.946954 102.437757 
L 119.993034 102.654907 
L 120.039114 102.553049 
L 120.085194 102.811696 
L 120.269514 101.532816 
L 120.407755 100.935646 
L 120.545995 101.845368 
L 120.638155 102.062265 
L 120.822475 101.426022 
L 121.191116 99.264917 
L 121.329356 99.157194 
L 121.467596 98.582722 
L 121.513676 98.483976 
L 121.559756 98.63907 
L 121.605836 98.550529 
L 121.651916 98.163783 
L 121.697996 98.186187 
L 121.790156 98.415247 
L 121.882316 97.826355 
L 121.928396 97.939848 
L 122.250957 99.948583 
L 122.573517 103.666669 
L 122.619597 103.645481 
L 122.711757 104.366757 
L 122.942158 106.933539 
L 122.988238 106.871856 
L 123.034318 106.926477 
L 123.080398 107.282158 
L 123.126478 106.839108 
L 123.218638 106.189589 
L 123.402958 105.07453 
L 123.541198 105.410356 
L 123.587278 105.258553 
L 123.679439 104.833167 
L 123.909839 103.993373 
L 124.094159 105.206453 
L 124.140239 104.813404 
L 124.186319 104.978144 
L 124.324559 105.727619 
L 124.370639 105.655452 
L 124.416719 105.524259 
L 124.83144 107.865551 
L 124.87752 107.79243 
L 125.01576 107.794505 
L 125.20008 109.368431 
L 125.292241 110.161005 
L 125.338321 110.824605 
L 125.384401 110.638673 
L 125.476561 109.4634 
L 125.522641 110.199429 
L 125.614801 110.059151 
L 125.799121 110.31597 
L 126.306002 107.183052 
L 126.352082 107.465365 
L 126.398162 108.058104 
L 126.444242 107.304786 
L 126.628562 106.70737 
L 126.674642 106.669624 
L 126.720722 106.309075 
L 126.766802 106.633165 
L 126.997203 106.674236 
L 127.181523 105.688433 
L 127.227603 105.758931 
L 127.365843 106.274814 
L 127.411923 106.185691 
L 127.458003 105.975658 
L 127.504083 106.108385 
L 127.550163 106.145294 
L 127.642323 106.666495 
L 127.688403 106.65715 
L 127.734483 106.574629 
L 127.780564 106.657895 
L 127.872724 107.330572 
L 127.918804 107.286387 
L 127.964884 107.063379 
L 128.010964 107.090854 
L 128.057044 107.381109 
L 128.241364 106.061455 
L 128.379604 106.551766 
L 128.425684 106.479803 
L 128.471764 106.165096 
L 128.656085 104.223134 
L 128.840405 103.291382 
L 129.393365 99.38404 
L 129.531606 99.749511 
L 129.762006 98.225972 
L 129.854166 98.46102 
L 129.900246 98.363002 
L 130.038486 97.409548 
L 130.222806 98.164988 
L 130.268886 98.039876 
L 130.453207 97.311294 
L 130.545367 97.335173 
L 130.591447 97.465461 
L 130.637527 97.320723 
L 130.821847 96.311478 
L 130.867927 96.540006 
L 131.006167 95.78732 
L 131.190488 94.213128 
L 131.236568 94.316394 
L 131.466968 92.979924 
L 131.513048 93.188945 
L 131.559128 92.951456 
L 131.605208 92.769665 
L 131.651288 92.923548 
L 131.927768 95.257941 
L 132.112089 97.185065 
L 132.204249 97.187387 
L 132.388569 98.399247 
L 132.434649 98.137531 
L 132.480729 98.212576 
L 132.618969 98.958379 
L 132.665049 99.063415 
L 132.89545 98.007244 
L 133.12585 96.310025 
L 133.58665 93.670064 
L 133.632731 93.995693 
L 133.678811 93.954439 
L 133.770971 93.558978 
L 133.817051 93.834993 
L 133.863131 93.812988 
L 134.047451 94.204308 
L 134.093531 94.093957 
L 134.323931 96.013454 
L 134.370011 95.741177 
L 134.416091 95.786533 
L 134.462172 96.142796 
L 134.508252 95.92427 
L 134.646492 95.112648 
L 134.692572 95.413862 
L 134.830812 94.518185 
L 135.015132 95.527446 
L 135.061212 95.582797 
L 135.245532 97.056946 
L 135.291613 96.946791 
L 135.429853 95.826828 
L 135.522013 96.218256 
L 135.568093 96.056631 
L 135.614173 95.985233 
L 135.660253 96.064841 
L 136.028893 91.635832 
L 136.167134 89.988839 
L 136.213214 90.097272 
L 136.443614 91.646034 
L 136.627934 92.589077 
L 136.904414 96.384003 
L 137.180895 97.64305 
L 137.319135 97.529123 
L 137.549535 99.111993 
L 137.687775 97.30435 
L 137.779936 97.520278 
L 137.872096 97.609153 
L 138.056416 98.637992 
L 138.471136 97.322363 
L 138.148576 98.692694 
L 138.517216 97.560507 
L 138.609377 98.08339 
L 138.655457 98.019824 
L 138.747617 97.777941 
L 138.793697 97.950145 
L 138.839777 97.736401 
L 139.070177 95.838958 
L 139.623138 98.790816 
L 139.669218 99.589319 
L 139.761378 99.524059 
L 139.853538 99.830115 
L 139.991778 100.92791 
L 140.452579 97.620473 
L 140.682979 96.457102 
L 140.959459 97.907975 
L 141.23594 99.378261 
L 141.28202 99.180367 
L 141.3281 99.293059 
L 141.42026 99.818005 
L 141.46634 100.365719 
L 141.5585 100.309725 
L 141.69674 101.089207 
L 141.74282 100.761834 
L 141.88106 99.774286 
L 142.019301 100.2653 
L 142.065381 100.210069 
L 142.111461 100.821734 
L 142.157541 100.526266 
L 142.249701 100.075693 
L 142.295781 100.108497 
L 142.434021 100.654896 
L 142.480101 101.514797 
L 142.526181 101.505949 
L 142.572261 100.928767 
L 142.664421 101.044271 
L 142.710501 101.108063 
L 142.848742 100.727715 
L 142.894822 100.75848 
L 142.986982 101.429405 
L 143.079142 100.566235 
L 143.125222 100.971509 
L 143.217382 101.066319 
L 143.678183 98.272225 
L 143.724263 98.68858 
L 143.770343 98.586684 
L 143.816423 98.466681 
L 143.954663 97.26447 
L 144.000743 97.163282 
L 144.046823 97.199491 
L 144.231143 98.406022 
L 144.277223 98.399823 
L 144.369383 98.586837 
L 144.507624 100.198306 
L 144.645864 99.58524 
L 144.691944 99.60517 
L 144.968424 102.760053 
L 145.106664 103.058661 
L 145.198824 102.880586 
L 145.567465 105.79648 
L 145.613545 105.583605 
L 145.705705 104.756778 
L 145.751785 104.959861 
L 145.797865 104.925367 
L 146.028265 102.668506 
L 146.074345 103.107978 
L 146.166506 103.204408 
L 146.350826 102.388037 
L 146.396906 102.422794 
L 146.627306 101.200126 
L 146.995947 100.083362 
L 147.042027 100.322102 
L 147.088107 100.271195 
L 147.134187 100.485725 
L 147.272427 99.88626 
L 147.318507 100.138839 
L 147.364587 100.043154 
L 147.456747 100.064421 
L 147.871468 102.065793 
L 148.009708 103.14901 
L 148.055788 103.006102 
L 148.240108 104.145819 
L 148.286188 104.253422 
L 148.378348 104.987199 
L 148.424428 104.882405 
L 148.516588 104.99728 
L 148.654829 107.309131 
L 148.700909 107.122817 
L 149.346029 102.822288 
L 149.392109 102.911895 
L 149.43819 102.852221 
L 149.53035 101.724109 
L 149.62251 100.466742 
L 149.66859 100.584515 
L 149.76075 100.616973 
L 149.80683 100.667918 
L 149.85291 100.259794 
L 149.89899 100.532976 
L 149.94507 100.570361 
L 150.03723 101.142788 
L 150.08331 101.100368 
L 150.12939 101.135588 
L 150.267631 102.043815 
L 150.359791 101.501079 
L 150.405871 101.790734 
L 150.636271 103.480496 
L 150.682351 103.340651 
L 150.728431 103.367968 
L 150.866671 104.088266 
L 151.189232 102.269212 
L 151.281392 102.514463 
L 151.419632 101.720681 
L 151.603952 100.408336 
L 151.650032 100.511393 
L 151.696112 100.221394 
L 151.742192 100.546183 
L 151.834352 100.810919 
L 152.249073 103.609178 
L 152.295153 103.62207 
L 152.341233 103.801326 
L 152.479473 105.042888 
L 152.525553 105.024294 
L 152.571633 104.666218 
L 152.617713 104.840935 
L 152.709873 104.954177 
L 152.848114 105.746226 
L 153.032434 105.02146 
L 153.078514 105.427397 
L 153.124594 105.173515 
L 153.216754 105.21345 
L 153.262834 105.891306 
L 153.354994 105.826451 
L 153.401074 105.843466 
L 153.447154 106.121513 
L 153.493234 105.849577 
L 153.677555 104.740513 
L 153.861875 106.353399 
L 153.907955 106.346797 
L 154.184435 105.747342 
L 154.230515 106.42038 
L 154.276595 105.969062 
L 154.322675 106.004685 
L 154.368755 105.914236 
L 154.460916 106.51491 
L 154.506996 106.426237 
L 154.553076 106.388354 
L 154.737396 105.366666 
L 154.829556 104.667353 
L 154.875636 104.701879 
L 154.921716 104.462284 
L 154.967796 104.558502 
L 155.059956 104.918379 
L 155.106036 104.814081 
L 155.336437 103.660811 
L 155.705077 105.504448 
L 155.889397 106.179679 
L 155.935477 106.292823 
L 156.027637 105.59758 
L 156.073717 105.71095 
L 156.211958 107.447851 
L 156.350198 108.677908 
L 156.442358 108.296474 
L 156.534518 108.744519 
L 156.580598 108.47175 
L 156.626678 108.186845 
L 156.672758 108.548152 
L 156.764918 108.513192 
L 156.857078 107.74638 
L 156.903158 107.768903 
L 156.949239 107.832353 
L 157.317879 104.407351 
L 157.363959 104.655797 
L 157.410039 104.350969 
L 157.502199 103.993565 
L 157.548279 104.466584 
L 157.686519 103.268711 
L 157.82476 103.535196 
L 157.87084 103.362394 
L 157.963 103.848956 
L 158.00908 103.741143 
L 158.1934 102.972912 
L 158.37772 103.772837 
L 158.46988 103.793066 
L 158.608121 104.543473 
L 158.654201 104.59778 
L 159.068921 108.075127 
L 159.115001 107.743384 
L 159.253241 106.199585 
L 159.437562 104.340176 
L 159.575802 104.266177 
L 159.944442 100.500635 
L 160.082682 99.847234 
L 160.128762 99.998022 
L 160.220922 100.795371 
L 160.267003 100.710623 
L 160.359163 100.055858 
L 160.451323 100.252046 
L 160.635643 100.616623 
L 160.681723 100.229299 
L 160.727803 100.389483 
L 160.773883 100.395448 
L 160.866043 101.18337 
L 160.912123 101.047702 
L 160.958203 101.015711 
L 161.004283 101.1137 
L 161.096444 100.318596 
L 161.142524 100.644916 
L 161.234684 100.90788 
L 161.326844 101.842175 
L 161.372924 101.75631 
L 162.018045 104.916798 
L 162.340605 102.690914 
L 162.478845 101.593038 
L 162.617085 100.021074 
L 162.663165 100.131169 
L 162.709245 99.796549 
L 162.755326 100.287531 
L 162.801406 99.911415 
L 162.985726 100.452987 
L 163.077886 102.081234 
L 163.999487 131.804532 
L 164.045567 131.783362 
L 164.091647 131.607891 
L 164.137727 131.709256 
L 164.183807 131.835606 
L 164.967168 126.970603 
L 165.013248 126.928699 
L 165.289729 127.971484 
L 165.335809 128.087488 
L 165.381889 127.92525 
L 165.427969 127.674286 
L 165.888769 133.792099 
L 166.073089 134.491276 
L 166.21133 133.520665 
L 166.25741 133.618277 
L 166.30349 133.520819 
L 166.948611 121.672469 
L 166.994691 121.738462 
L 167.040771 121.477161 
L 167.086851 121.792719 
L 167.179011 121.75979 
L 167.271171 122.415106 
L 167.731971 127.884569 
L 168.146692 124.699574 
L 168.238852 125.384392 
L 168.284932 125.112496 
L 168.377092 124.324049 
L 168.423172 124.561981 
L 168.469252 124.55124 
L 168.515332 124.308901 
L 168.561412 124.355652 
L 168.607493 124.514904 
L 168.653573 124.319253 
L 169.068293 130.513708 
L 169.160453 130.689307 
L 169.298693 132.154339 
L 169.344773 131.752115 
L 169.436934 131.614117 
L 169.529094 132.412917 
L 169.575174 132.248916 
L 169.851654 129.37668 
L 169.897734 128.956542 
L 169.943814 129.212052 
L 170.082054 129.481484 
L 170.174214 129.157472 
L 170.220294 129.294732 
L 170.358535 129.657308 
L 170.542855 127.862322 
L 170.588935 128.076945 
L 170.819335 129.325989 
L 170.865415 129.084423 
L 171.003655 127.719672 
L 171.049735 127.739967 
L 171.095816 128.194543 
L 171.187976 127.133018 
L 171.234056 127.296468 
L 171.418376 126.391395 
L 171.464456 126.180116 
L 171.833096 120.920014 
L 171.971337 120.53956 
L 172.201737 120.996984 
L 172.386057 123.901947 
L 172.846858 131.278863 
L 172.892938 131.245737 
L 172.939018 131.079666 
L 172.985098 131.147119 
L 173.169418 132.813368 
L 173.215498 132.770953 
L 173.261578 132.903168 
L 173.491978 134.693732 
L 173.538058 134.891086 
L 173.906699 141.233142 
L 173.952779 141.204348 
L 173.998859 141.375842 
L 174.229259 143.206364 
L 174.367499 142.127834 
L 174.41358 142.260156 
L 174.45966 142.621425 
L 174.55182 142.592152 
L 174.8283 140.101054 
L 174.87438 140.121558 
L 174.96654 139.360202 
L 175.565581 133.059482 
L 175.888141 126.625084 
L 176.302862 120.440416 
L 176.348942 120.326648 
L 176.441102 119.477368 
L 176.487182 119.545815 
L 176.671502 121.141385 
L 176.809742 121.063465 
L 177.362703 127.597633 
L 177.454863 127.038333 
L 177.500943 127.320734 
L 178.099984 134.495833 
L 178.146064 134.302015 
L 178.192144 134.576286 
L 178.238224 134.851051 
L 178.284304 134.794237 
L 178.376464 134.68468 
L 178.837265 128.175599 
L 179.113745 124.056228 
L 179.159825 123.938376 
L 179.344145 122.40286 
L 179.390225 122.420584 
L 179.436306 122.422299 
L 179.482386 121.753898 
L 179.574546 121.796041 
L 179.666706 121.452706 
L 179.897106 119.026512 
L 180.081426 116.804499 
L 180.219666 117.138305 
L 180.265747 117.313456 
L 180.496147 116.47546 
L 180.588307 116.023797 
L 180.634387 116.50113 
L 180.680467 116.428867 
L 180.910867 114.437427 
L 180.956947 114.269726 
L 181.648148 104.02188 
L 181.694228 104.005618 
L 181.740308 103.820911 
L 182.108949 99.388234 
L 182.385429 96.673877 
L 182.523669 95.799899 
L 182.615829 96.020707 
L 182.84623 95.039363 
L 183.03055 95.964385 
L 183.07663 96.082993 
L 183.30703 99.274482 
L 183.44527 99.900553 
L 183.53743 99.851203 
L 183.583511 100.088949 
L 183.813911 103.055729 
L 184.090391 105.987136 
L 184.136471 105.726085 
L 184.274711 104.168704 
L 184.320791 104.277988 
L 184.459032 105.007007 
L 184.873752 103.556029 
L 184.965912 102.301087 
L 185.058072 100.926237 
L 185.104152 101.095375 
L 185.334553 98.748337 
L 185.380633 98.638302 
L 185.795353 94.468527 
L 186.210074 100.171413 
L 186.256154 99.941682 
L 186.302234 100.077433 
L 186.670874 104.782972 
L 186.809114 103.056385 
L 187.085595 99.509438 
L 187.131675 99.53633 
L 187.223835 98.950875 
L 187.408155 96.141544 
L 187.592475 94.244432 
L 187.915036 97.501094 
L 188.007196 97.189861 
L 188.053276 97.245098 
L 188.375836 99.533946 
L 188.421916 99.561527 
L 188.467996 99.785448 
L 188.606237 99.154456 
L 188.652317 99.293863 
L 188.698397 99.117683 
L 189.113117 104.741958 
L 189.343517 106.312022 
L 189.527838 107.678471 
L 189.619998 107.735378 
L 189.666078 107.556625 
L 189.850398 108.946451 
L 190.541599 120.518948 
L 190.771999 120.917849 
L 190.910239 121.444516 
L 191.09456 120.885038 
L 191.41712 117.518464 
L 191.4632 117.311444 
L 191.50928 117.568701 
L 191.55536 117.771373 
L 191.60144 117.60811 
L 191.78576 114.50247 
L 192.016161 109.903247 
L 192.200481 109.337233 
L 192.246561 109.333548 
L 192.707361 106.28121 
L 192.753442 106.618701 
L 192.937762 105.312166 
L 192.983842 105.322154 
L 193.352482 102.890614 
L 193.582883 101.798937 
L 193.951523 105.133681 
L 194.181923 103.646883 
L 194.228003 103.846611 
L 194.504484 101.12848 
L 194.734884 96.210154 
L 194.780964 96.380968 
L 194.827044 96.333242 
L 194.873124 95.89576 
L 194.965284 96.000344 
L 195.287845 97.094434 
L 196.025125 105.329541 
L 196.117286 104.85543 
L 196.163366 105.024463 
L 196.209446 104.820616 
L 196.439846 103.712044 
L 196.301606 104.86134 
L 196.485926 103.721585 
L 196.532006 103.867288 
L 196.854566 100.150436 
L 197.545767 108.302003 
L 197.591847 108.294915 
L 197.684007 109.041744 
L 197.730088 108.940485 
L 198.236968 103.484316 
L 198.605609 100.966916 
L 198.651689 101.030941 
L 198.836009 102.077824 
L 198.882089 101.992595 
L 198.928169 101.852763 
L 198.974249 101.895931 
L 199.020329 102.049242 
L 199.342889 105.085275 
L 199.38897 104.787796 
L 199.43505 105.100073 
L 199.48113 105.235134 
L 199.52721 105.087455 
L 199.57329 105.127342 
L 199.61937 105.546377 
L 199.66545 105.163084 
L 199.84977 103.570995 
L 199.89585 103.484565 
L 199.94193 103.615635 
L 200.771371 109.812592 
L 200.909611 109.035715 
L 201.370412 103.176084 
L 201.416492 103.421429 
L 201.462572 103.97935 
L 201.508652 103.67948 
L 201.785132 102.196539 
L 202.153773 98.282458 
L 202.245933 98.575848 
L 202.292013 99.053112 
L 202.338093 98.674292 
L 202.476333 97.927388 
L 202.522413 98.609878 
L 202.568493 98.474911 
L 202.614573 98.044564 
L 202.660653 98.519822 
L 202.752814 99.276657 
L 202.798894 98.89225 
L 202.891054 99.018143 
L 202.937134 98.700586 
L 203.029294 99.786006 
L 203.075374 99.37035 
L 203.397934 94.981924 
L 203.490094 93.632033 
L 203.536174 93.768365 
L 203.582255 93.576813 
L 203.674415 94.533919 
L 203.950895 100.221662 
L 204.365615 107.635136 
L 204.411696 108.512871 
L 204.457776 108.441049 
L 204.503856 108.060118 
L 204.549936 108.565876 
L 204.596016 108.444047 
L 204.642096 109.132002 
L 204.688176 109.104955 
L 204.826416 108.350262 
L 205.010736 107.442727 
L 205.287217 102.338571 
L 205.563697 97.87682 
L 205.794097 96.0405 
L 205.840177 96.024788 
L 205.886257 96.149958 
L 205.978417 95.445987 
L 206.024497 95.620346 
L 206.347058 98.422138 
L 206.393138 98.246243 
L 206.623538 96.77076 
L 206.669618 97.063729 
L 206.715698 96.935018 
L 206.761778 96.698082 
L 206.807858 96.78017 
L 207.130419 100.165505 
L 207.268659 101.454304 
L 207.406899 103.917929 
L 207.452979 103.825827 
L 207.499059 103.881556 
L 207.683379 104.452667 
L 207.72946 104.462679 
L 207.82162 104.860166 
L 207.8677 105.34168 
L 207.91378 104.455745 
L 207.95986 104.475959 
L 208.14418 105.479021 
L 208.23634 104.749135 
L 208.3285 104.787699 
L 208.558901 106.274213 
L 208.743221 104.612146 
L 208.973621 102.187817 
L 209.111861 101.495839 
L 209.296181 102.602608 
L 209.342261 102.525325 
L 209.480502 101.850543 
L 209.526582 101.925203 
L 209.572662 101.764834 
L 210.033462 104.498767 
L 210.079542 104.151968 
L 210.125622 104.382542 
L 210.402103 106.066155 
L 210.586423 108.40206 
L 210.632503 108.218151 
L 210.816823 109.042495 
L 210.908983 108.56578 
L 211.001143 108.695219 
L 211.047224 108.665979 
L 211.508024 105.333429 
L 211.554104 105.460452 
L 211.600184 105.372011 
L 212.060985 102.287349 
L 212.153145 102.984818 
L 212.337465 101.612664 
L 212.567865 100.92608 
L 212.798266 101.931475 
L 212.844346 101.770121 
L 212.982586 100.767565 
L 213.028666 100.919523 
L 213.074746 100.394261 
L 213.120826 100.450251 
L 213.259066 100.960143 
L 213.305146 100.784036 
L 213.351226 100.955825 
L 213.397306 101.203516 
L 213.443386 100.88733 
L 213.489466 100.695728 
L 213.535546 100.7279 
L 213.673787 101.948739 
L 214.134587 106.039733 
L 214.226747 106.797299 
L 214.272827 106.309363 
L 214.318907 106.096006 
L 214.503228 107.236941 
L 214.641468 106.276441 
L 214.733628 106.502036 
L 214.779708 106.973237 
L 214.825788 106.690552 
L 215.148348 104.79533 
L 215.286589 106.15894 
L 215.839549 102.600154 
L 215.931709 101.704999 
L 216.06995 102.518164 
L 216.11603 102.496444 
L 217.083711 96.691738 
L 217.175871 97.399707 
L 217.221951 96.972152 
L 217.360191 96.225593 
L 217.406271 96.545487 
L 217.452351 96.320226 
L 217.820992 92.693835 
L 217.867072 92.798882 
L 218.005312 91.333091 
L 218.097472 89.485494 
L 218.189632 89.895375 
L 218.281792 90.180646 
L 218.373952 89.14685 
L 218.420032 89.598514 
L 218.466112 89.995241 
L 218.512192 89.674148 
L 218.696513 88.82817 
L 218.834753 88.167347 
L 218.926913 88.336202 
L 219.111233 89.429254 
L 219.203393 89.212082 
L 219.572034 93.729319 
L 219.848514 96.468953 
L 219.894594 96.5884 
L 220.217155 100.369866 
L 220.263235 100.205828 
L 220.309315 100.233107 
L 220.493635 101.156626 
L 220.770115 102.967843 
L 220.816195 102.746926 
L 221.184836 99.80055 
L 221.369156 100.662202 
L 221.415236 100.628174 
L 221.507396 100.159696 
L 221.783876 102.957372 
L 221.829956 102.68192 
L 221.968197 103.949478 
L 222.060357 105.124067 
L 222.106437 105.061568 
L 222.152517 105.137143 
L 222.382917 103.482778 
L 222.428997 103.465801 
L 222.521157 102.958832 
L 222.567237 103.247613 
L 222.843718 105.235499 
L 222.889798 105.217972 
L 222.935878 105.078742 
L 222.981958 105.162 
L 224.041799 122.869426 
L 224.318279 124.502868 
L 224.41044 123.955338 
L 224.45652 124.007001 
L 224.54868 124.264545 
L 224.77908 122.38544 
L 225.10164 119.864944 
L 225.193801 119.12724 
L 225.700681 114.304966 
L 226.069322 115.350306 
L 226.760522 123.295496 
L 226.806602 123.112317 
L 226.852682 123.457489 
L 226.944843 123.357139 
L 227.267403 118.303801 
L 227.589963 111.60642 
L 227.866444 107.859795 
L 228.050764 106.820483 
L 228.096844 106.982871 
L 228.235084 107.431725 
L 228.327244 107.338748 
L 228.465484 106.391436 
L 228.511564 106.399993 
L 228.557645 106.36672 
L 228.603725 106.533041 
L 228.695885 106.100192 
L 228.741965 106.177689 
L 228.880205 105.955713 
L 228.926285 105.996514 
L 229.018445 105.140083 
L 229.064525 105.296058 
L 229.110605 105.307566 
L 229.341005 106.69928 
L 229.387086 106.348121 
L 229.663566 104.754249 
L 229.755726 105.017354 
L 229.801806 104.845315 
L 229.847886 104.955584 
L 229.986126 104.995686 
L 230.032206 105.170716 
L 230.078286 105.094783 
L 230.124366 104.488866 
L 230.170446 104.668923 
L 230.354767 105.646029 
L 230.400847 105.620885 
L 230.446927 105.747418 
L 230.493007 105.558151 
L 230.539087 105.256783 
L 230.585167 105.711251 
L 230.631247 105.467201 
L 230.677327 105.443445 
L 230.861647 106.625276 
L 231.092048 103.755389 
L 231.138128 103.074978 
L 231.184208 103.082847 
L 231.230288 103.50994 
L 231.276368 102.958476 
L 231.322448 102.564228 
L 231.368528 103.053072 
L 231.598928 104.864692 
L 231.737168 104.648411 
L 231.829328 105.457551 
L 232.013649 108.752759 
L 232.290129 112.867542 
L 232.382289 112.830426 
L 232.70485 114.59036 
L 232.93525 112.881218 
L 233.16565 110.411937 
L 233.764691 102.599573 
L 233.856851 102.435401 
L 233.995091 101.516271 
L 234.041171 101.846093 
L 234.133331 101.726979 
L 234.317651 102.698048 
L 234.409812 101.128733 
L 234.455892 101.271476 
L 234.732372 103.367759 
L 234.778452 103.269767 
L 234.824532 103.376453 
L 234.962772 105.203676 
L 235.008852 105.150315 
L 235.101012 104.70826 
L 235.239253 103.886211 
L 235.377493 105.931226 
L 235.423573 105.817003 
L 235.561813 105.338426 
L 235.746133 106.189133 
L 235.884373 104.383452 
L 235.976533 104.803384 
L 236.160854 106.793677 
L 236.253014 106.651163 
L 236.299094 106.610988 
L 236.345174 106.696047 
L 236.483414 107.548623 
L 236.529494 107.55588 
L 236.852055 111.205397 
L 236.944215 111.00324 
L 237.036375 110.521985 
L 237.082455 110.632474 
L 237.358935 112.568842 
L 237.451095 112.154395 
L 237.681495 109.497335 
L 237.819736 110.499242 
L 237.865816 110.27453 
L 237.911896 110.317993 
L 238.142296 112.151926 
L 238.234456 112.236142 
L 238.695257 115.267813 
L 238.741337 115.161823 
L 238.925657 116.300022 
L 239.063897 116.104022 
L 239.109977 116.218476 
L 239.156057 116.193497 
L 239.340377 115.010017 
L 239.709018 112.911701 
L 239.847258 112.506336 
L 239.939418 113.06189 
L 240.031578 113.028838 
L 240.630619 115.355989 
L 241.41398 107.696568 
L 241.46006 107.822352 
L 241.64438 106.163916 
L 241.73654 106.36217 
L 242.243421 99.870168 
L 242.658141 98.193732 
L 242.888542 100.403002 
L 243.349342 102.461038 
L 243.533663 101.608015 
L 243.625823 101.593412 
L 243.671903 102.29913 
L 243.717983 102.10055 
L 243.764063 102.691573 
L 243.810143 102.495134 
L 243.856223 102.376003 
L 243.902303 101.937639 
L 243.948383 102.370435 
L 244.086623 103.145746 
L 244.132703 102.75495 
L 244.178783 102.969693 
L 244.363104 104.898242 
L 244.501344 104.383916 
L 244.547424 104.557636 
L 244.823904 101.983982 
L 244.869984 101.954515 
L 245.330785 98.757425 
L 245.376865 98.80301 
L 245.653345 96.96167 
L 245.699425 97.548497 
L 245.745505 98.166528 
L 245.837665 98.010646 
L 245.975905 98.39939 
L 246.021986 97.900318 
L 246.068066 98.413599 
L 246.206306 98.036276 
L 246.298466 98.951997 
L 246.344546 98.947768 
L 246.390626 98.903817 
L 246.436706 99.001128 
L 246.528866 99.124296 
L 246.805346 100.481147 
L 246.851427 100.619635 
L 246.897507 100.293949 
L 247.127907 102.392226 
L 247.312227 103.955702 
L 247.588707 105.723292 
L 247.680868 105.701924 
L 247.819108 108.161152 
L 248.325988 113.445384 
L 248.372068 113.51101 
L 248.694629 116.086268 
L 248.878949 114.825223 
L 249.109349 110.99262 
L 249.43191 107.508972 
L 249.61623 105.548812 
L 249.66231 105.875512 
L 249.75447 105.93928 
L 250.03095 109.326233 
L 250.12311 109.602468 
L 250.261351 110.660512 
L 250.307431 110.375098 
L 250.537831 109.554184 
L 250.906471 99.392142 
L 251.367272 84.538289 
L 251.597672 81.536715 
L 251.643752 81.884036 
L 251.689832 82.037666 
L 251.966313 85.934559 
L 252.150633 87.373492 
L 252.334953 89.559324 
L 252.473193 89.5575 
L 252.519273 89.539504 
L 252.795754 87.813518 
L 252.933994 88.009174 
L 253.026154 88.935882 
L 253.072234 88.537304 
L 253.164394 87.205136 
L 253.210474 87.254965 
L 253.256554 87.208305 
L 253.302634 87.995066 
L 253.348714 87.750527 
L 253.763435 85.910601 
L 253.809515 86.043208 
L 253.855595 85.853246 
L 253.947755 85.40019 
L 254.039915 86.802652 
L 254.085995 86.750435 
L 254.132075 86.579465 
L 254.178155 86.99845 
L 254.224235 86.273962 
L 254.270315 86.570226 
L 254.592876 89.887032 
L 254.869356 93.429872 
L 254.961516 93.221957 
L 255.237997 95.009757 
L 255.330157 95.028937 
L 255.560557 96.544891 
L 255.606637 96.426457 
L 255.652717 96.53964 
L 255.698797 96.577112 
L 255.744877 96.485721 
L 255.975277 97.506245 
L 256.021358 97.331811 
L 256.067438 97.355976 
L 256.343918 98.969731 
L 256.389998 98.936471 
L 256.436078 99.865553 
L 256.528238 99.644396 
L 256.574318 99.570778 
L 256.850799 101.255737 
L 257.173359 104.079835 
L 257.449839 105.276547 
L 257.72632 106.49458 
L 257.7724 106.485678 
L 258.04888 104.460984 
L 258.09496 104.585975 
L 258.18712 105.595061 
L 258.2332 105.344128 
L 258.27928 104.923868 
L 258.32536 105.097276 
L 258.37144 105.286463 
L 258.41752 105.094283 
L 258.509681 104.752808 
L 258.555761 104.95557 
L 258.601841 104.807995 
L 258.647921 104.833905 
L 258.832241 106.076146 
L 258.878321 105.848153 
L 258.924401 106.324005 
L 258.970481 106.129144 
L 259.339122 103.326447 
L 259.385202 103.509557 
L 259.431282 103.452033 
L 259.477362 103.111696 
L 259.523442 103.14189 
L 259.569522 103.344057 
L 259.753842 101.958854 
L 260.030322 102.920384 
L 260.260723 104.685668 
L 261.044084 97.024973 
L 261.274484 99.048913 
L 261.412724 99.59487 
L 261.458804 99.530871 
L 261.689204 101.99247 
L 261.735284 101.938718 
L 261.827444 102.123005 
L 262.057845 100.128787 
L 262.242165 97.719751 
L 262.288245 97.655632 
L 262.426485 96.916562 
L 262.472565 96.800724 
L 262.610805 96.282039 
L 262.656885 96.234776 
L 262.979446 94.273556 
L 263.025526 94.446144 
L 263.163766 94.464432 
L 263.209846 94.391786 
L 263.255926 94.715966 
L 263.302006 94.380199 
L 263.578487 91.894701 
L 263.624567 91.904256 
L 263.716727 92.2399 
L 263.808887 91.680325 
L 263.854967 91.882212 
L 263.901047 91.863237 
L 264.039287 91.062359 
L 264.085367 91.185842 
L 264.269687 91.501079 
L 264.407928 91.345116 
L 264.500088 92.35409 
L 265.237369 98.16162 
L 265.375609 98.319791 
L 265.467769 97.852906 
L 265.513849 98.089892 
L 265.559929 97.95639 
L 265.606009 98.181259 
L 265.652089 97.971546 
L 266.02073 96.406298 
L 266.38937 98.083485 
L 266.48153 97.794548 
L 266.52761 97.865183 
L 266.61977 98.045103 
L 266.75801 99.480214 
L 266.942331 101.594553 
L 267.541371 104.322058 
L 267.956092 101.563767 
L 268.002172 101.713072 
L 268.094332 101.233414 
L 268.186492 101.275769 
L 268.509053 102.91801 
L 268.555133 102.836371 
L 268.647293 103.366722 
L 268.739453 103.635881 
L 268.877693 102.979251 
L 268.923773 102.26711 
L 268.969853 102.548617 
L 269.015933 102.597876 
L 269.062013 102.522612 
L 269.246333 102.493228 
L 269.338494 102.634048 
L 269.384574 102.584552 
L 269.661054 101.017617 
L 269.845374 101.651745 
L 269.891454 100.962826 
L 269.937534 101.399604 
L 270.029694 101.379659 
L 270.260095 99.367987 
L 270.444415 97.880741 
L 270.582655 97.25669 
L 270.951295 92.952156 
L 270.997376 92.720442 
L 271.181696 90.793839 
L 271.227776 90.875406 
L 271.273856 90.63498 
L 271.319936 90.80113 
L 271.366016 90.841347 
L 271.596416 91.614993 
L 271.688576 91.381721 
L 271.965057 93.540266 
L 272.011137 93.20221 
L 272.057217 93.032005 
L 272.195457 93.715379 
L 272.333697 93.424205 
L 272.379777 93.735446 
L 272.425857 93.444437 
L 272.518017 93.016065 
L 272.656258 94.135065 
L 272.748418 93.903479 
L 272.886658 93.341287 
L 272.932738 93.360371 
L 272.978818 93.69548 
L 273.024898 93.605575 
L 273.117058 93.164143 
L 273.163138 93.515166 
L 273.209218 93.718587 
L 273.255298 93.553339 
L 273.347458 92.847143 
L 273.393538 93.065167 
L 273.439618 93.026442 
L 273.670019 91.825285 
L 273.808259 92.692566 
L 273.992579 93.552052 
L 274.222979 94.801265 
L 274.45338 97.676218 
L 274.6377 98.707883 
L 274.82202 99.442093 
L 274.96026 99.552275 
L 275.328901 96.113533 
L 275.374981 96.199023 
L 275.559301 94.425282 
L 275.743621 94.230053 
L 275.881861 94.376173 
L 276.020102 95.670031 
L 276.066182 95.336183 
L 276.112262 95.501351 
L 276.158342 95.286011 
L 276.573062 92.752339 
L 276.803462 90.099528 
L 277.218183 86.689199 
L 277.310343 87.053313 
L 277.356423 86.985349 
L 277.402503 87.090134 
L 277.494663 86.646966 
L 277.632903 88.031702 
L 277.771144 87.3974 
L 277.863304 87.348678 
L 278.278024 89.295732 
L 278.324104 89.048462 
L 278.370184 89.808537 
L 278.416264 89.360331 
L 278.554505 87.680204 
L 278.600585 87.921702 
L 278.692745 88.140062 
L 278.830985 87.464481 
L 278.969225 87.967367 
L 279.015305 87.647346 
L 279.061385 87.659134 
L 279.153545 87.931042 
L 279.291785 87.289792 
L 279.383946 88.588576 
L 279.430026 88.370615 
L 279.522186 88.046474 
L 279.660426 87.376213 
L 279.706506 87.337958 
L 279.890826 85.179468 
L 279.982986 85.218129 
L 280.075146 85.101719 
L 280.167307 85.545291 
L 280.259467 84.079472 
L 280.351627 84.532126 
L 280.489867 85.671169 
L 280.535947 85.566525 
L 280.582027 85.685774 
L 280.628107 85.672048 
L 280.812427 86.454839 
L 280.858507 86.03637 
L 280.996748 85.509786 
L 281.181068 86.759486 
L 281.273228 86.492693 
L 281.319308 85.905384 
L 281.365388 86.020026 
L 281.780108 89.92814 
L 281.826189 89.870953 
L 281.872269 89.92437 
L 282.056589 89.384546 
L 282.379149 91.140992 
L 282.425229 91.044219 
L 282.517389 91.524716 
L 282.65563 90.274365 
L 282.70171 90.301169 
L 282.88603 91.629183 
L 283.16251 93.78571 
L 283.25467 93.988193 
L 283.30075 93.449834 
L 283.34683 93.53988 
L 283.485071 94.592366 
L 283.669391 95.826896 
L 283.807631 95.924412 
L 283.853711 95.701991 
L 283.899791 95.755542 
L 283.945871 96.158723 
L 283.991951 95.84737 
L 284.038031 95.69846 
L 284.268431 93.915684 
L 284.314512 93.758056 
L 284.360592 93.822195 
L 284.406672 94.04842 
L 284.913552 88.600157 
L 285.097872 86.496493 
L 285.143953 86.562642 
L 285.466513 82.877611 
L 285.512593 82.957975 
L 285.789073 84.094893 
L 286.019474 86.351359 
L 286.065554 86.127611 
L 286.111634 86.149442 
L 286.388114 87.688981 
L 286.664594 89.434292 
L 286.710674 89.353734 
L 286.756754 89.55972 
L 286.894995 90.518775 
L 286.941075 90.570995 
L 287.079315 91.547776 
L 287.125395 91.523585 
L 287.217555 92.412643 
L 287.263635 92.400591 
L 287.309715 91.966177 
L 287.355795 92.07558 
L 287.401875 92.403397 
L 287.494035 92.325417 
L 287.724436 90.487836 
L 287.862676 90.070022 
L 288.046996 88.968723 
L 288.185236 88.514129 
L 288.231316 88.882379 
L 288.323476 87.811037 
L 288.415636 87.899185 
L 288.553877 88.270801 
L 288.599957 87.985345 
L 288.784277 89.696114 
L 288.830357 89.762221 
L 289.106837 88.978214 
L 289.291157 88.917441 
L 289.337238 88.871762 
L 289.521558 89.316741 
L 289.659798 88.271274 
L 289.705878 88.697232 
L 290.673559 95.941894 
L 290.765719 95.740786 
L 290.811799 95.581145 
L 290.857879 95.685226 
L 291.0422 96.405236 
L 291.54908 93.018494 
L 291.7334 93.562906 
L 291.871641 92.643973 
L 291.917721 92.750179 
L 292.332441 94.019772 
L 292.378521 93.68666 
L 292.424601 94.145328 
L 292.562841 95.192289 
L 292.608921 95.120637 
L 292.655002 95.076742 
L 292.747162 95.52945 
L 292.793242 95.410969 
L 292.931482 94.408998 
L 293.207962 97.104737 
L 293.254042 96.976796 
L 293.300122 97.37219 
L 293.346202 96.887635 
L 293.392282 96.392753 
L 293.484443 96.472335 
L 293.760923 98.051367 
L 293.853083 98.483024 
L 293.899163 98.299555 
L 293.945243 98.325429 
L 294.083483 97.320819 
L 294.129563 97.336211 
L 294.313884 98.195659 
L 294.406044 97.303835 
L 294.452124 97.393737 
L 294.544284 97.362409 
L 294.590364 97.96896 
L 294.636444 97.96139 
L 295.097244 100.849383 
L 295.143325 100.416924 
L 295.189405 100.676144 
L 295.465885 103.705034 
L 295.788445 100.845934 
L 295.926685 101.272198 
L 296.018846 100.789569 
L 296.064926 101.216899 
L 296.111006 101.097003 
L 296.203166 100.65703 
L 296.387486 99.188491 
L 296.986527 104.538209 
L 297.078687 104.61363 
L 297.170847 104.967831 
L 297.216927 104.935167 
L 297.401247 103.982366 
L 297.631647 102.439573 
L 297.769888 100.916101 
L 297.954208 99.712326 
L 298.184608 101.784561 
L 298.415008 105.142865 
L 298.461088 105.058685 
L 298.645409 105.36098 
L 298.691489 105.253107 
L 298.737569 105.278792 
L 298.783649 105.485454 
L 298.829729 105.183817 
L 298.875809 105.45364 
L 298.967969 104.739097 
L 299.014049 105.029779 
L 299.106209 105.42166 
L 299.33661 104.175592 
L 299.47485 105.210135 
L 299.52093 105.194968 
L 299.56701 105.212413 
L 299.65917 106.054488 
L 299.70525 105.429549 
L 299.75133 106.000563 
L 299.79741 105.703007 
L 299.84349 105.764895 
L 299.88957 105.869216 
L 300.02781 104.920197 
L 300.11997 105.240336 
L 300.258211 106.096045 
L 300.350371 105.818305 
L 300.488611 105.599393 
L 300.580771 105.790192 
L 300.811171 107.524906 
L 301.225892 103.362534 
L 301.271972 103.238142 
L 301.686692 97.198781 
L 301.778852 96.463794 
L 301.824933 96.815369 
L 301.871013 96.981056 
L 302.009253 95.977952 
L 302.055333 96.129476 
L 302.147493 95.226099 
L 302.193573 95.270667 
L 302.285733 95.85489 
L 302.331813 95.759526 
L 302.377893 95.70132 
L 302.423973 95.756435 
L 302.608293 92.863572 
L 302.838694 89.83694 
L 302.884774 89.777179 
L 302.930854 89.912548 
L 303.115174 88.051557 
L 303.161254 88.032875 
L 303.253414 88.407434 
L 303.299494 88.231385 
L 303.345574 88.223777 
L 303.622055 91.721618 
L 303.668135 92.455602 
L 303.760295 92.265158 
L 303.852455 92.313934 
L 303.944615 93.252388 
L 304.451496 88.397393 
L 304.543656 87.987592 
L 304.589736 88.267826 
L 304.635816 88.433923 
L 304.727976 87.547431 
L 304.820136 87.837899 
L 305.004456 89.039467 
L 305.050536 89.028613 
L 305.188777 88.519438 
L 305.234857 88.587235 
L 305.419177 90.240436 
L 305.465257 90.249714 
L 305.511337 89.606116 
L 305.557417 89.84576 
L 305.603497 89.884963 
L 305.649577 90.091922 
L 305.695657 89.498497 
L 305.741737 89.787431 
L 305.787817 89.963182 
L 305.926057 88.701613 
L 306.018218 88.979144 
L 306.156458 90.36319 
L 306.248618 90.24785 
L 306.340778 90.314332 
L 306.617258 88.862503 
L 306.755498 87.403715 
L 306.801579 87.479533 
L 306.847659 87.961869 
L 306.893739 87.376097 
L 306.985899 87.796354 
L 307.170219 87.450064 
L 307.584939 89.881562 
L 307.63102 89.713462 
L 307.6771 90.168335 
L 307.72318 89.931614 
L 307.9075 88.477245 
L 307.99966 88.077197 
L 308.04574 88.21487 
L 308.1379 87.944231 
L 308.27614 87.107504 
L 308.32222 87.095682 
L 308.3683 86.745733 
L 308.41438 86.986145 
L 308.552621 87.597284 
L 308.644781 86.898152 
L 308.690861 87.096652 
L 308.736941 87.061372 
L 308.829101 87.63416 
L 308.875181 87.597117 
L 308.921261 87.29185 
L 308.967341 87.366497 
L 309.151661 88.861972 
L 309.197741 88.725314 
L 309.243821 88.369428 
L 309.289901 88.688731 
L 309.382062 88.852908 
L 309.474222 88.279041 
L 309.520302 88.411107 
L 309.981102 91.058646 
L 310.027182 91.070565 
L 310.165423 91.387259 
L 310.303663 90.591203 
L 310.349743 90.825939 
L 310.395823 91.226671 
L 310.441903 90.894317 
L 310.487983 90.924652 
L 310.626223 89.579749 
L 312.008625 57.07459 
L 312.607665 47.809292 
L 312.653746 47.896846 
L 312.791986 48.151553 
L 312.838066 48.034271 
L 312.930226 48.786804 
L 312.976306 48.734063 
L 313.068466 48.741199 
L 313.160626 48.465959 
L 313.483187 51.900357 
L 313.575347 52.95166 
L 313.621427 52.440883 
L 313.667507 52.034637 
L 313.713587 52.413841 
L 313.897907 53.365555 
L 314.312628 50.998628 
L 314.911668 47.02469 
L 314.957748 47.052469 
L 315.095988 46.275287 
L 315.188149 46.485585 
L 315.556789 49.558729 
L 315.741109 48.507023 
L 315.833269 49.211591 
L 316.10975 52.665517 
L 316.29407 53.999031 
L 316.43231 53.472939 
L 316.47839 53.542522 
L 316.75487 57.935434 
L 316.939191 56.879967 
L 317.215671 54.096962 
L 317.261751 54.109889 
L 317.307831 53.816751 
L 317.353911 53.869377 
L 317.399991 54.047364 
L 317.538231 52.762836 
L 317.584311 52.991118 
L 317.722552 51.110278 
L 317.814712 51.371463 
L 318.045112 53.310785 
L 318.091192 52.847638 
L 318.137272 53.067634 
L 318.367672 54.186316 
L 318.413752 53.875963 
L 318.505913 53.992629 
L 318.782393 56.068062 
L 318.920633 55.519549 
L 319.012793 55.710549 
L 319.197113 53.977911 
L 319.335354 53.715223 
L 319.381434 53.827255 
L 319.703994 49.568111 
L 319.888314 48.543033 
L 319.934394 48.208432 
L 319.980474 48.582755 
L 320.026554 48.697059 
L 320.303035 46.813346 
L 320.349115 46.997421 
L 320.395195 46.698123 
L 320.441275 46.804942 
L 320.533435 47.496672 
L 320.579515 47.252986 
L 320.625595 47.106169 
L 320.855995 48.710153 
L 320.902075 48.503967 
L 321.178556 46.927843 
L 321.224636 47.378039 
L 321.316796 47.484798 
L 321.362876 47.208633 
L 321.408956 47.476572 
L 321.501116 47.406643 
L 321.547196 47.74913 
L 321.731516 47.191006 
L 321.777596 47.21566 
L 321.823677 47.16286 
L 321.869757 47.265489 
L 321.915837 47.414733 
L 322.146237 49.621269 
L 322.330557 49.911837 
L 322.376637 49.872747 
L 322.514877 51.223449 
L 322.745278 49.957875 
L 322.791358 49.976722 
L 323.206078 53.408166 
L 323.298238 53.221606 
L 323.574719 51.775848 
L 323.620799 51.964859 
L 323.712959 51.88706 
L 324.312 46.304759 
L 325.187521 40.212909 
L 325.510081 39.359936 
L 326.247362 31.280159 
L 326.293442 31.186994 
L 326.477762 31.762679 
L 326.523842 31.418008 
L 327.076803 38.8869 
L 327.261123 38.314347 
L 327.307203 38.218571 
L 327.629764 36.044917 
L 327.860164 35.271273 
L 328.044484 36.679139 
L 328.274884 38.884428 
L 328.413124 39.165461 
L 328.505285 39.666085 
L 328.551365 39.619274 
L 328.597445 39.210236 
L 328.643525 39.727137 
L 328.689605 39.257777 
L 328.873925 38.330695 
L 328.920005 38.436777 
L 328.966085 38.651886 
L 329.012165 38.426528 
L 329.058245 37.993617 
L 329.104325 38.241373 
L 329.288646 39.385026 
L 329.380806 38.606877 
L 329.565126 37.20895 
L 329.703366 37.676366 
L 329.887686 36.447966 
L 330.072006 34.028457 
L 330.440647 32.299841 
L 330.486727 32.499695 
L 330.532807 32.309947 
L 330.809287 30.864406 
L 330.855367 31.404449 
L 331.039688 29.589316 
L 331.085768 29.399246 
L 331.131848 29.438496 
L 331.316168 29.787323 
L 331.454408 28.594547 
L 331.500488 28.621761 
L 331.684808 27.314878 
L 331.730888 28.012444 
L 331.776969 28.275945 
L 331.961289 31.119501 
L 332.237769 33.606056 
L 332.376009 34.574071 
L 332.514249 35.563037 
L 332.65249 36.913261 
L 332.69857 36.927673 
L 332.83681 36.34275 
L 332.92897 36.677535 
L 332.97505 36.644506 
L 333.20545 35.572446 
L 333.25153 36.111014 
L 333.34369 36.005659 
L 333.481931 35.183815 
L 333.528011 35.883035 
L 333.574091 35.018542 
L 333.758411 33.266411 
L 333.850571 32.20523 
L 333.896651 32.501682 
L 334.080971 33.521491 
L 334.173131 33.022205 
L 334.357452 31.92023 
L 334.403532 32.233729 
L 334.587852 30.560358 
L 334.772172 32.317069 
L 334.818252 31.893829 
L 335.002572 29.169859 
L 335.048652 29.244219 
L 335.279053 31.28962 
L 335.325133 31.376393 
L 335.555533 33.144008 
L 335.739853 31.874788 
L 335.785933 32.275244 
L 335.924173 32.953162 
L 335.970254 32.874363 
L 336.016334 32.387649 
L 336.108494 32.479001 
L 336.154574 32.56247 
L 336.292814 31.557605 
L 336.338894 31.844018 
L 336.384974 31.628897 
L 336.431054 31.637104 
L 336.477134 31.36293 
L 336.523214 31.689514 
L 336.661454 32.975362 
L 336.707534 32.527048 
L 337.076175 33.937568 
L 337.306575 33.070904 
L 337.352655 33.79281 
L 337.444815 33.783063 
L 337.490895 33.363908 
L 337.583055 33.499571 
L 337.767376 35.601949 
L 338.504657 43.594916 
L 338.596817 43.696998 
L 338.688977 43.785772 
L 338.735057 43.156483 
L 338.781137 43.66941 
L 338.827217 43.299837 
L 338.919377 43.085259 
L 339.057617 43.432568 
L 339.103697 43.394958 
L 339.149777 42.783771 
L 339.241937 42.931609 
L 339.288018 42.928838 
L 339.334098 43.136337 
L 339.564498 46.113289 
L 339.748818 47.266945 
L 339.933138 49.089074 
L 340.071378 51.007111 
L 340.163539 50.991283 
L 340.209619 51.317928 
L 340.255699 51.298178 
L 340.440019 49.623697 
L 340.670419 50.545606 
L 340.808659 49.42737 
L 341.1773 47.573889 
L 341.22338 47.88847 
L 341.26946 47.490661 
L 341.31554 47.502525 
L 341.6381 45.986148 
L 341.68418 46.1406 
L 341.73026 46.068919 
L 342.144981 42.565224 
L 342.191061 42.650537 
L 342.375381 41.790926 
L 342.421461 41.698944 
L 342.467541 41.851752 
L 342.651862 42.729918 
L 342.882262 44.866967 
L 342.928342 44.443883 
L 343.435223 39.827518 
L 343.481303 39.954568 
L 343.619543 40.583044 
L 343.665623 40.062026 
L 343.711703 40.186202 
L 343.942103 42.052738 
L 344.126423 43.992382 
L 344.402904 46.375515 
L 344.541144 44.967959 
L 344.587224 45.091188 
L 344.633304 45.171993 
L 344.725464 44.691591 
L 344.771544 45.013749 
L 344.817624 45.209178 
L 344.909784 44.07323 
L 344.955864 44.082868 
L 345.001944 44.212367 
L 345.969626 32.514553 
L 346.015706 33.000154 
L 346.061786 32.817787 
L 346.246106 34.92624 
L 346.430426 37.045792 
L 346.706906 38.492326 
L 346.891227 38.714811 
L 347.121627 36.030839 
L 347.213787 35.795811 
L 347.259867 36.184785 
L 347.352027 36.081856 
L 347.536347 35.999036 
L 347.951068 42.403363 
L 348.089308 44.127751 
L 348.181468 43.609365 
L 348.227548 43.690332 
L 348.319708 45.079886 
L 348.504029 47.293073 
L 348.734429 45.639028 
L 348.780509 45.818549 
L 348.826589 45.559367 
L 349.010909 44.494225 
L 349.056989 44.448025 
L 349.103069 44.640936 
L 349.149149 44.606089 
L 349.33347 43.123056 
L 349.47171 43.154374 
L 349.65603 43.973853 
L 349.70211 43.693045 
L 349.74819 44.023382 
L 349.97859 45.733451 
L 350.07075 45.878004 
L 350.116831 46.143938 
L 350.162911 45.916937 
L 350.531551 42.175477 
L 350.992352 36.819178 
L 351.176672 35.180765 
L 351.222752 35.206978 
L 351.314912 36.264815 
L 351.499232 37.260447 
L 351.637472 36.591222 
L 351.960033 39.562274 
L 352.052193 40.180133 
L 352.282593 42.831699 
L 352.512993 44.303882 
L 352.559073 45.281954 
L 352.651234 44.942228 
L 352.697314 44.954448 
L 352.743394 44.575024 
L 352.789474 45.058789 
L 353.204194 46.910444 
L 353.711075 53.377211 
L 353.895395 54.839559 
L 353.941475 54.720073 
L 354.033635 55.118553 
L 354.079715 55.002799 
L 354.264036 54.581324 
L 354.540516 53.302223 
L 354.586596 53.333233 
L 354.632676 53.072723 
L 354.678756 53.151542 
L 354.909156 54.295156 
L 355.231717 52.013224 
L 355.277797 52.008214 
L 355.369957 51.681541 
L 355.554277 52.276531 
L 355.738597 50.188479 
L 355.968998 47.950825 
L 356.383718 44.492199 
L 356.475878 43.901361 
L 356.521958 43.952732 
L 356.660198 45.391099 
L 356.706278 45.094334 
L 356.798439 45.692527 
L 356.844519 45.569023 
L 357.167079 47.915078 
L 357.259239 47.858378 
L 357.305319 47.570481 
L 357.351399 47.868712 
L 358.22692 56.623072 
L 358.549481 51.428031 
L 358.825961 48.036079 
L 358.964201 48.513986 
L 359.148521 46.145679 
L 359.240681 47.056379 
L 359.286762 46.86632 
L 359.563242 45.14789 
L 359.609322 45.508655 
L 359.931882 42.721973 
L 359.977962 42.641048 
L 360.070122 43.601802 
L 360.116203 43.349153 
L 360.208363 42.934003 
L 360.577003 44.980997 
L 360.669163 44.711508 
L 360.715243 45.052845 
L 360.945644 42.711476 
L 360.991724 43.029625 
L 361.037804 42.86074 
L 361.083884 42.901471 
L 361.129964 43.534695 
L 361.222124 43.407533 
L 361.268204 43.023905 
L 361.314284 43.384587 
L 361.452524 44.238834 
L 361.590764 45.662484 
L 361.636844 45.69958 
L 362.742766 63.59353 
L 362.927086 64.318752 
L 363.019246 63.257578 
L 363.065326 63.515275 
L 363.203566 64.17072 
L 363.387886 62.563372 
L 363.433967 62.856563 
L 363.848687 56.542896 
L 363.894767 57.028553 
L 363.940847 56.663933 
L 364.125167 54.608614 
L 364.171247 55.174362 
L 364.309488 54.009925 
L 364.493808 52.203492 
L 364.585968 53.17081 
L 364.632048 52.730836 
L 364.678128 52.771542 
L 364.816368 52.144867 
L 364.862448 52.66849 
L 364.908528 51.81982 
L 365.000688 51.827296 
L 365.046768 51.893154 
L 365.092849 51.622084 
L 365.138929 52.058291 
L 365.185009 51.33027 
L 365.231089 51.532971 
L 365.323249 52.233202 
L 365.369329 52.117319 
L 365.461489 51.753049 
L 365.553649 52.456908 
L 365.599729 51.986808 
L 365.645809 51.994477 
L 365.691889 51.834255 
L 365.737969 52.208868 
L 365.876209 50.955942 
L 365.96837 50.255089 
L 366.06053 49.688071 
L 366.33701 51.389477 
L 366.38309 51.500219 
L 366.42917 51.469902 
L 366.47525 51.280099 
L 366.52133 52.077308 
L 366.56741 52.02596 
L 366.65957 51.358136 
L 366.797811 52.933851 
L 366.843891 52.474469 
L 366.889971 52.441537 
L 366.936051 53.010298 
L 366.982131 52.458445 
L 367.258611 51.726045 
L 367.442931 52.660636 
L 367.581172 53.71927 
L 367.673332 53.319274 
L 367.719412 52.689882 
L 367.765492 52.902557 
L 367.903732 53.357219 
L 367.995892 53.026479 
L 368.134132 52.802948 
L 368.180212 52.921337 
L 368.364532 51.835089 
L 368.502773 50.991918 
L 368.687093 53.500558 
L 368.733173 53.418996 
L 368.871413 51.661446 
L 368.917493 51.766909 
L 368.963573 51.229473 
L 369.009653 51.358312 
L 369.055733 51.639086 
L 369.101813 51.401735 
L 369.147893 51.37647 
L 369.240054 50.538015 
L 369.562614 42.244672 
L 369.746934 38.705619 
L 369.793014 38.577418 
L 369.977334 36.608922 
L 370.161655 35.171057 
L 370.207735 35.320531 
L 370.530295 39.426056 
L 370.760695 42.684662 
L 371.037176 44.126271 
L 371.359736 46.750057 
L 371.497976 48.014092 
L 371.544056 47.990499 
L 372.143097 57.168984 
L 372.327417 58.075289 
L 372.557817 60.207316 
L 372.603898 60.250631 
L 372.742138 60.830182 
L 372.880378 61.767984 
L 373.156858 64.516637 
L 373.202938 64.53093 
L 373.387258 65.852041 
L 374.95398 85.040845 
L 375.322621 87.135227 
L 375.414781 86.723556 
L 375.460861 86.633147 
L 375.829501 83.304591 
L 375.875581 83.101321 
L 376.152062 80.237276 
L 376.244222 79.607887 
L 376.290302 79.705961 
L 376.382462 79.849923 
L 376.566782 81.262225 
L 376.612862 81.287524 
L 376.658942 81.102081 
L 376.935423 83.554885 
L 377.119743 85.079746 
L 377.165823 84.936501 
L 377.211903 84.959207 
L 377.672704 82.134538 
L 378.087424 75.597315 
L 378.133504 75.767548 
L 378.179584 75.633725 
L 378.225664 75.56688 
L 378.271744 75.811827 
L 378.317824 75.740149 
L 378.363904 75.635377 
L 378.409985 75.997236 
L 378.456065 75.529449 
L 378.594305 76.735892 
L 379.009025 79.921487 
L 379.331586 77.266649 
L 379.377666 77.429492 
L 379.423746 77.372173 
L 379.608066 74.983666 
L 379.700226 75.340984 
L 379.930626 73.644601 
L 379.976706 73.543744 
L 380.022786 73.623165 
L 380.345347 68.56117 
L 380.391427 68.485843 
L 380.483587 67.8371 
L 380.667907 68.490893 
L 380.898308 67.02945 
L 381.128708 68.569059 
L 381.174788 68.994415 
L 381.266948 68.85866 
L 381.313028 68.872249 
L 381.405188 68.036894 
L 381.727748 63.676756 
L 381.819909 63.384276 
L 382.142469 60.035979 
L 382.326789 59.035795 
L 382.372869 59.551184 
L 382.465029 59.433743 
L 382.92583 52.79389 
L 382.97191 52.904812 
L 383.755271 47.202119 
L 383.847431 47.500278 
L 384.031751 45.659769 
L 384.123911 45.757207 
L 384.169991 45.666199 
L 384.308232 46.664416 
L 384.354312 46.493062 
L 384.492552 48.314062 
L 384.769032 52.867134 
L 385.091593 55.310993 
L 385.137673 54.981574 
L 385.183753 54.792683 
L 385.229833 55.012242 
L 385.275913 55.408094 
L 385.321993 54.838032 
L 385.414153 55.021775 
L 385.506313 54.519398 
L 385.552393 54.608866 
L 385.690633 54.940464 
L 385.782793 54.6553 
L 386.243594 57.448748 
L 386.289674 57.171761 
L 386.335754 56.799572 
L 386.427914 56.941604 
L 386.566154 56.922446 
L 386.750475 55.521348 
L 387.165195 50.48244 
L 387.211275 50.600303 
L 387.303435 50.048846 
L 388.132876 43.525003 
L 388.271116 42.10284 
L 388.317196 42.153019 
L 389.008397 48.301363 
L 389.100557 49.451051 
L 389.146637 49.200564 
L 389.192717 49.250471 
L 389.561358 44.259473 
L 389.607438 44.145858 
L 389.653518 44.315673 
L 389.791758 44.96399 
L 389.837838 44.839107 
L 389.883918 45.289673 
L 389.929998 45.236166 
L 389.976078 44.999608 
L 390.022158 45.331393 
L 390.160399 46.034319 
L 390.252559 46.072923 
L 390.482959 48.233617 
L 390.529039 48.060676 
L 390.759439 47.26485 
L 390.89768 47.155609 
L 391.03592 48.217015 
L 391.082 48.010122 
L 391.12808 48.088694 
L 391.26632 48.959266 
L 391.3124 48.91624 
L 391.40456 48.12141 
L 391.45064 48.272214 
L 391.58888 49.007384 
L 391.68104 49.069399 
L 391.727121 48.856201 
L 391.911441 47.674371 
L 391.957521 47.791562 
L 392.049681 48.692238 
L 392.095761 48.656206 
L 392.510481 45.621465 
L 392.556562 46.370667 
L 392.648722 46.337448 
L 392.786962 46.77658 
L 392.833042 47.487925 
L 392.879122 47.446012 
L 393.017362 46.786248 
L 393.109522 48.029196 
L 393.386002 51.952295 
L 393.708563 54.287072 
L 393.754643 54.13946 
L 393.985043 56.610155 
L 394.031123 56.569746 
L 394.261524 58.415237 
L 394.768404 64.946224 
L 394.906644 66.831923 
L 394.952724 66.764479 
L 395.183125 65.588223 
L 395.413525 65.008687 
L 395.874325 57.950406 
L 395.920406 58.080857 
L 395.966486 58.285634 
L 396.012566 58.014496 
L 396.242966 55.475736 
L 396.427286 53.893366 
L 396.473366 54.396729 
L 396.565526 54.285181 
L 397.026327 49.356306 
L 397.072407 49.378159 
L 397.302807 49.017854 
L 397.348887 49.091586 
L 397.487127 47.943516 
L 397.533207 48.118267 
L 397.579288 47.90016 
L 397.671448 47.958624 
L 397.717528 47.598572 
L 397.855768 48.209634 
L 398.040088 50.734175 
L 398.132248 51.316093 
L 398.685209 56.488759 
L 398.731289 56.504894 
L 399.28425 48.599425 
L 399.56073 43.343178 
L 399.60681 43.401144 
L 400.113691 45.334587 
L 400.251931 44.711702 
L 400.298011 45.46564 
L 400.390171 45.282338 
L 400.528411 46.586433 
L 400.574491 46.377443 
L 400.666651 45.436507 
L 400.712731 45.670534 
L 400.758811 45.509588 
L 400.943132 46.177738 
L 400.989212 45.760616 
L 401.035292 46.221295 
L 401.265692 48.691043 
L 401.357852 49.445968 
L 401.403932 49.078583 
L 401.450012 48.892404 
L 401.496092 49.145611 
L 401.542172 49.872883 
L 401.634332 49.691578 
L 401.680412 49.653815 
L 401.726493 49.40662 
L 401.772573 49.574902 
L 401.910813 50.155956 
L 402.233373 47.455632 
L 402.279453 47.554061 
L 402.371613 47.867374 
L 402.648094 46.816687 
L 402.740254 46.12757 
L 402.786334 46.381906 
L 402.970654 45.504956 
L 403.016734 45.554518 
L 403.523615 49.688906 
L 403.754015 50.927175 
L 403.938335 53.038582 
L 403.984415 52.973808 
L 404.260896 52.181537 
L 404.306976 52.267846 
L 404.537376 53.796803 
L 404.583456 53.518836 
L 404.629536 53.094017 
L 404.721696 53.163824 
L 404.859936 52.873432 
L 404.952096 53.025138 
L 405.182497 54.101678 
L 405.458977 52.786043 
L 405.781537 50.723258 
L 406.472738 41.856704 
L 406.518818 41.965372 
L 406.564898 41.831347 
L 406.703138 40.86526 
L 406.749219 40.910875 
L 406.933539 40.731346 
L 406.979619 41.093301 
L 407.025699 40.890832 
L 407.117859 40.363854 
L 407.163939 40.378841 
L 407.256099 40.006606 
L 407.440419 37.53192 
L 407.486499 37.598516 
L 407.62474 37.972148 
L 408.08554 36.086066 
L 408.22378 35.083154 
L 408.36202 36.054382 
L 408.408101 35.952824 
L 408.868901 32.465185 
L 408.914981 32.399671 
L 409.007141 31.539614 
L 409.053221 31.732453 
L 409.145381 30.944836 
L 409.514022 27.182257 
L 409.560102 27.019033 
L 409.606182 27.244044 
L 409.652262 27.257598 
L 409.836582 26.496244 
L 409.882662 26.843784 
L 409.928742 26.748201 
L 410.020902 27.333668 
L 410.159143 28.928204 
L 410.251303 28.827371 
L 410.297383 29.052815 
L 410.389543 27.768998 
L 410.435623 27.921119 
L 410.850343 32.206997 
L 410.896424 32.187266 
L 410.942504 32.009191 
L 410.988584 31.111672 
L 411.034664 31.621437 
L 411.357224 34.154955 
L 411.403304 33.756268 
L 411.449384 33.587855 
L 411.633704 31.327749 
L 411.864105 29.323929 
L 411.910185 29.717251 
L 411.956265 29.662266 
L 412.094505 28.691689 
L 412.140585 29.451274 
L 412.186665 29.379763 
L 412.463145 26.223115 
L 412.509225 26.283078 
L 412.555306 25.955023 
L 412.601386 26.033166 
L 412.739626 26.812029 
L 412.785706 26.800616 
L 412.831786 26.780652 
L 413.108266 25.333636 
L 413.292586 26.610359 
L 413.615147 29.734381 
L 413.799467 31.936469 
L 414.122027 37.479531 
L 414.168107 37.445553 
L 414.260268 37.659902 
L 414.398508 37.35955 
L 414.444588 37.347331 
L 414.813228 35.842048 
L 414.859308 36.089523 
L 414.905388 35.565829 
L 414.951468 35.87048 
L 415.135789 38.243653 
L 415.366189 41.038769 
L 415.412269 40.629126 
L 415.504429 39.940127 
L 415.550509 40.190434 
L 415.596589 40.106153 
L 415.642669 40.438133 
L 415.688749 40.131671 
L 415.96523 36.584453 
L 416.37995 29.688614 
L 416.47211 30.11236 
L 416.51819 30.029089 
L 416.702511 28.468513 
L 417.117231 26.805058 
L 417.163311 26.939537 
L 417.900592 32.451545 
L 418.361392 37.039855 
L 418.591793 39.025705 
L 418.683953 38.635296 
L 418.822193 37.789039 
L 418.960433 37.976837 
L 419.006513 37.800514 
L 419.144753 38.895295 
L 419.190833 38.822046 
L 419.329074 39.563794 
L 419.375154 39.23913 
L 419.421234 39.460115 
L 419.928114 44.639023 
L 419.974194 44.57932 
L 420.020274 44.866591 
L 420.066355 44.401947 
L 420.112435 44.893964 
L 420.204595 44.346272 
L 420.250675 44.38517 
L 420.296755 44.708663 
L 420.342835 44.624005 
L 420.388915 43.770364 
L 420.481075 43.829973 
L 420.573235 43.346061 
L 420.665395 42.596812 
L 420.711475 42.608872 
L 420.757555 42.853453 
L 420.803635 42.66507 
L 420.895796 42.16877 
L 421.126196 43.52066 
L 421.264436 42.816742 
L 421.310516 43.054142 
L 421.448756 41.779245 
L 421.494836 41.832785 
L 421.540916 41.717631 
L 421.633076 42.40599 
L 421.679156 42.13092 
L 421.725237 41.929637 
L 421.771317 42.084824 
L 421.817397 42.317888 
L 421.863477 42.215124 
L 421.955637 41.952561 
L 422.139957 40.356506 
L 422.462517 42.803196 
L 422.508597 42.393339 
L 422.554678 42.030375 
L 422.646838 42.069105 
L 422.692918 42.280903 
L 422.877238 41.744344 
L 422.923318 41.645521 
L 423.153718 42.959193 
L 423.384119 41.700166 
L 423.430199 41.810109 
L 423.476279 41.898407 
L 423.568439 42.538555 
L 423.706679 41.147848 
L 423.752759 41.343206 
L 423.844919 41.728615 
L 424.075319 40.206136 
L 424.121399 40.635086 
L 424.167479 40.580336 
L 424.21356 40.265126 
L 424.39788 41.530886 
L 424.49004 41.822242 
L 424.85868 47.695231 
L 425.549881 54.517898 
L 425.595961 54.50448 
L 426.241082 52.157096 
L 426.287162 52.475658 
L 426.333242 52.103551 
L 426.563642 50.23708 
L 427.208763 56.529363 
L 427.254843 56.643194 
L 427.347003 57.719039 
L 427.393083 57.716345 
L 427.531324 58.48994 
L 427.623484 57.606512 
L 427.669564 57.948814 
L 427.946044 56.537262 
L 427.992124 56.824391 
L 428.038204 57.094735 
L 428.084284 56.680913 
L 428.130364 56.719527 
L 428.176444 57.104771 
L 428.222524 56.823356 
L 428.268604 56.890161 
L 428.314684 57.202171 
L 428.360765 56.821022 
L 428.591165 54.563102 
L 428.683325 55.317597 
L 428.729405 55.148842 
L 428.913725 55.688562 
L 429.005885 55.452611 
L 429.051965 54.956777 
L 429.144125 55.13774 
L 429.466686 57.642942 
L 429.512766 57.535725 
L 429.558846 57.023332 
L 429.604926 57.232893 
L 429.743166 58.054061 
L 429.789246 57.675842 
L 429.881406 57.755519 
L 429.927486 57.733021 
L 430.065727 56.495981 
L 430.157887 55.754086 
L 430.203967 56.318525 
L 430.296127 56.275568 
L 430.388287 56.867513 
L 430.526527 58.220307 
L 430.572607 58.16841 
L 431.033408 60.647672 
L 431.171648 59.922064 
L 431.217728 60.190107 
L 431.402048 59.325024 
L 431.632448 57.675936 
L 431.678528 57.643879 
L 431.816769 56.555987 
L 432.001089 57.487122 
L 432.047169 57.267502 
L 432.139329 56.4104 
L 432.185409 56.791144 
L 432.277569 56.425182 
L 432.55405 57.991794 
L 432.60013 57.905998 
L 432.64621 58.773788 
L 432.73837 58.693654 
L 432.78445 58.470898 
L 432.83053 58.492503 
L 432.87661 58.975 
L 432.96877 58.96452 
L 433.06093 59.180247 
L 433.659971 54.206965 
L 433.752131 54.922686 
L 433.844291 54.802657 
L 433.890371 54.763042 
L 433.936451 55.215592 
L 434.028611 55.112007 
L 434.120771 54.500928 
L 434.305092 56.949955 
L 434.351172 56.935339 
L 434.397252 56.512169 
L 434.489412 56.597615 
L 434.581572 56.064979 
L 435.226693 47.049566 
L 435.272773 46.853635 
L 435.364933 47.273729 
L 435.411013 46.997704 
L 435.457093 47.327613 
L 435.503173 47.260553 
L 435.687493 48.794273 
L 435.733573 49.208516 
L 435.779653 48.89729 
L 435.825733 48.783098 
L 435.871814 48.314074 
L 435.917894 48.579664 
L 436.102214 49.76238 
L 436.240454 49.5721 
L 436.286534 49.267788 
L 436.563014 51.602459 
L 436.609094 51.38221 
L 436.655174 51.579861 
L 436.839495 54.159888 
L 436.931655 53.294263 
L 436.977735 53.532044 
L 437.023815 53.462958 
L 437.208135 54.05407 
L 437.300295 53.712981 
L 437.346375 54.12326 
L 437.392455 53.695659 
L 437.438535 53.989394 
L 437.484615 53.719243 
L 437.715016 56.192675 
L 437.761096 56.255842 
L 438.221896 59.97184 
L 438.406217 60.506212 
L 438.452297 60.358969 
L 438.498377 60.42972 
L 438.544457 60.447045 
L 438.774857 62.052259 
L 438.867017 62.706572 
L 438.913097 62.404398 
L 438.959177 62.358084 
L 439.005257 62.418981 
L 439.189578 60.554226 
L 439.235658 61.507542 
L 439.281738 61.4413 
L 439.558218 58.78197 
L 439.742538 56.96147 
L 439.788618 56.492769 
L 439.834698 57.084472 
L 439.880778 57.126937 
L 439.926858 56.936701 
L 440.111179 58.598273 
L 440.157259 58.390365 
L 440.203339 58.043453 
L 440.295499 58.186161 
L 440.341579 58.226471 
L 440.433739 57.781579 
L 440.479819 57.918563 
L 440.525899 58.17419 
L 440.571979 58.051125 
L 440.756299 56.828626 
L 440.89454 55.697238 
L 441.03278 54.823397 
L 441.2171 53.660796 
L 441.26318 53.915653 
L 441.30926 53.863298 
L 441.53966 52.055361 
L 441.6779 51.486318 
L 441.723981 51.793304 
L 441.770061 51.699523 
L 441.908301 50.702649 
L 442.184781 45.140213 
L 442.553422 43.163149 
L 442.645582 42.90615 
L 442.691662 42.637814 
L 443.198542 46.543883 
L 443.244622 46.425918 
L 443.428943 46.878578 
L 443.475023 46.548865 
L 443.521103 46.835133 
L 443.613263 47.608338 
L 444.027983 44.717575 
L 444.396624 42.684305 
L 444.719184 37.802733 
L 444.765264 38.025779 
L 444.857424 37.557134 
L 444.903504 37.801848 
L 444.949584 37.491009 
L 445.041745 37.497689 
L 445.133905 37.207525 
L 445.318225 37.853594 
L 445.364305 37.828353 
L 445.871186 46.818244 
L 446.009426 48.411931 
L 446.055506 48.093398 
L 446.193746 46.809428 
L 446.239826 47.12503 
L 446.331986 46.831081 
L 446.378066 46.990823 
L 446.516306 45.01953 
L 446.562386 45.315848 
L 446.700627 44.118741 
L 446.746707 44.353873 
L 446.792787 44.311252 
L 446.838867 44.404012 
L 446.977107 45.232181 
L 447.622228 51.166702 
L 448.175188 53.002802 
L 448.405589 51.945526 
L 448.497749 52.514241 
L 448.589909 51.667957 
L 448.635989 51.953103 
L 448.682069 52.329073 
L 448.728149 51.919161 
L 448.820309 52.309891 
L 449.83407 61.559189 
L 449.88015 61.470785 
L 449.92623 62.100083 
L 450.018391 61.916587 
L 450.248791 63.455544 
L 450.294871 63.389751 
L 450.709591 65.647818 
L 450.755671 65.566281 
L 450.801751 65.602109 
L 450.939992 65.235506 
L 451.078232 65.682309 
L 451.124312 65.627248 
L 451.170392 65.750429 
L 451.216472 65.670642 
L 451.308632 65.509919 
L 451.446872 64.677414 
L 451.631192 62.766147 
L 451.861593 63.140414 
L 452.091993 60.324914 
L 452.322393 57.833688 
L 452.414553 57.445991 
L 452.460633 56.505645 
L 452.506714 56.62436 
L 452.552794 57.01593 
L 452.598874 56.525762 
L 452.691034 56.155055 
L 452.921434 58.679051 
L 453.243994 64.18366 
L 453.520475 65.59337 
L 453.750875 63.635669 
L 454.211676 56.435879 
L 454.257756 56.713957 
L 454.303836 56.731302 
L 454.488156 55.857438 
L 454.534236 55.682237 
L 454.764636 56.983275 
L 454.995036 60.472868 
L 455.041117 60.441528 
L 455.870558 67.180404 
L 455.916638 67.134805 
L 456.008798 67.367572 
L 456.147038 67.894698 
L 456.699999 63.807608 
L 456.746079 64.384512 
L 456.838239 64.248933 
L 456.884319 64.267408 
L 457.068639 65.163206 
L 457.299039 67.315306 
L 457.57552 70.052858 
L 457.6216 70.70758 
L 457.66768 69.954016 
L 457.71376 70.677993 
L 457.75984 70.648905 
L 457.80592 71.315746 
L 457.89808 71.079871 
L 458.404961 63.304325 
L 458.681441 59.592285 
L 458.819681 58.172215 
L 458.865761 58.602386 
L 458.957921 59.635289 
L 459.050081 59.538341 
L 459.096161 59.344244 
L 459.372642 61.779165 
L 459.418722 61.814505 
L 459.556962 61.064844 
L 459.603042 61.255324 
L 459.925602 58.832359 
L 460.202083 60.66512 
L 460.340323 60.308632 
L 460.386403 60.234515 
L 460.432483 60.291583 
L 460.570723 61.047148 
L 460.616803 60.872674 
L 460.662883 60.841751 
L 460.708963 61.109917 
L 460.755043 60.752046 
L 460.893284 60.304939 
L 460.985444 61.306174 
L 461.031524 61.199591 
L 461.123684 61.07914 
L 461.169764 60.985756 
L 461.215844 61.093251 
L 461.538404 64.424448 
L 461.999205 69.243243 
L 462.183525 70.775436 
L 462.367845 71.909631 
L 462.413925 71.86399 
L 462.966886 67.608482 
L 463.243366 65.521077 
L 463.289446 65.141493 
L 463.381607 65.251165 
L 463.427687 64.957001 
L 463.658087 66.838852 
L 463.842407 65.844992 
L 464.118887 66.769513 
L 464.164968 66.931856 
L 464.303208 68.139597 
L 464.349288 68.10468 
L 464.487528 68.762809 
L 464.533608 68.178923 
L 464.579688 68.455462 
L 464.948328 73.113802 
L 465.316969 75.724481 
L 465.455209 76.253667 
L 465.685609 78.080485 
L 465.777769 78.481995 
L 465.777769 78.481995 
" clip-path="url(#p9267c42faa)" style="fill: none; stroke: #1f77b4; stroke-width: 2.25; stroke-linecap: round"/>
   </g>
   <g id="patch_3">
    <path d="M 71.350928 149.1 
L 71.350928 19.44 
" style="fill: none; stroke: #262626; stroke-width: 1.875; stroke-linejoin: miter; stroke-linecap: square"/>
   </g>
   <g id="patch_4">
    <path d="M 484.56 149.1 
L 484.56 19.44 
" style="fill: none; stroke: #262626; stroke-width: 1.875; stroke-linejoin: miter; stroke-linecap: square"/>
   </g>
   <g id="patch_5">
    <path d="M 71.350928 149.1 
L 484.56 149.1 
" style="fill: none; stroke: #262626; stroke-width: 1.875; stroke-linejoin: miter; stroke-linecap: square"/>
   </g>
   <g id="patch_6">
    <path d="M 71.350928 19.44 
L 484.56 19.44 
" style="fill: none; stroke: #262626; stroke-width: 1.875; stroke-linejoin: miter; stroke-linecap: square"/>
   </g>
   <g id="text_7">
    <!-- PLS $X_{eating}$ -->
    <g style="fill: #262626" transform="translate(-31.95134 78.27) scale(0.18 -0.18)">
     <defs>
      <path id="ArialMT-50" d="M 494 0 
L 494 4581 
L 2222 4581 
Q 2678 4581 2919 4538 
Q 3256 4481 3484 4323 
Q 3713 4166 3852 3881 
Q 3991 3597 3991 3256 
Q 3991 2672 3619 2267 
Q 3247 1863 2275 1863 
L 1100 1863 
L 1100 0 
L 494 0 
z
M 1100 2403 
L 2284 2403 
Q 2872 2403 3119 2622 
Q 3366 2841 3366 3238 
Q 3366 3525 3220 3729 
Q 3075 3934 2838 4000 
Q 2684 4041 2272 4041 
L 1100 4041 
L 1100 2403 
z
" transform="scale(0.015625)"/>
      <path id="ArialMT-4c" d="M 469 0 
L 469 4581 
L 1075 4581 
L 1075 541 
L 3331 541 
L 3331 0 
L 469 0 
z
" transform="scale(0.015625)"/>
      <path id="ArialMT-53" d="M 288 1472 
L 859 1522 
Q 900 1178 1048 958 
Q 1197 738 1509 602 
Q 1822 466 2213 466 
Q 2559 466 2825 569 
Q 3091 672 3220 851 
Q 3350 1031 3350 1244 
Q 3350 1459 3225 1620 
Q 3100 1781 2813 1891 
Q 2628 1963 1997 2114 
Q 1366 2266 1113 2400 
Q 784 2572 623 2826 
Q 463 3081 463 3397 
Q 463 3744 659 4045 
Q 856 4347 1234 4503 
Q 1613 4659 2075 4659 
Q 2584 4659 2973 4495 
Q 3363 4331 3572 4012 
Q 3781 3694 3797 3291 
L 3216 3247 
Q 3169 3681 2898 3903 
Q 2628 4125 2100 4125 
Q 1550 4125 1298 3923 
Q 1047 3722 1047 3438 
Q 1047 3191 1225 3031 
Q 1400 2872 2139 2705 
Q 2878 2538 3153 2413 
Q 3553 2228 3743 1945 
Q 3934 1663 3934 1294 
Q 3934 928 3725 604 
Q 3516 281 3123 101 
Q 2731 -78 2241 -78 
Q 1619 -78 1198 103 
Q 778 284 539 648 
Q 300 1013 288 1472 
z
" transform="scale(0.015625)"/>
      <path id="ArialMT-20" transform="scale(0.015625)"/>
      <path id="DejaVuSans-Oblique-58" d="M 878 4666 
L 1516 4666 
L 2316 2981 
L 3763 4666 
L 4500 4666 
L 2578 2438 
L 3738 0 
L 3103 0 
L 2163 1966 
L 459 0 
L -275 0 
L 1906 2509 
L 878 4666 
z
" transform="scale(0.015625)"/>
      <path id="DejaVuSans-Oblique-65" d="M 3078 2063 
Q 3088 2113 3092 2166 
Q 3097 2219 3097 2272 
Q 3097 2653 2873 2875 
Q 2650 3097 2266 3097 
Q 1838 3097 1509 2826 
Q 1181 2556 1013 2059 
L 3078 2063 
z
M 3578 1613 
L 903 1613 
Q 884 1494 878 1425 
Q 872 1356 872 1306 
Q 872 872 1139 634 
Q 1406 397 1894 397 
Q 2269 397 2603 481 
Q 2938 566 3225 728 
L 3116 159 
Q 2806 34 2476 -28 
Q 2147 -91 1806 -91 
Q 1078 -91 686 257 
Q 294 606 294 1247 
Q 294 1794 489 2264 
Q 684 2734 1063 3103 
Q 1306 3334 1642 3459 
Q 1978 3584 2356 3584 
Q 2950 3584 3301 3228 
Q 3653 2872 3653 2272 
Q 3653 2128 3634 1964 
Q 3616 1800 3578 1613 
z
" transform="scale(0.015625)"/>
      <path id="DejaVuSans-Oblique-61" d="M 3438 1997 
L 3047 0 
L 2472 0 
L 2578 531 
Q 2325 219 2001 64 
Q 1678 -91 1281 -91 
Q 834 -91 548 182 
Q 263 456 263 884 
Q 263 1497 752 1853 
Q 1241 2209 2100 2209 
L 2900 2209 
L 2931 2363 
Q 2938 2388 2941 2417 
Q 2944 2447 2944 2509 
Q 2944 2788 2717 2942 
Q 2491 3097 2081 3097 
Q 1800 3097 1504 3025 
Q 1209 2953 897 2809 
L 997 3341 
Q 1322 3463 1633 3523 
Q 1944 3584 2234 3584 
Q 2853 3584 3176 3315 
Q 3500 3047 3500 2534 
Q 3500 2431 3484 2292 
Q 3469 2153 3438 1997 
z
M 2816 1759 
L 2241 1759 
Q 1534 1759 1195 1570 
Q 856 1381 856 984 
Q 856 709 1029 553 
Q 1203 397 1509 397 
Q 1978 397 2328 733 
Q 2678 1069 2791 1631 
L 2816 1759 
z
" transform="scale(0.015625)"/>
      <path id="DejaVuSans-Oblique-74" d="M 2706 3500 
L 2619 3053 
L 1472 3053 
L 1100 1153 
Q 1081 1047 1072 975 
Q 1063 903 1063 863 
Q 1063 663 1183 572 
Q 1303 481 1569 481 
L 2150 481 
L 2053 0 
L 1503 0 
Q 991 0 739 200 
Q 488 400 488 806 
Q 488 878 497 964 
Q 506 1050 525 1153 
L 897 3053 
L 409 3053 
L 500 3500 
L 978 3500 
L 1172 4494 
L 1747 4494 
L 1556 3500 
L 2706 3500 
z
" transform="scale(0.015625)"/>
      <path id="DejaVuSans-Oblique-69" d="M 1172 4863 
L 1747 4863 
L 1606 4134 
L 1031 4134 
L 1172 4863 
z
M 909 3500 
L 1484 3500 
L 800 0 
L 225 0 
L 909 3500 
z
" transform="scale(0.015625)"/>
      <path id="DejaVuSans-Oblique-6e" d="M 3566 2113 
L 3156 0 
L 2578 0 
L 2988 2091 
Q 3016 2238 3031 2350 
Q 3047 2463 3047 2528 
Q 3047 2791 2881 2937 
Q 2716 3084 2419 3084 
Q 1956 3084 1622 2776 
Q 1288 2469 1184 1941 
L 800 0 
L 225 0 
L 903 3500 
L 1478 3500 
L 1363 2950 
Q 1603 3253 1940 3418 
Q 2278 3584 2650 3584 
Q 3113 3584 3367 3334 
Q 3622 3084 3622 2631 
Q 3622 2519 3608 2391 
Q 3594 2263 3566 2113 
z
" transform="scale(0.015625)"/>
      <path id="DejaVuSans-Oblique-67" d="M 3816 3500 
L 3219 434 
Q 3047 -456 2561 -893 
Q 2075 -1331 1253 -1331 
Q 950 -1331 690 -1286 
Q 431 -1241 206 -1147 
L 313 -588 
Q 525 -725 762 -790 
Q 1000 -856 1269 -856 
Q 1816 -856 2167 -557 
Q 2519 -259 2631 300 
L 2681 563 
Q 2441 288 2122 144 
Q 1803 0 1434 0 
Q 903 0 598 351 
Q 294 703 294 1319 
Q 294 1803 478 2267 
Q 663 2731 997 3091 
Q 1219 3328 1514 3456 
Q 1809 3584 2131 3584 
Q 2484 3584 2746 3420 
Q 3009 3256 3138 2956 
L 3238 3500 
L 3816 3500 
z
M 2950 2216 
Q 2950 2641 2750 2872 
Q 2550 3103 2181 3103 
Q 1953 3103 1747 3012 
Q 1541 2922 1394 2759 
Q 1156 2491 1023 2127 
Q 891 1763 891 1375 
Q 891 944 1092 712 
Q 1294 481 1672 481 
Q 2219 481 2584 976 
Q 2950 1472 2950 2216 
z
" transform="scale(0.015625)"/>
     </defs>
     <use xlink:href="#ArialMT-50" transform="translate(0 0.09375)"/>
     <use xlink:href="#ArialMT-4c" transform="translate(66.699219 0.09375)"/>
     <use xlink:href="#ArialMT-53" transform="translate(122.314453 0.09375)"/>
     <use xlink:href="#ArialMT-20" transform="translate(189.013672 0.09375)"/>
     <use xlink:href="#DejaVuSans-Oblique-58" transform="translate(216.796875 0.09375)"/>
     <use xlink:href="#DejaVuSans-Oblique-65" transform="translate(285.302734 -16.3125) scale(0.7)"/>
     <use xlink:href="#DejaVuSans-Oblique-61" transform="translate(328.369141 -16.3125) scale(0.7)"/>
     <use xlink:href="#DejaVuSans-Oblique-74" transform="translate(371.264648 -16.3125) scale(0.7)"/>
     <use xlink:href="#DejaVuSans-Oblique-69" transform="translate(398.710938 -16.3125) scale(0.7)"/>
     <use xlink:href="#DejaVuSans-Oblique-6e" transform="translate(418.15918 -16.3125) scale(0.7)"/>
     <use xlink:href="#DejaVuSans-Oblique-67" transform="translate(462.524414 -16.3125) scale(0.7)"/>
    </g>
   </g>
  </g>
 </g>
 <defs>
  <clipPath id="p9267c42faa">
   <rect x="71.350928" y="19.44" width="413.209072" height="129.66"/>
  </clipPath>
 </defs>
</svg>
