<?xml version="1.0" encoding="utf-8" standalone="no"?>
<!DOCTYPE svg PUBLIC "-//W3C//DTD SVG 1.1//EN"
  "http://www.w3.org/Graphics/SVG/1.1/DTD/svg11.dtd">
<svg xmlns:xlink="http://www.w3.org/1999/xlink" width="504pt" height="216pt" viewBox="0 0 504 216" xmlns="http://www.w3.org/2000/svg" version="1.1">
 <metadata>
  <rdf:RDF xmlns:dc="http://purl.org/dc/elements/1.1/" xmlns:cc="http://creativecommons.org/ns#" xmlns:rdf="http://www.w3.org/1999/02/22-rdf-syntax-ns#">
   <cc:Work>
    <dc:type rdf:resource="http://purl.org/dc/dcmitype/StillImage"/>
    <dc:date>2023-12-03T20:12:57.665791</dc:date>
    <dc:format>image/svg+xml</dc:format>
    <dc:creator>
     <cc:Agent>
      <dc:title>Matplotlib v3.8.0, https://matplotlib.org/</dc:title>
     </cc:Agent>
    </dc:creator>
   </cc:Work>
  </rdf:RDF>
 </metadata>
 <defs>
  <style type="text/css">*{stroke-linejoin: round; stroke-linecap: butt}</style>
 </defs>
 <g id="figure_1">
  <g id="patch_1">
   <path d="M 0 216 
L 504 216 
L 504 0 
L 0 0 
z
" style="fill: #ffffff"/>
  </g>
  <g id="axes_1">
   <g id="patch_2">
    <path d="M 71.350928 149.1 
L 484.56 149.1 
L 484.56 19.44 
L 71.350928 19.44 
z
" style="fill: #ffffff"/>
   </g>
   <g id="matplotlib.axis_1">
    <g id="xtick_1">
     <g id="text_1">
      <!-- 0 -->
      <g style="fill: #262626" transform="translate(85.545385 173.410391) scale(0.165 -0.165)">
       <defs>
        <path id="ArialMT-30" d="M 266 2259 
Q 266 3072 433 3567 
Q 600 4063 929 4331 
Q 1259 4600 1759 4600 
Q 2128 4600 2406 4451 
Q 2684 4303 2865 4023 
Q 3047 3744 3150 3342 
Q 3253 2941 3253 2259 
Q 3253 1453 3087 958 
Q 2922 463 2592 192 
Q 2263 -78 1759 -78 
Q 1097 -78 719 397 
Q 266 969 266 2259 
z
M 844 2259 
Q 844 1131 1108 757 
Q 1372 384 1759 384 
Q 2147 384 2411 759 
Q 2675 1134 2675 2259 
Q 2675 3391 2411 3762 
Q 2147 4134 1753 4134 
Q 1366 4134 1134 3806 
Q 844 3388 844 2259 
z
" transform="scale(0.015625)"/>
       </defs>
       <use xlink:href="#ArialMT-30"/>
      </g>
     </g>
    </g>
    <g id="xtick_2">
     <g id="text_2">
      <!-- 1000 -->
      <g style="fill: #262626" transform="translate(130.55919 173.410391) scale(0.165 -0.165)">
       <defs>
        <path id="ArialMT-31" d="M 2384 0 
L 1822 0 
L 1822 3584 
Q 1619 3391 1289 3197 
Q 959 3003 697 2906 
L 697 3450 
Q 1169 3672 1522 3987 
Q 1875 4303 2022 4600 
L 2384 4600 
L 2384 0 
z
" transform="scale(0.015625)"/>
       </defs>
       <use xlink:href="#ArialMT-31"/>
       <use xlink:href="#ArialMT-30" x="55.615234"/>
       <use xlink:href="#ArialMT-30" x="111.230469"/>
       <use xlink:href="#ArialMT-30" x="166.845703"/>
      </g>
     </g>
    </g>
    <g id="xtick_3">
     <g id="text_3">
      <!-- 2000 -->
      <g style="fill: #262626" transform="translate(189.336316 173.410391) scale(0.165 -0.165)">
       <defs>
        <path id="ArialMT-32" d="M 3222 541 
L 3222 0 
L 194 0 
Q 188 203 259 391 
Q 375 700 629 1000 
Q 884 1300 1366 1694 
Q 2113 2306 2375 2664 
Q 2638 3022 2638 3341 
Q 2638 3675 2398 3904 
Q 2159 4134 1775 4134 
Q 1369 4134 1125 3890 
Q 881 3647 878 3216 
L 300 3275 
Q 359 3922 746 4261 
Q 1134 4600 1788 4600 
Q 2447 4600 2831 4234 
Q 3216 3869 3216 3328 
Q 3216 3053 3103 2787 
Q 2991 2522 2730 2228 
Q 2469 1934 1863 1422 
Q 1356 997 1212 845 
Q 1069 694 975 541 
L 3222 541 
z
" transform="scale(0.015625)"/>
       </defs>
       <use xlink:href="#ArialMT-32"/>
       <use xlink:href="#ArialMT-30" x="55.615234"/>
       <use xlink:href="#ArialMT-30" x="111.230469"/>
       <use xlink:href="#ArialMT-30" x="166.845703"/>
      </g>
     </g>
    </g>
    <g id="xtick_4">
     <g id="text_4">
      <!-- 3000 -->
      <g style="fill: #262626" transform="translate(248.113442 173.410391) scale(0.165 -0.165)">
       <defs>
        <path id="ArialMT-33" d="M 269 1209 
L 831 1284 
Q 928 806 1161 595 
Q 1394 384 1728 384 
Q 2125 384 2398 659 
Q 2672 934 2672 1341 
Q 2672 1728 2419 1979 
Q 2166 2231 1775 2231 
Q 1616 2231 1378 2169 
L 1441 2663 
Q 1497 2656 1531 2656 
Q 1891 2656 2178 2843 
Q 2466 3031 2466 3422 
Q 2466 3731 2256 3934 
Q 2047 4138 1716 4138 
Q 1388 4138 1169 3931 
Q 950 3725 888 3313 
L 325 3413 
Q 428 3978 793 4289 
Q 1159 4600 1703 4600 
Q 2078 4600 2393 4439 
Q 2709 4278 2876 4000 
Q 3044 3722 3044 3409 
Q 3044 3113 2884 2869 
Q 2725 2625 2413 2481 
Q 2819 2388 3044 2092 
Q 3269 1797 3269 1353 
Q 3269 753 2831 336 
Q 2394 -81 1725 -81 
Q 1122 -81 723 278 
Q 325 638 269 1209 
z
" transform="scale(0.015625)"/>
       </defs>
       <use xlink:href="#ArialMT-33"/>
       <use xlink:href="#ArialMT-30" x="55.615234"/>
       <use xlink:href="#ArialMT-30" x="111.230469"/>
       <use xlink:href="#ArialMT-30" x="166.845703"/>
      </g>
     </g>
    </g>
    <g id="xtick_5">
     <g id="text_5">
      <!-- 4000 -->
      <g style="fill: #262626" transform="translate(306.890568 173.410391) scale(0.165 -0.165)">
       <defs>
        <path id="ArialMT-34" d="M 2069 0 
L 2069 1097 
L 81 1097 
L 81 1613 
L 2172 4581 
L 2631 4581 
L 2631 1613 
L 3250 1613 
L 3250 1097 
L 2631 1097 
L 2631 0 
L 2069 0 
z
M 2069 1613 
L 2069 3678 
L 634 1613 
L 2069 1613 
z
" transform="scale(0.015625)"/>
       </defs>
       <use xlink:href="#ArialMT-34"/>
       <use xlink:href="#ArialMT-30" x="55.615234"/>
       <use xlink:href="#ArialMT-30" x="111.230469"/>
       <use xlink:href="#ArialMT-30" x="166.845703"/>
      </g>
     </g>
    </g>
    <g id="xtick_6">
     <g id="text_6">
      <!-- 5000 -->
      <g style="fill: #262626" transform="translate(365.667694 173.410391) scale(0.165 -0.165)">
       <defs>
        <path id="ArialMT-35" d="M 266 1200 
L 856 1250 
Q 922 819 1161 601 
Q 1400 384 1738 384 
Q 2144 384 2425 690 
Q 2706 997 2706 1503 
Q 2706 1984 2436 2262 
Q 2166 2541 1728 2541 
Q 1456 2541 1237 2417 
Q 1019 2294 894 2097 
L 366 2166 
L 809 4519 
L 3088 4519 
L 3088 3981 
L 1259 3981 
L 1013 2750 
Q 1425 3038 1878 3038 
Q 2478 3038 2890 2622 
Q 3303 2206 3303 1553 
Q 3303 931 2941 478 
Q 2500 -78 1738 -78 
Q 1113 -78 717 272 
Q 322 622 266 1200 
z
" transform="scale(0.015625)"/>
       </defs>
       <use xlink:href="#ArialMT-35"/>
       <use xlink:href="#ArialMT-30" x="55.615234"/>
       <use xlink:href="#ArialMT-30" x="111.230469"/>
       <use xlink:href="#ArialMT-30" x="166.845703"/>
      </g>
     </g>
    </g>
    <g id="xtick_7">
     <g id="text_7">
      <!-- 6000 -->
      <g style="fill: #262626" transform="translate(424.444819 173.410391) scale(0.165 -0.165)">
       <defs>
        <path id="ArialMT-36" d="M 3184 3459 
L 2625 3416 
Q 2550 3747 2413 3897 
Q 2184 4138 1850 4138 
Q 1581 4138 1378 3988 
Q 1113 3794 959 3422 
Q 806 3050 800 2363 
Q 1003 2672 1297 2822 
Q 1591 2972 1913 2972 
Q 2475 2972 2870 2558 
Q 3266 2144 3266 1488 
Q 3266 1056 3080 686 
Q 2894 316 2569 119 
Q 2244 -78 1831 -78 
Q 1128 -78 684 439 
Q 241 956 241 2144 
Q 241 3472 731 4075 
Q 1159 4600 1884 4600 
Q 2425 4600 2770 4297 
Q 3116 3994 3184 3459 
z
M 888 1484 
Q 888 1194 1011 928 
Q 1134 663 1356 523 
Q 1578 384 1822 384 
Q 2178 384 2434 671 
Q 2691 959 2691 1453 
Q 2691 1928 2437 2201 
Q 2184 2475 1800 2475 
Q 1419 2475 1153 2201 
Q 888 1928 888 1484 
z
" transform="scale(0.015625)"/>
       </defs>
       <use xlink:href="#ArialMT-36"/>
       <use xlink:href="#ArialMT-30" x="55.615234"/>
       <use xlink:href="#ArialMT-30" x="111.230469"/>
       <use xlink:href="#ArialMT-30" x="166.845703"/>
      </g>
     </g>
    </g>
    <g id="text_8">
     <!-- Index -->
     <g style="fill: #262626" transform="translate(255.94062 193.573828) scale(0.18 -0.18)">
      <defs>
       <path id="ArialMT-49" d="M 597 0 
L 597 4581 
L 1203 4581 
L 1203 0 
L 597 0 
z
" transform="scale(0.015625)"/>
       <path id="ArialMT-6e" d="M 422 0 
L 422 3319 
L 928 3319 
L 928 2847 
Q 1294 3394 1984 3394 
Q 2284 3394 2536 3286 
Q 2788 3178 2913 3003 
Q 3038 2828 3088 2588 
Q 3119 2431 3119 2041 
L 3119 0 
L 2556 0 
L 2556 2019 
Q 2556 2363 2490 2533 
Q 2425 2703 2258 2804 
Q 2091 2906 1866 2906 
Q 1506 2906 1245 2678 
Q 984 2450 984 1813 
L 984 0 
L 422 0 
z
" transform="scale(0.015625)"/>
       <path id="ArialMT-64" d="M 2575 0 
L 2575 419 
Q 2259 -75 1647 -75 
Q 1250 -75 917 144 
Q 584 363 401 755 
Q 219 1147 219 1656 
Q 219 2153 384 2558 
Q 550 2963 881 3178 
Q 1213 3394 1622 3394 
Q 1922 3394 2156 3267 
Q 2391 3141 2538 2938 
L 2538 4581 
L 3097 4581 
L 3097 0 
L 2575 0 
z
M 797 1656 
Q 797 1019 1065 703 
Q 1334 388 1700 388 
Q 2069 388 2326 689 
Q 2584 991 2584 1609 
Q 2584 2291 2321 2609 
Q 2059 2928 1675 2928 
Q 1300 2928 1048 2622 
Q 797 2316 797 1656 
z
" transform="scale(0.015625)"/>
       <path id="ArialMT-65" d="M 2694 1069 
L 3275 997 
Q 3138 488 2766 206 
Q 2394 -75 1816 -75 
Q 1088 -75 661 373 
Q 234 822 234 1631 
Q 234 2469 665 2931 
Q 1097 3394 1784 3394 
Q 2450 3394 2872 2941 
Q 3294 2488 3294 1666 
Q 3294 1616 3291 1516 
L 816 1516 
Q 847 969 1125 678 
Q 1403 388 1819 388 
Q 2128 388 2347 550 
Q 2566 713 2694 1069 
z
M 847 1978 
L 2700 1978 
Q 2663 2397 2488 2606 
Q 2219 2931 1791 2931 
Q 1403 2931 1139 2672 
Q 875 2413 847 1978 
z
" transform="scale(0.015625)"/>
       <path id="ArialMT-78" d="M 47 0 
L 1259 1725 
L 138 3319 
L 841 3319 
L 1350 2541 
Q 1494 2319 1581 2169 
Q 1719 2375 1834 2534 
L 2394 3319 
L 3066 3319 
L 1919 1756 
L 3153 0 
L 2463 0 
L 1781 1031 
L 1600 1309 
L 728 0 
L 47 0 
z
" transform="scale(0.015625)"/>
      </defs>
      <use xlink:href="#ArialMT-49"/>
      <use xlink:href="#ArialMT-6e" x="27.783203"/>
      <use xlink:href="#ArialMT-64" x="83.398438"/>
      <use xlink:href="#ArialMT-65" x="139.013672"/>
      <use xlink:href="#ArialMT-78" x="194.628906"/>
     </g>
    </g>
   </g>
   <g id="matplotlib.axis_2"/>
   <g id="line2d_1">
    <path d="M 90.133158 118.010074 
L 90.191935 117.96921 
L 90.368267 118.970781 
L 90.544598 120.337539 
L 90.838484 121.905792 
L 90.897261 121.958428 
L 91.073592 123.033475 
L 91.485032 125.494373 
L 91.543809 125.65919 
L 91.602586 125.546858 
L 91.661364 125.4495 
L 91.955249 126.977408 
L 92.014026 126.73026 
L 92.072803 126.816015 
L 92.131581 126.880221 
L 92.307912 125.934175 
L 92.366689 125.851259 
L 92.484243 125.268158 
L 92.660575 125.880413 
L 92.719352 125.320718 
L 92.778129 125.386504 
L 92.836906 125.495933 
L 93.013237 126.275328 
L 93.072015 126.329354 
L 93.130792 125.775668 
L 93.307123 126.97255 
L 93.659786 129.074857 
L 93.718563 129.061955 
L 93.77734 129.000375 
L 93.894894 129.367546 
L 94.18878 128.165407 
L 94.247557 128.295944 
L 94.306334 128.760331 
L 94.365111 128.50464 
L 94.541443 128.714961 
L 94.60022 128.591527 
L 94.658997 128.667253 
L 95.01166 129.2297 
L 95.187991 130.137475 
L 95.4231 128.877609 
L 95.481877 128.67112 
L 95.540654 128.805309 
L 95.658208 129.256178 
L 95.775762 129.636627 
L 95.952094 129.404586 
L 96.069648 129.666237 
L 96.245979 128.728749 
L 96.304757 128.81617 
L 96.363534 128.688075 
L 96.657419 130.336947 
L 96.951305 131.79807 
L 97.010082 131.832976 
L 97.068859 131.592765 
L 97.362745 132.483897 
L 97.480299 132.220692 
L 97.65663 132.549205 
L 97.715408 132.73286 
L 98.009293 131.434809 
L 98.361956 132.51787 
L 98.47951 132.219912 
L 98.655842 132.644068 
L 98.714619 132.737116 
L 98.832173 133.372261 
L 98.89095 133.329893 
L 99.008504 133.869023 
L 99.067281 133.749562 
L 99.126059 133.549182 
L 99.184836 133.750239 
L 99.419944 132.920656 
L 99.478721 132.808155 
L 99.948938 130.089803 
L 100.12527 130.264341 
L 100.477932 127.700727 
L 100.654264 127.267458 
L 100.771818 127.131092 
L 101.006927 128.983982 
L 101.242035 129.818785 
L 101.300812 129.58421 
L 101.359589 130.50729 
L 101.418366 130.343114 
L 101.477144 130.180967 
L 101.712252 130.843936 
L 101.771029 130.890524 
L 101.947361 130.578563 
L 102.006138 130.520144 
L 102.417578 128.160476 
L 102.476355 128.500757 
L 102.535132 128.12374 
L 102.593909 128.194658 
L 102.946572 128.602769 
L 103.005349 129.093355 
L 103.064126 128.790072 
L 103.122903 129.052358 
L 103.358012 127.416308 
L 103.416789 127.167553 
L 103.475566 127.190694 
L 103.534343 127.532682 
L 103.710674 126.113516 
L 103.769451 126.209459 
L 103.828229 126.482106 
L 103.887006 126.005092 
L 103.945783 126.148469 
L 104.00456 126.075857 
L 104.180891 125.129695 
L 104.239668 125.189325 
L 104.298446 124.797406 
L 104.357223 124.884316 
L 104.416 124.97077 
L 104.592331 125.504009 
L 104.651108 125.594631 
L 104.709885 125.492455 
L 104.82744 125.73351 
L 104.944994 126.110281 
L 105.003771 125.828014 
L 105.180103 126.174698 
L 105.23888 126.312903 
L 105.297657 126.178683 
L 105.532765 126.478849 
L 105.65032 126.289451 
L 106.061759 128.822822 
L 106.179314 129.090882 
L 106.238091 128.882485 
L 106.355645 128.38303 
L 106.473199 128.404943 
L 106.531976 128.347282 
L 106.590754 127.978369 
L 106.649531 128.115452 
L 106.825862 129.359235 
L 106.884639 129.189989 
L 107.002193 128.394906 
L 107.060971 128.565236 
L 107.296079 127.740331 
L 107.354856 128.070395 
L 107.707519 131.819731 
L 107.825073 132.481963 
L 108.001405 132.26127 
L 108.177736 133.226598 
L 108.236513 132.863438 
L 108.29529 132.895757 
L 108.354067 133.100359 
L 108.412844 132.857761 
L 108.471622 133.216086 
L 108.530399 132.978568 
L 108.70673 132.258038 
L 109.823495 126.834634 
L 109.94105 125.97143 
L 109.999827 126.200061 
L 110.058604 126.061099 
L 110.117381 126.161352 
L 110.470044 127.906226 
L 110.528821 127.732189 
L 110.822707 129.652927 
L 110.881484 129.602283 
L 111.351701 131.125729 
L 111.469255 130.578655 
L 111.528032 130.632983 
L 111.704363 131.351353 
L 111.821918 131.280247 
L 111.880695 131.306879 
L 112.292135 133.439835 
L 112.703575 135.967972 
L 112.821129 135.454788 
L 112.879906 135.605797 
L 113.056237 135.925772 
L 113.115014 135.873195 
L 113.291346 136.893199 
L 113.350123 137.264344 
L 113.4089 136.94863 
L 113.526454 136.626691 
L 113.585231 136.734584 
L 113.702786 136.387008 
L 113.879117 137.477987 
L 113.937894 137.499756 
L 114.114226 138.116945 
L 114.173003 138.138918 
L 114.23178 138.01584 
L 114.525666 136.558355 
L 114.64322 136.486812 
L 114.878328 136.55178 
L 114.937105 136.276702 
L 115.230991 132.759856 
L 115.348545 132.839974 
L 115.407322 132.733892 
L 115.524877 133.16078 
L 115.583654 133.176252 
L 115.759985 133.801253 
L 115.877539 134.31213 
L 115.936317 134.086623 
L 116.053871 134.417772 
L 116.112648 134.363404 
L 116.347756 137.011887 
L 116.465311 136.988733 
L 116.582865 137.665006 
L 116.641642 137.411404 
L 116.759196 137.419815 
L 117.053082 136.467384 
L 117.111859 136.713442 
L 117.346968 136.045752 
L 117.405745 136.012221 
L 117.464522 135.729861 
L 117.523299 135.989142 
L 117.640853 136.211485 
L 118.11107 133.449473 
L 118.228624 133.932698 
L 118.346179 133.118906 
L 118.404956 133.201685 
L 118.463733 132.744068 
L 118.52251 133.00869 
L 118.875173 134.732052 
L 119.286613 139.104887 
L 119.404167 139.288406 
L 119.462944 139.686621 
L 119.521721 139.512275 
L 119.580498 139.215984 
L 119.639275 139.63449 
L 119.698053 139.593112 
L 119.75683 139.488027 
L 119.874384 138.897115 
L 119.991938 139.153366 
L 120.344601 136.752137 
L 120.403378 136.641828 
L 120.579709 135.055394 
L 120.638487 135.064792 
L 120.697264 135.078509 
L 120.814818 135.56668 
L 120.873595 135.511878 
L 120.932372 135.395154 
L 121.049926 135.650435 
L 121.167481 134.998946 
L 121.402589 136.568028 
L 121.461366 136.549618 
L 121.578921 136.911569 
L 121.931583 139.259936 
L 121.99036 139.13092 
L 122.049138 139.28554 
L 122.107915 139.152448 
L 122.166692 139.095904 
L 122.4018 139.43195 
L 123.22468 135.494427 
L 123.342234 135.479038 
L 123.63612 134.687365 
L 123.694897 134.492822 
L 123.753674 134.648101 
L 123.871229 134.721568 
L 124.223891 133.343517 
L 124.282668 133.479895 
L 124.576554 134.07748 
L 124.694108 134.551834 
L 124.752885 134.587336 
L 125.340657 138.181524 
L 125.399434 137.956871 
L 125.458211 137.735022 
L 125.516988 137.769864 
L 125.575765 137.815283 
L 125.634542 137.633792 
L 125.693319 137.838364 
L 125.752097 137.801844 
L 125.987205 136.956632 
L 126.045982 137.193409 
L 126.104759 137.295272 
L 126.516199 134.145979 
L 126.633753 135.232982 
L 126.692531 135.054426 
L 126.868862 135.148127 
L 126.986416 135.860941 
L 127.162748 137.17611 
L 127.339079 137.146178 
L 127.691742 139.428747 
L 127.809296 138.865524 
L 127.868073 138.988952 
L 128.220736 137.541635 
L 128.279513 137.559483 
L 128.455844 136.22456 
L 128.573399 136.332907 
L 128.690953 136.949041 
L 128.984838 135.750868 
L 129.043616 135.678111 
L 129.219947 136.627483 
L 129.278724 136.375481 
L 129.455055 136.314873 
L 129.690164 137.312889 
L 129.866495 135.689894 
L 129.925272 135.756242 
L 130.101604 136.117234 
L 130.160381 136.177458 
L 130.219158 136.401002 
L 130.277935 136.202797 
L 130.395489 135.307303 
L 130.454267 135.64668 
L 130.513044 135.537283 
L 130.571821 135.421371 
L 130.630598 135.527046 
L 130.689375 135.681192 
L 130.865706 135.334041 
L 130.924484 135.371944 
L 131.159592 134.958763 
L 131.218369 134.943298 
L 131.277146 134.791881 
L 131.335923 134.969014 
L 131.394701 134.889494 
L 131.453478 134.899251 
L 131.571032 135.464889 
L 131.806141 134.648714 
L 131.864918 134.47669 
L 132.393912 137.257436 
L 132.452689 137.277633 
L 132.511466 137.475314 
L 132.570243 137.376429 
L 132.62902 137.348423 
L 133.04046 135.379034 
L 133.275569 132.89678 
L 133.393123 132.55898 
L 133.86334 133.655474 
L 133.922117 133.552215 
L 134.333557 138.339874 
L 134.509888 139.282794 
L 134.568665 139.069923 
L 134.627443 138.954463 
L 134.68622 138.999487 
L 134.744997 139.269062 
L 134.803774 139.138019 
L 134.921328 138.683287 
L 135.09766 139.170916 
L 135.273991 138.291567 
L 135.391545 137.964609 
L 135.509099 137.388454 
L 135.567877 137.382588 
L 135.626654 136.632568 
L 135.685431 136.761686 
L 135.802985 137.038851 
L 135.861762 136.943163 
L 135.920539 136.561896 
L 135.979316 136.791941 
L 136.038094 136.733854 
L 136.096871 136.8531 
L 136.155648 136.648282 
L 136.91975 139.250996 
L 137.037305 139.081062 
L 137.096082 139.15919 
L 137.213636 138.941969 
L 137.448745 139.935704 
L 138.741841 131.647627 
L 138.918173 131.699435 
L 139.447167 133.670742 
L 139.682275 135.169158 
L 139.741052 135.087454 
L 139.79983 135.174745 
L 139.917384 135.190609 
L 140.093715 134.908759 
L 140.152492 134.855972 
L 140.328824 133.955176 
L 140.446378 133.461956 
L 140.505155 133.573822 
L 140.563932 133.874618 
L 140.622709 133.740468 
L 140.857818 132.822762 
L 141.151704 133.877474 
L 141.386812 135.019895 
L 141.504366 134.869901 
L 141.563143 134.980049 
L 141.798252 133.798151 
L 141.915806 134.059655 
L 141.974583 133.826013 
L 142.03336 133.896198 
L 142.150915 133.940393 
L 142.327246 134.3222 
L 142.4448 133.81215 
L 142.503577 133.897413 
L 142.915017 136.989383 
L 143.326457 139.435183 
L 143.385234 139.430483 
L 143.561566 140.193463 
L 144.031783 139.320603 
L 144.208114 140.037659 
L 144.325668 139.84929 
L 144.384445 140.085363 
L 144.502 139.537508 
L 144.560777 139.656143 
L 144.795885 140.437133 
L 144.854662 140.302078 
L 144.91344 139.784273 
L 144.972217 139.972063 
L 145.030994 140.110925 
L 145.089771 139.984187 
L 145.148548 139.90639 
L 145.266102 138.77223 
L 145.559988 136.518229 
L 145.618765 136.609034 
L 146.147759 133.375806 
L 146.676753 136.193005 
L 146.73553 136.116918 
L 146.794308 135.953137 
L 146.853085 136.109917 
L 146.911862 136.289633 
L 147.264525 138.995389 
L 147.323302 138.862339 
L 147.382079 138.992198 
L 147.440856 138.986997 
L 147.499633 138.735826 
L 147.55841 138.886841 
L 147.617187 138.955493 
L 147.793519 138.053763 
L 147.852296 138.13127 
L 148.028627 138.9687 
L 148.204959 138.914278 
L 148.498844 136.84741 
L 148.616398 135.537508 
L 148.675176 135.808178 
L 148.851507 136.374279 
L 148.969061 136.631274 
L 149.439278 134.815633 
L 149.498055 135.100103 
L 149.556833 135.059278 
L 149.791941 134.425086 
L 150.144604 132.523782 
L 150.556044 134.34399 
L 151.143815 140.551076 
L 151.320146 141.145859 
L 151.437701 141.356019 
L 151.496478 141.240224 
L 152.26058 136.343599 
L 152.378135 136.501986 
L 152.848352 141.074465 
L 152.965906 141.345273 
L 153.024683 141.210146 
L 153.436123 142.526906 
L 153.553677 143.206364 
L 153.965117 138.474425 
L 154.023894 138.259257 
L 154.082671 138.406688 
L 154.200225 138.01133 
L 154.435334 136.413566 
L 154.494111 136.588203 
L 154.611665 136.115154 
L 154.72922 135.405944 
L 154.787997 135.499863 
L 154.905551 135.763372 
L 154.964328 136.147566 
L 155.023105 136.086342 
L 155.081882 136.142199 
L 155.199437 136.653939 
L 155.258214 136.28689 
L 155.316991 136.424778 
L 155.434545 137.050043 
L 155.493322 136.925128 
L 155.610876 137.45951 
L 155.845985 136.853134 
L 155.904762 136.785312 
L 156.081093 137.531773 
L 156.139871 137.141018 
L 156.316202 137.765763 
L 156.433756 138.176332 
L 156.610088 137.288322 
L 156.668865 137.559805 
L 156.786419 137.645477 
L 157.021527 138.816653 
L 157.139082 138.612154 
L 157.609299 136.890293 
L 157.668076 137.182236 
L 157.726853 136.565403 
L 157.78563 136.807604 
L 157.961961 137.512041 
L 158.020739 137.375949 
L 158.079516 137.977265 
L 158.138293 137.954823 
L 158.373401 137.48113 
L 158.432179 137.124917 
L 158.490956 137.30506 
L 158.726064 138.425392 
L 158.843618 138.253449 
L 158.902396 138.480176 
L 158.961173 138.435094 
L 159.313835 136.410956 
L 159.372613 136.496569 
L 159.43139 136.904393 
L 159.490167 136.802921 
L 159.548944 136.617092 
L 159.84283 138.018652 
L 159.901607 138.150629 
L 160.136715 139.606664 
L 160.254269 139.835803 
L 160.371824 140.345855 
L 160.489378 140.771021 
L 160.548155 140.666558 
L 160.606932 140.814526 
L 160.724486 141.72587 
L 161.253481 139.787196 
L 161.488589 140.887861 
L 161.606143 140.824254 
L 161.782475 141.353404 
L 162.017583 141.285646 
L 162.135137 141.829653 
L 162.311469 141.302292 
L 162.370246 141.382998 
L 162.429023 141.491746 
L 162.664132 140.387609 
L 162.89924 139.870904 
L 162.958017 139.842558 
L 163.075571 139.462539 
L 163.134349 139.714575 
L 163.193126 139.6093 
L 163.251903 139.363288 
L 163.31068 139.377577 
L 163.487011 140.133796 
L 163.780897 139.44473 
L 163.839674 139.631893 
L 163.957228 139.853366 
L 164.192337 138.759573 
L 164.251114 138.790161 
L 164.427445 138.126789 
L 164.486222 138.203356 
L 164.838885 136.808068 
L 164.956439 136.86988 
L 165.073994 136.342859 
L 165.132771 136.563382 
L 165.191548 136.642889 
L 165.309102 136.359144 
L 165.602988 134.267695 
L 166.249536 130.681628 
L 166.954862 118.693492 
L 167.131193 115.310819 
L 167.483856 101.516838 
L 168.483067 68.00646 
L 168.600621 66.89229 
L 168.659398 67.081448 
L 168.83573 66.657104 
L 169.129615 69.047907 
L 169.24717 70.333313 
L 169.305947 70.141947 
L 169.482278 70.121548 
L 169.541055 70.000989 
L 169.717387 69.467906 
L 169.776164 69.530372 
L 169.893718 69.21975 
L 170.187604 71.493873 
L 170.246381 71.439267 
L 170.422712 69.675421 
L 170.657821 66.598516 
L 171.010483 60.240604 
L 171.539478 50.273929 
L 171.598255 49.835212 
L 171.657032 49.969216 
L 171.774586 50.858446 
L 172.009695 54.089698 
L 172.421134 57.272415 
L 172.479912 57.063794 
L 172.538689 57.065141 
L 172.597466 57.187957 
L 172.950129 54.553999 
L 173.12646 52.441277 
L 173.361568 51.549351 
L 173.655454 52.941379 
L 174.302002 50.853054 
L 174.713442 44.768881 
L 174.948551 42.089778 
L 175.359991 38.899331 
L 175.418768 38.924825 
L 175.653876 40.235734 
L 175.947762 42.520946 
L 176.124093 42.012426 
L 176.535533 43.312123 
L 177.182082 37.785296 
L 177.41719 36.810817 
L 177.475967 36.971228 
L 177.534744 36.881478 
L 178.004961 41.577314 
L 178.298847 42.336769 
L 178.710287 47.752734 
L 178.827841 47.273923 
L 178.945395 47.104022 
L 179.180504 50.532079 
L 179.47439 54.153937 
L 179.533167 54.014524 
L 179.591944 54.232135 
L 179.768275 53.643416 
L 179.885829 53.884649 
L 180.885041 60.933454 
L 180.943818 60.983129 
L 181.178926 61.544856 
L 181.29648 60.963439 
L 181.766697 57.230275 
L 181.825475 57.55539 
L 181.884252 57.548092 
L 182.001806 58.386514 
L 182.060583 58.221767 
L 182.11936 57.893353 
L 183.059794 40.350905 
L 183.236126 36.99369 
L 183.294903 37.019098 
L 183.530011 38.054668 
L 183.588788 37.682497 
L 183.647565 37.779728 
L 184.117782 44.901573 
L 184.352891 49.000573 
L 184.411668 49.076313 
L 184.470445 48.865903 
L 184.529222 49.140606 
L 184.587999 48.967732 
L 184.823108 47.464439 
L 185.058217 45.907055 
L 185.939873 42.238764 
L 186.057428 43.554265 
L 186.116205 43.362222 
L 186.174982 43.409236 
L 186.645199 41.638792 
L 186.82153 41.985674 
L 186.880307 41.911436 
L 187.115416 44.177778 
L 187.350524 41.412452 
L 187.468079 41.623451 
L 187.761964 42.784103 
L 187.879519 41.521436 
L 188.290958 33.876104 
L 188.349736 34.467424 
L 188.46729 34.808482 
L 188.937507 29.283544 
L 188.996284 29.071294 
L 189.113838 30.374835 
L 189.231392 30.275543 
L 189.466501 27.783982 
L 189.642832 25.350242 
L 189.701609 25.794858 
L 189.760387 25.333636 
L 189.819164 25.574998 
L 189.995495 26.416493 
L 190.054272 26.386781 
L 190.994706 40.10616 
L 191.11226 40.007776 
L 191.229815 39.915183 
L 191.5237 36.583049 
L 191.93514 33.535242 
L 191.993917 33.508927 
L 192.229026 32.019442 
L 192.287803 32.129269 
L 192.581689 34.131964 
L 192.816797 38.094173 
L 192.875574 38.366716 
L 193.463345 47.615078 
L 193.522123 47.575833 
L 193.5809 47.347734 
L 193.698454 47.84019 
L 193.874785 47.356939 
L 193.933562 47.547292 
L 193.99234 47.498915 
L 194.286225 44.494338 
L 194.521334 44.925296 
L 194.580111 44.859804 
L 194.638888 44.563974 
L 194.697665 44.734016 
L 194.756442 44.574019 
L 195.167882 40.149873 
L 195.402991 42.987798 
L 195.461768 42.860971 
L 195.638099 41.734457 
L 195.696876 41.867555 
L 195.755653 41.485234 
L 195.931985 42.820978 
L 195.990762 44.003707 
L 196.049539 43.952048 
L 196.108316 43.924507 
L 196.460979 48.123045 
L 196.578533 47.960159 
L 196.63731 47.781097 
L 196.696087 47.949026 
L 196.813642 48.682482 
L 196.872419 48.441535 
L 196.931196 48.660932 
L 196.989973 48.475477 
L 197.04875 48.619813 
L 197.107527 48.565993 
L 197.225082 47.817905 
L 197.401413 48.403592 
L 197.46019 48.302347 
L 197.518967 48.364941 
L 197.695299 48.876003 
L 197.754076 48.687863 
L 197.930407 49.712578 
L 198.988395 57.131312 
L 199.341058 54.602346 
L 199.399835 54.731967 
L 199.576167 55.045058 
L 199.634944 54.863349 
L 199.693721 54.897396 
L 200.222715 59.133094 
L 200.516601 62.805479 
L 200.575378 62.708028 
L 200.751709 63.168391 
L 200.810486 63.052143 
L 201.221926 58.838492 
L 201.692143 53.646466 
L 201.809697 52.917869 
L 201.868474 53.065661 
L 201.986029 53.835151 
L 202.338691 59.106658 
L 202.456246 60.333519 
L 202.750131 63.709245 
L 202.867686 64.205221 
L 203.220348 66.684902 
L 203.337903 66.297711 
L 203.455457 66.853158 
L 203.514234 67.355206 
L 203.573011 67.264711 
L 203.690565 67.139298 
L 203.866897 68.23001 
L 204.043228 66.502383 
L 204.102005 66.542403 
L 204.160782 66.321045 
L 204.454668 62.908844 
L 204.689777 60.796684 
L 204.807331 60.905996 
L 204.866108 60.876575 
L 205.042439 60.071894 
L 205.453879 61.938697 
L 205.688988 63.922632 
L 205.747765 63.948407 
L 205.806542 64.125683 
L 206.217982 61.663954 
L 206.276759 61.804296 
L 206.335536 62.271453 
L 206.394313 62.064663 
L 206.45309 61.9635 
L 206.511867 62.21171 
L 206.688199 60.022133 
L 206.86453 57.785061 
L 206.923307 57.732102 
L 207.217193 56.363928 
L 207.27597 56.325519 
L 207.68741 53.787552 
L 207.922518 55.617486 
L 208.040073 55.392925 
L 208.09885 55.343592 
L 209.039284 66.613493 
L 209.098061 66.531667 
L 209.450724 69.282772 
L 209.568278 70.158182 
L 209.744609 71.068642 
L 209.862164 70.987657 
L 210.097272 68.492236 
L 210.156049 68.183872 
L 210.214826 68.293291 
L 210.273603 68.3789 
L 210.391158 67.888742 
L 210.449935 68.10168 
L 210.567489 67.172437 
L 210.685043 67.195627 
L 210.802598 66.925363 
L 211.096483 68.963142 
L 211.214037 69.295252 
L 211.507923 68.205586 
L 211.684254 67.092807 
L 211.919363 63.017229 
L 212.38958 53.655076 
L 212.565911 52.890289 
L 212.683466 53.146502 
L 212.742243 53.655269 
L 212.80102 53.538877 
L 212.859797 53.530987 
L 212.977351 54.853531 
L 213.447568 64.352414 
L 213.506345 64.171724 
L 213.976562 68.092802 
L 214.03534 67.887586 
L 214.094117 67.62592 
L 214.975774 54.792497 
L 215.152105 52.88161 
L 215.974985 62.203607 
L 216.033762 62.561478 
L 216.26887 65.693755 
L 216.386425 66.095869 
L 216.68031 64.575449 
L 216.739087 64.633952 
L 216.856642 65.514697 
L 216.915419 65.401696 
L 217.50319 62.217462 
L 217.855853 57.764116 
L 218.384847 55.091762 
L 218.443624 55.094812 
L 218.678732 55.803541 
L 218.972618 57.727987 
L 219.090172 57.594238 
L 219.148949 57.245674 
L 219.207727 57.302344 
L 219.266504 57.328801 
L 219.384058 58.027054 
L 219.442835 57.962386 
L 219.501612 57.911275 
L 220.442046 45.690278 
L 220.677155 42.171085 
L 220.735932 42.227763 
L 220.794709 41.940295 
L 220.853486 42.405334 
L 220.912263 42.138897 
L 220.97104 42.288225 
L 221.852697 51.612844 
L 222.146583 53.118906 
L 222.20536 53.091421 
L 222.675577 50.895809 
L 222.734354 51.309467 
L 222.793131 51.29167 
L 222.851908 51.261034 
L 223.02824 51.531939 
L 223.087017 51.484019 
L 223.263348 52.191727 
L 223.380903 52.884198 
L 223.43968 52.868237 
L 223.498457 52.902414 
L 223.557234 52.539833 
L 224.086228 56.032036 
L 224.145005 55.817924 
L 224.203782 55.911773 
L 224.380114 56.263801 
L 224.438891 56.231586 
L 224.556445 55.517361 
L 224.615222 55.964791 
L 224.673999 55.734258 
L 224.732776 55.767981 
L 225.908319 42.899253 
L 225.967096 43.149508 
L 226.025873 43.103773 
L 226.202205 43.771141 
L 226.672422 46.997491 
L 227.612856 64.166076 
L 227.671633 64.254302 
L 227.847964 65.501691 
L 228.083073 64.638622 
L 228.200627 64.524426 
L 228.376958 62.95409 
L 228.670844 60.940433 
L 228.905952 62.246985 
L 228.964729 62.385192 
L 229.141061 61.528195 
L 229.434946 63.491129 
L 229.670055 62.582317 
L 229.846386 61.771037 
L 230.022718 60.732158 
L 230.140272 61.238343 
L 230.434158 64.526613 
L 230.492935 64.539088 
L 230.610489 65.660666 
L 230.904375 69.8462 
L 231.257037 74.534722 
L 231.433369 75.241991 
L 231.550923 75.499083 
L 232.373803 70.960146 
L 233.020351 64.356057 
L 233.079128 64.520086 
L 233.431791 61.619648 
L 233.6669 60.070261 
L 234.195894 63.722895 
L 234.313448 63.598368 
L 234.372225 63.654863 
L 234.959996 68.06184 
L 235.018773 68.144996 
L 235.077551 67.956769 
L 235.195105 68.559605 
L 235.312659 68.576115 
L 235.430213 69.292986 
L 235.48899 69.268299 
L 235.841653 66.756455 
L 236.017985 67.077285 
L 236.31187 65.303874 
L 236.429424 64.368081 
L 236.546979 63.480966 
L 236.605756 63.50962 
L 236.72331 64.139865 
L 237.017196 65.883398 
L 237.193527 64.953125 
L 237.311081 65.582993 
L 237.369858 65.527276 
L 237.428636 65.457518 
L 237.840075 62.676003 
L 238.310292 58.036777 
L 238.486624 56.213337 
L 238.604178 56.203912 
L 238.839287 57.123104 
L 238.898064 56.923844 
L 238.956841 56.880513 
L 239.074395 57.884099 
L 239.544612 62.330822 
L 239.603389 62.510722 
L 239.720944 62.125964 
L 240.191161 63.615265 
L 240.308715 63.001563 
L 240.426269 63.334221 
L 240.955263 67.515096 
L 241.01404 67.498126 
L 241.072817 67.181905 
L 241.131595 67.380609 
L 241.484257 71.116133 
L 241.543034 70.930356 
L 241.660589 70.434006 
L 241.954474 73.097823 
L 242.013251 73.398723 
L 242.072029 73.305247 
L 242.130806 73.143166 
L 242.189583 73.196339 
L 242.307137 73.877007 
L 242.483468 72.712797 
L 242.718577 70.90523 
L 242.836131 71.546897 
L 243.07124 70.20353 
L 243.365125 71.320364 
L 243.423902 71.054989 
L 243.48268 70.87949 
L 243.717788 69.596975 
L 243.894119 68.549341 
L 244.481891 60.425355 
L 244.952108 53.86512 
L 245.010885 54.003023 
L 245.069662 53.946644 
L 245.128439 53.522224 
L 245.187216 53.744854 
L 245.245993 53.734815 
L 245.481102 55.613012 
L 245.598656 55.290365 
L 245.71621 56.005803 
L 245.951319 59.560334 
L 246.245204 65.172723 
L 246.421536 66.986095 
L 246.480313 66.755693 
L 246.53909 66.937929 
L 246.597867 66.865083 
L 246.656644 66.899785 
L 246.832976 67.584401 
L 247.714633 60.380532 
L 247.890964 60.422182 
L 247.949741 60.534931 
L 248.126073 62.791855 
L 248.537512 67.200901 
L 248.713844 67.637581 
L 249.125284 70.337075 
L 249.301615 69.846531 
L 249.360392 70.095389 
L 249.536724 69.399645 
L 249.595501 69.367408 
L 250.242049 66.262342 
L 250.359603 65.490642 
L 250.41838 65.54747 
L 250.477158 65.472716 
L 250.653489 64.863505 
L 250.712266 64.94347 
L 251.006152 66.869929 
L 251.123706 66.467499 
L 251.182483 66.511176 
L 251.24126 66.560658 
L 251.417592 65.994511 
L 251.476369 66.35793 
L 251.535146 66.281542 
L 251.770254 65.430334 
L 251.829031 65.414518 
L 252.181694 62.516818 
L 252.358026 63.571534 
L 252.416803 63.601736 
L 252.593134 65.477394 
L 252.651911 65.138715 
L 252.710688 65.018945 
L 252.769465 65.130208 
L 252.828243 65.262013 
L 253.004574 64.355486 
L 253.122128 65.063686 
L 253.651122 62.151337 
L 253.827454 58.898297 
L 254.121339 55.083028 
L 254.180116 54.788102 
L 254.767888 43.372862 
L 254.944219 40.247704 
L 255.002996 40.983047 
L 255.12055 41.999971 
L 255.179328 41.939168 
L 255.296882 41.72394 
L 255.473213 40.498104 
L 255.53199 40.580421 
L 256.060984 43.918619 
L 256.119762 43.879156 
L 256.237316 42.91767 
L 256.35487 41.316817 
L 256.472424 41.582634 
L 257.17775 47.258149 
L 257.236527 47.290786 
L 257.530413 48.605942 
L 257.58919 48.350108 
L 258.118184 44.966525 
L 258.235738 45.269164 
L 258.294515 45.292038 
L 258.941064 51.773343 
L 259.058618 52.385919 
L 259.117395 52.294247 
L 259.293726 53.063204 
L 259.352504 52.943536 
L 259.528835 53.375279 
L 259.587612 53.324252 
L 259.646389 53.638764 
L 259.705166 53.552707 
L 259.763943 53.414341 
L 259.822721 53.454676 
L 260.292938 57.77624 
L 260.469269 56.120747 
L 260.528046 56.386223 
L 260.704377 55.940332 
L 260.939486 57.565902 
L 260.998263 57.514294 
L 261.350926 51.087136 
L 261.409703 51.207379 
L 261.644811 54.269951 
L 261.703589 54.225818 
L 261.762366 54.306526 
L 262.056251 51.879278 
L 262.173806 52.33691 
L 262.467691 56.907661 
L 262.526468 56.856981 
L 262.585245 56.809416 
L 262.644023 56.39357 
L 262.7028 56.609113 
L 262.761577 56.784427 
L 263.290571 63.320236 
L 263.819565 66.75475 
L 263.878342 66.44341 
L 264.231005 68.028354 
L 264.289782 67.870257 
L 265.112662 61.275906 
L 265.171439 61.239236 
L 265.524102 58.669235 
L 265.582879 58.519001 
L 265.876765 60.077965 
L 266.17065 64.30563 
L 266.229427 64.231933 
L 266.464536 66.051589 
L 267.052307 72.339979 
L 267.111084 72.183592 
L 267.228638 72.386739 
L 267.522524 70.099685 
L 268.286627 56.942372 
L 268.698067 50.821143 
L 268.874398 49.314419 
L 268.991952 47.815897 
L 269.050729 47.90816 
L 269.168284 47.72767 
L 269.227061 47.375936 
L 269.285838 47.557828 
L 269.344615 47.640199 
L 269.403392 47.492643 
L 269.697278 49.231748 
L 270.04994 53.321262 
L 270.285049 56.454832 
L 270.343826 56.758651 
L 270.755266 62.442532 
L 271.049152 64.177933 
L 271.28426 66.043408 
L 271.401814 67.242263 
L 271.460591 67.207948 
L 271.636923 67.545997 
L 271.813254 67.187215 
L 271.989586 67.872195 
L 272.048363 67.992044 
L 272.10714 67.946397 
L 272.283471 65.728057 
L 272.577357 62.407487 
L 272.636134 62.573801 
L 272.988797 59.33451 
L 273.223905 56.765189 
L 273.341459 56.571463 
L 273.459014 56.95367 
L 273.635345 56.12017 
L 273.694122 56.1452 
L 273.870454 56.489233 
L 273.929231 56.230423 
L 274.105562 57.298737 
L 274.281894 56.891717 
L 274.340671 57.111327 
L 274.399448 57.070269 
L 274.458225 56.954031 
L 274.517002 56.573093 
L 274.575779 56.593028 
L 274.634556 56.545158 
L 274.693333 56.640559 
L 275.281105 51.651805 
L 275.339882 51.671454 
L 275.457436 51.508679 
L 275.810099 49.732947 
L 275.927653 50.433684 
L 276.280316 53.726633 
L 276.456647 54.422279 
L 276.515424 54.53366 
L 276.80931 56.859674 
L 276.926864 56.789212 
L 277.161973 54.300325 
L 277.397081 52.565285 
L 278.102407 47.406508 
L 278.161184 47.671529 
L 278.690178 50.742611 
L 278.866509 51.257905 
L 278.984064 51.422161 
L 279.160395 50.966718 
L 279.277949 51.217199 
L 279.454281 49.652552 
L 280.100829 44.538914 
L 280.159606 44.340043 
L 280.218383 44.536724 
L 280.27716 44.273664 
L 280.6886 47.718015 
L 280.982486 53.256085 
L 281.570257 58.174114 
L 281.687811 58.556759 
L 281.746588 58.514152 
L 281.92292 57.374295 
L 281.981697 57.55008 
L 282.099251 57.590506 
L 282.216805 58.412472 
L 282.510691 60.261209 
L 282.687022 60.921881 
L 282.7458 60.693648 
L 282.804577 60.867952 
L 282.863354 60.9653 
L 283.274794 59.827953 
L 283.803788 55.616459 
L 283.862565 55.382486 
L 283.921342 55.640991 
L 283.980119 55.562934 
L 284.097674 54.731792 
L 284.274005 53.20558 
L 284.450336 51.547622 
L 284.509113 51.815755 
L 284.567891 51.589768 
L 284.626668 51.75689 
L 284.920553 50.396621 
L 285.096885 49.343459 
L 285.331993 50.617367 
L 285.508325 53.093746 
L 285.684656 54.053607 
L 286.037319 55.906435 
L 286.096096 55.953809 
L 286.566313 60.733523 
L 286.742644 59.061307 
L 287.03653 60.132427 
L 287.095307 60.024996 
L 287.330415 59.422397 
L 287.389193 59.486552 
L 287.506747 57.993299 
L 287.624301 56.569998 
L 287.683078 56.600213 
L 287.741855 56.881808 
L 288.094518 60.959557 
L 288.153295 60.884811 
L 288.212072 60.962264 
L 288.564735 64.264173 
L 288.623512 64.197297 
L 288.682289 64.704901 
L 288.741066 64.478436 
L 289.034952 62.37449 
L 289.093729 62.653967 
L 289.446392 59.769834 
L 289.740278 56.265551 
L 289.799055 56.223263 
L 289.857832 55.843994 
L 289.975386 56.694903 
L 290.034163 56.448938 
L 290.445603 54.098061 
L 290.680712 54.715327 
L 290.91582 53.771367 
L 291.033374 54.057711 
L 291.092151 53.944165 
L 291.150929 53.648023 
L 291.209706 53.817453 
L 291.32726 53.752979 
L 291.386037 53.522235 
L 291.444814 53.740904 
L 291.562368 53.729855 
L 291.7387 53.532301 
L 291.856254 53.43557 
L 292.091363 54.964964 
L 292.326471 54.358749 
L 292.385248 54.319533 
L 292.502803 54.589294 
L 292.56158 54.48664 
L 292.737911 53.92156 
L 292.855465 54.239458 
L 292.97302 54.134385 
L 293.090574 54.826765 
L 293.149351 54.805295 
L 293.443237 54.446551 
L 293.502014 54.616121 
L 293.737122 55.200234 
L 294.266116 57.629736 
L 295.030219 63.597671 
L 295.20655 63.51006 
L 295.265327 63.5378 
L 295.441659 63.011317 
L 295.500436 63.198706 
L 295.735544 64.229011 
L 295.911876 63.724123 
L 296.02943 63.902949 
L 296.088207 63.738164 
L 296.146984 63.823058 
L 296.205761 63.79097 
L 296.558424 65.672156 
L 296.617201 65.632751 
L 296.85231 63.867888 
L 297.028641 63.076162 
L 297.204973 62.302176 
L 297.26375 62.434256 
L 297.322527 62.724799 
L 297.381304 62.665745 
L 297.440081 62.700722 
L 297.498858 62.598344 
L 297.733967 60.257226 
L 298.027852 59.168519 
L 298.145407 59.975807 
L 298.204184 59.947967 
L 298.380515 59.969536 
L 298.439292 59.883209 
L 298.498069 59.549571 
L 298.556846 59.85535 
L 298.733178 59.587083 
L 298.909509 58.586975 
L 299.085841 58.695708 
L 299.379726 60.008139 
L 300.261383 70.150212 
L 300.378937 71.253122 
L 300.437714 70.833469 
L 300.496492 71.11904 
L 300.555269 71.188184 
L 300.614046 71.072008 
L 300.907932 72.808912 
L 301.084263 73.311111 
L 301.436926 71.012964 
L 302.494914 53.718725 
L 302.553691 54.100182 
L 302.612468 54.320025 
L 302.906354 57.503708 
L 302.965131 57.571209 
L 303.141462 56.107065 
L 303.200239 56.472577 
L 303.670456 61.883123 
L 303.788011 61.524356 
L 303.905565 61.203368 
L 304.023119 61.513441 
L 304.081896 61.411849 
L 304.140673 61.508012 
L 304.258228 63.520253 
L 304.552113 68.025432 
L 304.845999 69.672968 
L 304.904776 69.565846 
L 304.963553 69.742234 
L 305.02233 69.314528 
L 305.081107 69.533328 
L 305.139885 69.776369 
L 305.316216 68.890582 
L 305.374993 69.076654 
L 305.551324 67.519648 
L 305.610102 67.576878 
L 305.668879 68.250377 
L 305.727656 67.961567 
L 305.786433 68.108618 
L 305.84521 67.691668 
L 305.903987 67.74324 
L 306.25665 69.508563 
L 306.315427 69.297878 
L 306.491758 70.45647 
L 306.550536 70.463902 
L 306.726867 72.220167 
L 306.844421 71.143214 
L 307.07953 73.180632 
L 307.138307 73.205949 
L 307.197084 73.378824 
L 307.255861 73.25655 
L 307.314638 72.662747 
L 307.49097 74.197174 
L 307.549747 74.155435 
L 307.902409 72.564753 
L 307.961187 73.054005 
L 308.019964 72.730889 
L 308.137518 71.824172 
L 308.196295 71.842266 
L 308.255072 71.645992 
L 308.313849 71.870045 
L 308.372626 71.523467 
L 308.548958 72.373471 
L 308.607735 72.339898 
L 308.784066 74.157692 
L 309.077952 78.078442 
L 309.606946 82.84004 
L 309.665723 82.827226 
L 309.900832 82.267579 
L 309.959609 82.42216 
L 310.018386 82.305582 
L 310.488603 79.621197 
L 310.54738 79.718622 
L 310.841266 81.284107 
L 310.900043 81.218556 
L 311.017597 81.033405 
L 311.487814 74.649545 
L 311.840477 68.060916 
L 312.075585 64.81725 
L 312.369471 60.254208 
L 312.722134 59.595755 
L 312.780911 59.74796 
L 312.839688 59.698793 
L 313.251128 56.937995 
L 313.309905 57.209814 
L 313.368682 57.43289 
L 313.427459 57.235099 
L 313.662568 55.323495 
L 313.721345 55.396596 
L 313.780122 55.080743 
L 313.838899 55.190798 
L 313.897676 55.336745 
L 314.132785 54.537725 
L 314.544225 55.94135 
L 314.603002 55.785975 
L 314.83811 57.064621 
L 315.190773 55.677335 
L 315.308327 55.876337 
L 315.367104 55.491293 
L 315.425882 55.711946 
L 315.896099 53.517879 
L 316.189984 51.769346 
L 316.307538 51.780964 
L 316.366316 51.969212 
L 316.425093 51.945597 
L 316.836533 49.747937 
L 316.954087 50.395431 
L 317.012864 50.165271 
L 317.247972 50.541345 
L 317.600635 52.143652 
L 317.659412 52.229231 
L 317.835744 53.586004 
L 317.894521 53.596084 
L 318.305961 54.670928 
L 318.423515 54.41592 
L 318.541069 54.537563 
L 318.776178 55.962252 
L 318.893732 57.259784 
L 318.952509 57.230557 
L 319.305172 58.19172 
L 319.481503 58.853538 
L 319.599058 59.465823 
L 319.657835 59.425965 
L 319.775389 58.519795 
L 320.128052 55.069619 
L 320.657046 58.329943 
L 321.479926 68.321146 
L 322.067697 74.618378 
L 322.126474 74.876016 
L 322.479137 78.3476 
L 322.537914 78.469727 
L 322.655468 77.956725 
L 322.714245 78.036701 
L 322.949354 77.268149 
L 323.184462 75.643626 
L 323.243239 75.464232 
L 323.419571 76.823351 
L 324.301228 68.574131 
L 325.182884 56.295675 
L 325.241662 56.365951 
L 325.88821 51.690718 
L 325.946987 51.896349 
L 326.005764 51.728852 
L 326.123318 51.753682 
L 326.358427 52.91908 
L 326.417204 52.614047 
L 326.475981 52.7426 
L 326.828644 55.770644 
L 327.004975 56.34421 
L 327.181307 55.977373 
L 327.240084 56.015466 
L 327.416415 56.456123 
L 327.475192 56.483325 
L 327.53397 56.301514 
L 327.710301 56.659311 
L 327.827855 56.661685 
L 327.945409 57.455798 
L 328.533181 61.536556 
L 328.591958 61.522015 
L 328.650735 61.642472 
L 328.827066 63.320772 
L 328.885843 63.271969 
L 329.062175 63.985162 
L 329.532392 60.826042 
L 329.649946 60.588732 
L 329.708723 60.680429 
L 329.885055 61.327774 
L 329.943832 60.875089 
L 330.002609 60.91399 
L 330.17894 61.307164 
L 330.237717 61.144365 
L 330.472826 61.594113 
L 330.531603 61.400115 
L 330.766711 63.211796 
L 330.825489 63.17942 
L 330.884266 63.408382 
L 331.060597 62.510577 
L 331.119374 62.793784 
L 331.178151 62.581745 
L 331.236928 62.235428 
L 331.295706 62.371708 
L 331.354483 62.367645 
L 331.648368 60.756018 
L 332.353694 57.857715 
L 332.412471 57.983852 
L 332.471248 57.937141 
L 332.530025 57.760097 
L 332.706357 58.40862 
L 332.882688 59.58999 
L 332.941465 59.508811 
L 333.059019 59.075195 
L 333.235351 58.550403 
L 333.294128 58.638135 
L 333.411682 58.750633 
L 333.529236 58.437837 
L 333.881899 58.915741 
L 333.940676 58.8688 
L 334.05823 58.841382 
L 334.352116 61.208975 
L 334.646002 62.805511 
L 334.704779 62.891818 
L 335.410104 68.915599 
L 335.70399 71.788526 
L 335.939098 73.34218 
L 335.997876 73.226234 
L 336.056653 72.910405 
L 336.11543 73.129509 
L 336.174207 73.407133 
L 336.232984 72.914715 
L 336.291761 73.050623 
L 336.350538 72.990546 
L 336.468093 73.10167 
L 336.820755 70.147239 
L 336.879533 70.458216 
L 337.290972 73.95542 
L 337.761189 78.679557 
L 337.996298 80.515358 
L 338.172629 80.064396 
L 338.466515 77.288736 
L 338.995509 74.321851 
L 339.054286 74.342922 
L 339.289395 75.823728 
L 339.524503 77.686793 
L 339.58328 77.620278 
L 339.700835 78.026901 
L 340.347383 81.603066 
L 340.464937 81.380939 
L 340.700046 80.399056 
L 340.758823 80.473537 
L 341.346594 76.06504 
L 341.64048 73.780152 
L 341.699257 74.029489 
L 341.758034 73.873544 
L 341.934365 73.016645 
L 342.228251 73.707166 
L 342.404582 73.141732 
L 343.168685 77.53942 
L 343.521348 81.397602 
L 343.580125 81.963246 
L 343.638902 81.767613 
L 343.87401 79.67504 
L 343.932788 79.911374 
L 343.991565 80.216825 
L 344.050342 80.183489 
L 344.167896 79.434794 
L 344.226673 79.575271 
L 344.69689 73.893549 
L 344.873222 72.34143 
L 344.931999 72.363694 
L 345.10833 71.441592 
L 345.284662 70.94873 
L 345.637324 73.900814 
L 345.696101 73.851076 
L 346.048764 72.915353 
L 346.460204 65.29027 
L 346.989198 55.016191 
L 347.283084 52.752046 
L 347.341861 52.486053 
L 347.576969 53.869442 
L 347.635747 53.825387 
L 347.694524 54.005113 
L 347.753301 53.834202 
L 347.870855 54.191012 
L 348.105964 52.562733 
L 348.164741 52.667983 
L 348.223518 52.797524 
L 348.399849 51.758581 
L 348.458626 52.057602 
L 348.517403 51.913693 
L 348.752512 50.826704 
L 348.870066 49.81331 
L 348.928843 49.965235 
L 349.163952 49.426358 
L 349.281506 49.970268 
L 349.39906 49.393757 
L 349.634169 48.322891 
L 349.8105 47.740806 
L 349.869277 47.848088 
L 350.104386 48.801323 
L 350.22194 48.14507 
L 350.280717 48.153571 
L 350.515826 48.830992 
L 350.809711 50.398092 
L 351.103597 52.178972 
L 351.338705 53.624893 
L 351.691368 54.465762 
L 351.926477 57.016402 
L 352.161585 58.904099 
L 352.337917 60.499532 
L 352.573025 64.429235 
L 353.102019 74.210701 
L 353.572236 78.617779 
L 353.68979 79.122813 
L 353.924899 81.235298 
L 354.160007 82.516065 
L 354.277562 82.035274 
L 354.865333 84.918276 
L 354.92411 84.498134 
L 354.982887 84.616165 
L 355.100442 85.146417 
L 355.217996 84.765809 
L 355.276773 84.835175 
L 355.33555 85.004463 
L 355.453104 85.686055 
L 355.864544 81.857082 
L 356.040876 80.903912 
L 356.452315 78.138506 
L 356.511093 78.271389 
L 356.56987 78.098049 
L 357.392749 89.70326 
L 357.510304 89.613991 
L 357.686635 91.106634 
L 357.745412 91.971132 
L 357.804189 91.619583 
L 357.980521 91.933577 
L 358.156852 91.338191 
L 358.215629 91.612442 
L 358.274406 91.493986 
L 358.333183 91.440917 
L 358.568292 90.403663 
L 358.744623 92.01636 
L 358.8034 91.787229 
L 359.391172 96.996166 
L 359.508726 97.943571 
L 359.567503 98.354285 
L 359.62628 98.238329 
L 359.685057 98.181268 
L 359.743834 98.570582 
L 359.802612 98.440496 
L 359.861389 98.335604 
L 359.978943 98.857884 
L 360.272829 96.252096 
L 360.44916 95.415914 
L 360.8606 92.756312 
L 361.213263 84.07176 
L 361.507148 77.46067 
L 362.036142 69.226853 
L 362.094919 69.36793 
L 362.271251 70.49884 
L 362.506359 72.179145 
L 362.682691 72.555789 
L 362.741468 72.508705 
L 362.859022 73.107009 
L 362.917799 73.726971 
L 362.976576 73.716194 
L 363.035353 73.667296 
L 363.152908 73.279522 
L 363.270462 73.963869 
L 363.446793 73.286085 
L 363.505571 73.471838 
L 363.91701 79.715618 
L 364.32845 85.075121 
L 364.387227 85.101131 
L 364.798667 91.19832 
L 364.857444 91.146534 
L 364.916222 91.264214 
L 365.092553 92.301389 
L 365.268884 92.048362 
L 365.445216 91.109748 
L 365.621547 89.418462 
L 365.97421 83.957998 
L 366.38565 77.750405 
L 366.620758 76.999606 
L 367.326084 81.735284 
L 367.502415 83.326564 
L 367.561192 83.186709 
L 367.796301 83.699653 
L 368.031409 82.683668 
L 368.090186 82.784765 
L 368.148963 83.056161 
L 368.207741 82.86473 
L 368.266518 82.8026 
L 368.501626 84.160463 
L 369.03062 90.451282 
L 369.500837 100.855865 
L 370.206163 106.928469 
L 370.26494 106.781229 
L 370.500048 105.371018 
L 370.558826 105.591001 
L 370.617603 105.35426 
L 370.67638 105.535789 
L 370.735157 105.680719 
L 370.793934 105.444073 
L 370.852711 105.874143 
L 370.911488 105.706504 
L 370.970265 105.343109 
L 371.029043 105.725738 
L 371.08782 105.479486 
L 371.322928 105.847966 
L 371.440482 105.417614 
L 371.49926 105.572203 
L 371.675591 104.97774 
L 371.734368 104.980545 
L 371.851922 104.446027 
L 372.263362 101.651474 
L 372.616025 98.428024 
L 372.909911 97.160512 
L 372.968688 97.399605 
L 373.027465 97.245374 
L 373.321351 96.96228 
L 373.438905 97.289665 
L 373.615236 98.227695 
L 373.73279 98.292885 
L 373.967899 98.937585 
L 374.379339 96.689661 
L 374.438116 96.84694 
L 374.673224 96.049879 
L 374.908333 98.038477 
L 375.143441 100.187695 
L 375.731213 104.831326 
L 376.083875 101.897215 
L 376.260207 99.564507 
L 376.318984 99.858015 
L 376.377761 99.539001 
L 376.436538 99.655822 
L 376.495315 99.677446 
L 376.789201 101.107606 
L 376.906755 101.964415 
L 377.200641 104.396919 
L 377.553304 106.04054 
L 377.729635 104.646202 
L 377.788412 104.659098 
L 378.023521 102.832505 
L 378.082298 102.402465 
L 378.141075 102.702566 
L 378.199852 102.652387 
L 378.317406 103.531195 
L 378.376183 103.334324 
L 378.43496 103.132784 
L 378.611292 101.770261 
L 378.8464 100.205719 
L 379.199063 96.807152 
L 379.728057 87.250915 
L 379.786834 87.050607 
L 380.139497 83.86699 
L 380.198274 83.68897 
L 380.374606 81.837093 
L 380.433383 81.846199 
L 380.550937 81.074333 
L 381.197485 86.135376 
L 381.667702 87.558504 
L 381.902811 89.047885 
L 382.079142 88.560522 
L 382.843245 96.052559 
L 382.960799 95.975257 
L 383.019576 96.113892 
L 383.195908 95.552797 
L 383.254685 96.235225 
L 383.313462 95.875083 
L 383.54857 94.66833 
L 383.901233 91.473719 
L 384.077565 90.423373 
L 384.195119 89.848729 
L 384.253896 89.954889 
L 384.312673 89.821948 
L 385.253107 80.402375 
L 385.311884 80.182379 
L 385.488216 78.689532 
L 385.546993 78.778697 
L 385.60577 78.583543 
L 385.664547 78.757797 
L 385.840878 79.425143 
L 386.252318 81.902002 
L 386.487427 84.007263 
L 386.663758 85.037962 
L 386.781312 85.56598 
L 387.016421 85.023064 
L 387.075198 84.835313 
L 387.133975 84.87734 
L 387.545415 87.391771 
L 387.604192 87.412285 
L 387.898078 89.431025 
L 388.368295 96.162262 
L 388.427072 96.08342 
L 389.191174 101.704287 
L 389.720169 106.97636 
L 389.778946 107.186711 
L 390.072831 111.483062 
L 390.190386 111.535558 
L 390.425494 113.006798 
L 390.601826 112.747358 
L 390.660603 112.851428 
L 390.836934 113.7372 
L 390.954488 113.733313 
L 391.248374 112.297691 
L 391.365928 112.74795 
L 391.601037 111.241065 
L 391.894922 112.352544 
L 391.953699 112.262671 
L 392.071254 111.609272 
L 392.130031 111.857502 
L 392.188808 111.773371 
L 392.247585 111.806345 
L 392.423916 110.936635 
L 392.541471 110.452157 
L 392.600248 110.667287 
L 392.659025 110.570167 
L 392.717802 110.630794 
L 392.776579 110.571425 
L 393.423128 106.400991 
L 393.77579 108.045375 
L 394.18723 109.38164 
L 394.481116 112.305986 
L 394.59867 112.560578 
L 395.597881 107.120867 
L 395.774213 105.82043 
L 395.950544 105.737612 
L 396.009321 105.963741 
L 396.126875 105.514158 
L 396.185652 105.542369 
L 396.24443 105.534271 
L 396.420761 104.552214 
L 396.538315 104.925712 
L 396.597092 104.7977 
L 396.714647 104.25052 
L 397.184864 97.045087 
L 397.596303 91.834287 
L 397.890189 87.618133 
L 397.948966 87.641934 
L 398.47796 83.711397 
L 398.713069 81.709434 
L 399.183286 78.788704 
L 399.242063 78.898868 
L 399.418394 79.219072 
L 399.477172 79.114766 
L 399.771057 78.561944 
L 399.829834 78.812939 
L 399.888611 78.511873 
L 399.947389 78.802181 
L 400.006166 78.746816 
L 400.064943 78.793052 
L 400.182497 79.275581 
L 400.417606 78.980483 
L 400.593937 79.762976 
L 401.064154 82.069144 
L 401.299262 81.008604 
L 401.35804 81.050163 
L 401.416817 80.957632 
L 402.004588 84.915299 
L 402.474805 94.723145 
L 402.945022 104.818222 
L 403.121353 106.318934 
L 403.297685 106.867765 
L 403.532793 106.503065 
L 403.709125 105.211071 
L 404.532004 96.859326 
L 405.119776 92.855725 
L 405.296107 92.527018 
L 406.06021 84.900485 
L 406.530427 81.119836 
L 406.589204 81.245921 
L 406.647981 81.510877 
L 406.883089 80.420346 
L 407.294529 82.127218 
L 407.412083 82.047451 
L 407.588415 81.042832 
L 407.999855 77.768149 
L 408.234963 76.942648 
L 408.470072 75.173809 
L 408.528849 75.323759 
L 408.763957 76.002938 
L 408.822735 76.094614 
L 408.881512 76.020395 
L 409.057843 77.219637 
L 409.234174 77.470434 
L 409.410506 76.618132 
L 409.645614 77.189795 
L 409.704391 77.274209 
L 409.821946 76.920914 
L 410.057054 78.20567 
L 410.233386 77.285144 
L 410.468494 77.194823 
L 410.703603 78.055193 
L 410.76238 78.100439 
L 410.997488 79.321606 
L 411.17382 79.77728 
L 411.526482 82.483804 
L 411.761591 83.792331 
L 411.879145 84.177754 
L 412.055476 83.476888 
L 412.702025 78.147846 
L 412.819579 77.092677 
L 412.878356 77.115795 
L 413.054688 76.537964 
L 413.113465 76.714343 
L 413.231019 76.802519 
L 413.289796 76.650852 
L 413.348573 76.781812 
L 413.466127 77.087753 
L 413.701236 78.398277 
L 413.81879 78.433253 
L 413.877567 78.268938 
L 413.936344 78.475927 
L 414.23023 76.925002 
L 414.289007 76.808981 
L 414.465339 76.325733 
L 414.700447 75.384348 
L 415.640881 79.006888 
L 415.758435 78.947151 
L 415.87599 79.423726 
L 416.052321 80.208775 
L 416.111098 80.158691 
L 416.463761 78.896732 
L 416.698869 79.217936 
L 416.757647 78.876114 
L 416.816424 78.920056 
L 416.875201 79.194591 
L 416.933978 79.15214 
L 417.286641 77.481415 
L 417.345418 77.784519 
L 417.874412 80.440254 
L 418.227075 85.686497 
L 418.344629 86.302893 
L 418.403406 86.275039 
L 418.756069 87.48833 
L 418.814846 87.414606 
L 418.873623 87.526551 
L 418.9324 87.351906 
L 419.34384 83.210332 
L 419.402617 83.286298 
L 419.461394 83.149725 
L 419.578949 83.485852 
L 419.637726 83.381608 
L 419.872834 82.668665 
L 420.284274 80.743884 
L 420.519383 79.304887 
L 420.636937 79.797089 
L 420.813268 79.117481 
L 420.872045 79.086424 
L 421.048377 78.657057 
L 421.165931 79.098923 
L 421.401039 80.08114 
L 421.694925 81.022023 
L 421.753702 81.002282 
L 421.812479 80.860414 
L 422.047588 81.833505 
L 422.223919 82.033938 
L 422.400251 80.910097 
L 422.459028 80.918686 
L 422.81169 78.589483 
L 423.105576 76.465568 
L 423.399462 75.561181 
L 423.458239 75.784542 
L 423.693347 77.389991 
L 423.987233 82.550273 
L 424.339896 85.5369 
L 424.692558 88.592476 
L 424.751336 88.48781 
L 424.86889 88.871161 
L 424.986444 88.544341 
L 425.162775 90.615759 
L 425.456661 93.762247 
L 425.809324 96.414828 
L 426.10321 101.028483 
L 426.220764 101.631774 
L 426.279541 101.258091 
L 426.455872 102.881491 
L 426.749758 106.508984 
L 426.984866 108.895291 
L 427.043644 108.873748 
L 427.219975 109.500239 
L 427.278752 109.219576 
L 427.337529 109.408927 
L 427.396306 109.277526 
L 427.455083 109.902056 
L 427.513861 109.797677 
L 427.690192 109.340051 
L 427.866523 107.910762 
L 427.9253 108.016894 
L 427.984078 107.550454 
L 428.042855 107.640575 
L 428.101632 107.581933 
L 428.395517 106.049061 
L 428.571849 106.391217 
L 428.689403 105.764047 
L 428.865734 106.523705 
L 428.924512 106.46284 
L 429.042066 106.57903 
L 429.218397 106.076559 
L 429.277174 106.31586 
L 429.335951 106.36373 
L 429.453506 106.957489 
L 429.629837 108.030323 
L 429.688614 108.100552 
L 429.747391 108.048785 
L 429.864946 107.772172 
L 430.041277 108.465203 
L 430.276385 109.695061 
L 430.335163 109.637713 
L 430.511494 109.960646 
L 430.570271 110.083568 
L 430.629048 109.631908 
L 430.687825 109.704213 
L 430.746602 109.816097 
L 430.922934 111.246248 
L 431.040488 111.194992 
L 431.099265 110.674203 
L 431.158042 110.892019 
L 431.216819 110.953635 
L 431.863368 114.964964 
L 432.039699 114.283841 
L 432.098476 114.061226 
L 432.274808 114.67558 
L 432.392362 113.906047 
L 432.745025 110.268077 
L 432.921356 109.109401 
L 433.097687 108.019645 
L 433.332796 109.845912 
L 433.391573 109.902275 
L 433.45035 110.573705 
L 433.509127 110.286794 
L 433.685459 110.850147 
L 433.744236 110.860553 
L 433.803013 110.985366 
L 433.86179 110.874487 
L 433.920567 110.889531 
L 433.979344 110.437204 
L 434.038121 110.584555 
L 434.096899 110.412044 
L 434.155676 110.814626 
L 434.214453 110.547117 
L 434.27323 110.7927 
L 434.625893 107.096044 
L 435.09611 108.752932 
L 435.272441 109.808391 
L 435.331218 109.707042 
L 435.625104 110.634303 
L 435.742658 110.798531 
L 435.860212 111.245695 
L 435.91899 111.163654 
L 436.095321 111.012814 
L 436.271652 112.1059 
L 436.330429 111.870225 
L 436.389207 111.984161 
L 436.565538 112.720289 
L 436.741869 112.523539 
L 436.859424 112.745976 
L 437.094532 112.040265 
L 437.153309 112.081369 
L 437.270863 112.557074 
L 437.329641 112.434902 
L 437.564749 111.862656 
L 437.799858 110.450549 
L 437.858635 110.642446 
L 438.034966 109.640236 
L 438.093743 109.888494 
L 438.328852 110.600324 
L 438.446406 110.854017 
L 438.505183 110.807931 
L 438.56396 110.527841 
L 438.622737 110.730145 
L 438.857846 111.868655 
L 439.328063 114.003592 
L 439.504394 113.331445 
L 439.563171 113.626271 
L 439.680726 113.599947 
L 439.739503 113.834386 
L 440.20972 111.021537 
L 440.679937 109.601741 
L 440.915045 107.972841 
L 440.973822 108.104132 
L 441.150154 107.445129 
L 441.326485 107.872036 
L 441.444039 107.649897 
L 441.561594 107.209418 
L 441.973033 111.081659 
L 442.208142 111.846324 
L 442.325696 112.318298 
L 442.384473 112.042796 
L 442.44325 112.24121 
L 442.737136 114.73639 
L 442.795913 114.619272 
L 443.148576 112.438832 
L 443.383685 113.433433 
L 443.618793 115.524879 
L 443.67757 115.466039 
L 443.736347 115.319204 
L 444.147787 118.53602 
L 444.206564 118.551815 
L 444.382896 119.503042 
L 445.146998 115.33352 
L 445.440884 113.696722 
L 445.499661 113.654535 
L 445.558438 113.226194 
L 445.617215 113.400222 
L 445.73477 113.612214 
L 445.911101 114.553381 
L 445.969878 114.425837 
L 446.381318 116.140255 
L 446.440095 116.075603 
L 446.557649 116.498003 
L 446.733981 117.703228 
L 446.910312 118.653616 
L 446.969089 118.224468 
L 447.027866 118.365042 
L 447.145421 118.233064 
L 447.321752 118.602235 
L 447.498083 119.479109 
L 447.674415 120.179501 
L 447.791969 119.425912 
L 447.9683 118.16163 
L 448.144632 117.60548 
L 448.203409 117.746555 
L 448.320963 118.294821 
L 448.497294 117.16442 
L 448.556072 117.287748 
L 448.908734 116.237604 
L 449.378951 119.574832 
L 449.496506 119.115185 
L 449.555283 119.44179 
L 449.672837 119.56454 
L 449.731614 119.299674 
L 449.790391 119.512451 
L 449.849168 119.498767 
L 449.907945 119.616553 
L 450.084277 121.428217 
L 450.143054 121.415523 
L 450.319385 121.277391 
L 450.378162 121.505238 
L 450.43694 121.3228 
L 450.554494 120.576508 
L 450.907157 122.106196 
L 451.142265 121.36883 
L 451.201042 121.358415 
L 451.377374 121.637334 
L 451.553705 121.414255 
L 451.671259 121.641133 
L 451.730036 121.562134 
L 451.906368 120.874849 
L 451.965145 120.960112 
L 452.023922 120.831634 
L 452.141476 121.022141 
L 452.435362 119.668588 
L 452.846802 121.094439 
L 453.140687 122.196193 
L 453.552127 124.476711 
L 453.610904 124.300425 
L 453.669682 124.034503 
L 453.728459 124.099396 
L 453.787236 124.0273 
L 453.846013 123.685957 
L 453.90479 123.976342 
L 454.081121 123.704999 
L 454.139899 123.361725 
L 454.198676 123.714759 
L 454.257453 123.402909 
L 454.375007 122.997511 
L 454.433784 123.141704 
L 454.492561 123.202188 
L 454.551338 122.894457 
L 454.610116 123.097389 
L 454.72767 122.933495 
L 454.786447 123.082585 
L 454.962778 122.870117 
L 455.021555 123.13971 
L 455.080333 122.605233 
L 455.13911 122.695199 
L 455.315441 123.326525 
L 455.374218 122.955042 
L 455.432995 123.13679 
L 455.668104 122.630265 
L 455.844435 123.15605 
L 455.961989 122.869089 
L 456.079544 123.31921 
L 456.138321 123.085252 
L 456.314652 123.507656 
L 456.490984 123.332503 
L 456.843646 124.975774 
L 456.902423 124.947561 
L 457.019978 124.807861 
L 457.313863 125.333615 
L 457.490195 124.709674 
L 457.548972 124.573332 
L 457.607749 124.686667 
L 457.78408 124.983585 
L 457.842857 124.925389 
L 457.960412 124.7211 
L 458.077966 125.115437 
L 458.136743 125.035376 
L 458.548183 121.916085 
L 458.783291 121.484038 
L 459.0184 120.745144 
L 459.077177 120.808119 
L 459.194731 120.592702 
L 459.253508 120.641926 
L 459.547394 122.364454 
L 460.076388 125.984072 
L 460.370274 127.214441 
L 460.429051 127.026127 
L 460.487828 127.100926 
L 460.546605 127.02067 
L 460.605382 126.838476 
L 460.722937 127.356224 
L 460.781714 127.136465 
L 460.840491 127.075856 
L 460.958045 126.367781 
L 461.016822 126.690452 
L 461.134377 127.568723 
L 461.193154 127.424812 
L 461.310708 127.522172 
L 461.545816 126.821919 
L 461.604594 127.230148 
L 461.663371 126.926569 
L 461.722148 126.8977 
L 462.074811 128.279834 
L 462.133588 129.056058 
L 462.192365 129.051249 
L 462.251142 128.814938 
L 462.309919 128.947483 
L 462.427473 129.419443 
L 462.48625 129.21487 
L 462.545028 129.105828 
L 462.603805 129.181721 
L 463.074022 131.38085 
L 463.191576 131.167919 
L 463.250353 131.14988 
L 463.485462 129.585571 
L 463.603016 129.085069 
L 463.661793 129.361062 
L 463.896901 129.614299 
L 464.014456 130.001418 
L 464.073233 129.905798 
L 464.190787 129.289574 
L 464.425896 130.203471 
L 464.719781 131.853254 
L 464.778558 131.75204 
L 464.837335 131.477816 
L 465.013667 132.273747 
L 465.131221 131.819012 
L 465.189998 131.330045 
L 465.248775 131.402552 
L 465.36633 131.666573 
L 465.542661 130.677763 
L 465.601438 130.837234 
L 465.660215 130.736774 
L 465.777769 130.181751 
L 465.777769 130.181751 
" clip-path="url(#p84c342dbe5)" style="fill: none; stroke: #1f77b4; stroke-width: 2.25; stroke-linecap: round"/>
   </g>
   <g id="patch_3">
    <path d="M 71.350928 149.1 
L 71.350928 19.44 
" style="fill: none; stroke: #262626; stroke-width: 1.875; stroke-linejoin: miter; stroke-linecap: square"/>
   </g>
   <g id="patch_4">
    <path d="M 484.56 149.1 
L 484.56 19.44 
" style="fill: none; stroke: #262626; stroke-width: 1.875; stroke-linejoin: miter; stroke-linecap: square"/>
   </g>
   <g id="patch_5">
    <path d="M 71.350928 149.1 
L 484.56 149.1 
" style="fill: none; stroke: #262626; stroke-width: 1.875; stroke-linejoin: miter; stroke-linecap: square"/>
   </g>
   <g id="patch_6">
    <path d="M 71.350928 19.44 
L 484.56 19.44 
" style="fill: none; stroke: #262626; stroke-width: 1.875; stroke-linejoin: miter; stroke-linecap: square"/>
   </g>
   <g id="text_9">
    <!-- PLS $X_{eating}$ -->
    <g style="fill: #262626" transform="translate(-31.95134 78.27) scale(0.18 -0.18)">
     <defs>
      <path id="ArialMT-50" d="M 494 0 
L 494 4581 
L 2222 4581 
Q 2678 4581 2919 4538 
Q 3256 4481 3484 4323 
Q 3713 4166 3852 3881 
Q 3991 3597 3991 3256 
Q 3991 2672 3619 2267 
Q 3247 1863 2275 1863 
L 1100 1863 
L 1100 0 
L 494 0 
z
M 1100 2403 
L 2284 2403 
Q 2872 2403 3119 2622 
Q 3366 2841 3366 3238 
Q 3366 3525 3220 3729 
Q 3075 3934 2838 4000 
Q 2684 4041 2272 4041 
L 1100 4041 
L 1100 2403 
z
" transform="scale(0.015625)"/>
      <path id="ArialMT-4c" d="M 469 0 
L 469 4581 
L 1075 4581 
L 1075 541 
L 3331 541 
L 3331 0 
L 469 0 
z
" transform="scale(0.015625)"/>
      <path id="ArialMT-53" d="M 288 1472 
L 859 1522 
Q 900 1178 1048 958 
Q 1197 738 1509 602 
Q 1822 466 2213 466 
Q 2559 466 2825 569 
Q 3091 672 3220 851 
Q 3350 1031 3350 1244 
Q 3350 1459 3225 1620 
Q 3100 1781 2813 1891 
Q 2628 1963 1997 2114 
Q 1366 2266 1113 2400 
Q 784 2572 623 2826 
Q 463 3081 463 3397 
Q 463 3744 659 4045 
Q 856 4347 1234 4503 
Q 1613 4659 2075 4659 
Q 2584 4659 2973 4495 
Q 3363 4331 3572 4012 
Q 3781 3694 3797 3291 
L 3216 3247 
Q 3169 3681 2898 3903 
Q 2628 4125 2100 4125 
Q 1550 4125 1298 3923 
Q 1047 3722 1047 3438 
Q 1047 3191 1225 3031 
Q 1400 2872 2139 2705 
Q 2878 2538 3153 2413 
Q 3553 2228 3743 1945 
Q 3934 1663 3934 1294 
Q 3934 928 3725 604 
Q 3516 281 3123 101 
Q 2731 -78 2241 -78 
Q 1619 -78 1198 103 
Q 778 284 539 648 
Q 300 1013 288 1472 
z
" transform="scale(0.015625)"/>
      <path id="ArialMT-20" transform="scale(0.015625)"/>
      <path id="DejaVuSans-Oblique-58" d="M 878 4666 
L 1516 4666 
L 2316 2981 
L 3763 4666 
L 4500 4666 
L 2578 2438 
L 3738 0 
L 3103 0 
L 2163 1966 
L 459 0 
L -275 0 
L 1906 2509 
L 878 4666 
z
" transform="scale(0.015625)"/>
      <path id="DejaVuSans-Oblique-65" d="M 3078 2063 
Q 3088 2113 3092 2166 
Q 3097 2219 3097 2272 
Q 3097 2653 2873 2875 
Q 2650 3097 2266 3097 
Q 1838 3097 1509 2826 
Q 1181 2556 1013 2059 
L 3078 2063 
z
M 3578 1613 
L 903 1613 
Q 884 1494 878 1425 
Q 872 1356 872 1306 
Q 872 872 1139 634 
Q 1406 397 1894 397 
Q 2269 397 2603 481 
Q 2938 566 3225 728 
L 3116 159 
Q 2806 34 2476 -28 
Q 2147 -91 1806 -91 
Q 1078 -91 686 257 
Q 294 606 294 1247 
Q 294 1794 489 2264 
Q 684 2734 1063 3103 
Q 1306 3334 1642 3459 
Q 1978 3584 2356 3584 
Q 2950 3584 3301 3228 
Q 3653 2872 3653 2272 
Q 3653 2128 3634 1964 
Q 3616 1800 3578 1613 
z
" transform="scale(0.015625)"/>
      <path id="DejaVuSans-Oblique-61" d="M 3438 1997 
L 3047 0 
L 2472 0 
L 2578 531 
Q 2325 219 2001 64 
Q 1678 -91 1281 -91 
Q 834 -91 548 182 
Q 263 456 263 884 
Q 263 1497 752 1853 
Q 1241 2209 2100 2209 
L 2900 2209 
L 2931 2363 
Q 2938 2388 2941 2417 
Q 2944 2447 2944 2509 
Q 2944 2788 2717 2942 
Q 2491 3097 2081 3097 
Q 1800 3097 1504 3025 
Q 1209 2953 897 2809 
L 997 3341 
Q 1322 3463 1633 3523 
Q 1944 3584 2234 3584 
Q 2853 3584 3176 3315 
Q 3500 3047 3500 2534 
Q 3500 2431 3484 2292 
Q 3469 2153 3438 1997 
z
M 2816 1759 
L 2241 1759 
Q 1534 1759 1195 1570 
Q 856 1381 856 984 
Q 856 709 1029 553 
Q 1203 397 1509 397 
Q 1978 397 2328 733 
Q 2678 1069 2791 1631 
L 2816 1759 
z
" transform="scale(0.015625)"/>
      <path id="DejaVuSans-Oblique-74" d="M 2706 3500 
L 2619 3053 
L 1472 3053 
L 1100 1153 
Q 1081 1047 1072 975 
Q 1063 903 1063 863 
Q 1063 663 1183 572 
Q 1303 481 1569 481 
L 2150 481 
L 2053 0 
L 1503 0 
Q 991 0 739 200 
Q 488 400 488 806 
Q 488 878 497 964 
Q 506 1050 525 1153 
L 897 3053 
L 409 3053 
L 500 3500 
L 978 3500 
L 1172 4494 
L 1747 4494 
L 1556 3500 
L 2706 3500 
z
" transform="scale(0.015625)"/>
      <path id="DejaVuSans-Oblique-69" d="M 1172 4863 
L 1747 4863 
L 1606 4134 
L 1031 4134 
L 1172 4863 
z
M 909 3500 
L 1484 3500 
L 800 0 
L 225 0 
L 909 3500 
z
" transform="scale(0.015625)"/>
      <path id="DejaVuSans-Oblique-6e" d="M 3566 2113 
L 3156 0 
L 2578 0 
L 2988 2091 
Q 3016 2238 3031 2350 
Q 3047 2463 3047 2528 
Q 3047 2791 2881 2937 
Q 2716 3084 2419 3084 
Q 1956 3084 1622 2776 
Q 1288 2469 1184 1941 
L 800 0 
L 225 0 
L 903 3500 
L 1478 3500 
L 1363 2950 
Q 1603 3253 1940 3418 
Q 2278 3584 2650 3584 
Q 3113 3584 3367 3334 
Q 3622 3084 3622 2631 
Q 3622 2519 3608 2391 
Q 3594 2263 3566 2113 
z
" transform="scale(0.015625)"/>
      <path id="DejaVuSans-Oblique-67" d="M 3816 3500 
L 3219 434 
Q 3047 -456 2561 -893 
Q 2075 -1331 1253 -1331 
Q 950 -1331 690 -1286 
Q 431 -1241 206 -1147 
L 313 -588 
Q 525 -725 762 -790 
Q 1000 -856 1269 -856 
Q 1816 -856 2167 -557 
Q 2519 -259 2631 300 
L 2681 563 
Q 2441 288 2122 144 
Q 1803 0 1434 0 
Q 903 0 598 351 
Q 294 703 294 1319 
Q 294 1803 478 2267 
Q 663 2731 997 3091 
Q 1219 3328 1514 3456 
Q 1809 3584 2131 3584 
Q 2484 3584 2746 3420 
Q 3009 3256 3138 2956 
L 3238 3500 
L 3816 3500 
z
M 2950 2216 
Q 2950 2641 2750 2872 
Q 2550 3103 2181 3103 
Q 1953 3103 1747 3012 
Q 1541 2922 1394 2759 
Q 1156 2491 1023 2127 
Q 891 1763 891 1375 
Q 891 944 1092 712 
Q 1294 481 1672 481 
Q 2219 481 2584 976 
Q 2950 1472 2950 2216 
z
" transform="scale(0.015625)"/>
     </defs>
     <use xlink:href="#ArialMT-50" transform="translate(0 0.09375)"/>
     <use xlink:href="#ArialMT-4c" transform="translate(66.699219 0.09375)"/>
     <use xlink:href="#ArialMT-53" transform="translate(122.314453 0.09375)"/>
     <use xlink:href="#ArialMT-20" transform="translate(189.013672 0.09375)"/>
     <use xlink:href="#DejaVuSans-Oblique-58" transform="translate(216.796875 0.09375)"/>
     <use xlink:href="#DejaVuSans-Oblique-65" transform="translate(285.302734 -16.3125) scale(0.7)"/>
     <use xlink:href="#DejaVuSans-Oblique-61" transform="translate(328.369141 -16.3125) scale(0.7)"/>
     <use xlink:href="#DejaVuSans-Oblique-74" transform="translate(371.264648 -16.3125) scale(0.7)"/>
     <use xlink:href="#DejaVuSans-Oblique-69" transform="translate(398.710938 -16.3125) scale(0.7)"/>
     <use xlink:href="#DejaVuSans-Oblique-6e" transform="translate(418.15918 -16.3125) scale(0.7)"/>
     <use xlink:href="#DejaVuSans-Oblique-67" transform="translate(462.524414 -16.3125) scale(0.7)"/>
    </g>
   </g>
  </g>
 </g>
 <defs>
  <clipPath id="p84c342dbe5">
   <rect x="71.350928" y="19.44" width="413.209072" height="129.66"/>
  </clipPath>
 </defs>
</svg>
