<?xml version="1.0" encoding="utf-8" standalone="no"?>
<!DOCTYPE svg PUBLIC "-//W3C//DTD SVG 1.1//EN"
  "http://www.w3.org/Graphics/SVG/1.1/DTD/svg11.dtd">
<svg xmlns:xlink="http://www.w3.org/1999/xlink" width="504pt" height="216pt" viewBox="0 0 504 216" xmlns="http://www.w3.org/2000/svg" version="1.1">
 <metadata>
  <rdf:RDF xmlns:dc="http://purl.org/dc/elements/1.1/" xmlns:cc="http://creativecommons.org/ns#" xmlns:rdf="http://www.w3.org/1999/02/22-rdf-syntax-ns#">
   <cc:Work>
    <dc:type rdf:resource="http://purl.org/dc/dcmitype/StillImage"/>
    <dc:date>2023-12-03T20:11:26.642207</dc:date>
    <dc:format>image/svg+xml</dc:format>
    <dc:creator>
     <cc:Agent>
      <dc:title>Matplotlib v3.8.0, https://matplotlib.org/</dc:title>
     </cc:Agent>
    </dc:creator>
   </cc:Work>
  </rdf:RDF>
 </metadata>
 <defs>
  <style type="text/css">*{stroke-linejoin: round; stroke-linecap: butt}</style>
 </defs>
 <g id="figure_1">
  <g id="patch_1">
   <path d="M 0 216 
L 504 216 
L 504 0 
L 0 0 
z
" style="fill: #ffffff"/>
  </g>
  <g id="axes_1">
   <g id="patch_2">
    <path d="M 71.350928 149.1 
L 484.56 149.1 
L 484.56 19.44 
L 71.350928 19.44 
z
" style="fill: #ffffff"/>
   </g>
   <g id="matplotlib.axis_1">
    <g id="xtick_1">
     <g id="text_1">
      <!-- 0 -->
      <g style="fill: #262626" transform="translate(85.545385 173.410391) scale(0.165 -0.165)">
       <defs>
        <path id="ArialMT-30" d="M 266 2259 
Q 266 3072 433 3567 
Q 600 4063 929 4331 
Q 1259 4600 1759 4600 
Q 2128 4600 2406 4451 
Q 2684 4303 2865 4023 
Q 3047 3744 3150 3342 
Q 3253 2941 3253 2259 
Q 3253 1453 3087 958 
Q 2922 463 2592 192 
Q 2263 -78 1759 -78 
Q 1097 -78 719 397 
Q 266 969 266 2259 
z
M 844 2259 
Q 844 1131 1108 757 
Q 1372 384 1759 384 
Q 2147 384 2411 759 
Q 2675 1134 2675 2259 
Q 2675 3391 2411 3762 
Q 2147 4134 1753 4134 
Q 1366 4134 1134 3806 
Q 844 3388 844 2259 
z
" transform="scale(0.015625)"/>
       </defs>
       <use xlink:href="#ArialMT-30"/>
      </g>
     </g>
    </g>
    <g id="xtick_2">
     <g id="text_2">
      <!-- 2000 -->
      <g style="fill: #262626" transform="translate(163.942175 173.410391) scale(0.165 -0.165)">
       <defs>
        <path id="ArialMT-32" d="M 3222 541 
L 3222 0 
L 194 0 
Q 188 203 259 391 
Q 375 700 629 1000 
Q 884 1300 1366 1694 
Q 2113 2306 2375 2664 
Q 2638 3022 2638 3341 
Q 2638 3675 2398 3904 
Q 2159 4134 1775 4134 
Q 1369 4134 1125 3890 
Q 881 3647 878 3216 
L 300 3275 
Q 359 3922 746 4261 
Q 1134 4600 1788 4600 
Q 2447 4600 2831 4234 
Q 3216 3869 3216 3328 
Q 3216 3053 3103 2787 
Q 2991 2522 2730 2228 
Q 2469 1934 1863 1422 
Q 1356 997 1212 845 
Q 1069 694 975 541 
L 3222 541 
z
" transform="scale(0.015625)"/>
       </defs>
       <use xlink:href="#ArialMT-32"/>
       <use xlink:href="#ArialMT-30" x="55.615234"/>
       <use xlink:href="#ArialMT-30" x="111.230469"/>
       <use xlink:href="#ArialMT-30" x="166.845703"/>
      </g>
     </g>
    </g>
    <g id="xtick_3">
     <g id="text_3">
      <!-- 4000 -->
      <g style="fill: #262626" transform="translate(256.102286 173.410391) scale(0.165 -0.165)">
       <defs>
        <path id="ArialMT-34" d="M 2069 0 
L 2069 1097 
L 81 1097 
L 81 1613 
L 2172 4581 
L 2631 4581 
L 2631 1613 
L 3250 1613 
L 3250 1097 
L 2631 1097 
L 2631 0 
L 2069 0 
z
M 2069 1613 
L 2069 3678 
L 634 1613 
L 2069 1613 
z
" transform="scale(0.015625)"/>
       </defs>
       <use xlink:href="#ArialMT-34"/>
       <use xlink:href="#ArialMT-30" x="55.615234"/>
       <use xlink:href="#ArialMT-30" x="111.230469"/>
       <use xlink:href="#ArialMT-30" x="166.845703"/>
      </g>
     </g>
    </g>
    <g id="xtick_4">
     <g id="text_4">
      <!-- 6000 -->
      <g style="fill: #262626" transform="translate(348.262397 173.410391) scale(0.165 -0.165)">
       <defs>
        <path id="ArialMT-36" d="M 3184 3459 
L 2625 3416 
Q 2550 3747 2413 3897 
Q 2184 4138 1850 4138 
Q 1581 4138 1378 3988 
Q 1113 3794 959 3422 
Q 806 3050 800 2363 
Q 1003 2672 1297 2822 
Q 1591 2972 1913 2972 
Q 2475 2972 2870 2558 
Q 3266 2144 3266 1488 
Q 3266 1056 3080 686 
Q 2894 316 2569 119 
Q 2244 -78 1831 -78 
Q 1128 -78 684 439 
Q 241 956 241 2144 
Q 241 3472 731 4075 
Q 1159 4600 1884 4600 
Q 2425 4600 2770 4297 
Q 3116 3994 3184 3459 
z
M 888 1484 
Q 888 1194 1011 928 
Q 1134 663 1356 523 
Q 1578 384 1822 384 
Q 2178 384 2434 671 
Q 2691 959 2691 1453 
Q 2691 1928 2437 2201 
Q 2184 2475 1800 2475 
Q 1419 2475 1153 2201 
Q 888 1928 888 1484 
z
" transform="scale(0.015625)"/>
       </defs>
       <use xlink:href="#ArialMT-36"/>
       <use xlink:href="#ArialMT-30" x="55.615234"/>
       <use xlink:href="#ArialMT-30" x="111.230469"/>
       <use xlink:href="#ArialMT-30" x="166.845703"/>
      </g>
     </g>
    </g>
    <g id="xtick_5">
     <g id="text_5">
      <!-- 8000 -->
      <g style="fill: #262626" transform="translate(440.422507 173.410391) scale(0.165 -0.165)">
       <defs>
        <path id="ArialMT-38" d="M 1131 2484 
Q 781 2613 612 2850 
Q 444 3088 444 3419 
Q 444 3919 803 4259 
Q 1163 4600 1759 4600 
Q 2359 4600 2725 4251 
Q 3091 3903 3091 3403 
Q 3091 3084 2923 2848 
Q 2756 2613 2416 2484 
Q 2838 2347 3058 2040 
Q 3278 1734 3278 1309 
Q 3278 722 2862 322 
Q 2447 -78 1769 -78 
Q 1091 -78 675 323 
Q 259 725 259 1325 
Q 259 1772 486 2073 
Q 713 2375 1131 2484 
z
M 1019 3438 
Q 1019 3113 1228 2906 
Q 1438 2700 1772 2700 
Q 2097 2700 2305 2904 
Q 2513 3109 2513 3406 
Q 2513 3716 2298 3927 
Q 2084 4138 1766 4138 
Q 1444 4138 1231 3931 
Q 1019 3725 1019 3438 
z
M 838 1322 
Q 838 1081 952 856 
Q 1066 631 1291 507 
Q 1516 384 1775 384 
Q 2178 384 2440 643 
Q 2703 903 2703 1303 
Q 2703 1709 2433 1975 
Q 2163 2241 1756 2241 
Q 1359 2241 1098 1978 
Q 838 1716 838 1322 
z
" transform="scale(0.015625)"/>
       </defs>
       <use xlink:href="#ArialMT-38"/>
       <use xlink:href="#ArialMT-30" x="55.615234"/>
       <use xlink:href="#ArialMT-30" x="111.230469"/>
       <use xlink:href="#ArialMT-30" x="166.845703"/>
      </g>
     </g>
    </g>
    <g id="text_6">
     <!-- Index -->
     <g style="fill: #262626" transform="translate(255.94062 193.573828) scale(0.18 -0.18)">
      <defs>
       <path id="ArialMT-49" d="M 597 0 
L 597 4581 
L 1203 4581 
L 1203 0 
L 597 0 
z
" transform="scale(0.015625)"/>
       <path id="ArialMT-6e" d="M 422 0 
L 422 3319 
L 928 3319 
L 928 2847 
Q 1294 3394 1984 3394 
Q 2284 3394 2536 3286 
Q 2788 3178 2913 3003 
Q 3038 2828 3088 2588 
Q 3119 2431 3119 2041 
L 3119 0 
L 2556 0 
L 2556 2019 
Q 2556 2363 2490 2533 
Q 2425 2703 2258 2804 
Q 2091 2906 1866 2906 
Q 1506 2906 1245 2678 
Q 984 2450 984 1813 
L 984 0 
L 422 0 
z
" transform="scale(0.015625)"/>
       <path id="ArialMT-64" d="M 2575 0 
L 2575 419 
Q 2259 -75 1647 -75 
Q 1250 -75 917 144 
Q 584 363 401 755 
Q 219 1147 219 1656 
Q 219 2153 384 2558 
Q 550 2963 881 3178 
Q 1213 3394 1622 3394 
Q 1922 3394 2156 3267 
Q 2391 3141 2538 2938 
L 2538 4581 
L 3097 4581 
L 3097 0 
L 2575 0 
z
M 797 1656 
Q 797 1019 1065 703 
Q 1334 388 1700 388 
Q 2069 388 2326 689 
Q 2584 991 2584 1609 
Q 2584 2291 2321 2609 
Q 2059 2928 1675 2928 
Q 1300 2928 1048 2622 
Q 797 2316 797 1656 
z
" transform="scale(0.015625)"/>
       <path id="ArialMT-65" d="M 2694 1069 
L 3275 997 
Q 3138 488 2766 206 
Q 2394 -75 1816 -75 
Q 1088 -75 661 373 
Q 234 822 234 1631 
Q 234 2469 665 2931 
Q 1097 3394 1784 3394 
Q 2450 3394 2872 2941 
Q 3294 2488 3294 1666 
Q 3294 1616 3291 1516 
L 816 1516 
Q 847 969 1125 678 
Q 1403 388 1819 388 
Q 2128 388 2347 550 
Q 2566 713 2694 1069 
z
M 847 1978 
L 2700 1978 
Q 2663 2397 2488 2606 
Q 2219 2931 1791 2931 
Q 1403 2931 1139 2672 
Q 875 2413 847 1978 
z
" transform="scale(0.015625)"/>
       <path id="ArialMT-78" d="M 47 0 
L 1259 1725 
L 138 3319 
L 841 3319 
L 1350 2541 
Q 1494 2319 1581 2169 
Q 1719 2375 1834 2534 
L 2394 3319 
L 3066 3319 
L 1919 1756 
L 3153 0 
L 2463 0 
L 1781 1031 
L 1600 1309 
L 728 0 
L 47 0 
z
" transform="scale(0.015625)"/>
      </defs>
      <use xlink:href="#ArialMT-49"/>
      <use xlink:href="#ArialMT-6e" x="27.783203"/>
      <use xlink:href="#ArialMT-64" x="83.398438"/>
      <use xlink:href="#ArialMT-65" x="139.013672"/>
      <use xlink:href="#ArialMT-78" x="194.628906"/>
     </g>
    </g>
   </g>
   <g id="matplotlib.axis_2"/>
   <g id="line2d_1">
    <path d="M 90.133158 140.205726 
L 90.179238 140.276031 
L 90.225318 140.07437 
L 90.271398 140.257651 
L 90.455719 140.370869 
L 90.547879 140.333883 
L 90.686119 140.087242 
L 90.732199 140.206692 
L 90.870439 140.149233 
L 90.916519 140.226417 
L 91.51556 138.649851 
L 91.56164 138.620496 
L 91.60772 138.735844 
L 91.6538 138.693453 
L 91.93028 137.553668 
L 92.068521 138.053007 
L 92.114601 138.012767 
L 92.206761 137.746739 
L 92.252841 137.809753 
L 92.298921 137.792598 
L 92.667561 139.358401 
L 93.174442 142.212633 
L 93.497002 143.206364 
L 93.635242 143.0639 
L 93.773483 142.978045 
L 93.819563 143.025674 
L 94.096043 141.706497 
L 94.188203 141.838137 
L 94.234283 141.904046 
L 94.464683 140.978095 
L 94.649004 140.60835 
L 95.017644 141.354676 
L 95.201964 140.736394 
L 95.294124 141.011954 
L 95.340205 140.858402 
L 95.386285 140.823024 
L 95.524525 141.464073 
L 95.570605 141.321285 
L 95.801005 140.63403 
L 96.215726 141.489025 
L 96.307886 141.543932 
L 96.584366 140.773561 
L 96.630446 140.789797 
L 96.906926 139.474792 
L 97.137327 138.024552 
L 97.183407 138.243153 
L 97.229487 138.126184 
L 97.275567 138.220503 
L 97.505967 138.300789 
L 98.058928 140.21197 
L 98.151088 139.986268 
L 98.335408 139.867997 
L 98.427568 139.461662 
L 98.473648 139.542516 
L 98.519728 139.541461 
L 99.118769 136.425346 
L 99.210929 136.009705 
L 99.257009 136.056956 
L 99.441329 135.673348 
L 99.62565 136.89892 
L 99.67173 136.837378 
L 99.80997 136.707163 
L 100.13253 137.891658 
L 100.17861 137.947117 
L 100.409011 138.828598 
L 100.455091 138.58931 
L 100.501171 138.813053 
L 100.547251 138.733631 
L 100.731571 139.896178 
L 100.777651 139.847838 
L 100.823731 139.858414 
L 101.008051 140.252552 
L 101.054131 140.283303 
L 101.100211 140.611464 
L 101.146292 140.44584 
L 101.330612 140.101469 
L 101.376692 140.578875 
L 101.468852 140.427852 
L 101.653172 139.411654 
L 101.745332 139.32273 
L 102.252213 137.664266 
L 102.390453 136.951198 
L 102.436533 137.109055 
L 102.482613 136.952661 
L 102.574773 136.870801 
L 102.759093 136.295631 
L 102.805174 136.421423 
L 102.851254 136.291816 
L 103.081654 135.792962 
L 103.358134 135.354326 
L 103.404214 135.255801 
L 103.542454 135.584418 
L 103.588534 135.53497 
L 103.957175 134.148827 
L 104.003255 134.098038 
L 104.187575 133.672046 
L 104.464056 132.609454 
L 104.510136 132.685903 
L 104.924856 134.088702 
L 105.155256 135.775553 
L 105.477817 137.375357 
L 105.569977 137.284886 
L 105.754297 137.826131 
L 105.800377 137.87441 
L 106.122937 136.708873 
L 106.261178 136.742745 
L 106.537658 135.248079 
L 106.675898 134.496191 
L 106.952378 133.059528 
L 107.090619 132.651677 
L 107.228859 131.851662 
L 107.274939 132.144734 
L 107.367099 132.378541 
L 107.413179 132.268209 
L 107.459259 132.160541 
L 107.735739 133.552442 
L 107.8279 133.479318 
L 107.92006 133.521844 
L 108.15046 134.735985 
L 108.19654 134.584319 
L 108.24262 134.381044 
L 108.2887 134.402281 
L 108.5191 135.000776 
L 108.56518 134.914726 
L 108.657341 134.883566 
L 108.841661 135.429439 
L 108.887741 135.425439 
L 109.118141 136.244842 
L 109.532862 137.890261 
L 109.855422 138.547092 
L 109.901502 138.402768 
L 109.947582 138.379669 
L 109.993662 138.212534 
L 110.039742 138.382021 
L 110.085822 138.404199 
L 110.177982 137.963858 
L 110.224062 137.996191 
L 110.316223 137.979524 
L 110.638783 138.61718 
L 110.777023 138.399189 
L 111.283904 140.439757 
L 111.329984 140.389221 
L 111.468224 140.425932 
L 111.606464 140.379593 
L 111.652544 140.323654 
L 111.698624 140.523676 
L 111.744704 140.448706 
L 111.790784 140.24914 
L 111.836864 140.377723 
L 111.882944 140.460323 
L 111.929024 140.365127 
L 111.975105 140.356944 
L 112.159425 139.551539 
L 112.251585 139.701291 
L 112.574145 139.555846 
L 113.633987 135.148767 
L 113.726147 135.234506 
L 113.910467 135.770456 
L 114.233027 137.658767 
L 114.325187 137.630731 
L 114.417347 137.78926 
L 114.463428 138.049443 
L 114.509508 137.684001 
L 114.924228 136.322768 
L 115.246788 134.414825 
L 115.292869 134.439667 
L 115.338949 134.344766 
L 115.385029 134.177234 
L 115.431109 134.378774 
L 115.569349 134.345296 
L 115.753669 134.953449 
L 115.799749 134.878854 
L 116.16839 136.288991 
L 116.21447 136.22042 
L 116.26055 136.20618 
L 117.274311 133.192375 
L 117.458631 133.429207 
L 117.504711 133.255064 
L 117.550791 133.474572 
L 117.596871 133.456932 
L 117.642951 133.308912 
L 118.057672 135.50464 
L 118.334152 136.596816 
L 118.380232 136.496352 
L 118.426312 136.451144 
L 118.748873 134.703444 
L 119.071433 133.732188 
L 119.117513 133.731484 
L 119.255753 133.00379 
L 119.301833 133.034956 
L 120.499915 135.295301 
L 120.822475 133.87218 
L 121.006795 133.411088 
L 121.052875 133.545669 
L 121.237196 133.69938 
L 121.329356 133.660249 
L 121.744076 134.96888 
L 122.020557 134.640916 
L 122.112717 134.868942 
L 122.158797 134.791126 
L 122.343117 134.430817 
L 122.389197 134.512932 
L 122.527437 134.366717 
L 122.711757 134.671399 
L 122.849998 135.613058 
L 123.034318 135.120995 
L 123.264718 135.985223 
L 123.356878 135.886696 
L 123.541198 135.648838 
L 123.633359 135.777199 
L 123.771599 135.3098 
L 123.817679 135.327171 
L 124.140239 133.98935 
L 124.186319 134.048383 
L 124.232399 134.251619 
L 124.278479 133.998485 
L 124.324559 133.981217 
L 124.6932 132.753128 
L 124.73928 132.83874 
L 124.96968 132.592131 
L 125.01576 132.667283 
L 125.24616 131.999425 
L 125.292241 132.017935 
L 125.430481 131.853095 
L 125.522641 131.980573 
L 125.568721 131.996916 
L 126.075601 135.04762 
L 126.398162 136.357217 
L 126.444242 136.198361 
L 126.490322 136.280769 
L 126.628562 136.461401 
L 126.674642 136.419536 
L 127.043283 135.648114 
L 127.227603 135.354374 
L 127.319763 135.108728 
L 127.365843 135.268027 
L 127.411923 135.176763 
L 127.550163 134.945409 
L 127.596243 135.004532 
L 127.872724 133.618355 
L 128.010964 133.376501 
L 128.333524 134.05137 
L 128.379604 133.959685 
L 128.425684 133.812763 
L 128.748245 135.918428 
L 128.978645 136.287874 
L 129.209045 136.827129 
L 130.038486 140.705102 
L 130.130646 140.530673 
L 130.176726 140.644983 
L 130.314967 140.945008 
L 130.407127 140.724283 
L 130.453207 140.824784 
L 130.545367 140.302439 
L 130.683607 139.522142 
L 130.729687 139.649393 
L 130.775767 139.461603 
L 130.821847 139.495575 
L 130.960087 139.912814 
L 131.006167 139.864915 
L 131.052247 140.020385 
L 131.098327 139.883123 
L 131.144408 139.601223 
L 131.190488 139.69259 
L 131.282648 140.017483 
L 131.466968 139.519226 
L 131.513048 139.545326 
L 131.881688 138.303426 
L 131.927768 138.351575 
L 132.204249 137.426066 
L 132.250329 137.756223 
L 132.296409 137.621732 
L 132.434649 137.651684 
L 132.480729 137.696962 
L 132.89545 136.148419 
L 132.94153 135.77726 
L 133.03369 135.909119 
L 133.17193 135.731951 
L 133.35625 135.236649 
L 133.40233 135.287981 
L 133.632731 135.932058 
L 133.678811 135.668931 
L 133.724891 135.85345 
L 134.001371 136.665243 
L 134.139611 136.488297 
L 134.323931 136.857382 
L 134.416091 136.804145 
L 134.508252 136.744384 
L 134.738652 137.363152 
L 134.830812 137.100425 
L 134.876892 137.230436 
L 134.969052 137.105868 
L 135.337693 135.951609 
L 135.475933 136.123106 
L 135.522013 135.824285 
L 135.614173 135.919752 
L 135.660253 135.792202 
L 135.706333 135.916684 
L 135.844573 136.041082 
L 135.890653 136.000443 
L 135.982813 135.944973 
L 136.121054 136.647911 
L 136.259294 137.525839 
L 136.305374 137.349836 
L 136.351454 137.268455 
L 136.397534 136.952843 
L 136.489694 137.071851 
L 136.766174 136.24307 
L 136.812254 136.267586 
L 136.858334 136.424773 
L 136.904414 136.284417 
L 137.088735 135.100641 
L 137.134815 135.106693 
L 137.319135 135.43226 
L 137.549535 134.963016 
L 137.595615 134.889039 
L 137.687775 135.380497 
L 137.733855 135.329116 
L 137.779936 135.053953 
L 137.826016 135.274438 
L 138.010336 135.77715 
L 138.194656 135.406059 
L 138.517216 136.879383 
L 138.563296 136.691923 
L 138.609377 136.56681 
L 139.116257 138.332965 
L 140.176098 134.821622 
L 140.268259 135.125983 
L 140.314339 134.878139 
L 140.360419 134.915176 
L 140.498659 135.008118 
L 140.544739 134.919072 
L 140.590819 135.020857 
L 140.682979 135.157978 
L 140.729059 135.136448 
L 140.821219 135.153518 
L 140.867299 135.418822 
L 140.913379 135.302028 
L 141.14378 134.401808 
L 141.23594 133.827675 
L 141.28202 134.02518 
L 141.37418 133.638057 
L 141.42026 133.762698 
L 141.51242 133.909995 
L 141.5585 133.804377 
L 141.83498 134.119056 
L 142.019301 135.238563 
L 142.065381 135.279514 
L 142.295781 136.802221 
L 142.387941 136.922022 
L 142.572261 136.514258 
L 142.756581 136.909598 
L 142.802662 136.862376 
L 142.848742 136.8111 
L 143.447782 139.713506 
L 143.493862 139.685834 
L 143.586022 140.175988 
L 143.632103 140.068974 
L 143.862503 140.528882 
L 143.908583 140.458008 
L 144.323303 138.943932 
L 144.415463 138.526295 
L 144.553704 137.968829 
L 144.645864 137.90198 
L 144.738024 138.385445 
L 144.784104 138.148503 
L 144.830184 138.078201 
L 144.876264 138.497563 
L 144.922344 138.417991 
L 144.968424 138.290346 
L 145.383145 140.415346 
L 145.429225 140.181956 
L 145.475305 140.34826 
L 145.659625 140.808229 
L 145.751785 141.193031 
L 145.797865 140.979462 
L 145.843945 140.958211 
L 145.890025 141.095901 
L 146.074345 140.618121 
L 146.166506 140.714457 
L 146.212586 140.502058 
L 146.304746 140.545608 
L 146.396906 140.941418 
L 146.442986 140.787629 
L 146.719466 139.899772 
L 146.857706 140.125113 
L 147.088107 138.90333 
L 147.180267 139.160348 
L 147.226347 139.124377 
L 147.318507 138.840862 
L 147.364587 138.945731 
L 147.456747 138.932765 
L 147.594987 138.806003 
L 147.641067 138.876556 
L 147.917548 139.626683 
L 147.963628 139.662119 
L 148.240108 140.539042 
L 148.470508 139.771735 
L 148.746989 139.832259 
L 149.023469 139.917585 
L 149.115629 139.294908 
L 149.161709 139.363848 
L 149.43819 140.544364 
L 149.53035 140.435152 
L 149.57643 140.295819 
L 149.62251 140.346901 
L 149.80683 140.824601 
L 149.85291 140.69206 
L 149.99115 140.735841 
L 150.03723 140.793598 
L 151.050991 135.92243 
L 151.097072 136.166198 
L 151.143152 136.250061 
L 151.465712 134.258868 
L 151.603952 134.297616 
L 151.742192 134.660325 
L 151.788272 134.508651 
L 151.834352 134.698382 
L 151.880432 134.56755 
L 151.926513 134.646076 
L 152.064753 134.461492 
L 152.202993 134.854233 
L 152.295153 134.634813 
L 152.387313 134.992185 
L 152.433393 134.855819 
L 152.709873 133.891026 
L 152.940274 133.062317 
L 153.032434 133.167667 
L 153.216754 133.865581 
L 153.262834 133.786438 
L 153.308914 133.72028 
L 153.354994 133.793429 
L 153.401074 133.875598 
L 153.447154 133.762577 
L 153.539314 133.797832 
L 153.861875 134.432119 
L 154.368755 132.353376 
L 154.414835 132.417439 
L 154.460916 132.31478 
L 154.599156 132.215906 
L 154.783476 131.72781 
L 154.829556 131.732616 
L 155.013876 132.327948 
L 155.059956 132.129395 
L 155.106036 132.301149 
L 155.290357 133.070477 
L 155.336437 132.983305 
L 155.612917 132.773439 
L 155.705077 132.716473 
L 155.751157 132.907328 
L 155.843317 132.690782 
L 155.889397 132.906892 
L 156.165878 133.027053 
L 156.304118 132.523672 
L 156.350198 132.514345 
L 156.442358 132.150315 
L 156.534518 132.223489 
L 157.133559 134.361242 
L 157.363959 135.718857 
L 157.410039 135.578063 
L 157.502199 135.643313 
L 157.594359 135.98577 
L 157.640439 135.81057 
L 157.732599 135.785196 
L 158.28556 133.88978 
L 158.33164 134.10906 
L 158.37772 133.899942 
L 159.161081 130.51399 
L 159.345401 130.75857 
L 159.621882 131.364465 
L 159.852282 132.635866 
L 159.898362 132.431639 
L 160.405243 131.055498 
L 160.451323 131.013092 
L 160.589563 130.686686 
L 160.681723 130.807427 
L 160.727803 130.528735 
L 160.773883 130.795711 
L 160.866043 130.873811 
L 161.188604 132.17592 
L 161.234684 132.141266 
L 161.326844 132.133178 
L 161.372924 131.936371 
L 161.511164 132.440389 
L 161.557244 132.437773 
L 161.695484 132.609771 
L 161.741564 132.547453 
L 161.925885 132.040805 
L 162.110205 131.751082 
L 162.340605 131.799556 
L 162.432765 131.216387 
L 162.524925 130.603518 
L 162.571005 130.861645 
L 162.617085 130.833221 
L 162.893566 131.294599 
L 163.031806 130.50172 
L 163.400446 119.541131 
L 164.322047 83.051297 
L 164.460288 81.560646 
L 165.427969 64.575974 
L 165.796609 57.406174 
L 166.57997 49.468521 
L 166.71821 48.82613 
L 166.90253 47.537973 
L 167.132931 45.351741 
L 167.271171 44.441324 
L 167.870212 40.974425 
L 167.916292 41.190856 
L 167.962372 41.173143 
L 168.331012 40.247387 
L 168.423172 40.294537 
L 168.607493 40.999378 
L 168.653573 40.798231 
L 168.883973 40.238058 
L 168.930053 40.318166 
L 169.022213 40.726893 
L 169.068293 40.629393 
L 169.114373 40.629674 
L 169.759494 38.769045 
L 169.851654 38.908877 
L 169.897734 38.697094 
L 169.943814 38.879361 
L 170.128134 40.640561 
L 171.095816 50.302106 
L 171.234056 49.749459 
L 171.510536 51.452796 
L 171.602696 51.73474 
L 171.648776 51.638403 
L 172.708617 44.569228 
L 172.754698 44.501888 
L 172.846858 44.783947 
L 172.892938 44.504773 
L 172.939018 44.669398 
L 173.031178 45.158769 
L 173.077258 44.965228 
L 173.169418 45.038334 
L 173.215498 44.92974 
L 173.491978 43.02534 
L 173.814539 40.479726 
L 174.137099 39.130855 
L 174.5979 32.736518 
L 174.73614 31.14971 
L 175.19694 25.333636 
L 175.427341 26.024836 
L 175.842061 29.619254 
L 176.118542 33.2844 
L 176.671502 37.136373 
L 176.717582 36.983937 
L 176.994063 35.891306 
L 177.362703 37.406568 
L 177.408783 37.134473 
L 177.454863 37.032695 
L 177.593103 36.125083 
L 177.915664 38.35533 
L 177.961744 38.303673 
L 178.837265 42.38332 
L 179.159825 44.768642 
L 179.251985 45.516679 
L 179.344145 45.328626 
L 179.390225 45.32052 
L 179.482386 45.487122 
L 179.528466 45.364367 
L 179.851026 44.289593 
L 179.989266 43.810702 
L 180.035346 43.835934 
L 180.081426 43.822743 
L 180.542227 45.882753 
L 180.726547 46.676335 
L 180.956947 47.825947 
L 181.279508 45.150479 
L 181.509908 43.488745 
L 181.602068 43.819578 
L 181.694228 43.614991 
L 181.832468 43.152182 
L 181.878548 43.119185 
L 182.108949 44.374796 
L 182.661909 49.308226 
L 182.707989 49.264814 
L 183.30703 53.274128 
L 183.53743 52.856753 
L 183.813911 54.794898 
L 183.859991 54.750141 
L 184.136471 54.032934 
L 184.228631 54.209128 
L 184.412952 54.893314 
L 184.459032 55.154387 
L 184.505112 55.090517 
L 184.551192 54.992225 
L 184.597272 55.110647 
L 184.735512 55.156071 
L 185.104152 56.78893 
L 185.150232 56.747501 
L 185.242393 56.941036 
L 185.288473 56.868931 
L 185.611033 54.833544 
L 185.657113 54.862011 
L 185.887513 55.566294 
L 185.933593 55.408969 
L 186.117914 54.662341 
L 186.210074 54.470403 
L 186.716954 56.94535 
L 186.855194 56.69678 
L 187.177755 58.331634 
L 187.408155 57.907874 
L 187.500315 58.142974 
L 187.730716 57.507624 
L 187.961116 58.484453 
L 188.007196 58.46219 
L 188.329756 59.632746 
L 188.928797 55.674482 
L 189.251357 54.111748 
L 189.573918 55.868754 
L 190.126878 59.318985 
L 190.357279 59.099743 
L 190.725919 58.258691 
L 191.2328 59.325413 
L 191.50928 61.565798 
L 191.64752 61.985065 
L 191.6936 62.048997 
L 191.73968 61.88494 
L 191.83184 61.93425 
L 192.108321 64.041639 
L 192.292641 64.655177 
L 192.384801 65.185351 
L 192.707361 66.662317 
L 192.753442 66.922395 
L 192.799522 66.886777 
L 192.845602 66.72749 
L 192.937762 66.767696 
L 193.122082 66.108548 
L 193.444642 65.22392 
L 193.628963 65.522041 
L 194.043683 65.000064 
L 194.320163 65.733979 
L 194.366243 65.623875 
L 194.458404 65.365679 
L 194.642724 64.690934 
L 194.780964 65.011821 
L 194.873124 64.667731 
L 194.919204 64.764801 
L 195.103524 65.09085 
L 195.149604 65.022576 
L 195.241765 64.785343 
L 195.472165 65.642533 
L 195.518245 65.421828 
L 195.564325 65.477118 
L 195.656485 65.69624 
L 195.702565 65.541838 
L 196.301606 63.311331 
L 197.223207 68.307214 
L 197.407527 67.677944 
L 197.499687 68.006042 
L 197.545767 68.275238 
L 197.591847 67.984186 
L 197.637927 68.156704 
L 197.822248 68.516264 
L 197.914408 68.638854 
L 198.006568 68.470324 
L 198.329128 69.86182 
L 198.375208 69.633771 
L 198.421288 69.56461 
L 198.467368 69.160452 
L 198.513448 69.33852 
L 198.789929 69.654399 
L 198.836009 69.592349 
L 198.882089 69.684047 
L 198.928169 69.75969 
L 198.974249 69.661282 
L 199.204649 68.718998 
L 199.296809 68.676108 
L 199.38897 68.852488 
L 199.43505 68.722438 
L 199.80369 68.18334 
L 199.94193 68.221675 
L 199.98801 68.00925 
L 200.03409 68.076031 
L 200.356651 68.823715 
L 200.402731 68.883051 
L 200.679211 69.7925 
L 200.817451 70.057037 
L 201.047852 67.631846 
L 201.554732 61.028746 
L 201.785132 59.238178 
L 201.831212 59.354704 
L 201.877292 59.212769 
L 202.015533 59.806666 
L 202.107693 60.177903 
L 202.153773 60.103314 
L 202.199853 60.040158 
L 202.245933 60.094626 
L 202.338093 60.356003 
L 202.614573 58.988073 
L 202.660653 58.867941 
L 202.706733 58.958865 
L 202.937134 59.22275 
L 203.305774 59.570043 
L 203.536174 60.550955 
L 203.858735 62.067893 
L 203.904815 62.044877 
L 204.688176 64.761996 
L 204.872496 65.572428 
L 205.056816 66.251782 
L 205.241137 66.891307 
L 205.333297 66.797393 
L 205.425457 66.655685 
L 205.563697 67.177975 
L 205.748017 66.947811 
L 205.840177 66.899089 
L 205.886257 67.004354 
L 205.978417 67.004815 
L 206.162738 67.597853 
L 206.761778 69.382355 
L 206.807858 69.310314 
L 207.084339 69.573775 
L 207.545139 67.337045 
L 207.591219 67.515101 
L 207.8677 67.862587 
L 207.95986 67.735253 
L 208.00594 67.786844 
L 208.28242 69.704613 
L 208.37458 69.932651 
L 208.51282 69.344228 
L 208.604981 69.564139 
L 208.651061 69.5241 
L 209.019701 68.554587 
L 209.111861 68.195191 
L 209.157941 68.259421 
L 209.204021 68.19882 
L 209.250101 68.288888 
L 209.434422 68.169882 
L 209.664822 66.914214 
L 209.849142 66.851023 
L 209.895222 66.880353 
L 210.033462 66.407791 
L 210.217783 65.488503 
L 210.309943 65.371153 
L 210.356023 65.422727 
L 210.908983 65.525601 
L 211.369784 66.569404 
L 211.692344 67.632878 
L 211.784504 67.493063 
L 211.830584 67.55942 
L 211.876665 67.609524 
L 212.383545 70.105856 
L 212.660025 70.936896 
L 213.074746 73.369562 
L 213.120826 73.128671 
L 213.305146 72.520303 
L 213.351226 72.544135 
L 213.627707 73.120378 
L 213.673787 73.053601 
L 213.719867 72.907612 
L 213.765947 72.967851 
L 213.950267 73.36891 
L 213.996347 73.392609 
L 214.226747 74.807276 
L 214.272827 74.659999 
L 214.318907 74.494042 
L 214.364987 74.604523 
L 214.457148 74.866319 
L 214.687548 76.369225 
L 214.825788 76.649385 
L 214.871868 76.509571 
L 214.917948 76.343979 
L 214.964028 76.437202 
L 215.286589 77.988292 
L 215.332669 77.892602 
L 215.470909 77.50767 
L 215.516989 77.397649 
L 215.563069 77.502365 
L 215.747389 77.835984 
L 216.06995 78.987945 
L 216.11603 79.081765 
L 216.16211 79.008449 
L 216.20819 78.820451 
L 216.25427 79.034917 
L 216.30035 79.447806 
L 216.39251 79.349985 
L 216.62291 78.826572 
L 216.66899 78.499948 
L 216.76115 78.528287 
L 216.80723 78.635947 
L 216.85331 78.491255 
L 217.037631 77.884552 
L 217.083711 77.91772 
L 217.175871 77.932366 
L 217.360191 77.134646 
L 217.590591 76.553628 
L 217.820992 75.460844 
L 217.913152 75.49794 
L 217.959232 75.103668 
L 218.604353 68.991747 
L 218.650433 68.889777 
L 218.926913 66.217393 
L 219.065153 66.172418 
L 219.111233 66.259855 
L 219.157313 66.139903 
L 219.203393 65.88996 
L 219.249473 66.023736 
L 219.433794 66.52583 
L 219.525954 66.352974 
L 219.572034 66.040463 
L 219.664194 66.130623 
L 220.124994 68.151379 
L 220.309315 67.133218 
L 220.539715 65.502626 
L 220.631875 65.093531 
L 220.677955 65.185651 
L 220.816195 65.061048 
L 221.000515 64.212913 
L 221.046596 64.337753 
L 221.276996 65.94227 
L 221.461316 67.519878 
L 221.553476 67.367605 
L 221.783876 66.574711 
L 221.829956 66.426194 
L 221.876037 66.565383 
L 221.922117 66.707175 
L 222.336837 64.359479 
L 222.382917 64.356181 
L 222.659397 65.887505 
L 223.258438 68.005218 
L 223.442758 68.079187 
L 223.534919 67.962081 
L 223.719239 67.058896 
L 223.811399 67.367039 
L 223.857479 67.292684 
L 224.087879 67.08359 
L 224.272199 66.031268 
L 224.36436 66.385291 
L 224.41044 66.176143 
L 224.45652 66.156505 
L 224.733 67.250061 
L 225.239881 69.114427 
L 225.285961 69.138203 
L 225.424201 69.853839 
L 225.470281 69.804599 
L 225.562441 69.750215 
L 225.608521 69.707719 
L 225.838921 70.482007 
L 225.931081 70.688305 
L 226.023241 71.214916 
L 226.115402 71.047832 
L 226.530122 72.708822 
L 226.576202 72.547394 
L 226.622282 72.405644 
L 226.806602 73.018648 
L 226.898763 73.170284 
L 227.037003 73.371051 
L 227.129163 73.133967 
L 227.175243 73.286059 
L 227.221323 73.411815 
L 227.267403 73.307999 
L 227.405643 73.187646 
L 227.451723 73.355768 
L 227.820364 74.383793 
L 227.866444 74.228231 
L 227.912524 74.331332 
L 228.050764 74.722518 
L 228.235084 74.73444 
L 228.373324 74.142335 
L 228.603725 73.074891 
L 228.788045 73.756591 
L 228.834125 74.063333 
L 228.926285 73.99689 
L 228.972365 74.070979 
L 229.018445 74.022426 
L 229.110605 74.064504 
L 229.156685 74.090617 
L 229.387086 75.484835 
L 229.663566 75.406776 
L 230.078286 76.735379 
L 230.262607 76.098812 
L 230.400847 76.027753 
L 230.493007 75.447763 
L 230.953807 71.833054 
L 231.276368 69.249435 
L 231.414608 68.926046 
L 231.552848 69.266683 
L 231.598928 69.444729 
L 231.645008 69.30478 
L 231.783248 68.704679 
L 231.921489 68.789752 
L 231.967569 68.60216 
L 232.013649 68.725707 
L 232.197969 69.044359 
L 232.290129 69.351694 
L 232.336209 69.247592 
L 232.382289 69.341105 
L 232.566609 68.26552 
L 232.612689 68.396116 
L 232.658769 68.469598 
L 233.02741 67.186791 
L 233.07349 67.196582 
L 233.11957 67.385516 
L 233.16565 67.165221 
L 233.30389 66.457329 
L 233.44213 65.753309 
L 233.534291 65.800061 
L 233.949011 66.695523 
L 233.995091 66.81382 
L 234.041171 66.652916 
L 234.179411 66.921017 
L 234.455892 68.570353 
L 234.501972 68.622885 
L 234.548052 68.848808 
L 234.594132 68.708104 
L 234.640212 68.513268 
L 234.686292 68.697826 
L 234.824532 69.014809 
L 234.870612 68.94987 
L 234.962772 68.975856 
L 235.147092 68.432596 
L 235.239253 67.859027 
L 235.285333 68.118215 
L 235.884373 70.26061 
L 235.976533 70.774678 
L 236.483414 74.027839 
L 236.621654 74.6068 
L 236.667734 74.393839 
L 236.713814 74.529402 
L 236.805974 75.012086 
L 236.990295 76.02991 
L 237.082455 76.139363 
L 237.128535 76.093175 
L 237.174615 76.011014 
L 237.220695 76.283103 
L 237.266775 76.166911 
L 237.497175 75.214748 
L 237.543255 75.260788 
L 237.589335 75.329345 
L 237.773656 74.459329 
L 238.004056 72.915924 
L 238.326616 72.012477 
L 238.372696 72.15579 
L 238.879577 73.637875 
L 239.248217 75.624893 
L 239.294297 75.530197 
L 239.524698 76.524179 
L 239.570778 76.286822 
L 239.616858 76.382709 
L 239.801178 76.83246 
L 239.847258 76.832793 
L 240.031578 76.347504 
L 240.169818 76.588548 
L 240.215899 76.944829 
L 240.261979 76.806503 
L 240.400219 76.740396 
L 240.446299 76.832091 
L 240.676699 77.816114 
L 240.768859 77.863793 
L 240.999259 79.104382 
L 241.04534 79.134175 
L 241.18358 78.770102 
L 241.22966 78.873272 
L 241.27574 78.708326 
L 241.3679 78.567477 
L 241.64438 77.482748 
L 241.874781 76.013692 
L 242.059101 74.897447 
L 242.105181 74.835291 
L 242.289501 74.113381 
L 242.473821 74.312389 
L 242.519901 74.415663 
L 242.796382 76.146198 
L 243.487582 80.146109 
L 243.625823 80.156527 
L 243.902303 81.30158 
L 243.994463 81.664926 
L 244.040543 81.555408 
L 244.178783 81.445521 
L 244.317023 81.774162 
L 244.363104 81.762712 
L 244.409184 81.524241 
L 244.455264 81.778635 
L 244.593504 81.679803 
L 244.777824 81.276843 
L 245.008224 80.961332 
L 245.146464 80.126263 
L 245.607265 77.253419 
L 245.791585 76.981748 
L 245.837665 76.917493 
L 245.883745 77.041746 
L 245.929825 77.049151 
L 246.068066 78.26428 
L 246.252386 79.055554 
L 246.344546 79.711666 
L 246.574946 81.607773 
L 246.621026 81.73386 
L 246.667106 81.63828 
L 246.805346 81.57936 
L 246.989667 80.841578 
L 247.035747 81.069507 
L 247.127907 81.039654 
L 247.173987 81.019747 
L 247.266147 80.486711 
L 247.496547 79.203296 
L 247.588707 79.434336 
L 247.634787 79.294481 
L 247.726948 78.759016 
L 247.773028 79.123972 
L 247.819108 79.348075 
L 247.865188 79.27237 
L 248.141668 78.877018 
L 248.279908 78.958564 
L 248.510309 77.206228 
L 248.832869 74.308131 
L 249.109349 71.931825 
L 249.52407 70.623693 
L 249.57015 70.68827 
L 249.89271 71.191784 
L 250.03095 71.149316 
L 250.16919 71.083619 
L 250.537831 73.404724 
L 250.583911 73.316063 
L 250.676071 73.252701 
L 250.860391 72.149578 
L 250.998631 70.066111 
L 251.643752 59.931618 
L 251.689832 59.976265 
L 251.735912 59.880162 
L 251.828072 59.701184 
L 252.104553 61.939593 
L 253.072234 66.964956 
L 253.118314 66.901892 
L 253.164394 66.666309 
L 253.210474 66.982008 
L 253.302634 66.912813 
L 253.533035 65.126836 
L 253.993835 62.337935 
L 254.039915 62.357936 
L 254.224235 62.643027 
L 254.408556 62.99341 
L 255.606637 70.794734 
L 255.652717 70.785115 
L 255.883117 71.023783 
L 256.067438 71.039484 
L 256.159598 71.023857 
L 256.205678 71.191703 
L 256.297838 71.143711 
L 256.482158 70.382153 
L 257.311599 64.691014 
L 257.403759 65.008985 
L 257.449839 64.810338 
L 257.495919 65.004399 
L 257.634159 64.751576 
L 258.0028 62.82168 
L 258.04888 62.989369 
L 258.09496 62.801872 
L 258.18712 62.762485 
L 258.509681 60.913185 
L 258.601841 60.961996 
L 258.740081 60.975284 
L 258.924401 61.519324 
L 259.062641 61.189502 
L 259.154801 61.357301 
L 259.431282 62.833208 
L 259.477362 62.837104 
L 259.846002 64.135123 
L 260.076402 65.590672 
L 260.122482 65.524914 
L 260.168563 65.574596 
L 260.306803 66.392538 
L 260.675443 68.587632 
L 260.721523 68.400063 
L 260.767603 68.473662 
L 260.813683 68.686816 
L 260.905843 68.653852 
L 260.998004 68.419491 
L 261.044084 68.539903 
L 261.090164 68.748736 
L 261.136244 68.722408 
L 261.458804 67.457202 
L 261.643124 67.900658 
L 261.827444 67.111122 
L 261.873525 67.196311 
L 261.919605 67.200257 
L 262.150005 66.78449 
L 262.518645 67.211938 
L 262.564725 67.256893 
L 262.979446 69.286963 
L 263.025526 69.340314 
L 263.071606 69.299989 
L 263.209846 69.240139 
L 263.532407 70.388019 
L 263.578487 70.484585 
L 263.947127 73.020045 
L 264.454008 76.512771 
L 264.638328 76.713656 
L 264.684408 76.617525 
L 264.730488 76.726179 
L 264.822648 77.297669 
L 264.914808 77.847049 
L 264.960888 77.784616 
L 265.053048 77.986005 
L 265.099128 77.85825 
L 265.145208 77.895233 
L 265.421689 76.826529 
L 265.606009 76.512723 
L 265.652089 76.556865 
L 265.698169 76.749935 
L 265.744249 76.695164 
L 265.882489 76.255923 
L 265.928569 76.053566 
L 265.974649 76.106824 
L 266.02073 76.252432 
L 266.06681 76.039585 
L 266.15897 76.056863 
L 266.20505 75.848076 
L 266.25113 76.085308 
L 266.57369 77.758839 
L 266.66585 77.511353 
L 266.71193 77.787201 
L 266.75801 77.631095 
L 266.988411 76.795313 
L 267.633531 71.470156 
L 267.679612 71.644796 
L 268.002172 72.319957 
L 268.048252 72.194784 
L 268.186492 71.874687 
L 268.232572 71.884518 
L 268.370812 72.397497 
L 268.877693 69.475638 
L 269.108093 67.47057 
L 269.338494 63.021116 
L 269.891454 48.617275 
L 270.167935 45.817503 
L 270.352255 46.782545 
L 270.628735 49.916519 
L 271.688576 55.94749 
L 271.918977 57.787812 
L 272.702338 60.513233 
L 272.886658 60.603584 
L 274.176899 66.225911 
L 274.222979 66.189795 
L 274.45338 65.928826 
L 274.54554 66.026075 
L 275.190661 69.373756 
L 275.236741 69.418682 
L 275.374981 70.132376 
L 275.421061 70.010815 
L 275.605381 70.360337 
L 275.835781 69.55621 
L 275.881861 69.781467 
L 275.974021 69.615627 
L 276.204422 70.266623 
L 276.296582 70.220056 
L 276.480902 70.551889 
L 276.895623 71.582433 
L 276.941703 71.473476 
L 276.987783 71.360135 
L 277.033863 71.500457 
L 277.126023 71.614737 
L 277.264263 72.265943 
L 277.310343 72.255635 
L 277.356423 72.059025 
L 277.402503 72.205131 
L 277.540743 72.435707 
L 277.586823 72.740489 
L 277.632903 72.731928 
L 277.725064 72.171708 
L 277.817224 72.2787 
L 278.278024 70.990727 
L 278.554505 69.363146 
L 278.600585 69.307141 
L 278.784905 68.812901 
L 279.015305 69.531377 
L 279.752586 72.883818 
L 279.798666 72.719221 
L 279.844746 72.916338 
L 279.890826 73.013754 
L 280.029066 72.500378 
L 280.075146 72.590444 
L 280.213387 73.019959 
L 280.259467 72.984755 
L 280.582027 71.428416 
L 280.674187 71.094202 
L 280.904587 69.372937 
L 280.950667 69.470317 
L 281.227148 68.250621 
L 281.549708 69.607567 
L 281.687948 70.895411 
L 282.102669 74.344059 
L 282.240909 74.875559 
L 282.609549 78.281468 
L 282.88603 79.130116 
L 282.93211 79.074584 
L 282.97819 79.128219 
L 283.11643 79.651763 
L 283.16251 79.628108 
L 283.34683 78.796386 
L 283.39291 78.835045 
L 283.715471 79.603765 
L 284.314512 83.195876 
L 284.360592 83.201621 
L 284.498832 83.88752 
L 284.590992 83.763297 
L 284.821392 84.266867 
L 285.143953 84.940622 
L 285.742993 83.338857 
L 285.789073 83.478743 
L 285.835153 83.30251 
L 286.065554 82.623662 
L 286.111634 82.726791 
L 286.157714 82.459931 
L 286.249874 82.495149 
L 286.342034 82.269173 
L 286.388114 82.310025 
L 286.480274 82.412066 
L 286.526354 82.339833 
L 287.033235 79.021933 
L 287.079315 79.172793 
L 287.309715 78.372621 
L 287.447955 78.405455 
L 287.678356 79.358283 
L 287.724436 79.319716 
L 287.862676 80.178607 
L 288.185236 82.694726 
L 288.231316 82.726802 
L 288.646037 84.434946 
L 288.830357 84.727245 
L 289.060757 83.312852 
L 289.106837 83.534892 
L 289.152917 83.432276 
L 289.383318 82.954253 
L 289.429398 82.928006 
L 290.350999 78.352665 
L 290.397079 78.26286 
L 290.443159 78.444802 
L 290.489239 78.2787 
L 290.673559 77.711716 
L 290.719639 77.752264 
L 291.0422 79.34214 
L 291.18044 79.57016 
L 291.2726 80.017129 
L 291.503 81.10004 
L 291.7334 81.912007 
L 291.963801 80.845606 
L 292.055961 81.202801 
L 292.102041 81.175818 
L 292.240281 80.816955 
L 292.424601 81.047883 
L 292.562841 81.543552 
L 292.655002 82.006481 
L 292.839322 82.919283 
L 292.931482 82.770103 
L 293.161882 83.568259 
L 293.207962 83.41616 
L 293.254042 83.727946 
L 293.346202 83.644002 
L 293.392282 83.633963 
L 293.484443 84.073839 
L 293.530523 83.831375 
L 293.576603 83.842706 
L 293.991323 85.004899 
L 294.175643 84.585052 
L 294.313884 85.145938 
L 294.359964 84.913601 
L 294.406044 84.89674 
L 294.590364 85.627228 
L 294.682524 85.674112 
L 295.005084 84.934238 
L 295.189405 84.676746 
L 295.327645 85.06023 
L 295.373725 84.949831 
L 295.511965 84.856099 
L 295.696285 84.606592 
L 295.834525 84.876302 
L 295.880605 84.867636 
L 296.018846 85.350387 
L 296.064926 85.33688 
L 296.203166 84.945352 
L 296.249246 84.9847 
L 296.341406 85.311728 
L 296.387486 85.153423 
L 296.433566 85.185879 
L 296.663966 84.801993 
L 296.802207 84.901714 
L 296.848287 84.751707 
L 296.894367 84.877218 
L 297.078687 85.1315 
L 297.170847 85.051889 
L 297.263007 84.393825 
L 297.309087 84.591131 
L 297.401247 85.138811 
L 297.585567 86.061658 
L 297.723808 85.745982 
L 297.769888 85.787842 
L 298.046368 85.29275 
L 298.829729 80.984091 
L 299.152289 80.220155 
L 299.198369 80.431406 
L 299.244449 80.19146 
L 299.290529 80.195164 
L 299.33661 79.892816 
L 299.38269 80.003621 
L 299.47485 80.104522 
L 299.70525 79.59143 
L 299.88957 80.297913 
L 299.93565 80.23709 
L 299.98173 80.186982 
L 300.02781 80.321094 
L 300.07389 80.241949 
L 300.11997 80.202094 
L 300.166051 80.35729 
L 300.212131 80.241346 
L 300.304291 79.712703 
L 300.534691 78.207051 
L 301.087652 74.190255 
L 301.271972 75.267412 
L 301.410212 75.999839 
L 301.594532 76.476988 
L 301.871013 77.842296 
L 301.917093 77.812217 
L 302.285733 75.187665 
L 303.161254 65.478974 
L 303.483815 66.867579 
L 303.575975 67.647532 
L 303.622055 67.439536 
L 303.760295 67.51023 
L 303.852455 67.24285 
L 303.898535 67.425828 
L 304.036775 67.863283 
L 304.082855 67.695163 
L 304.175015 67.656408 
L 304.267175 67.289768 
L 304.405416 67.615166 
L 304.451496 67.447423 
L 304.497576 67.52344 
L 304.820136 68.803092 
L 304.866216 68.772011 
L 305.050536 69.071765 
L 305.096616 69.030172 
L 305.280937 69.731728 
L 305.327017 69.762406 
L 306.525098 76.441694 
L 306.709418 77.853194 
L 306.755498 77.969752 
L 306.801579 77.771646 
L 306.847659 78.035757 
L 306.939819 78.202449 
L 307.031979 77.703682 
L 307.078059 77.825898 
L 307.124139 77.866114 
L 307.584939 74.63475 
L 307.72318 74.845099 
L 308.04574 73.703471 
L 308.09182 73.749055 
L 308.3683 75.218735 
L 308.41438 75.16322 
L 308.460461 75.222465 
L 308.506541 75.255492 
L 308.598701 74.491044 
L 308.644781 74.514809 
L 308.690861 74.444986 
L 308.921261 75.061226 
L 309.428142 72.697171 
L 309.013421 75.140471 
L 309.474222 72.991098 
L 309.520302 73.210916 
L 309.566382 73.05618 
L 309.612462 73.094972 
L 309.658542 72.99485 
L 309.842862 72.198239 
L 309.888942 72.28181 
L 309.981102 71.888301 
L 310.027182 72.118491 
L 310.073262 72.082267 
L 310.119342 71.898315 
L 310.165423 71.988027 
L 310.349743 72.893873 
L 310.395823 72.851624 
L 310.580143 73.506695 
L 311.040944 77.88025 
L 311.317424 79.031613 
L 311.409584 78.7108 
L 311.593904 78.610959 
L 311.824305 77.758202 
L 311.916465 77.062289 
L 311.962545 77.191145 
L 312.331185 78.119885 
L 312.607665 77.507403 
L 312.838066 77.955366 
L 312.884146 77.886071 
L 312.930226 77.86987 
L 313.206706 76.775679 
L 313.437106 77.018567 
L 314.543028 82.521349 
L 314.773428 81.758104 
L 314.819508 81.91984 
L 314.911668 81.872463 
L 315.049908 82.489322 
L 315.142069 82.801429 
L 315.234229 82.712089 
L 315.602869 82.023987 
L 315.695029 82.291193 
L 315.787189 81.916924 
L 315.833269 82.132255 
L 316.01759 82.448344 
L 316.10975 82.631485 
L 316.34015 83.638088 
L 316.75487 87.033654 
L 316.847031 86.527184 
L 316.893111 86.630856 
L 317.077431 86.682457 
L 317.307831 85.911456 
L 317.353911 85.912022 
L 317.676472 83.761933 
L 317.860792 84.463737 
L 317.906872 84.26738 
L 318.045112 84.386917 
L 318.091192 84.238054 
L 318.229432 84.65141 
L 318.275512 84.706175 
L 318.644153 86.484726 
L 318.690233 86.483631 
L 319.012793 87.358008 
L 319.151033 86.828394 
L 319.243193 86.889443 
L 319.289274 86.761694 
L 319.335354 86.930031 
L 319.381434 87.106615 
L 319.427514 87.048027 
L 319.565754 86.287479 
L 319.888314 84.053153 
L 320.164795 82.636108 
L 320.533435 79.844737 
L 320.625595 80.093765 
L 320.763835 80.464793 
L 320.948156 80.084674 
L 321.455036 82.774972 
L 321.915837 84.184375 
L 322.100157 84.825038 
L 322.192317 84.944621 
L 322.422717 85.546397 
L 322.468797 85.355369 
L 322.514877 85.524211 
L 322.560957 85.505677 
L 322.699198 85.909726 
L 322.745278 85.776448 
L 322.791358 85.785838 
L 322.929598 86.261361 
L 322.975678 85.965004 
L 323.067838 86.065151 
L 323.113918 86.070377 
L 323.298238 85.678191 
L 323.344318 85.690508 
L 323.528639 86.023149 
L 323.851199 85.124632 
L 323.943359 85.679945 
L 323.989439 85.553175 
L 324.173759 85.215051 
L 324.219839 85.191524 
L 324.40416 84.642304 
L 324.49632 84.740033 
L 324.81888 85.435316 
L 325.0032 84.587018 
L 325.325761 83.52554 
L 325.832641 79.388604 
L 325.878721 79.391598 
L 325.924801 79.53608 
L 325.970882 79.326891 
L 326.016962 79.169852 
L 326.063042 79.355715 
L 326.109122 79.222115 
L 326.155202 79.179509 
L 326.201282 79.363356 
L 326.247362 79.189693 
L 326.477762 79.081937 
L 326.523842 78.789932 
L 326.569922 79.03338 
L 326.616002 79.146068 
L 326.846403 80.726812 
L 326.892483 80.762908 
L 326.938563 80.949946 
L 327.030723 80.867871 
L 327.353283 82.192564 
L 327.445443 82.804525 
L 327.537603 82.680122 
L 327.629764 82.272037 
L 328.182724 86.447865 
L 328.459205 88.048417 
L 328.827845 89.345805 
L 328.873925 89.272739 
L 329.242565 87.441275 
L 329.380806 87.964497 
L 329.657286 86.147367 
L 329.795526 85.2992 
L 329.841606 85.324066 
L 329.933766 85.288975 
L 329.979846 85.252293 
L 330.118087 84.868747 
L 330.164167 84.838815 
L 330.256327 84.315828 
L 330.302407 84.506531 
L 330.855367 87.179961 
L 331.085768 86.772097 
L 331.131848 86.899042 
L 331.177928 87.363585 
L 331.270088 87.340059 
L 331.500488 86.651091 
L 331.638728 86.753446 
L 332.007369 85.854582 
L 332.145609 84.692027 
L 332.60641 80.89315 
L 332.65249 81.072935 
L 332.97505 78.478215 
L 333.20545 77.147445 
L 333.34369 77.313464 
L 333.43585 77.274167 
L 333.574091 76.9139 
L 333.666251 76.861208 
L 333.850571 77.65925 
L 334.034891 79.19606 
L 334.080971 78.935323 
L 334.173131 78.96356 
L 334.219211 78.980672 
L 334.357452 78.785274 
L 334.403532 78.921823 
L 334.633932 78.095826 
L 334.818252 77.633495 
L 334.956492 77.16348 
L 335.002572 77.268749 
L 335.094732 77.442235 
L 335.140813 77.27146 
L 335.186893 77.52492 
L 335.279053 77.398019 
L 335.325133 77.481044 
L 335.601613 78.324582 
L 335.785933 78.927659 
L 336.062414 80.427148 
L 336.108494 80.412766 
L 336.246734 81.10278 
L 336.292814 81.072259 
L 336.431054 80.869422 
L 336.477134 80.987892 
L 336.523214 80.831097 
L 336.615374 80.963752 
L 336.845775 80.365164 
L 336.891855 80.455134 
L 336.937935 80.327051 
L 337.168335 79.521248 
L 337.214415 79.600649 
L 337.352655 80.320461 
L 337.536975 79.395186 
L 337.767376 78.045797 
L 339.011537 71.418127 
L 339.149777 70.465379 
L 339.195857 70.519476 
L 339.334098 70.067912 
L 339.610578 71.116972 
L 339.656658 70.988576 
L 339.702738 71.145468 
L 339.840978 71.843578 
L 340.071378 74.319549 
L 340.117459 74.381463 
L 340.762579 78.82202 
L 340.900819 78.161067 
L 340.9469 78.228223 
L 341.31554 79.675613 
L 341.4077 79.539944 
L 341.73026 78.178817 
L 341.776341 78.305773 
L 341.914581 78.584765 
L 342.098901 77.893409 
L 342.237141 77.660092 
L 342.744022 78.903383 
L 342.790102 78.910887 
L 342.928342 78.433752 
L 343.066582 78.858678 
L 343.158742 78.743481 
L 343.481303 77.032338 
L 343.757783 77.94432 
L 343.942103 77.501845 
L 343.988183 77.536998 
L 344.126423 77.876285 
L 344.172503 78.271801 
L 344.218583 78.03959 
L 344.402904 77.778262 
L 344.448984 77.795535 
L 344.541144 77.153979 
L 344.725464 75.982922 
L 344.771544 76.071056 
L 344.817624 75.949299 
L 344.909784 75.910887 
L 345.094105 75.008961 
L 345.140185 75.027386 
L 345.186265 75.326958 
L 345.278425 75.254191 
L 345.370585 74.907216 
L 345.462745 74.968551 
L 345.508825 75.054846 
L 345.600985 74.669838 
L 345.647065 74.891204 
L 345.739225 75.106341 
L 345.831385 75.443 
L 345.877465 75.277992 
L 345.923545 75.26121 
L 345.969626 75.064627 
L 346.015706 75.325216 
L 346.430426 74.260956 
L 346.522586 74.549037 
L 346.568666 74.381612 
L 346.752986 73.965711 
L 347.398107 77.561251 
L 347.490267 77.70983 
L 347.536347 77.636036 
L 347.674588 77.563134 
L 347.904988 76.262535 
L 348.227548 74.353146 
L 348.273628 74.324569 
L 348.550109 72.615515 
L 348.596189 72.738938 
L 349.28739 75.78651 
L 349.51779 77.758601 
L 349.56387 77.744378 
L 349.84035 79.112083 
L 349.97859 80.089615 
L 350.116831 80.786087 
L 350.301151 80.533616 
L 350.485471 80.995669 
L 350.531551 80.970005 
L 350.946272 78.564062 
L 351.084512 78.448696 
L 351.222752 78.504709 
L 351.453152 77.490135 
L 351.591392 77.881213 
L 351.637472 77.75201 
L 351.683552 77.938698 
L 351.867873 78.375444 
L 351.913953 78.373394 
L 352.098273 77.630883 
L 352.144353 77.345871 
L 352.190433 77.411141 
L 352.236513 77.551241 
L 352.282593 77.387016 
L 352.420833 77.40188 
L 352.512993 77.064431 
L 352.559073 77.424827 
L 352.605154 77.287544 
L 352.789474 76.78173 
L 352.835554 76.732407 
L 353.112034 77.682367 
L 353.158114 77.553561 
L 353.204194 77.732284 
L 353.342434 77.835943 
L 353.388514 78.070717 
L 353.434595 78.033518 
L 353.618915 77.496276 
L 353.803235 78.484236 
L 353.895395 78.272802 
L 353.941475 78.347143 
L 353.987555 78.129576 
L 354.033635 78.188998 
L 354.125795 78.353671 
L 354.171875 78.269144 
L 354.310116 77.70717 
L 354.356196 77.8326 
L 354.540516 78.21846 
L 354.586596 78.180475 
L 354.909156 76.826571 
L 355.001316 76.441443 
L 355.047396 76.524397 
L 355.093477 76.701253 
L 355.139557 76.512004 
L 355.185637 76.468872 
L 355.830757 71.36828 
L 356.061158 70.276948 
L 356.475878 73.210299 
L 356.568038 73.139217 
L 356.660198 73.233335 
L 357.167079 74.855281 
L 357.213159 74.56684 
L 357.259239 74.646124 
L 357.489639 75.471628 
L 357.67396 75.258564 
L 357.90436 76.313086 
L 357.95044 76.293692 
L 357.99652 76.234702 
L 358.0426 76.272093 
L 358.13476 76.888158 
L 358.273 76.771898 
L 358.457321 77.289117 
L 358.687721 78.032906 
L 358.733801 78.050542 
L 358.918121 77.272647 
L 359.056361 76.267948 
L 359.102441 76.338002 
L 359.148521 76.427247 
L 359.425002 75.563653 
L 359.471082 75.577691 
L 359.701482 74.280954 
L 359.793642 74.502516 
L 360.024042 75.724445 
L 360.392683 77.314924 
L 360.577003 78.510381 
L 360.669163 78.296012 
L 360.807403 77.671971 
L 361.083884 75.963889 
L 361.129964 76.01344 
L 361.222124 75.255817 
L 361.452524 74.305386 
L 362.374125 77.458027 
L 362.512365 77.37518 
L 362.604526 77.899202 
L 362.742766 78.36607 
L 362.788846 78.500458 
L 362.973166 78.037749 
L 363.019246 78.06006 
L 363.065326 77.92947 
L 363.111406 78.115918 
L 363.203566 78.307818 
L 363.572207 76.93516 
L 363.618287 77.037615 
L 363.756527 77.58935 
L 363.894767 78.280626 
L 363.940847 78.241824 
L 364.355568 80.284947 
L 364.678128 82.70868 
L 364.724208 82.470593 
L 364.770288 82.79579 
L 364.816368 82.78732 
L 365.000688 83.707908 
L 365.185009 83.525369 
L 365.277169 84.011956 
L 365.323249 83.966002 
L 365.599729 81.660218 
L 365.737969 82.263073 
L 365.784049 81.95387 
L 365.876209 81.990944 
L 366.38309 79.640489 
L 366.65957 77.78515 
L 366.797811 77.114874 
L 367.074291 76.211416 
L 367.903732 82.783058 
L 367.949812 82.748477 
L 368.088052 83.112456 
L 368.226292 82.958069 
L 368.272372 83.020737 
L 368.318452 82.908245 
L 368.364532 82.908575 
L 368.456693 83.226479 
L 368.502773 83.184104 
L 368.594933 82.895876 
L 368.917493 78.994515 
L 368.963573 78.944093 
L 369.101813 77.775877 
L 369.562614 72.887942 
L 369.654774 73.147924 
L 369.793014 73.447874 
L 369.839094 73.387016 
L 369.931254 73.011848 
L 369.977334 73.199162 
L 370.069494 73.025198 
L 370.622455 75.148473 
L 370.668535 75.168562 
L 370.991096 77.214735 
L 371.037176 77.165511 
L 371.083256 77.226535 
L 371.129336 77.114694 
L 371.221496 76.948431 
L 371.728376 73.905528 
L 371.820537 74.350622 
L 371.912697 73.879008 
L 372.004857 73.972758 
L 372.143097 74.048778 
L 372.235257 74.193492 
L 372.557817 75.773744 
L 372.603898 75.434507 
L 372.649978 75.43382 
L 373.894139 69.217471 
L 373.986299 69.437219 
L 374.124539 69.063428 
L 374.4471 70.761144 
L 375.04614 73.412276 
L 375.230461 72.257962 
L 375.460861 73.839937 
L 375.783421 76.228623 
L 375.829501 76.260395 
L 375.921662 77.13607 
L 376.336382 81.415462 
L 376.520702 82.153548 
L 376.566782 82.072018 
L 376.658942 81.226707 
L 376.705022 81.340992 
L 376.797183 81.817963 
L 376.843263 81.709688 
L 376.981503 81.547863 
L 377.073663 81.357117 
L 377.304063 81.844241 
L 377.350143 81.632578 
L 377.396223 81.88978 
L 377.488383 82.174415 
L 377.672704 83.458348 
L 377.810944 83.531709 
L 378.041344 84.524564 
L 378.133504 84.587818 
L 378.363904 84.79868 
L 378.594305 83.864763 
L 378.732545 84.237878 
L 378.778625 83.99506 
L 378.824705 84.241983 
L 379.009025 83.954918 
L 379.239426 82.73809 
L 379.285506 82.783211 
L 379.423746 83.481351 
L 379.469826 83.46802 
L 379.746306 82.996794 
L 379.884546 83.214424 
L 379.930626 83.217116 
L 380.161027 84.492152 
L 380.253187 84.367613 
L 380.529667 85.08447 
L 380.575747 85.059029 
L 380.621827 85.142933 
L 380.667907 85.144067 
L 380.713987 84.970855 
L 380.760067 85.273015 
L 380.852227 85.218873 
L 380.990468 84.631378 
L 381.082628 84.763734 
L 381.174788 85.123658 
L 381.220868 84.990972 
L 381.405188 85.002284 
L 382.096389 81.868701 
L 382.188549 81.920283 
L 382.280709 82.256806 
L 382.326789 82.145226 
L 382.418949 82.038709 
L 382.64935 81.550846 
L 382.78759 82.399643 
L 382.83367 82.190233 
L 382.87975 82.199212 
L 383.29447 80.914283 
L 383.34055 80.680861 
L 383.38663 80.739525 
L 383.432711 80.806038 
L 383.709191 79.382349 
L 383.755271 79.369742 
L 384.031751 76.935971 
L 384.262152 77.76491 
L 384.308232 77.619962 
L 384.446472 77.40302 
L 384.538632 77.675524 
L 384.676872 78.444892 
L 384.953352 81.465568 
L 385.091593 81.334626 
L 385.229833 82.347014 
L 385.460233 83.653758 
L 385.506313 83.698686 
L 385.598473 83.20707 
L 385.782793 82.304685 
L 385.828873 82.39939 
L 385.874953 82.265981 
L 386.013194 81.842085 
L 386.197514 80.849223 
L 386.243594 80.946508 
L 386.289674 80.908152 
L 386.658314 82.421263 
L 386.796555 83.096895 
L 386.934795 83.901722 
L 387.165195 85.668332 
L 387.257355 85.531859 
L 387.303435 85.624143 
L 387.579916 86.222986 
L 387.810316 86.77216 
L 388.501517 84.151036 
L 388.547597 84.146761 
L 388.870157 82.395086 
L 389.192717 81.610559 
L 389.330958 81.72736 
L 389.377038 81.620898 
L 389.607438 81.845469 
L 389.745678 82.578129 
L 389.976078 84.349467 
L 390.621199 88.189226 
L 390.759439 87.41506 
L 390.805519 87.546088 
L 390.851599 87.590355 
L 390.89768 87.499224 
L 390.94376 87.445239 
L 390.98984 87.497928 
L 391.03592 87.509076 
L 391.082 87.66533 
L 391.5428 85.68183 
L 392.372241 87.82505 
L 392.418321 87.548967 
L 392.464401 87.570184 
L 392.786962 88.499203 
L 392.833042 88.430568 
L 392.879122 88.246902 
L 392.925202 88.349999 
L 393.109522 88.408083 
L 393.247762 87.879043 
L 393.293842 87.995264 
L 393.432083 88.262355 
L 393.478163 88.258775 
L 393.570323 88.812407 
L 393.616403 88.727305 
L 393.662483 88.569614 
L 393.754643 88.628212 
L 393.892883 88.942679 
L 393.938963 88.924624 
L 394.031123 89.263808 
L 394.077203 89.137964 
L 394.215443 89.02581 
L 394.261524 89.224193 
L 394.307604 89.195033 
L 394.491924 88.786866 
L 394.538004 88.763727 
L 394.584084 88.941275 
L 394.630164 88.869498 
L 394.676244 88.780857 
L 394.722324 88.875909 
L 394.906644 88.689782 
L 394.952724 88.58334 
L 394.998804 88.730094 
L 395.044884 88.907534 
L 395.090965 88.675614 
L 395.782165 85.198429 
L 395.828245 85.210146 
L 396.058646 85.782893 
L 396.104726 85.66087 
L 396.150806 85.808049 
L 396.657686 87.168589 
L 396.749847 87.221217 
L 396.888087 86.874924 
L 396.980247 87.344417 
L 397.072407 87.72814 
L 397.118487 87.690672 
L 397.441047 86.431664 
L 397.671448 86.071313 
L 397.901848 85.149874 
L 397.994008 85.225453 
L 398.132248 85.100836 
L 398.270488 85.247165 
L 398.454809 85.69477 
L 398.500889 85.532826 
L 398.546969 85.582492 
L 398.823449 86.067118 
L 398.915609 85.75701 
L 398.961689 85.907548 
L 399.099929 85.735049 
L 399.37641 84.441388 
L 399.69897 83.084779 
L 399.79113 83.267538 
L 399.83721 83.18315 
L 399.92937 82.825275 
L 399.97545 82.906341 
L 400.113691 83.684469 
L 400.159771 83.351193 
L 400.298011 83.478776 
L 400.344091 83.466079 
L 400.482331 83.867789 
L 400.712731 83.393087 
L 400.804891 83.516987 
L 400.850971 83.660254 
L 400.897052 83.61509 
L 400.943132 83.204507 
L 401.035292 83.275412 
L 401.265692 84.857072 
L 401.311772 84.918186 
L 401.588252 86.506416 
L 401.634332 86.384296 
L 401.818653 86.263981 
L 401.864733 86.581727 
L 401.910813 86.41487 
L 402.095133 86.15281 
L 402.279453 86.673893 
L 402.509853 86.06964 
L 402.694174 87.514667 
L 403.707935 93.866321 
L 404.168735 92.680091 
L 404.353056 92.830842 
L 404.399136 92.77893 
L 404.537376 92.465703 
L 404.629536 92.416686 
L 404.767776 92.766449 
L 404.906016 93.096602 
L 404.998176 93.348649 
L 405.228577 92.891484 
L 405.274657 92.993949 
L 405.643297 91.877516 
L 405.735457 91.949582 
L 405.965858 90.639668 
L 406.011938 90.741273 
L 406.657058 88.367456 
L 406.703138 88.502386 
L 406.749219 88.31675 
L 406.887459 87.871232 
L 406.979619 88.01768 
L 407.025699 87.920846 
L 407.117859 87.844588 
L 407.163939 87.888258 
L 407.394339 88.506095 
L 407.62474 87.742758 
L 407.80906 88.711629 
L 408.03946 87.395215 
L 408.08554 87.46708 
L 408.31594 86.660225 
L 408.454181 86.577375 
L 408.500261 86.681079 
L 408.546341 86.58383 
L 408.684581 85.645172 
L 408.730661 85.779549 
L 408.868901 85.777721 
L 408.914981 86.13859 
L 408.961061 85.843527 
L 409.007141 85.690081 
L 409.053221 85.826254 
L 409.099301 85.852246 
L 409.467942 83.813685 
L 409.698342 83.043446 
L 409.790502 82.817645 
L 410.020902 81.8759 
L 410.113063 82.052058 
L 410.389543 83.419071 
L 410.527783 83.794071 
L 410.619943 83.427178 
L 410.666023 83.460763 
L 410.712103 83.426807 
L 410.850343 83.080429 
L 410.896424 83.133496 
L 411.034664 83.767807 
L 411.080744 83.47745 
L 411.403304 82.375598 
L 411.679784 81.769179 
L 411.725865 81.881396 
L 411.818025 81.91958 
L 411.864105 82.172126 
L 412.002345 81.610562 
L 412.048425 81.682527 
L 412.094505 81.626462 
L 412.140585 81.537799 
L 412.232745 81.7118 
L 412.278825 81.58193 
L 412.324905 81.608024 
L 412.417065 81.914452 
L 412.509225 82.169472 
L 412.555306 82.147476 
L 412.601386 82.14123 
L 412.785706 81.573675 
L 413.062186 82.188792 
L 413.108266 82.215052 
L 413.246506 81.865417 
L 413.292586 82.082498 
L 413.338666 81.911721 
L 413.384747 81.750243 
L 413.430827 81.84823 
L 413.522987 82.170063 
L 413.569067 82.051604 
L 413.615147 81.760156 
L 413.661227 81.894434 
L 413.707307 81.946942 
L 413.799467 81.733036 
L 413.845547 81.777645 
L 414.168107 83.397267 
L 414.214188 83.177025 
L 414.260268 83.439646 
L 414.306348 83.625824 
L 414.352428 83.520805 
L 414.444588 82.946192 
L 414.536748 83.169408 
L 414.674988 83.448751 
L 414.951468 82.625906 
L 414.997548 82.898887 
L 415.043629 82.657054 
L 415.089709 82.502899 
L 415.135789 82.709235 
L 415.181869 82.74851 
L 415.412269 84.140135 
L 415.596589 84.857728 
L 415.688749 85.581407 
L 415.734829 85.538356 
L 415.780909 85.391525 
L 415.826989 85.438742 
L 415.96523 85.940731 
L 416.01131 86.186845 
L 416.10347 86.145637 
L 416.42603 84.896966 
L 416.47211 84.694284 
L 416.51819 85.037852 
L 416.61035 84.907835 
L 416.702511 84.947993 
L 417.025071 84.08983 
L 417.301551 85.26187 
L 417.946672 89.798463 
L 417.992752 89.74183 
L 418.038832 89.784508 
L 418.223152 90.117349 
L 418.361392 90.084566 
L 418.499633 90.281541 
L 418.637873 89.944832 
L 418.822193 89.535528 
L 419.052593 90.683915 
L 419.098673 90.659337 
L 419.282994 90.247165 
L 419.421234 89.798288 
L 419.467314 89.981304 
L 419.513394 89.710729 
L 419.743794 90.130049 
L 419.882034 89.936725 
L 419.974194 89.889874 
L 420.296755 91.525522 
L 420.434995 91.972439 
L 420.527155 92.054496 
L 420.573235 92.349994 
L 420.619315 92.227202 
L 420.665395 92.130044 
L 420.757555 92.529155 
L 420.803635 92.465033 
L 420.849715 92.370007 
L 420.895796 92.515245 
L 421.080116 93.096284 
L 421.126196 93.125011 
L 421.310516 93.52246 
L 421.448756 93.070913 
L 421.586996 92.9173 
L 421.725237 93.047983 
L 421.817397 93.514931 
L 421.863477 93.374981 
L 421.955637 93.224872 
L 422.047797 92.786546 
L 422.186037 93.182925 
L 422.232117 93.027514 
L 422.969398 97.847133 
L 423.015478 97.732878 
L 423.199798 98.03073 
L 423.245878 98.131163 
L 423.522359 97.216186 
L 423.568439 97.238647 
L 424.029239 94.589549 
L 424.21356 95.474862 
L 424.25964 95.338009 
L 424.30572 95.628513 
L 424.3518 95.311137 
L 424.39788 95.343037 
L 424.44396 95.273677 
L 424.49004 95.069834 
L 424.5822 95.108563 
L 424.62828 95.344202 
L 424.67436 95.079263 
L 424.72044 95.243247 
L 424.99692 95.711489 
L 425.780281 100.099295 
L 425.964602 100.224125 
L 426.148922 99.320248 
L 426.425402 97.112876 
L 426.471482 97.130974 
L 426.563642 96.901139 
L 426.609722 97.063776 
L 426.701883 97.009211 
L 427.070523 94.75935 
L 427.116603 94.720522 
L 427.623484 97.812432 
L 428.084284 103.732772 
L 428.314684 105.463575 
L 428.775485 108.091886 
L 428.867645 107.973444 
L 429.051965 108.608079 
L 429.098045 108.57379 
L 429.144125 108.801979 
L 429.190206 108.725732 
L 430.111807 103.434839 
L 430.157887 103.545108 
L 430.203967 103.452213 
L 430.388287 103.117439 
L 430.434367 103.437823 
L 430.480447 103.306472 
L 430.526527 103.077966 
L 430.572607 103.275764 
L 430.895168 103.880078 
L 431.217728 105.643087 
L 431.263808 105.475111 
L 431.309888 105.733158 
L 431.355968 105.537745 
L 431.448128 105.587216 
L 431.494208 105.308938 
L 431.540288 105.51051 
L 431.586368 105.576513 
L 431.908929 107.544289 
L 431.955009 107.321454 
L 432.047169 107.349588 
L 432.093249 107.205237 
L 432.139329 107.220757 
L 432.323649 108.273505 
L 432.369729 108.353706 
L 432.415809 108.84882 
L 432.507969 108.824024 
L 432.64621 108.127033 
L 432.69229 108.138441 
L 432.83053 108.138609 
L 433.10701 108.994386 
L 433.19917 109.097513 
L 433.24525 109.038112 
L 433.29133 108.991435 
L 433.33741 108.600926 
L 433.429571 108.760336 
L 433.475651 108.953487 
L 433.521731 108.811926 
L 433.659971 108.001478 
L 433.890371 107.175642 
L 433.936451 107.202682 
L 434.120771 105.676758 
L 434.166851 105.786887 
L 434.212932 105.844686 
L 434.351172 106.15116 
L 434.811972 103.788866 
L 434.996292 102.789201 
L 435.042373 102.63245 
L 435.226693 101.347746 
L 435.318853 101.11972 
L 435.549253 101.866742 
L 435.641413 101.647473 
L 435.687493 101.752908 
L 436.010054 103.782393 
L 436.056134 103.610981 
L 436.240454 102.867752 
L 436.470854 102.083973 
L 436.516934 102.099274 
L 436.609094 102.001063 
L 436.931655 100.038665 
L 437.899336 104.539135 
L 437.991496 104.239013 
L 438.037576 104.284451 
L 438.129736 104.338283 
L 438.452297 105.436582 
L 438.682697 107.068075 
L 438.728777 106.964808 
L 439.235658 109.327872 
L 439.373898 109.48853 
L 439.604298 109.095386 
L 439.650378 109.123069 
L 439.788618 108.636291 
L 439.880778 108.667653 
L 440.065099 108.235528 
L 440.157259 108.161031 
L 440.341579 107.583553 
L 440.710219 108.57848 
L 441.12494 107.134135 
L 441.26318 106.697364 
L 441.58574 104.141922 
L 441.862221 102.676697 
L 442.092621 101.772055 
L 442.138701 101.7231 
L 442.415181 100.693202 
L 442.553422 100.417522 
L 442.691662 100.688714 
L 442.922062 99.548422 
L 443.106382 99.030321 
L 443.198542 99.268471 
L 443.244622 99.199724 
L 443.382863 99.361384 
L 443.521103 98.999888 
L 443.567183 99.282242 
L 443.613263 99.153957 
L 443.659343 99.121205 
L 443.751503 99.487311 
L 443.889743 100.02184 
L 443.935823 99.974298 
L 444.120143 99.572725 
L 444.304464 98.933669 
L 444.350544 99.175152 
L 444.396624 98.944459 
L 444.949584 96.355403 
L 444.995664 96.147281 
L 445.041745 96.213155 
L 445.087825 96.32389 
L 445.272145 95.39458 
L 445.318225 95.701835 
L 445.410385 95.604231 
L 445.502545 95.821512 
L 445.548625 95.657445 
L 445.594705 95.747175 
L 445.640785 95.627245 
L 445.686865 95.532353 
L 445.732945 95.613751 
L 446.147666 96.919959 
L 446.285906 97.252715 
L 446.331986 97.301621 
L 446.378066 97.246596 
L 446.424146 97.128301 
L 446.470226 97.197835 
L 446.654546 98.135407 
L 446.700627 97.965308 
L 446.746707 98.004904 
L 446.838867 97.826124 
L 447.299667 99.716305 
L 447.437907 100.926578 
L 447.483987 100.900412 
L 447.622228 101.114404 
L 447.806548 102.210463 
L 447.852628 102.187118 
L 447.990868 101.511525 
L 448.359509 99.606053 
L 448.635989 98.631255 
L 448.682069 98.6733 
L 448.820309 98.367904 
L 449.23503 99.304066 
L 449.32719 99.926249 
L 449.51151 100.353249 
L 449.60367 100.276113 
L 449.64975 100.066824 
L 449.69583 100.185703 
L 449.83407 100.686311 
L 449.92623 100.4615 
L 449.97231 100.490565 
L 450.064471 100.557306 
L 450.294871 99.200767 
L 450.340951 98.770475 
L 450.387031 99.044659 
L 450.433111 98.982455 
L 450.571351 99.170911 
L 450.709591 98.806377 
L 450.801751 98.866137 
L 450.847832 98.864221 
L 450.986072 98.357132 
L 451.078232 98.753724 
L 451.170392 98.630777 
L 451.262552 98.766179 
L 451.769433 95.577114 
L 452.184153 94.174148 
L 452.230233 94.425827 
L 452.276313 94.517882 
L 452.737114 98.547875 
L 453.197914 100.029084 
L 453.243994 100.104448 
L 453.520475 99.236667 
L 453.566555 99.262934 
L 453.612635 99.297533 
L 453.704795 99.123794 
L 454.027355 100.247768 
L 454.165595 99.882881 
L 454.534236 101.76504 
L 454.626396 101.468819 
L 454.672476 101.664611 
L 454.764636 101.617515 
L 455.041117 102.871292 
L 455.087197 103.000141 
L 455.225437 102.575227 
L 455.317597 102.829725 
L 455.409757 102.778226 
L 455.501917 102.880122 
L 455.547997 103.170221 
L 455.594077 102.994701 
L 455.824477 101.713293 
L 456.008798 100.962757 
L 456.100958 101.119301 
L 456.147038 101.03281 
L 456.285278 100.242579 
L 456.331358 100.262983 
L 456.423518 100.075622 
L 456.653918 98.974309 
L 456.838239 99.485391 
L 456.930399 99.142865 
L 456.976479 99.286364 
L 457.391199 100.18649 
L 457.71376 101.355205 
L 457.75984 101.288351 
L 457.94416 100.986802 
L 458.26672 99.580226 
L 458.543201 97.945108 
L 458.819681 96.446058 
L 458.865761 96.471177 
L 459.050081 95.89764 
L 459.096161 95.637361 
L 459.188322 95.707775 
L 459.280482 95.801275 
L 459.326562 95.677005 
L 459.372642 95.753689 
L 459.418722 95.821103 
L 459.510882 96.458474 
L 459.556962 96.338553 
L 459.603042 96.407164 
L 459.649122 96.257162 
L 459.695202 96.3686 
L 459.925602 97.520239 
L 459.971682 97.562559 
L 460.017763 97.500754 
L 460.202083 97.179132 
L 460.294243 97.178346 
L 460.386403 96.76347 
L 460.570723 95.886128 
L 460.662883 95.542044 
L 460.755043 94.989435 
L 460.801123 95.025183 
L 461.031524 96.018197 
L 461.215844 97.249443 
L 461.400164 98.076225 
L 461.676645 99.298797 
L 461.860965 98.425128 
L 461.999205 98.558889 
L 462.091365 98.192752 
L 462.183525 97.818276 
L 462.321765 98.617927 
L 462.367845 98.591785 
L 462.413925 98.392267 
L 462.460005 98.509554 
L 462.506086 98.530134 
L 462.690406 97.826628 
L 463.012966 98.36348 
L 463.289446 97.323083 
L 463.335527 97.522263 
L 463.750247 98.839957 
L 463.934567 98.180473 
L 464.211048 98.817115 
L 464.257128 98.916908 
L 464.395368 98.550396 
L 464.625768 99.08722 
L 464.856168 97.822866 
L 464.994409 97.126014 
L 465.086569 97.228417 
L 465.132649 97.383303 
L 465.178729 97.308356 
L 465.224809 97.285851 
L 465.270889 97.078031 
L 465.363049 97.141308 
L 465.409129 97.221568 
L 465.777769 95.913526 
L 465.777769 95.913526 
" clip-path="url(#p5ab3af0e93)" style="fill: none; stroke: #1f77b4; stroke-width: 2.25; stroke-linecap: round"/>
   </g>
   <g id="patch_3">
    <path d="M 71.350928 149.1 
L 71.350928 19.44 
" style="fill: none; stroke: #262626; stroke-width: 1.875; stroke-linejoin: miter; stroke-linecap: square"/>
   </g>
   <g id="patch_4">
    <path d="M 484.56 149.1 
L 484.56 19.44 
" style="fill: none; stroke: #262626; stroke-width: 1.875; stroke-linejoin: miter; stroke-linecap: square"/>
   </g>
   <g id="patch_5">
    <path d="M 71.350928 149.1 
L 484.56 149.1 
" style="fill: none; stroke: #262626; stroke-width: 1.875; stroke-linejoin: miter; stroke-linecap: square"/>
   </g>
   <g id="patch_6">
    <path d="M 71.350928 19.44 
L 484.56 19.44 
" style="fill: none; stroke: #262626; stroke-width: 1.875; stroke-linejoin: miter; stroke-linecap: square"/>
   </g>
   <g id="text_7">
    <!-- PLS $X_{eating}$ -->
    <g style="fill: #262626" transform="translate(-31.95134 78.27) scale(0.18 -0.18)">
     <defs>
      <path id="ArialMT-50" d="M 494 0 
L 494 4581 
L 2222 4581 
Q 2678 4581 2919 4538 
Q 3256 4481 3484 4323 
Q 3713 4166 3852 3881 
Q 3991 3597 3991 3256 
Q 3991 2672 3619 2267 
Q 3247 1863 2275 1863 
L 1100 1863 
L 1100 0 
L 494 0 
z
M 1100 2403 
L 2284 2403 
Q 2872 2403 3119 2622 
Q 3366 2841 3366 3238 
Q 3366 3525 3220 3729 
Q 3075 3934 2838 4000 
Q 2684 4041 2272 4041 
L 1100 4041 
L 1100 2403 
z
" transform="scale(0.015625)"/>
      <path id="ArialMT-4c" d="M 469 0 
L 469 4581 
L 1075 4581 
L 1075 541 
L 3331 541 
L 3331 0 
L 469 0 
z
" transform="scale(0.015625)"/>
      <path id="ArialMT-53" d="M 288 1472 
L 859 1522 
Q 900 1178 1048 958 
Q 1197 738 1509 602 
Q 1822 466 2213 466 
Q 2559 466 2825 569 
Q 3091 672 3220 851 
Q 3350 1031 3350 1244 
Q 3350 1459 3225 1620 
Q 3100 1781 2813 1891 
Q 2628 1963 1997 2114 
Q 1366 2266 1113 2400 
Q 784 2572 623 2826 
Q 463 3081 463 3397 
Q 463 3744 659 4045 
Q 856 4347 1234 4503 
Q 1613 4659 2075 4659 
Q 2584 4659 2973 4495 
Q 3363 4331 3572 4012 
Q 3781 3694 3797 3291 
L 3216 3247 
Q 3169 3681 2898 3903 
Q 2628 4125 2100 4125 
Q 1550 4125 1298 3923 
Q 1047 3722 1047 3438 
Q 1047 3191 1225 3031 
Q 1400 2872 2139 2705 
Q 2878 2538 3153 2413 
Q 3553 2228 3743 1945 
Q 3934 1663 3934 1294 
Q 3934 928 3725 604 
Q 3516 281 3123 101 
Q 2731 -78 2241 -78 
Q 1619 -78 1198 103 
Q 778 284 539 648 
Q 300 1013 288 1472 
z
" transform="scale(0.015625)"/>
      <path id="ArialMT-20" transform="scale(0.015625)"/>
      <path id="DejaVuSans-Oblique-58" d="M 878 4666 
L 1516 4666 
L 2316 2981 
L 3763 4666 
L 4500 4666 
L 2578 2438 
L 3738 0 
L 3103 0 
L 2163 1966 
L 459 0 
L -275 0 
L 1906 2509 
L 878 4666 
z
" transform="scale(0.015625)"/>
      <path id="DejaVuSans-Oblique-65" d="M 3078 2063 
Q 3088 2113 3092 2166 
Q 3097 2219 3097 2272 
Q 3097 2653 2873 2875 
Q 2650 3097 2266 3097 
Q 1838 3097 1509 2826 
Q 1181 2556 1013 2059 
L 3078 2063 
z
M 3578 1613 
L 903 1613 
Q 884 1494 878 1425 
Q 872 1356 872 1306 
Q 872 872 1139 634 
Q 1406 397 1894 397 
Q 2269 397 2603 481 
Q 2938 566 3225 728 
L 3116 159 
Q 2806 34 2476 -28 
Q 2147 -91 1806 -91 
Q 1078 -91 686 257 
Q 294 606 294 1247 
Q 294 1794 489 2264 
Q 684 2734 1063 3103 
Q 1306 3334 1642 3459 
Q 1978 3584 2356 3584 
Q 2950 3584 3301 3228 
Q 3653 2872 3653 2272 
Q 3653 2128 3634 1964 
Q 3616 1800 3578 1613 
z
" transform="scale(0.015625)"/>
      <path id="DejaVuSans-Oblique-61" d="M 3438 1997 
L 3047 0 
L 2472 0 
L 2578 531 
Q 2325 219 2001 64 
Q 1678 -91 1281 -91 
Q 834 -91 548 182 
Q 263 456 263 884 
Q 263 1497 752 1853 
Q 1241 2209 2100 2209 
L 2900 2209 
L 2931 2363 
Q 2938 2388 2941 2417 
Q 2944 2447 2944 2509 
Q 2944 2788 2717 2942 
Q 2491 3097 2081 3097 
Q 1800 3097 1504 3025 
Q 1209 2953 897 2809 
L 997 3341 
Q 1322 3463 1633 3523 
Q 1944 3584 2234 3584 
Q 2853 3584 3176 3315 
Q 3500 3047 3500 2534 
Q 3500 2431 3484 2292 
Q 3469 2153 3438 1997 
z
M 2816 1759 
L 2241 1759 
Q 1534 1759 1195 1570 
Q 856 1381 856 984 
Q 856 709 1029 553 
Q 1203 397 1509 397 
Q 1978 397 2328 733 
Q 2678 1069 2791 1631 
L 2816 1759 
z
" transform="scale(0.015625)"/>
      <path id="DejaVuSans-Oblique-74" d="M 2706 3500 
L 2619 3053 
L 1472 3053 
L 1100 1153 
Q 1081 1047 1072 975 
Q 1063 903 1063 863 
Q 1063 663 1183 572 
Q 1303 481 1569 481 
L 2150 481 
L 2053 0 
L 1503 0 
Q 991 0 739 200 
Q 488 400 488 806 
Q 488 878 497 964 
Q 506 1050 525 1153 
L 897 3053 
L 409 3053 
L 500 3500 
L 978 3500 
L 1172 4494 
L 1747 4494 
L 1556 3500 
L 2706 3500 
z
" transform="scale(0.015625)"/>
      <path id="DejaVuSans-Oblique-69" d="M 1172 4863 
L 1747 4863 
L 1606 4134 
L 1031 4134 
L 1172 4863 
z
M 909 3500 
L 1484 3500 
L 800 0 
L 225 0 
L 909 3500 
z
" transform="scale(0.015625)"/>
      <path id="DejaVuSans-Oblique-6e" d="M 3566 2113 
L 3156 0 
L 2578 0 
L 2988 2091 
Q 3016 2238 3031 2350 
Q 3047 2463 3047 2528 
Q 3047 2791 2881 2937 
Q 2716 3084 2419 3084 
Q 1956 3084 1622 2776 
Q 1288 2469 1184 1941 
L 800 0 
L 225 0 
L 903 3500 
L 1478 3500 
L 1363 2950 
Q 1603 3253 1940 3418 
Q 2278 3584 2650 3584 
Q 3113 3584 3367 3334 
Q 3622 3084 3622 2631 
Q 3622 2519 3608 2391 
Q 3594 2263 3566 2113 
z
" transform="scale(0.015625)"/>
      <path id="DejaVuSans-Oblique-67" d="M 3816 3500 
L 3219 434 
Q 3047 -456 2561 -893 
Q 2075 -1331 1253 -1331 
Q 950 -1331 690 -1286 
Q 431 -1241 206 -1147 
L 313 -588 
Q 525 -725 762 -790 
Q 1000 -856 1269 -856 
Q 1816 -856 2167 -557 
Q 2519 -259 2631 300 
L 2681 563 
Q 2441 288 2122 144 
Q 1803 0 1434 0 
Q 903 0 598 351 
Q 294 703 294 1319 
Q 294 1803 478 2267 
Q 663 2731 997 3091 
Q 1219 3328 1514 3456 
Q 1809 3584 2131 3584 
Q 2484 3584 2746 3420 
Q 3009 3256 3138 2956 
L 3238 3500 
L 3816 3500 
z
M 2950 2216 
Q 2950 2641 2750 2872 
Q 2550 3103 2181 3103 
Q 1953 3103 1747 3012 
Q 1541 2922 1394 2759 
Q 1156 2491 1023 2127 
Q 891 1763 891 1375 
Q 891 944 1092 712 
Q 1294 481 1672 481 
Q 2219 481 2584 976 
Q 2950 1472 2950 2216 
z
" transform="scale(0.015625)"/>
     </defs>
     <use xlink:href="#ArialMT-50" transform="translate(0 0.09375)"/>
     <use xlink:href="#ArialMT-4c" transform="translate(66.699219 0.09375)"/>
     <use xlink:href="#ArialMT-53" transform="translate(122.314453 0.09375)"/>
     <use xlink:href="#ArialMT-20" transform="translate(189.013672 0.09375)"/>
     <use xlink:href="#DejaVuSans-Oblique-58" transform="translate(216.796875 0.09375)"/>
     <use xlink:href="#DejaVuSans-Oblique-65" transform="translate(285.302734 -16.3125) scale(0.7)"/>
     <use xlink:href="#DejaVuSans-Oblique-61" transform="translate(328.369141 -16.3125) scale(0.7)"/>
     <use xlink:href="#DejaVuSans-Oblique-74" transform="translate(371.264648 -16.3125) scale(0.7)"/>
     <use xlink:href="#DejaVuSans-Oblique-69" transform="translate(398.710938 -16.3125) scale(0.7)"/>
     <use xlink:href="#DejaVuSans-Oblique-6e" transform="translate(418.15918 -16.3125) scale(0.7)"/>
     <use xlink:href="#DejaVuSans-Oblique-67" transform="translate(462.524414 -16.3125) scale(0.7)"/>
    </g>
   </g>
  </g>
 </g>
 <defs>
  <clipPath id="p5ab3af0e93">
   <rect x="71.350928" y="19.44" width="413.209072" height="129.66"/>
  </clipPath>
 </defs>
</svg>
