<?xml version="1.0" encoding="UTF-8" standalone="no"?>
<svg
   width="520pt"
   height="180pt"
   viewBox="0 0 520 180"
   version="1.1"
   id="svg37"
   sodipodi:docname="PLSDimEatingM2_Processed.svg"
   inkscape:version="1.3.2 (091e20e, 2023-11-25)"
   inkscape:export-filename="PLSDimEatingM2_Processed.png"
   inkscape:export-xdpi="96"
   inkscape:export-ydpi="96"
   xmlns:inkscape="http://www.inkscape.org/namespaces/inkscape"
   xmlns:sodipodi="http://sodipodi.sourceforge.net/DTD/sodipodi-0.dtd"
   xmlns:xlink="http://www.w3.org/1999/xlink"
   xmlns="http://www.w3.org/2000/svg"
   xmlns:svg="http://www.w3.org/2000/svg"
   xmlns:rdf="http://www.w3.org/1999/02/22-rdf-syntax-ns#"
   xmlns:cc="http://creativecommons.org/ns#"
   xmlns:dc="http://purl.org/dc/elements/1.1/">
  <sodipodi:namedview
     id="namedview37"
     pagecolor="#ffffff"
     bordercolor="#000000"
     borderopacity="0.25"
     inkscape:showpageshadow="2"
     inkscape:pageopacity="0.0"
     inkscape:pagecheckerboard="0"
     inkscape:deskcolor="#d1d1d1"
     inkscape:document-units="pt"
     inkscape:zoom="0.81944444"
     inkscape:cx="334.98305"
     inkscape:cy="144"
     inkscape:window-width="1680"
     inkscape:window-height="997"
     inkscape:window-x="0"
     inkscape:window-y="25"
     inkscape:window-maximized="1"
     inkscape:current-layer="line2d_1" />
  <metadata
     id="metadata1">
    <rdf:RDF>
      <cc:Work>
        <dc:type
           rdf:resource="http://purl.org/dc/dcmitype/StillImage" />
        <dc:date>2023-12-03T20:12:26.175465</dc:date>
        <dc:format>image/svg+xml</dc:format>
        <dc:creator>
          <cc:Agent>
            <dc:title>Matplotlib v3.8.0, https://matplotlib.org/</dc:title>
          </cc:Agent>
        </dc:creator>
      </cc:Work>
    </rdf:RDF>
  </metadata>
  <defs
     id="defs1">
    <style
       type="text/css"
       id="style1">*{stroke-linejoin: round; stroke-linecap: butt}</style>
  </defs>
  <g
     id="figure_1">
    <g
       id="axes_1"
       transform="translate(33,-16.5)">
      <g
         id="patch_2">
        <path
           d="M 71.350928,149.1 H 484.56 V 19.44 H 71.350928 Z"
           style="fill:#ffffff"
           id="path2" />
      </g>
      <g
         id="matplotlib.axis_1">
        <g
           id="xtick_1">
          <g
             id="text_1">
            <!-- 0 -->
            <g
               style="fill:#262626"
               transform="matrix(0.165,0,0,-0.165,85.545385,173.41039)"
               id="g2">
              <defs
                 id="defs2">
                <path
                   id="ArialMT-30"
                   d="m 266,2259 q 0,813 167,1308 167,496 496,764 330,269 830,269 369,0 647,-149 278,-148 459,-428 182,-279 285,-681 103,-401 103,-1083 0,-806 -166,-1301 Q 2922,463 2592,192 2263,-78 1759,-78 1097,-78 719,397 266,969 266,2259 Z m 578,0 q 0,-1128 264,-1502 264,-373 651,-373 388,0 652,375 264,375 264,1500 0,1132 -264,1503 -264,372 -658,372 -387,0 -619,-328 Q 844,3388 844,2259 Z"
                   transform="scale(0.015625)" />
              </defs>
              <use
                 xlink:href="#ArialMT-30"
                 id="use2" />
            </g>
          </g>
        </g>
        <g
           id="xtick_2">
          <g
             id="text_2">
            <!-- 2000 -->
            <g
               style="fill:#262626"
               transform="matrix(0.165,0,0,-0.165,163.94217,173.41039)"
               id="g6">
              <defs
                 id="defs3">
                <path
                   id="ArialMT-32"
                   d="M 3222,541 V 0 H 194 q -6,203 65,391 116,309 370,609 255,300 737,694 747,612 1009,970 263,358 263,677 0,334 -240,563 -239,230 -623,230 -406,0 -650,-244 -244,-243 -247,-674 l -578,59 q 59,647 446,986 388,339 1042,339 659,0 1043,-366 385,-365 385,-906 0,-275 -113,-541 Q 2991,2522 2730,2228 2469,1934 1863,1422 1356,997 1212,845 1069,694 975,541 Z"
                   transform="scale(0.015625)" />
              </defs>
              <use
                 xlink:href="#ArialMT-32"
                 id="use3" />
              <use
                 xlink:href="#ArialMT-30"
                 x="55.615234"
                 id="use4" />
              <use
                 xlink:href="#ArialMT-30"
                 x="111.23047"
                 id="use5" />
              <use
                 xlink:href="#ArialMT-30"
                 x="166.8457"
                 id="use6" />
            </g>
          </g>
        </g>
        <g
           id="xtick_3">
          <g
             id="text_3">
            <!-- 4000 -->
            <g
               style="fill:#262626"
               transform="matrix(0.165,0,0,-0.165,256.10229,173.41039)"
               id="g10">
              <defs
                 id="defs6">
                <path
                   id="ArialMT-34"
                   d="M 2069,0 V 1097 H 81 v 516 l 2091,2968 h 459 V 1613 h 619 V 1097 H 2631 V 0 Z m 0,1613 V 3678 L 634,1613 Z"
                   transform="scale(0.015625)" />
              </defs>
              <use
                 xlink:href="#ArialMT-34"
                 id="use7" />
              <use
                 xlink:href="#ArialMT-30"
                 x="55.615234"
                 id="use8" />
              <use
                 xlink:href="#ArialMT-30"
                 x="111.23047"
                 id="use9" />
              <use
                 xlink:href="#ArialMT-30"
                 x="166.8457"
                 id="use10" />
            </g>
          </g>
        </g>
        <g
           id="xtick_4">
          <g
             id="text_4">
            <!-- 6000 -->
            <g
               style="fill:#262626"
               transform="matrix(0.165,0,0,-0.165,348.2624,173.41039)"
               id="g14">
              <defs
                 id="defs10">
                <path
                   id="ArialMT-36"
                   d="m 3184,3459 -559,-43 q -75,331 -212,481 -229,241 -563,241 -269,0 -472,-150 -265,-194 -419,-566 -153,-372 -159,-1059 203,309 497,459 294,150 616,150 562,0 957,-414 396,-414 396,-1070 0,-432 -186,-802 Q 2894,316 2569,119 2244,-78 1831,-78 1128,-78 684,439 241,956 241,2144 q 0,1328 490,1931 428,525 1153,525 541,0 886,-303 346,-303 414,-838 z M 888,1484 q 0,-290 123,-556 123,-265 345,-405 222,-139 466,-139 356,0 612,287 257,288 257,782 0,475 -254,748 -253,274 -637,274 -381,0 -647,-274 -265,-273 -265,-717 z"
                   transform="scale(0.015625)" />
              </defs>
              <use
                 xlink:href="#ArialMT-36"
                 id="use11" />
              <use
                 xlink:href="#ArialMT-30"
                 x="55.615234"
                 id="use12" />
              <use
                 xlink:href="#ArialMT-30"
                 x="111.23047"
                 id="use13" />
              <use
                 xlink:href="#ArialMT-30"
                 x="166.8457"
                 id="use14" />
            </g>
          </g>
        </g>
        <g
           id="xtick_5">
          <g
             id="text_5">
            <!-- 8000 -->
            <g
               style="fill:#262626"
               transform="matrix(0.165,0,0,-0.165,440.42251,173.41039)"
               id="g18">
              <defs
                 id="defs14">
                <path
                   id="ArialMT-38"
                   d="m 1131,2484 q -350,129 -519,366 -168,238 -168,569 0,500 359,840 360,341 956,341 600,0 966,-349 366,-348 366,-848 0,-319 -168,-555 -167,-235 -507,-364 422,-137 642,-444 220,-306 220,-731 0,-587 -416,-987 Q 2447,-78 1769,-78 1091,-78 675,323 259,725 259,1325 q 0,447 227,748 227,302 645,411 z m -112,954 q 0,-325 209,-532 210,-206 544,-206 325,0 533,204 208,205 208,502 0,310 -215,521 -214,211 -532,211 -322,0 -535,-207 -212,-206 -212,-493 z M 838,1322 q 0,-241 114,-466 114,-225 339,-349 225,-123 484,-123 403,0 665,259 263,260 263,660 0,406 -270,672 -270,266 -677,266 -397,0 -658,-263 -260,-262 -260,-656 z"
                   transform="scale(0.015625)" />
              </defs>
              <use
                 xlink:href="#ArialMT-38"
                 id="use15" />
              <use
                 xlink:href="#ArialMT-30"
                 x="55.615234"
                 id="use16" />
              <use
                 xlink:href="#ArialMT-30"
                 x="111.23047"
                 id="use17" />
              <use
                 xlink:href="#ArialMT-30"
                 x="166.8457"
                 id="use18" />
            </g>
          </g>
        </g>
        <g
           id="text_6">
          <!-- Index -->
          <g
             style="fill:#262626"
             transform="matrix(0.18,0,0,-0.18,255.94062,193.57383)"
             id="g23">
            <defs
               id="defs18">
              <path
                 id="ArialMT-49"
                 d="m 597,0 v 4581 h 606 V 0 Z"
                 transform="scale(0.015625)" />
              <path
                 id="ArialMT-6e"
                 d="m 422,0 v 3319 h 506 v -472 q 366,547 1056,547 300,0 552,-108 252,-108 377,-283 125,-175 175,-415 31,-157 31,-547 V 0 h -563 v 2019 q 0,344 -66,514 -65,170 -232,271 -167,102 -392,102 -360,0 -621,-228 Q 984,2450 984,1813 V 0 Z"
                 transform="scale(0.015625)" />
              <path
                 id="ArialMT-64"
                 d="M 2575,0 V 419 Q 2259,-75 1647,-75 1250,-75 917,144 584,363 401,755 q -182,392 -182,901 0,497 165,902 166,405 497,620 332,216 741,216 300,0 534,-127 235,-126 382,-329 v 1643 h 559 V 0 Z M 797,1656 q 0,-637 268,-953 269,-315 635,-315 369,0 626,301 258,302 258,920 0,682 -263,1000 -262,319 -646,319 -375,0 -627,-306 -251,-306 -251,-966 z"
                 transform="scale(0.015625)" />
              <path
                 id="ArialMT-65"
                 d="m 2694,1069 581,-72 Q 3138,488 2766,206 2394,-75 1816,-75 1088,-75 661,373 234,822 234,1631 q 0,838 431,1300 432,463 1119,463 666,0 1088,-453 422,-453 422,-1275 0,-50 -3,-150 H 816 q 31,-547 309,-838 278,-290 694,-290 309,0 528,162 219,163 347,519 z M 847,1978 h 1853 q -37,419 -212,628 -269,325 -697,325 -388,0 -652,-259 -264,-259 -292,-694 z"
                 transform="scale(0.015625)" />
              <path
                 id="ArialMT-78"
                 d="M 47,0 1259,1725 138,3319 h 703 l 509,-778 q 144,-222 231,-372 138,206 253,365 l 560,785 h 672 L 1919,1756 3153,0 H 2463 L 1781,1031 1600,1309 728,0 Z"
                 transform="scale(0.015625)" />
            </defs>
            <use
               xlink:href="#ArialMT-49"
               id="use19" />
            <use
               xlink:href="#ArialMT-6e"
               x="27.783203"
               id="use20" />
            <use
               xlink:href="#ArialMT-64"
               x="83.398438"
               id="use21" />
            <use
               xlink:href="#ArialMT-65"
               x="139.01367"
               id="use22" />
            <use
               xlink:href="#ArialMT-78"
               x="194.62891"
               id="use23" />
          </g>
        </g>
      </g>
      <g
         id="matplotlib.axis_2" />
      <g
         id="line2d_1">
        <path
           d="m 90.133158,96.858818 0.230401,1.962401 0.04608,0.122948 0.04608,-0.142058 0.09216,-0.419979 0.04608,0.07284 0.18432,0.622771 0.04608,-0.09247 0.04608,-0.533774 0.04608,0.363792 0.04608,0.137317 0.04608,-0.08611 0.09216,-0.08517 0.230401,-0.376828 0.27648,2.820972 0.18432,0.7969 0.09216,0.73279 0.184321,1.94119 0.04608,-0.0769 0.09216,-0.15517 0.04608,0.33225 0.18432,-1.77294 0.04608,0.0346 0.27648,1.60407 0.04608,-0.20541 0.18432,-0.92994 0.04608,0.13877 0.13824,1.20109 0.18432,1.48227 0.27648,-1.00715 0.276481,-0.69051 0.09216,0.22991 0.04608,-0.11702 0.04608,-0.49933 0.09216,0.20855 0.18432,1.13753 0.09216,0.28707 0.04608,-0.17485 0.18432,-0.35852 0.13824,-0.49829 0.18432,1.18951 0.04608,-0.25708 0.04608,-0.0503 0.460801,-2.88927 0.13824,0.5015 0.04608,0.80625 0.04608,-0.813 0.27648,-1.42601 0.138241,0.3968 0.04608,0.009 0.13824,0.54194 0.04608,-0.55579 0.04608,0.47784 0.13824,-0.58958 0.18432,-1.3578 0.04608,-0.11627 0.04608,0.22746 0.04608,-0.27109 0.09216,-0.26784 0.2304,1.4655 0.04608,-0.6663 0.09216,0.14832 0.13824,0.92556 0.04608,-0.22304 0.18432,1.66408 0.138241,-0.29834 0.04608,0.16704 0.13824,-1.00522 0.04608,0.22214 0.04608,0.17531 0.09216,0.74698 0.04608,-0.006 0.04608,-0.0691 0.09216,-0.64984 0.13824,0.64515 0.230401,0.53429 0.04608,-0.0318 0.32256,-2.26027 0.04608,-0.12806 0.04608,-0.80481 0.04608,0.10488 0.04608,0.29099 0.04608,-0.36781 0.276481,-1.434206 0.18432,-1.110986 0.09216,0.274881 0.04608,-0.531128 0.0461,0.158203 0.0922,0.303183 0.2304,2.073163 0.0461,0.0277 0.2304,1.84602 0.0461,0.0485 0.0461,-0.086 0.64512,-6.462731 0.2304,-4.533651 0.0461,-0.09492 0.13824,0.636383 0.0461,-0.734859 0.0461,0.261006 0.0461,0.626295 0.0461,-0.3467 0.27648,-1.279897 0.2304,1.043878 0.0461,0.66493 0.0461,-0.123069 0.0922,-0.29698 0.0922,0.509303 0.0461,-0.02699 0.0461,-0.259669 0.0922,1.179655 0.0922,-0.06076 0.18432,0.670253 0.0922,0.319522 0.0461,-0.164415 0.0461,-0.03699 0.13824,-0.647815 0.0461,0.04938 0.0461,-0.313911 0.0461,0.36082 0.0921,0.241506 0.0461,-0.07103 0.18432,-0.704934 0.0922,0.431907 0.0461,-0.22156 0.18432,0.310891 0.55297,4.575631 0.0461,0.04145 0.0461,-0.06318 0.0461,-0.06946 0.41472,1.829745 0.27648,-1.014316 0.0461,0.03991 0.2304,0.93317 0.0922,-0.181265 0.0922,-0.68197 0.0461,0.317642 0.0461,0.216854 0.13824,-1.453495 0.0461,0.02243 0.18432,0.903785 0.0461,-0.131235 0.0461,-0.438794 0.0461,0.31351 0.0461,0.03375 0.0922,-0.412065 0.0461,0.299388 0.13824,0.448678 0.0461,-0.207991 0.0461,0.213288 0.13824,1.654242 0.0461,-0.12218 0.0461,0.17059 0.0461,-0.0489 0.0461,-0.0823 0.0461,0.13022 0.0922,0.81728 0.13824,-0.049 0.27648,-0.91727 0.18432,-1.606891 0.0461,-0.058 0.2304,-0.954309 0.0922,-0.123484 0.0461,0.507718 0.0461,-0.377963 0.13824,-0.784921 0.0461,0.331854 0.13824,0.493084 0.0461,-0.103276 0.0461,0.09431 0.13824,0.67627 0.0461,-0.395824 0.0461,0.07988 0.0461,0.205622 0.0461,-0.06347 0.0461,-0.353368 0.0461,0.263844 0.0461,-0.0081 0.18432,1.236784 0.0461,-0.123982 0.0461,0.09749 0.0922,0.395922 0.0461,0.18151 0.0461,0.64159 0.0922,-0.1119 0.0461,0.006 0.18432,0.62886 0.0461,0.0273 0.18432,-1.04167 0.0461,0.0997 0.0461,-0.11918 0.0922,-0.11594 0.0461,0.13137 0.0461,-0.12038 0.0461,-0.18633 0.18432,-1.356673 0.2304,-1.790381 0.0461,0.244266 0.0461,0.415521 0.0922,-0.124202 0.0922,0.750457 0.0461,-0.317404 0.0922,-0.727647 0.0922,0.391544 0.41472,1.882656 0.0461,-0.307854 0.2304,-2.359332 0.0461,0.516487 0.41472,3.342352 0.13824,0.75752 0.36864,3.16341 0.0922,-0.25491 0.0461,-0.64517 0.0922,0.10541 0.18432,-1.11876 0.0461,0.0381 0.41472,-1.5874 0.18432,0.96543 0.0922,-0.24841 0.13824,0.10844 0.0461,0.46943 0.0461,-0.37296 0.0461,-0.13665 0.18432,1.38693 0.32256,3.07056 0.27648,2.30466 0.0461,-0.592 0.0461,0.01 0.0922,0.40306 0.13824,-0.65094 0.13824,-0.75195 0.0922,-0.42871 0.0922,0.62287 0.27648,-3.16763 0.0461,0.52758 0.0461,0.71094 0.0461,-0.24276 0.13824,-0.24296 0.0922,1.14862 0.0461,-0.71628 0.0461,-0.56241 0.0461,0.34809 0.0461,0.55012 0.18432,-1.95735 0.13824,0.63989 0.0461,0.85453 0.0461,-0.10665 0.0461,-0.48707 0.0922,0.11812 0.32256,-2.24741 0.0461,-0.56476 0.0461,0.2552 0.0461,0.0512 0.0922,0.81756 0.0461,-0.0649 0.27648,-1.27329 0.32256,1.65896 0.18432,1.15776 0.0461,0.2693 0.0461,-0.11995 0.13824,-0.34389 0.0461,0.0225 0.0461,0.51902 0.0461,-0.33232 0.0461,0.095 0.13824,-1.26902 0.0461,0.0348 0.0461,0.15758 0.13824,-1.01252 0.0461,0.21715 0.0461,-0.10186 0.0461,0.25865 0.18432,-1.27888 0.13824,-0.59717 0.13825,0.90972 0.0921,0.21689 0.18432,-0.63624 0.36865,-2.161105 0.13824,-0.107723 0.13824,-0.574472 0.0461,-0.09875 0.0461,0.155094 0.0461,-0.08854 0.0461,-0.386746 0.0461,0.0224 0.0922,0.22906 0.0922,-0.588892 0.0461,0.113493 0.32256,2.008735 0.32256,3.718086 0.0461,-0.0212 0.0922,0.72128 0.2304,2.56678 0.0461,-0.0617 0.0461,0.0546 0.0461,0.35568 0.0461,-0.44305 0.0922,-0.64952 0.18432,-1.11506 0.13824,0.33583 0.0461,-0.15181 0.0922,-0.42538 0.2304,-0.8398 0.18432,1.21308 0.0461,-0.39305 0.0461,0.16474 0.13824,0.74948 0.0461,-0.0722 0.0461,-0.13119 0.41472,2.34129 0.0461,-0.0731 0.13824,0.002 0.18432,1.57392 0.0922,0.79258 0.0461,0.6636 0.0461,-0.18594 0.0922,-1.17527 0.0461,0.73603 0.0922,-0.14028 0.18432,0.25682 0.50688,-3.13292 0.0461,0.28232 0.0461,0.59273 0.0461,-0.75331 0.18432,-0.59742 0.0461,-0.0378 0.0461,-0.36054 0.0461,0.32409 0.2304,0.0411 0.18432,-0.98581 0.0461,0.0705 0.13824,0.51588 0.0461,-0.0891 0.0461,-0.21003 0.0461,0.13272 0.0461,0.0369 0.0922,0.5212 0.0461,-0.009 0.0461,-0.0825 0.0461,0.0833 0.0922,0.67268 0.0461,-0.0442 0.0461,-0.22301 0.0461,0.0275 0.0461,0.29026 0.18432,-1.31966 0.13824,0.49032 0.0461,-0.072 0.0461,-0.3147 0.18432,-1.94197 0.18432,-0.93175 0.55296,-3.907339 0.13825,0.365471 0.2304,-1.523539 0.0922,0.235048 0.0461,-0.09802 0.13824,-0.953454 0.18432,0.75544 0.0461,-0.125112 0.18432,-0.728582 0.0922,0.02388 0.0461,0.130288 0.0461,-0.144738 0.18432,-1.009245 0.0461,0.228528 0.13824,-0.752686 0.18432,-1.574192 0.0461,0.103266 0.2304,-1.33647 0.0461,0.209021 0.0461,-0.237489 0.0461,-0.181791 0.0461,0.153883 0.27648,2.334393 0.18432,1.927124 0.0922,0.0023 0.18432,1.21186 0.0461,-0.261716 0.0461,0.07505 0.13824,0.745803 0.0461,0.105036 0.2304,-1.056171 0.2304,-1.697219 0.4608,-2.639961 0.0461,0.325629 0.0461,-0.04125 0.0922,-0.395461 0.0461,0.276015 0.0461,-0.022 0.18432,0.39132 0.0461,-0.110351 0.2304,1.919497 0.0461,-0.272277 0.0461,0.04536 0.0461,0.356263 0.0461,-0.218526 0.13824,-0.811622 0.0461,0.301214 0.13824,-0.895677 0.18432,1.009261 0.0461,0.05535 0.18432,1.474149 0.0461,-0.110155 0.13824,-1.119963 0.0922,0.391428 0.0461,-0.161625 0.0461,-0.0714 0.0461,0.07961 0.36864,-4.429009 0.13824,-1.646993 0.0461,0.108433 0.2304,1.548762 0.18432,0.943043 0.27648,3.794926 0.27648,1.259047 0.13824,-0.113927 0.2304,1.58287 0.13824,-1.807643 0.0922,0.215928 0.0922,0.08888 0.18432,1.028839 0.41472,-1.315629 -0.32256,1.370331 0.36864,-1.132187 0.0922,0.522883 0.0461,-0.06357 0.0922,-0.241883 0.0461,0.172204 0.0461,-0.213744 0.2304,-1.897443 0.55296,2.951858 0.0461,0.798503 0.0922,-0.06526 0.0922,0.306056 0.13824,1.097799 0.4608,-3.307441 0.2304,-1.163371 0.27648,1.450873 0.27648,1.470286 0.0461,-0.197894 0.0461,0.112692 0.0922,0.524946 0.0461,0.547719 0.0922,-0.056 0.13824,0.77948 0.0461,-0.32738 0.13824,-0.987548 0.13824,0.491018 0.0461,-0.0552 0.0461,0.61166 0.0461,-0.29546 0.0922,-0.45058 0.0461,0.0328 0.13824,0.5464 0.0461,0.8599 0.0461,-0.009 0.0461,-0.57718 0.0922,0.1155 0.0461,0.0638 0.13824,-0.38034 0.0461,0.0308 0.0922,0.67093 0.0922,-0.86317 0.0461,0.40527 0.0922,0.0948 0.4608,-2.794099 0.0461,0.416355 0.0461,-0.101896 0.0461,-0.120003 0.13824,-1.202211 0.0461,-0.101188 0.0461,0.03621 0.18432,1.206531 0.0461,-0.0062 0.0922,0.187014 0.13824,1.611477 0.13824,-0.613074 0.0461,0.01993 0.27648,3.154884 0.13824,0.29861 0.0922,-0.17807 0.36864,2.91589 0.0461,-0.21287 0.0922,-0.82683 0.0461,0.20308 0.0461,-0.0345 0.2304,-2.25686 0.0461,0.43947 0.0922,0.0964 0.18432,-0.81637 0.0461,0.0348 0.2304,-1.22266 0.36864,-1.11677 0.0461,0.23874 0.0461,-0.0509 0.0461,0.21453 0.13824,-0.599474 0.0461,0.252584 0.0461,-0.0957 0.0922,0.0213 0.41472,2.00137 0.13824,1.08322 0.0461,-0.14291 0.18432,1.13972 0.0461,0.1076 0.0922,0.73378 0.0461,-0.10479 0.0922,0.11487 0.13824,2.31185 0.0461,-0.18631 0.64512,-4.30053 0.0461,0.0896 0.0461,-0.0597 0.0922,-1.12811 0.0922,-1.25737 0.0461,0.11777 0.0922,0.0325 0.0461,0.051 0.0461,-0.40813 0.0461,0.27319 0.0461,0.0374 0.0922,0.57243 0.0461,-0.0424 0.0461,0.0352 0.13824,0.90822 0.0922,-0.54273 0.0461,0.28965 0.2304,1.68977 0.0461,-0.13985 0.0461,0.0273 0.13824,0.7203 0.32256,-1.81906 0.0922,0.24525 0.13824,-0.79378 0.18432,-1.31234 0.0461,0.10305 0.0461,-0.29 0.0461,0.32479 0.0922,0.26474 0.41472,2.79826 0.0461,0.0129 0.0461,0.17926 0.13824,1.24156 0.0461,-0.0186 0.0461,-0.35807 0.0461,0.17472 0.0922,0.11324 0.13824,0.79205 0.18432,-0.72477 0.0461,0.40594 0.0461,-0.25389 0.0922,0.0399 0.0461,0.67786 0.0922,-0.0649 0.0461,0.017 0.0461,0.27804 0.0461,-0.27193 0.18432,-1.10907 0.18432,1.61289 0.0461,-0.007 0.27648,-0.59946 0.0461,0.67304 0.0461,-0.45132 0.0461,0.0356 0.0461,-0.0904 0.0922,0.60067 0.0461,-0.0887 0.0461,-0.0379 0.18432,-1.02168 0.0922,-0.69932 0.0461,0.0345 0.0461,-0.2396 0.0461,0.0962 0.0922,0.35988 0.0461,-0.1043 0.2304,-1.15327 0.36864,1.84364 0.18432,0.67523 0.0461,0.11314 0.0922,-0.69524 0.0461,0.11337 0.13824,1.7369 0.13824,1.23006 0.0922,-0.38144 0.0922,0.44805 0.0461,-0.27277 0.0461,-0.2849 0.0461,0.3613 0.0922,-0.035 0.0922,-0.76681 0.0461,0.0225 0.0461,0.0635 0.36864,-3.425 0.0461,0.24845 0.0461,-0.30483 0.0922,-0.3574 0.0461,0.47301 0.13824,-1.19787 0.13824,0.26649 0.0461,-0.17281 0.0922,0.48657 0.0461,-0.10782 0.18432,-0.76823 0.18432,0.79993 0.0922,0.0202 0.13824,0.7504 0.0461,0.0543 0.41472,3.47735 0.0461,-0.33175 0.13824,-1.54379 0.18432,-1.85941 0.13824,-0.074 0.36864,-3.76554 0.13824,-0.65341 0.0461,0.150788 0.0922,0.797352 0.0461,-0.0847 0.0922,-0.65476 0.0922,0.19619 0.18432,0.36457 0.0461,-0.38732 0.0461,0.16018 0.0461,0.006 0.0922,0.78792 0.0461,-0.13567 0.0461,-0.032 0.0461,0.098 0.0922,-0.7951 0.0461,0.32632 0.0922,0.26296 0.0922,0.93429 0.0461,-0.0859 0.64512,3.16049 0.32256,-2.22589 0.13824,-1.09787 0.13824,-1.57197 0.0461,0.1101 0.0461,-0.334625 0.0461,0.490985 0.0461,-0.376119 0.18432,0.541579 0.0922,1.62824 0.9216,29.7233 0.0461,-0.0212 0.0461,-0.17547 0.0461,0.10137 0.0461,0.12635 0.78336,-4.86501 0.0461,-0.0419 0.27648,1.04278 0.0461,0.11601 0.0461,-0.16224 0.0461,-0.25096 0.4608,6.11781 0.18432,0.69918 0.13824,-0.97062 0.0461,0.0976 0.0461,-0.0975 0.64512,-11.84835 0.0461,0.066 0.0461,-0.2613 0.0461,0.31556 0.0922,-0.0329 0.0922,0.65532 0.4608,5.46946 0.41472,-3.185 0.0922,0.68482 0.0461,-0.27189 0.0922,-0.78845 0.0461,0.23793 0.0461,-0.0107 0.0461,-0.24234 0.0461,0.0468 0.0461,0.15925 0.0461,-0.19565 0.41472,6.19446 0.0922,0.1756 0.13824,1.46503 0.0461,-0.40223 0.0922,-0.13799 0.0922,0.7988 0.0461,-0.164 0.27648,-2.87224 0.0461,-0.42014 0.0461,0.25551 0.13824,0.26943 0.0922,-0.32401 0.0461,0.13726 0.13824,0.36258 0.18432,-1.79499 0.0461,0.21462 0.2304,1.24905 0.0461,-0.24157 0.13823,-1.36475 0.0461,0.0203 0.0461,0.45457 0.0922,-1.06152 0.0461,0.16345 0.18432,-0.90507 0.0461,-0.21128 0.36864,-5.26011 0.13824,-0.38045 0.2304,0.45742 0.18432,2.90497 0.4608,7.37691 0.0461,-0.0331 0.0461,-0.16607 0.0461,0.0675 0.18432,1.66625 0.0461,-0.0424 0.0461,0.13222 0.2304,1.79056 0.0461,0.19736 0.36864,6.34205 0.0461,-0.0288 0.0461,0.17149 0.2304,1.83052 0.13824,-1.07853 0.0461,0.13233 0.0461,0.36126 0.0922,-0.0293 0.27648,-2.4911 0.0461,0.0205 0.0922,-0.76136 0.59904,-6.30072 0.32256,-6.4344 0.41472,-6.18466 0.0461,-0.11377 0.0922,-0.84928 0.0461,0.0685 0.18432,1.59557 0.13824,-0.0779 0.55296,6.53417 0.0922,-0.5593 0.0461,0.2824 0.59904,7.1751 0.0461,-0.19382 0.0461,0.27428 0.0461,0.27476 0.0461,-0.0568 0.0922,-0.10956 0.4608,-6.50908 0.27648,-4.11937 0.0461,-0.11785 0.18432,-1.53552 0.0461,0.0177 0.0461,0.002 0.0461,-0.6684 0.0922,0.0421 0.0922,-0.34333 0.2304,-2.4262 0.18432,-2.22201 0.13824,0.33381 0.0461,0.17515 0.2304,-0.838 0.0922,-0.45166 0.0461,0.47733 0.0461,-0.0723 0.2304,-1.99144 0.0461,-0.1677 0.6912,-10.24785 0.0461,-0.0163 0.0461,-0.18471 0.36864,-4.43268 0.27648,-2.714357 0.13824,-0.873978 0.0922,0.220808 0.2304,-0.981344 0.18432,0.925022 0.0461,0.118608 0.2304,3.191489 0.13824,0.626071 0.0922,-0.04935 0.0461,0.237751 0.2304,2.96678 0.27648,2.93141 0.0461,-0.26106 0.13824,-1.55738 0.0461,0.10929 0.13824,0.72902 0.41472,-1.45098 0.0922,-1.25494 0.0922,-1.37485 0.0461,0.16914 0.2304,-2.347047 0.0461,-0.110035 0.41472,-4.169775 0.41472,5.702887 0.0461,-0.229732 0.0461,0.135752 0.36864,4.70554 0.13824,-1.72658 0.27648,-3.546956 0.0461,0.02689 0.0922,-0.585455 0.18432,-2.809331 0.18432,-1.897112 0.32257,3.256662 0.0922,-0.311233 0.0461,0.05524 0.32256,2.288848 0.0461,0.02758 0.0461,0.223921 0.13824,-0.630992 0.0461,0.139407 0.0461,-0.17618 0.41472,5.624281 0.2304,1.57006 0.18432,1.36645 0.0922,0.0569 0.0461,-0.17876 0.18432,1.38983 0.6912,11.5725 0.2304,0.3989 0.13824,0.52667 0.18432,-0.55948 0.32256,-3.36658 0.0461,-0.20702 0.0461,0.25726 0.0461,0.20267 0.0461,-0.16326 0.18432,-3.10564 0.2304,-4.59922 0.18432,-0.56602 0.0461,-0.004 0.4608,-3.05234 0.0461,0.33749 0.18432,-1.30653 0.0461,0.01 0.36864,-2.43154 0.2304,-1.09167 0.36864,3.33474 0.2304,-1.4868 0.0461,0.19973 0.27648,-2.71813 0.2304,-4.91833 0.0461,0.170814 0.0461,-0.04773 0.0461,-0.437482 0.0922,0.104584 0.32256,1.09409 0.73728,8.235104 0.0922,-0.47411 0.0461,0.16903 0.0461,-0.20384 0.2304,-1.10858 -0.13824,1.1493 0.18432,-1.13975 0.0461,0.1457 0.32256,-3.71685 0.6912,8.15156 0.0461,-0.007 0.0922,0.74682 0.0461,-0.10126 0.50688,-5.45616 0.36864,-2.5174 0.0461,0.064 0.18432,1.04688 0.0461,-0.0852 0.0461,-0.13983 0.0461,0.0432 0.0461,0.15331 0.32256,3.03603 0.0461,-0.29747 0.0461,0.31227 0.0461,0.13506 0.0461,-0.14767 0.0461,0.0399 0.0461,0.41904 0.0461,-0.3833 0.18432,-1.59209 0.0461,-0.0864 0.0461,0.13106 0.82944,6.19696 0.13824,-0.77688 0.4608,-5.85963 0.0461,0.24535 0.0461,0.55792 0.0461,-0.29987 0.27648,-1.48294 0.36864,-3.91408 0.0922,0.29339 0.0461,0.477264 0.0461,-0.37882 0.13824,-0.746904 0.0461,0.68249 0.0461,-0.134967 0.0461,-0.430347 0.0461,0.475258 0.0922,0.756835 0.0461,-0.384407 0.0922,0.125893 0.0461,-0.317557 0.0922,1.08542 0.0461,-0.415656 0.32256,-4.388426 0.0922,-1.349891 0.0461,0.136332 0.0461,-0.191552 0.0922,0.957106 0.27648,5.687739 0.41472,7.41348 0.0461,0.87773 0.0461,-0.0718 0.0461,-0.38093 0.0461,0.50576 0.0461,-0.12183 0.0461,0.68795 0.0461,-0.027 0.13824,-0.7547 0.18432,-0.90753 0.27648,-5.10416 0.27648,-4.461748 0.2304,-1.83632 0.0461,-0.01571 0.0461,0.12517 0.0922,-0.703971 0.0461,0.174359 0.32256,2.801792 0.0461,-0.175895 0.2304,-1.475483 0.0461,0.292969 0.0461,-0.128711 0.0461,-0.236936 0.0461,0.08209 0.32256,3.385334 0.13824,1.2888 0.13824,2.46363 0.0461,-0.0921 0.0461,0.0557 0.18432,0.57111 0.0461,0.01 0.0922,0.39749 0.0461,0.48151 0.0461,-0.88594 0.0461,0.0202 0.18432,1.00306 0.0922,-0.72989 0.0922,0.0386 0.2304,1.48651 0.18432,-1.66206 0.2304,-2.42433 0.13824,-0.69198 0.18432,1.10677 0.0461,-0.0773 0.13824,-0.67478 0.0461,0.0747 0.0461,-0.16037 0.4608,2.73394 0.0461,-0.3468 0.0461,0.23057 0.27648,1.68361 0.18432,2.33591 0.0461,-0.18391 0.18432,0.82435 0.0922,-0.47672 0.0922,0.12944 0.0461,-0.0292 0.4608,-3.33255 0.0461,0.12702 0.0461,-0.0884 0.4608,-3.08466 0.0922,0.69747 0.18432,-1.37216 0.2304,-0.68658 0.23041,1.0054 0.0461,-0.16136 0.13824,-1.00255 0.0461,0.15195 0.0461,-0.52526 0.0461,0.056 0.13824,0.50989 0.0461,-0.1761 0.0461,0.17179 0.0461,0.24769 0.0461,-0.31619 0.0461,-0.1916 0.0461,0.0322 0.13824,1.22084 0.4608,4.09099 0.0922,0.75757 0.0461,-0.48794 0.0461,-0.21335 0.18432,1.14093 0.13824,-0.9605 0.0922,0.2256 0.0461,0.4712 0.0461,-0.28269 0.32256,-1.89522 0.13824,1.36361 0.55296,-3.55879 0.0922,-0.89515 0.13824,0.81316 0.0461,-0.0217 0.96768,-5.804706 0.0922,0.707969 0.0461,-0.427555 0.13824,-0.746559 0.0461,0.319894 0.0461,-0.225261 0.36864,-3.626391 0.0461,0.105047 0.13824,-1.465791 0.0922,-1.847597 0.0922,0.409881 0.0922,0.285271 0.0922,-1.033796 0.0461,0.451664 0.0461,0.396727 0.0461,-0.321093 0.18432,-0.845978 0.13824,-0.660823 0.0922,0.168855 0.18432,1.093052 0.0922,-0.217172 0.36864,4.517237 0.27648,2.739634 0.0461,0.119447 0.32256,3.781474 0.0461,-0.16404 0.0461,0.0273 0.18432,0.92352 0.27648,1.81121 0.0461,-0.22091 0.36865,-2.946384 0.18432,0.861654 0.0461,-0.034 0.0922,-0.46847 0.27648,2.79767 0.0461,-0.27545 0.13824,1.26756 0.0922,1.17459 0.0461,-0.0625 0.0461,0.0756 0.2304,-1.65436 0.0461,-0.017 0.0922,-0.50697 0.0461,0.28878 0.27648,1.98789 0.0461,-0.0175 0.0461,-0.13923 0.0461,0.0833 1.05984,17.70743 0.27648,1.63344 0.0922,-0.54753 0.0461,0.0517 0.0922,0.25754 0.2304,-1.8791 0.32256,-2.5205 0.0922,-0.7377 0.50688,-4.82227 0.36864,1.04534 0.6912,7.94519 0.0461,-0.18318 0.0461,0.34517 0.0922,-0.10035 0.32256,-5.05334 0.32256,-6.69738 0.27648,-3.74662 0.18432,-1.03932 0.0461,0.16239 0.13824,0.44886 0.0922,-0.093 0.13824,-0.94731 0.0461,0.009 0.0461,-0.0333 0.0461,0.16632 0.0922,-0.43285 0.0461,0.0775 0.13824,-0.22198 0.0461,0.0408 0.0922,-0.85643 0.0461,0.15598 0.0461,0.0115 0.2304,1.39171 0.0461,-0.35116 0.27648,-1.59387 0.0922,0.2631 0.0461,-0.17203 0.0461,0.11026 0.13824,0.0401 0.0461,0.17503 0.0461,-0.0759 0.0461,-0.60591 0.0461,0.18005 0.18432,0.97711 0.0461,-0.0251 0.0461,0.12653 0.0461,-0.18927 0.0461,-0.30137 0.0461,0.45447 0.0461,-0.24405 0.0461,-0.0238 0.18432,1.18184 0.2304,-2.86989 0.0461,-0.68041 0.0461,0.008 0.0461,0.42709 0.0461,-0.55146 0.0461,-0.39425 0.0461,0.48884 0.2304,1.81162 0.13824,-0.21628 0.0922,0.80914 0.18432,3.29521 0.27648,4.11478 0.0922,-0.0371 0.32256,1.75993 0.2304,-1.70914 0.2304,-2.46928 0.59904,-7.81237 0.0922,-0.16417 0.13824,-0.91913 0.0461,0.32982 0.0922,-0.11911 0.18432,0.97107 0.0922,-1.56932 0.0461,0.14275 0.27648,2.09628 0.0461,-0.098 0.0461,0.10668 0.13824,1.82723 0.0461,-0.0534 0.0922,-0.44206 0.13824,-0.82205 0.13824,2.04502 0.0461,-0.11423 0.13824,-0.47857 0.18432,0.8507 0.13824,-1.80568 0.0922,0.41993 0.18432,1.9903 0.0922,-0.14252 0.0461,-0.0402 0.0461,0.0851 0.13824,0.85257 0.0461,0.007 0.32256,3.64952 0.0922,-0.20216 0.0922,-0.48125 0.0461,0.11048 0.27648,1.93637 0.0922,-0.41445 0.2304,-2.65705 0.13825,1.0019 0.0461,-0.22471 0.0461,0.0435 0.2304,1.83394 0.0922,0.0842 0.4608,3.03167 0.0461,-0.10599 0.18432,1.1382 0.13824,-0.196 0.0461,0.11446 0.0461,-0.025 0.18432,-1.18348 0.36864,-2.09832 0.13824,-0.40536 0.0922,0.55555 0.0922,-0.0331 0.59904,2.32715 0.78336,-7.65942 0.0461,0.12578 0.18432,-1.65843 0.0922,0.19825 0.50688,-6.492006 0.41472,-1.676436 0.2304,2.209272 0.4608,2.05804 0.18432,-0.85303 0.0922,-0.0146 0.0461,0.70572 0.0461,-0.19858 0.0461,0.59102 0.0461,-0.19644 0.0461,-0.11913 0.0461,-0.43836 0.0461,0.4328 0.13824,0.77531 0.0461,-0.3908 0.0461,0.21474 0.18432,1.92855 0.13824,-0.51432 0.0461,0.17372 0.27648,-2.57366 0.0461,-0.0295 0.4608,-3.197099 0.0461,0.04559 0.27648,-1.84134 0.0461,0.586827 0.0461,0.618031 0.0922,-0.155882 0.13824,0.388744 0.0461,-0.499072 0.0461,0.513281 0.13824,-0.377323 0.0922,0.915721 0.0461,-0.0042 0.0461,-0.04395 0.0461,0.09731 0.0922,0.123168 0.27648,1.356854 0.0461,0.13849 0.0461,-0.32569 0.2304,2.09828 0.18432,1.56347 0.27648,1.76759 0.0922,-0.0214 0.13824,2.45923 0.50688,5.28423 0.0461,0.0656 0.32256,2.57526 0.18432,-1.26105 0.2304,-3.8326 0.32256,-3.48365 0.18432,-1.96016 0.0461,0.3267 0.0922,0.0638 0.27648,3.38695 0.0922,0.27624 0.13824,1.05804 0.0461,-0.28541 0.2304,-0.82092 0.36864,-10.162038 0.4608,-14.853853 0.2304,-3.001574 0.0461,0.347321 0.0461,0.15363 0.27648,3.896893 0.18432,1.438933 0.18432,2.185832 0.13824,-0.0018 0.0461,-0.018 0.27648,-1.725986 0.13824,0.195656 0.0922,0.926708 0.0461,-0.398578 0.0922,-1.332168 0.0461,0.04983 0.0461,-0.04666 0.0461,0.786761 0.0461,-0.244539 0.41472,-1.839926 0.0461,0.132607 0.0461,-0.189962 0.0922,-0.453056 0.0922,1.402462 0.0461,-0.05222 0.0461,-0.17097 0.0461,0.418985 0.0461,-0.724488 0.0461,0.296264 0.32257,3.316806 0.27648,3.54284 0.0922,-0.207915 0.27648,1.7878 0.0922,0.01918 0.2304,1.515954 0.0461,-0.118434 0.0461,0.113183 0.0461,0.03747 0.0461,-0.09139 0.2304,1.020524 0.0461,-0.174434 0.0461,0.02416 0.27648,1.613755 0.0461,-0.03326 0.0461,0.929082 0.0922,-0.221157 0.0461,-0.07362 0.27648,1.684962 0.32256,2.8241 0.27648,1.19671 0.27648,1.21803 0.0461,-0.009 0.27648,-2.0247 0.0461,0.125 0.0922,1.00908 0.0461,-0.25093 0.0461,-0.42026 0.0461,0.17341 0.0461,0.18918 0.0461,-0.19218 0.0922,-0.34147 0.0461,0.20276 0.0461,-0.14757 0.0461,0.0259 0.18432,1.24224 0.0461,-0.228 0.0461,0.47586 0.0461,-0.19487 0.36864,-2.80269 0.0461,0.18311 0.0461,-0.0575 0.0461,-0.34033 0.0461,0.0302 0.0461,0.20217 0.18432,-1.38521 0.27648,0.96153 0.2304,1.76529 0.78336,-7.660697 0.2304,2.02394 0.13824,0.545957 0.0461,-0.064 0.2304,2.4616 0.0461,-0.0537 0.0922,0.18429 0.2304,-1.99422 0.18432,-2.40904 0.0461,-0.06412 0.13824,-0.73907 0.0461,-0.115838 0.13825,-0.518685 0.0461,-0.04726 0.32257,-1.96122 0.0461,0.172588 0.13824,0.01829 0.0461,-0.07265 0.0461,0.32418 0.0461,-0.335767 0.27648,-2.485498 0.0461,0.0096 0.0922,0.335644 0.0922,-0.559575 0.0461,0.201887 0.0461,-0.01897 0.13824,-0.800878 0.0461,0.123483 0.18432,0.315237 0.13824,-0.155963 0.0922,1.008974 0.73728,5.80753 0.13824,0.158171 0.0922,-0.466885 0.0461,0.236986 0.0461,-0.133502 0.0461,0.224869 0.0461,-0.209713 0.36864,-1.565248 0.36864,1.677187 0.0922,-0.288937 0.0461,0.07063 0.0922,0.17992 0.13824,1.435111 0.18432,2.114332 0.59904,2.72751 0.41472,-2.75829 0.0461,0.1493 0.0922,-0.47966 0.0922,0.0424 0.32256,1.64224 0.0461,-0.0816 0.0922,0.53035 0.0922,0.26916 0.13824,-0.65663 0.0461,-0.71214 0.0461,0.28151 0.0461,0.0493 0.0461,-0.0753 0.18432,-0.0294 0.0922,0.14082 0.0461,-0.0495 0.27648,-1.56693 0.18432,0.63413 0.0461,-0.68892 0.0461,0.43677 0.0922,-0.0199 0.2304,-2.011669 0.18432,-1.487246 0.13824,-0.624051 0.36865,-4.304534 0.0461,-0.231714 0.18432,-1.926603 0.0461,0.08157 0.0461,-0.240426 0.0461,0.16615 0.0461,0.04022 0.2304,0.773646 0.0922,-0.233272 0.27648,2.158545 0.0461,-0.338056 0.0461,-0.170205 0.13824,0.683374 0.13824,-0.291174 0.0461,0.311241 0.0461,-0.291009 0.0922,-0.428372 0.13824,1.119 0.0922,-0.231586 0.13824,-0.562192 0.0461,0.01908 0.0461,0.335109 0.0461,-0.08991 0.0922,-0.441432 0.0461,0.351023 0.0461,0.203421 0.0461,-0.165248 0.0922,-0.706196 0.0461,0.218024 0.0461,-0.03872 0.2304,-1.201157 0.13824,0.867281 0.18432,0.859486 0.2304,1.249213 0.2304,2.874953 0.18432,1.031665 0.18432,0.73421 0.13824,0.110182 0.36864,-3.438742 0.0461,0.08549 0.18432,-1.773741 0.18432,-0.195229 0.13824,0.14612 0.13824,1.293858 0.0461,-0.333848 0.0461,0.165168 0.0461,-0.21534 0.41472,-2.533672 0.2304,-2.652811 0.41472,-3.410329 0.0922,0.364114 0.0461,-0.06796 0.0461,0.104785 0.0922,-0.443168 0.13824,1.384736 0.13824,-0.634302 0.0922,-0.04872 0.41472,1.947054 0.0461,-0.24727 0.0461,0.760075 0.0461,-0.448206 0.13824,-1.680127 0.0461,0.241498 0.0922,0.21836 0.13824,-0.675581 0.13824,0.502886 0.0461,-0.320021 0.0461,0.01179 0.0922,0.271908 0.13824,-0.64125 0.0922,1.298784 0.0461,-0.217961 0.0922,-0.324141 0.13824,-0.670261 0.0461,-0.03826 0.18432,-2.15849 0.0922,0.03866 0.0922,-0.11641 0.0922,0.443572 0.0922,-1.465819 0.0922,0.452654 0.13824,1.139043 0.0461,-0.104644 0.0461,0.119249 0.0461,-0.01373 0.18432,0.782791 0.0461,-0.418469 0.13824,-0.526584 0.18432,1.2497 0.0922,-0.266793 0.0461,-0.587309 0.0461,0.114642 0.41472,3.908114 0.0461,-0.05719 0.0461,0.05342 0.18432,-0.539824 0.32256,1.756446 0.0461,-0.09677 0.0922,0.480497 0.13824,-1.250351 0.0461,0.0268 0.18432,1.328014 0.27648,2.156527 0.0922,0.202483 0.0461,-0.538359 0.0461,0.09005 0.13824,1.052486 0.18432,1.23453 0.13824,0.09752 0.0461,-0.222421 0.0461,0.05355 0.0461,0.403181 0.0461,-0.311353 0.0461,-0.14891 0.2304,-1.782776 0.0461,-0.157628 0.0461,0.06414 0.0461,0.226225 0.50688,-5.448263 0.18432,-2.103664 0.0461,0.06615 0.32256,-3.685031 0.0461,0.08036 0.27648,1.136918 0.2304,2.256466 0.0461,-0.223748 0.0461,0.02183 0.27648,1.539539 0.27648,1.745311 0.0461,-0.08056 0.0461,0.205986 0.13824,0.959055 0.0461,0.05222 0.13824,0.976781 0.0461,-0.02419 0.0922,0.889058 0.0461,-0.01205 0.0461,-0.434414 0.0461,0.109403 0.0461,0.327817 0.0922,-0.07798 0.23041,-1.837581 0.13824,-0.417814 0.18432,-1.101299 0.13824,-0.454594 0.0461,0.36825 0.0922,-1.071342 0.0922,0.08815 0.13824,0.371616 0.0461,-0.285456 0.18432,1.710769 0.0461,0.06611 0.27648,-0.784007 0.18432,-0.06077 0.0461,-0.04568 0.18432,0.444979 0.13824,-1.045467 0.0461,0.425958 0.96768,7.244662 0.0922,-0.201108 0.0461,-0.159641 0.0461,0.104081 0.18432,0.72001 0.50688,-3.386742 0.18432,0.544412 0.13824,-0.918933 0.0461,0.106206 0.41472,1.269593 0.0461,-0.333112 0.0461,0.458668 0.13824,1.046961 0.0461,-0.07165 0.0461,-0.0439 0.0922,0.452708 0.0461,-0.118481 0.13824,-1.001971 0.27648,2.695739 0.0461,-0.127941 0.0461,0.395394 0.0461,-0.484555 0.0461,-0.494882 0.0922,0.07958 0.27648,1.579032 0.0922,0.431657 0.0461,-0.183469 0.0461,0.02587 0.13824,-1.00461 0.0461,0.01539 0.18432,0.859448 0.0922,-0.891824 0.0461,0.0899 0.0922,-0.03133 0.0461,0.606551 0.0461,-0.0076 0.4608,2.88799 0.0461,-0.43246 0.0461,0.25922 0.27648,3.02889 0.32256,-2.8591 0.13824,0.42627 0.0922,-0.48263 0.0461,0.42733 0.0461,-0.1199 0.0922,-0.43997 0.18432,-1.468539 0.59904,5.349719 0.0922,0.0754 0.0922,0.3542 0.0461,-0.0327 0.18432,-0.9528 0.2304,-1.5428 0.13824,-1.52347 0.18432,-1.203774 0.2304,2.072234 0.2304,3.35831 0.0461,-0.0842 0.18432,0.3023 0.0461,-0.10787 0.0461,0.0257 0.0461,0.20666 0.0461,-0.30163 0.0461,0.26982 0.0922,-0.71454 0.0461,0.29068 0.0922,0.39188 0.2304,-1.24607 0.13824,1.03454 0.0461,-0.0152 0.0461,0.0174 0.0922,0.84208 0.0461,-0.62494 0.0461,0.57101 0.0461,-0.29755 0.0461,0.0619 0.0461,0.10433 0.13824,-0.94902 0.0922,0.32014 0.13824,0.85571 0.0922,-0.27775 0.13824,-0.21891 0.0922,0.1908 0.2304,1.73472 0.41472,-4.16238 0.0461,-0.12439 0.41472,-6.039359 0.0922,-0.734987 0.0461,0.351575 0.0461,0.165687 0.13824,-1.003104 0.0461,0.151524 0.0922,-0.903377 0.0461,0.04457 0.0922,0.584223 0.0461,-0.09536 0.0461,-0.05821 0.0461,0.05512 0.18432,-2.892863 0.2304,-3.026632 0.0461,-0.05976 0.0461,0.135369 0.18432,-1.860991 0.0461,-0.01868 0.0922,0.374559 0.0461,-0.176049 0.0461,-0.0076 0.27648,3.497841 0.0461,0.733984 0.0922,-0.190444 0.0922,0.04878 0.0922,0.938454 0.50689,-4.854995 0.0922,-0.409801 0.0461,0.280234 0.0461,0.166097 0.0922,-0.886492 0.0922,0.290468 0.18432,1.201568 0.0461,-0.01085 0.13824,-0.509175 0.0461,0.0678 0.18432,1.653201 0.0461,0.0093 0.0461,-0.643598 0.0461,0.239644 0.0461,0.0392 0.0461,0.206959 0.0461,-0.593425 0.0461,0.288934 0.0461,0.175751 0.13824,-1.261569 0.0922,0.277531 0.13824,1.384046 0.0922,-0.11534 0.0922,0.06648 0.27648,-1.451829 0.13824,-1.458788 0.0461,0.07582 0.0461,0.482336 0.0461,-0.585772 0.0922,0.420257 0.18432,-0.34629 0.41472,2.431498 0.0461,-0.1681 0.0461,0.454873 0.0461,-0.236721 0.18432,-1.454369 0.0922,-0.400048 0.0461,0.137673 0.0922,-0.270639 0.13824,-0.836727 0.0461,-0.01182 0.0461,-0.349949 0.0461,0.240412 0.13824,0.611139 0.0922,-0.699132 0.0461,0.1985 0.0461,-0.03528 0.0922,0.572788 0.0461,-0.03704 0.0461,-0.305267 0.0461,0.07465 0.18432,1.495475 0.0461,-0.136658 0.0461,-0.355886 0.0461,0.319303 0.0922,0.164177 0.0922,-0.573867 0.0461,0.132066 0.4608,2.647539 0.0461,0.01192 0.13824,0.316694 0.13824,-0.796056 0.0461,0.234736 0.0461,0.400732 0.0461,-0.332354 0.0461,0.03033 0.13824,-1.344903 1.3824,-32.505159 0.59904,-9.265298 0.0461,0.08755 0.13824,0.254707 0.0461,-0.117282 0.0922,0.752533 0.0461,-0.05274 0.0922,0.0071 0.0922,-0.27524 0.32256,3.434398 0.0922,1.051303 0.0461,-0.510777 0.0461,-0.406246 0.0461,0.379204 0.18432,0.951714 0.41472,-2.366927 0.59904,-3.973938 0.0461,0.02778 0.13824,-0.777182 0.0922,0.210298 0.36864,3.073144 0.18432,-1.051706 0.0922,0.704568 0.27648,3.453926 0.18432,1.333514 0.13824,-0.526092 0.0461,0.06958 0.27648,4.392912 0.18432,-1.055467 0.27648,-2.783005 0.0461,0.01293 0.0461,-0.293138 0.0461,0.05263 0.0461,0.177987 0.13824,-1.284528 0.0461,0.228282 0.13824,-1.88084 0.0922,0.261185 0.2304,1.939322 0.0461,-0.463147 0.0461,0.219996 0.2304,1.118682 0.0461,-0.310353 0.0922,0.116666 0.27648,2.075433 0.13824,-0.548513 0.0922,0.191 0.18432,-1.732638 0.13824,-0.262688 0.0461,0.112032 0.32256,-4.259144 0.18432,-1.025078 0.0461,-0.334601 0.0461,0.374323 0.0461,0.114304 0.27649,-1.883713 0.0461,0.184075 0.0461,-0.299298 0.0461,0.106819 0.0922,0.69173 0.0461,-0.243686 0.0461,-0.146817 0.2304,1.603984 0.0461,-0.206186 0.27648,-1.576124 0.0461,0.450196 0.0922,0.106759 0.0461,-0.276165 0.0461,0.267939 0.0922,-0.06993 0.0461,0.342487 0.18432,-0.558124 0.0461,0.02465 0.0461,-0.0528 0.0461,0.102629 0.0461,0.149244 0.2304,2.206536 0.18432,0.290568 0.0461,-0.03909 0.13824,1.350702 0.2304,-1.265574 0.0461,0.01885 0.41472,3.431444 0.0922,-0.18656 0.27648,-1.445758 0.0461,0.189011 0.0922,-0.0778 0.59904,-5.582301 0.87552,-6.09185 0.32256,-0.852973 0.73728,-8.079777 0.0461,-0.09317 0.18432,0.575685 0.0461,-0.344671 0.55296,7.468892 0.18432,-0.572553 0.0461,-0.09578 0.32256,-2.173654 0.2304,-0.773644 0.18432,1.407866 0.2304,2.205289 0.13824,0.281033 0.0922,0.500624 0.0461,-0.04681 0.0461,-0.409038 0.0461,0.516901 0.0461,-0.46936 0.18432,-0.927082 0.0461,0.106082 0.0461,0.215109 0.0461,-0.225358 0.0461,-0.432911 0.0461,0.247756 0.18432,1.143653 0.0922,-0.778149 0.18432,-1.397927 0.13824,0.467416 0.18432,-1.2284 0.18432,-2.419509 0.36864,-1.728616 0.0461,0.199854 0.0461,-0.189748 0.27648,-1.445541 0.0461,0.540043 0.18432,-1.815133 0.0461,-0.19007 0.0461,0.03925 0.18432,0.348827 0.13824,-1.192776 0.0461,0.02721 0.18432,-1.306883 0.0461,0.697566 0.0461,0.263501 0.18432,2.843556 0.27648,2.486555 0.13824,0.968015 0.13824,0.988966 0.13824,1.350224 0.0461,0.01441 0.13824,-0.584923 0.0922,0.334785 0.0461,-0.03303 0.2304,-1.07206 0.0461,0.538568 0.0922,-0.105355 0.13824,-0.821844 0.0461,0.69922 0.0461,-0.864493 0.18432,-1.752131 0.0922,-1.061181 0.0461,0.296452 0.18432,1.019809 0.0922,-0.499286 0.18432,-1.101975 0.0461,0.313499 0.18432,-1.673371 0.18432,1.756711 0.0461,-0.42324 0.18432,-2.72397 0.0461,0.07436 0.2304,2.045401 0.0461,0.08677 0.2304,1.767615 0.18432,-1.26922 0.0461,0.400456 0.13824,0.677918 0.0461,-0.0788 0.0461,-0.486714 0.0922,0.09135 0.0461,0.08347 0.13824,-1.004865 0.0461,0.286413 0.0461,-0.215121 0.0461,0.0082 0.0461,-0.274174 0.0461,0.326584 0.13824,1.285848 0.0461,-0.448314 0.36864,1.41052 0.2304,-0.866664 0.0461,0.721906 0.0922,-0.0097 0.0461,-0.419155 0.0922,0.135663 0.18433,2.102378 0.73728,7.992967 0.0922,0.102082 0.0922,0.08877 0.0461,-0.629289 0.0461,0.512927 0.0461,-0.369573 0.0922,-0.214578 0.13824,0.347309 0.0461,-0.03761 0.0461,-0.611187 0.0922,0.147838 0.0461,-0.0028 0.0461,0.207499 0.2304,2.976952 0.18432,1.153656 0.18432,1.822129 0.13824,1.918037 0.0922,-0.01583 0.0461,0.326645 0.0461,-0.01975 0.18432,-1.674481 0.2304,0.921909 0.13824,-1.118236 0.36864,-1.853481 0.0461,0.314581 0.0461,-0.397809 0.0461,0.01186 0.32256,-1.516377 0.0461,0.154452 0.0461,-0.07168 0.41472,-3.503695 0.0461,0.08531 0.18432,-0.859611 0.0461,-0.09198 0.0461,0.152808 0.18432,0.878166 0.2304,2.137049 0.0461,-0.423084 0.50688,-4.616365 0.0461,0.12705 0.13824,0.628476 0.0461,-0.521018 0.0461,0.124176 0.2304,1.866536 0.18432,1.939644 0.27648,2.383133 0.13824,-1.407556 0.0461,0.123229 0.0461,0.0808 0.0922,-0.480402 0.0461,0.322158 0.0461,0.195429 0.0922,-1.135948 0.0461,0.0096 0.0461,0.129499 0.96769,-11.697814 0.0461,0.485601 0.0461,-0.182367 0.18432,2.108453 0.18432,2.119552 0.27648,1.446534 0.18432,0.222485 0.2304,-2.683972 0.0922,-0.235028 0.0461,0.388974 0.0922,-0.102929 0.18432,-0.08282 0.41472,6.404327 0.13824,1.724388 0.0922,-0.518386 0.0461,0.08097 0.0922,1.389554 0.18432,2.213187 0.2304,-1.654045 0.0461,0.179521 0.0461,-0.259182 0.18432,-1.065142 0.0461,-0.0462 0.0461,0.192911 0.0461,-0.03485 0.18432,-1.483033 0.13824,0.03132 0.18432,0.819479 0.0461,-0.280808 0.0461,0.330337 0.2304,1.710069 0.0922,0.144553 0.0461,0.265934 0.0461,-0.227001 0.36864,-3.74146 0.4608,-5.356299 0.18432,-1.638413 0.0461,0.02621 0.0922,1.057837 0.18432,0.995632 0.13824,-0.669225 0.32256,2.971052 0.0922,0.617859 0.2304,2.651566 0.2304,1.472183 0.0461,0.978072 0.0922,-0.339726 0.0461,0.01222 0.0461,-0.379424 0.0461,0.483765 0.41472,1.851655 0.50688,6.466767 0.18432,1.462348 0.0461,-0.119486 0.0922,0.39848 0.0461,-0.115754 0.18432,-0.421475 0.27648,-1.279101 0.0461,0.03101 0.0461,-0.26051 0.0461,0.07882 0.2304,1.143614 0.32256,-2.281932 0.0461,-0.005 0.0922,-0.326673 0.18432,0.59499 0.18432,-2.088052 0.2304,-2.237654 0.41472,-3.458626 0.0922,-0.590838 0.0461,0.05137 0.13824,1.438367 0.0461,-0.296765 0.0922,0.598193 0.0461,-0.123504 0.32256,2.346055 0.0922,-0.0567 0.0461,-0.287897 0.0461,0.298231 0.87552,8.75436 0.32256,-5.195041 0.27648,-3.391952 0.13824,0.477907 0.18432,-2.368307 0.0922,0.9107 0.0461,-0.190059 0.27648,-1.71843 0.0461,0.360765 0.32256,-2.786682 0.0461,-0.08093 0.0922,0.960754 0.0461,-0.252649 0.0922,-0.41515 0.36864,2.046994 0.0922,-0.269489 0.0461,0.341337 0.2304,-2.341369 0.0461,0.318149 0.0461,-0.168885 0.0461,0.04073 0.0461,0.633224 0.0922,-0.127162 0.0461,-0.383628 0.0461,0.360682 0.13824,0.854247 0.13824,1.42365 0.0461,0.0371 1.10593,17.89395 0.18432,0.725222 0.0922,-1.061174 0.0461,0.257697 0.13824,0.655445 0.18432,-1.607348 0.0461,0.293191 0.41472,-6.313667 0.0461,0.485657 0.0461,-0.36462 0.18432,-2.055319 0.0461,0.565748 0.13824,-1.164437 0.18432,-1.806433 0.0922,0.967318 0.0461,-0.439974 0.0461,0.04071 0.13824,-0.626675 0.0461,0.523623 0.0461,-0.84867 0.0922,0.0075 0.0461,0.06586 0.0461,-0.27107 0.0461,0.436207 0.0461,-0.728021 0.0461,0.202701 0.0922,0.700231 0.0461,-0.115883 0.0922,-0.36427 0.0922,0.703859 0.0461,-0.4701 0.0461,0.0077 0.0461,-0.160222 0.0461,0.374613 0.13824,-1.252926 0.0922,-0.700853 0.0922,-0.567018 0.27648,1.701406 0.0461,0.110742 0.0461,-0.03032 0.0461,-0.189803 0.0461,0.797209 0.0461,-0.05135 0.0922,-0.667824 0.13824,1.575715 0.0461,-0.459382 0.0461,-0.03293 0.0461,0.568761 0.0461,-0.551853 0.27648,-0.7324 0.18432,0.934591 0.13824,1.058634 0.0922,-0.399996 0.0461,-0.629392 0.0461,0.212675 0.13824,0.454662 0.0922,-0.33074 0.13824,-0.223531 0.0461,0.118389 0.18432,-1.086248 0.13824,-0.843171 0.18432,2.50864 0.0461,-0.08156 0.13824,-1.75755 0.0461,0.105463 0.0461,-0.537436 0.0461,0.128839 0.0461,0.280774 0.0461,-0.237351 0.0461,-0.02527 0.0922,-0.838455 0.32256,-8.293343 0.18432,-3.539053 0.0461,-0.128201 0.18432,-1.968496 0.18432,-1.437865 0.0461,0.149474 0.32256,4.105525 0.23039,3.258606 0.27649,1.441609 0.32256,2.623786 0.13824,1.264035 0.0461,-0.02359 0.59904,9.178485 0.18432,0.906305 0.2304,2.132027 0.0461,0.04331 0.13824,0.579551 0.13824,0.937802 0.27648,2.748653 0.0461,0.01429 0.18432,1.321111 1.56672,19.188804 0.36864,2.094382 0.0922,-0.411671 0.0461,-0.09041 0.36864,-3.328556 0.0461,-0.20327 0.27648,-2.864045 0.0922,-0.629389 0.0461,0.09807 0.0922,0.143962 0.18432,1.412302 0.0461,0.0253 0.0461,-0.185443 0.27648,2.452804 0.18432,1.524861 0.0461,-0.143245 0.0461,0.02271 0.4608,-2.824669 0.41472,-6.537223 0.0461,0.170233 0.0461,-0.133823 0.0461,-0.06685 0.0461,0.244947 0.0461,-0.07168 0.0461,-0.104772 0.0461,0.361859 0.0461,-0.467787 0.13824,1.206443 0.41471,3.185595 0.32257,-2.654838 0.0461,0.162843 0.0461,-0.05732 0.18432,-2.388507 0.0922,0.357318 0.2304,-1.696383 0.0461,-0.100857 0.0461,0.07942 0.32256,-5.061995 0.0461,-0.07533 0.0922,-0.648743 0.18432,0.653793 0.2304,-1.461443 0.2304,1.539609 0.0461,0.425356 0.0922,-0.135755 0.0461,0.01359 0.0922,-0.835355 0.32256,-4.360138 0.0922,-0.29248 0.32256,-3.348297 0.18432,-1.000184 0.0461,0.515389 0.0922,-0.117441 0.4608,-6.639853 0.0461,0.110922 0.78336,-5.702693 0.0922,0.298159 0.18432,-1.840509 0.0922,0.09744 0.0461,-0.09101 0.13824,0.998217 0.0461,-0.171354 0.13824,1.821 0.27648,4.553072 0.32256,2.443859 0.0461,-0.329419 0.0461,-0.188891 0.0461,0.219559 0.0461,0.395852 0.0461,-0.570062 0.0922,0.183743 0.0922,-0.502377 0.0461,0.08947 0.13824,0.331598 0.0922,-0.285164 0.4608,2.793448 0.0461,-0.276987 0.0461,-0.372189 0.0922,0.142032 0.13824,-0.01916 0.18432,-1.401098 0.41472,-5.038908 0.0461,0.117863 0.0922,-0.551457 0.82945,-6.523843 0.13824,-1.422163 0.0461,0.05018 0.6912,6.148344 0.0922,1.149688 0.0461,-0.250487 0.0461,0.04991 0.36864,-4.990998 0.0461,-0.113615 0.0461,0.169815 0.13824,0.648317 0.0461,-0.124883 0.0461,0.450566 0.0461,-0.05351 0.0461,-0.236558 0.0461,0.331785 0.13824,0.702926 0.0922,0.0386 0.2304,2.160694 0.0461,-0.172941 0.2304,-0.795826 0.13824,-0.109241 0.13824,1.061406 0.0461,-0.206893 0.0461,0.07857 0.13824,0.870572 0.0461,-0.04303 0.0922,-0.79483 0.0461,0.150804 0.13824,0.73517 0.0922,0.06201 0.0461,-0.213198 0.18432,-1.18183 0.0461,0.117191 0.0922,0.900676 0.0461,-0.03603 0.41472,-3.034741 0.0461,0.749202 0.0922,-0.03322 0.13824,0.439132 0.0461,0.711345 0.0461,-0.04191 0.13824,-0.659764 0.0922,1.242948 0.27648,3.923099 0.32256,2.334777 0.0461,-0.147612 0.2304,2.470695 0.0461,-0.04041 0.2304,1.845491 0.50688,6.530987 0.13824,1.885699 0.0461,-0.06744 0.23041,-1.176256 0.23039,-0.579536 0.4608,-7.058281 0.0461,0.130451 0.0461,0.204777 0.0461,-0.271138 0.2304,-2.53876 0.18432,-1.58237 0.0461,0.503363 0.0922,-0.111548 0.4608,-4.928875 0.0461,0.02185 0.2304,-0.360305 0.0461,0.07373 0.13824,-1.14807 0.0461,0.174751 0.0461,-0.218107 0.0922,0.05846 0.0461,-0.360052 0.13824,0.611062 0.18432,2.524541 0.0922,0.581918 0.55296,5.172666 0.0461,0.01613 0.55296,-7.905469 0.27648,-5.256247 0.0461,0.05797 0.50688,1.933443 0.13824,-0.622885 0.0461,0.753938 0.0922,-0.183302 0.13824,1.304095 0.0461,-0.20899 0.0922,-0.940936 0.0461,0.234027 0.0461,-0.160946 0.18432,0.66815 0.0461,-0.417122 0.0461,0.460679 0.2304,2.469748 0.0922,0.754925 0.0461,-0.367385 0.0461,-0.186179 0.0461,0.253207 0.0461,0.727272 0.0922,-0.181305 0.0461,-0.03776 0.0461,-0.247195 0.0461,0.168282 0.13824,0.581054 0.32256,-2.700324 0.0461,0.09843 0.0922,0.313313 0.27648,-1.050687 0.0922,-0.689117 0.0461,0.254336 0.18432,-0.87695 0.0461,0.04956 0.50688,4.134388 0.2304,1.238269 0.18432,2.111407 0.0461,-0.06477 0.27648,-0.792271 0.0461,0.08631 0.2304,1.528957 0.0461,-0.277967 0.0461,-0.424819 0.0922,0.06981 0.13824,-0.290392 0.0922,0.151706 0.2304,1.07654 0.27648,-1.315635 0.32256,-2.062785 0.6912,-8.866554 0.0461,0.108668 0.0461,-0.134025 0.13824,-0.966087 0.0461,0.04561 0.18432,-0.179529 0.0461,0.361955 0.0461,-0.202469 0.0922,-0.526978 0.0461,0.01499 0.0922,-0.372235 0.18432,-2.474686 0.0461,0.0666 0.13824,0.373632 0.4608,-1.886082 0.13824,-1.002912 0.13824,0.971228 0.0461,-0.101558 0.4608,-3.487639 0.0461,-0.06551 0.0922,-0.860057 0.0461,0.192839 0.0922,-0.787617 0.36864,-3.762579 0.0461,-0.163224 0.0461,0.225011 0.0461,0.01355 0.18432,-0.761354 0.0461,0.34754 0.0461,-0.09558 0.0922,0.585467 0.13824,1.594536 0.0922,-0.100833 0.0461,0.225444 0.0922,-1.283817 0.0461,0.152121 0.41472,4.285878 0.0461,-0.01973 0.0461,-0.178075 0.0461,-0.897519 0.0461,0.509765 0.32256,2.533518 0.0461,-0.398687 0.0461,-0.168413 0.18432,-2.260106 0.2304,-2.00382 0.0461,0.393322 0.0461,-0.05499 0.13825,-0.970577 0.0461,0.759585 0.0461,-0.07151 0.27648,-3.156648 0.0461,0.05996 0.0461,-0.328055 0.0461,0.07814 0.13824,0.778863 0.0461,-0.01141 0.0461,-0.01996 0.27648,-1.447016 0.18432,1.276723 0.32256,3.124022 0.18432,2.202088 0.32256,5.543062 0.0461,-0.03398 0.0922,0.214349 0.13824,-0.300352 0.0461,-0.01222 0.36864,-1.505283 0.0461,0.247475 0.0461,-0.523694 0.0461,0.304651 0.18432,2.373173 0.2304,2.795116 0.0461,-0.409643 0.0922,-0.688999 0.0461,0.250307 0.0461,-0.08428 0.0461,0.33198 0.0461,-0.306462 0.27648,-3.547218 0.41472,-6.895839 0.0922,0.423746 0.0461,-0.08327 0.18432,-1.560576 0.41472,-1.663455 0.0461,0.134479 0.73728,5.512008 0.4608,4.58831 0.2304,1.98585 0.0922,-0.390409 0.13824,-0.846257 0.13824,0.187798 0.0461,-0.176323 0.13824,1.094781 0.0461,-0.07325 0.13824,0.741748 0.0461,-0.324664 0.0461,0.220985 0.50688,5.178908 0.0461,-0.0597 0.0461,0.287271 0.0461,-0.464644 0.0461,0.492017 0.0922,-0.547692 0.0461,0.0389 0.0461,0.323493 0.0461,-0.08466 0.0461,-0.853641 0.0922,0.05961 0.0922,-0.483912 0.0922,-0.749249 0.0461,0.01206 0.0461,0.244581 0.0461,-0.188383 0.0922,-0.4963 0.2304,1.35189 0.13824,-0.703918 0.0461,0.2374 0.13824,-1.274897 0.0461,0.05354 0.0461,-0.115154 0.0922,0.688359 0.0461,-0.27507 0.0461,-0.201283 0.0461,0.155187 0.0461,0.233064 0.0461,-0.102764 0.0922,-0.262563 0.18432,-1.596055 0.32256,2.44669 0.0461,-0.409857 0.0461,-0.362964 0.0922,0.03873 0.0461,0.211798 0.18432,-0.536559 0.0461,-0.09882 0.2304,1.313672 0.2304,-1.259027 0.0461,0.109943 0.0461,0.0883 0.0922,0.640148 0.13824,-1.390707 0.0461,0.195358 0.0922,0.385409 0.2304,-1.522479 0.0461,0.42895 0.0461,-0.05475 0.0461,-0.31521 0.18432,1.26576 0.0922,0.291356 0.36864,5.872989 0.6912,6.822667 0.0461,-0.01342 0.64512,-2.347384 0.0461,0.318562 0.0461,-0.372107 0.2304,-1.866471 0.64512,6.292283 0.0461,0.113831 0.0922,1.075845 0.0461,-0.0027 0.13824,0.773595 0.0922,-0.883428 0.0461,0.342302 0.27648,-1.411552 0.0461,0.287129 0.0461,0.270344 0.0461,-0.413822 0.0461,0.03861 0.0461,0.385244 0.0461,-0.281415 0.0461,0.06681 0.0461,0.31201 0.0461,-0.381149 0.23039,-2.25792 0.0922,0.754495 0.0461,-0.168755 0.18432,0.53972 0.0922,-0.235951 0.0461,-0.495834 0.0922,0.180963 0.32257,2.505202 0.0461,-0.107217 0.0461,-0.512393 0.0461,0.209561 0.13824,0.821168 0.0461,-0.378219 0.0922,0.07968 0.0461,-0.0225 0.13824,-1.23704 0.0922,-0.741895 0.0461,0.564439 0.0922,-0.04296 0.0922,0.591945 0.13824,1.352794 0.0461,-0.0519 0.4608,2.479262 0.13824,-0.725608 0.0461,0.268043 0.18432,-0.865083 0.2304,-1.649088 0.0461,-0.03206 0.13824,-1.087892 0.18432,0.931135 0.0461,-0.21962 0.0922,-0.857102 0.0461,0.380744 0.0922,-0.365962 0.27648,1.566612 0.0461,-0.0858 0.0461,0.86779 0.0922,-0.08013 0.0461,-0.222756 0.0461,0.02161 0.0461,0.482497 0.0922,-0.01048 0.0922,0.215727 0.59904,-4.973282 0.0922,0.715721 0.0922,-0.120029 0.0461,-0.03962 0.0461,0.45255 0.0922,-0.103585 0.0922,-0.611079 0.18432,2.449027 0.0461,-0.01462 0.0461,-0.42317 0.0922,0.08545 0.0922,-0.532636 0.64512,-9.015413 0.0461,-0.195931 0.0922,0.420094 0.0461,-0.276025 0.0461,0.329909 0.0461,-0.06706 0.18432,1.53372 0.0461,0.414243 0.0461,-0.311226 0.0461,-0.114192 0.0461,-0.469024 0.0461,0.26559 0.18432,1.182716 0.13824,-0.19028 0.0461,-0.304312 0.27648,2.334671 0.0461,-0.220249 0.0461,0.197651 0.18432,2.580027 0.0922,-0.865625 0.0461,0.237781 0.0461,-0.06909 0.18432,0.591112 0.0922,-0.341089 0.0461,0.410279 0.0461,-0.427601 0.0461,0.293735 0.0461,-0.270151 0.2304,2.473432 0.0461,0.06317 0.4608,3.715998 0.18432,0.534372 0.0461,-0.147243 0.0461,0.07075 0.0461,0.01732 0.2304,1.605214 0.0922,0.654313 0.0461,-0.302174 0.0461,-0.04631 0.0461,0.0609 0.18432,-1.864755 0.0461,0.953316 0.0461,-0.06624 0.27648,-2.65933 0.18432,-1.8205 0.0461,-0.468701 0.0461,0.591703 0.0461,0.04246 0.0461,-0.190236 0.18432,1.661572 0.0461,-0.207908 0.0461,-0.346912 0.0922,0.142708 0.0461,0.04031 0.0922,-0.444892 0.0461,0.136984 0.0461,0.255627 0.0461,-0.123065 0.18432,-1.222499 0.13824,-1.131388 0.13824,-0.873841 0.18432,-1.162601 0.0461,0.254857 0.0461,-0.05235 0.2304,-1.807937 0.13824,-0.569043 0.0461,0.306986 0.0461,-0.09378 0.13824,-0.996874 0.27648,-5.562436 0.36864,-1.977064 0.0922,-0.256999 0.0461,-0.268336 0.50688,3.906069 0.0461,-0.117965 0.18432,0.45266 0.0461,-0.329713 0.0461,0.286268 0.0922,0.773205 0.41472,-2.890763 0.36864,-2.03327 0.32256,-4.881572 0.0461,0.223046 0.0922,-0.468645 0.0461,0.244714 0.0461,-0.310839 0.0922,0.0067 0.0922,-0.290164 0.18431,0.646069 0.0461,-0.02524 0.50689,8.989891 0.13824,1.593687 0.0461,-0.318533 0.13824,-1.28397 0.0461,0.315602 0.0922,-0.293949 0.0461,0.159742 0.13824,-1.971293 0.0461,0.296318 0.13824,-1.197107 0.0461,0.235132 0.0461,-0.04262 0.0461,0.09276 0.13824,0.828169 0.64512,5.934521 0.55296,1.8361 0.2304,-1.057276 0.0922,0.568715 0.0922,-0.846284 0.0461,0.285146 0.0461,0.37597 0.0461,-0.409912 0.0922,0.39073 1.01376,9.249298 0.0461,-0.0884 0.0461,0.629298 0.0922,-0.183496 0.2304,1.538957 0.0461,-0.06579 0.41472,2.258067 0.0461,-0.08154 0.0461,0.03583 0.13824,-0.366603 0.13824,0.446803 0.0461,-0.05506 0.0461,0.123181 0.0461,-0.07979 0.0922,-0.160723 0.13824,-0.832505 0.18432,-1.911267 0.2304,0.374267 0.2304,-2.8155 0.2304,-2.491226 0.0922,-0.387697 0.0461,-0.940346 0.0461,0.118715 0.0461,0.39157 0.0461,-0.490168 0.0922,-0.370707 0.2304,2.523996 0.32256,5.504609 0.27648,1.40971 0.2304,-1.957701 0.46081,-7.19979 0.0461,0.278078 0.0461,0.01734 0.18432,-0.873864 0.0461,-0.175201 0.2304,1.301038 0.2304,3.489593 0.0461,-0.03134 0.82944,6.738876 0.0461,-0.0456 0.0922,0.232767 0.13824,0.527126 0.55296,-4.08709 0.0461,0.576904 0.0922,-0.135579 0.0461,0.01848 0.18432,0.895798 0.2304,2.1521 0.27648,2.737552 0.0461,0.654722 0.0461,-0.753564 0.0461,0.723977 0.0461,-0.02909 0.0461,0.666841 0.0922,-0.235875 0.50688,-7.775546 0.27648,-3.71204 0.13824,-1.42007 0.0461,0.430171 0.0922,1.032903 0.0922,-0.09695 0.0461,-0.194097 0.27648,2.434921 0.0461,0.03534 0.13824,-0.749661 0.0461,0.19048 0.32256,-2.422965 0.27648,1.832761 0.13824,-0.356488 0.0461,-0.07412 0.0461,0.05707 0.13824,0.755565 0.0461,-0.174474 0.0461,-0.03092 0.0461,0.268166 0.0461,-0.357871 0.13824,-0.447107 0.0922,1.001235 0.0461,-0.106583 0.0922,-0.120451 0.0461,-0.09338 0.0461,0.107495 0.32256,3.331197 0.46081,4.818795 0.18431,1.532193 0.18432,1.134195 0.0461,-0.04564 0.55297,-4.255508 0.27648,-2.087405 0.0461,-0.379584 0.0922,0.109672 0.0461,-0.294164 0.2304,1.881851 0.18432,-0.99386 0.27648,0.924521 0.0461,0.162343 0.13824,1.207741 0.0461,-0.03492 0.13824,0.658129 0.0461,-0.583886 0.0461,0.276539 0.36864,4.65834 0.36864,2.610679 0.13824,0.529186 0.2304,1.826818 0.0922,0.40151 v 0"
           clip-path="url(#p9267c42faa)"
           style="fill:none;stroke:#0000ff;stroke-width:2.25;stroke-linecap:round;stroke-opacity:1"
           id="path23" />
      </g>
      <g
         id="patch_3">
        <path
           d="M 71.350928,149.1 V 19.44"
           style="fill:none;stroke:#262626;stroke-width:1.875;stroke-linecap:square;stroke-linejoin:miter"
           id="path24" />
      </g>
      <g
         id="patch_4">
        <path
           d="M 484.56,149.1 V 19.44"
           style="fill:none;stroke:#262626;stroke-width:1.875;stroke-linecap:square;stroke-linejoin:miter"
           id="path25" />
      </g>
      <g
         id="patch_5">
        <path
           d="M 71.350928,149.1 H 484.56"
           style="fill:none;stroke:#262626;stroke-width:1.875;stroke-linecap:square;stroke-linejoin:miter"
           id="path26" />
      </g>
      <g
         id="patch_6">
        <path
           d="M 71.350928,19.44 H 484.56"
           style="fill:none;stroke:#262626;stroke-width:1.875;stroke-linecap:square;stroke-linejoin:miter"
           id="path27" />
      </g>
      <g
         id="text_7">
        <!-- PLS $X_{eating}$ -->
        <g
           style="fill:#262626"
           transform="matrix(0.18,0,0,-0.18,-31.95134,78.27)"
           id="g37">
          <defs
             id="defs27">
            <path
               id="ArialMT-50"
               d="m 494,0 v 4581 h 1728 q 456,0 697,-43 337,-57 565,-215 229,-157 368,-442 139,-284 139,-625 0,-584 -372,-989 -372,-404 -1344,-404 H 1100 V 0 Z m 606,2403 h 1184 q 588,0 835,219 247,219 247,616 0,287 -146,491 -145,205 -382,271 -154,41 -566,41 H 1100 Z"
               transform="scale(0.015625)" />
            <path
               id="ArialMT-4c"
               d="m 469,0 v 4581 h 606 V 541 H 3331 V 0 Z"
               transform="scale(0.015625)" />
            <path
               id="ArialMT-53"
               d="m 288,1472 571,50 q 41,-344 189,-564 149,-220 461,-356 313,-136 704,-136 346,0 612,103 266,103 395,282 130,180 130,393 0,215 -125,376 -125,161 -412,271 -185,72 -816,223 -631,152 -884,286 -329,172 -490,426 -160,255 -160,571 0,347 196,648 197,302 575,458 379,156 841,156 509,0 898,-164 390,-164 599,-483 209,-318 225,-721 l -581,-44 q -47,434 -318,656 -270,222 -798,222 -550,0 -802,-202 -251,-201 -251,-485 0,-247 178,-407 175,-159 914,-326 739,-167 1014,-292 400,-185 590,-468 191,-282 191,-651 0,-366 -209,-690 Q 3516,281 3123,101 2731,-78 2241,-78 1619,-78 1198,103 778,284 539,648 300,1013 288,1472 Z"
               transform="scale(0.015625)" />
            <path
               id="ArialMT-20"
               transform="scale(0.015625)"
               d="" />
            <path
               id="DejaVuSans-Oblique-58"
               d="m 878,4666 h 638 l 800,-1685 1447,1685 h 737 L 2578,2438 3738,0 H 3103 L 2163,1966 459,0 h -734 l 2181,2509 z"
               transform="scale(0.015625)" />
            <path
               id="DejaVuSans-Oblique-65"
               d="m 3078,2063 q 10,50 14,103 5,53 5,106 0,381 -224,603 -223,222 -607,222 -428,0 -757,-271 -328,-270 -496,-767 z m 500,-450 H 903 q -19,-119 -25,-188 -6,-69 -6,-119 0,-434 267,-672 267,-237 755,-237 375,0 709,84 335,85 622,247 L 3116,159 Q 2806,34 2476,-28 2147,-91 1806,-91 1078,-91 686,257 294,606 294,1247 q 0,547 195,1017 195,470 574,839 243,231 579,356 336,125 714,125 594,0 945,-356 352,-356 352,-956 0,-144 -19,-308 -18,-164 -56,-351 z"
               transform="scale(0.015625)" />
            <path
               id="DejaVuSans-Oblique-61"
               d="M 3438,1997 3047,0 h -575 l 106,531 Q 2325,219 2001,64 1678,-91 1281,-91 834,-91 548,182 263,456 263,884 q 0,613 489,969 489,356 1348,356 h 800 l 31,154 q 7,25 10,54 3,30 3,92 0,279 -227,433 -226,155 -636,155 -281,0 -577,-72 -295,-72 -607,-216 l 100,532 q 325,122 636,182 311,61 601,61 619,0 942,-269 324,-268 324,-781 0,-103 -16,-242 -15,-139 -46,-295 z m -622,-238 h -575 q -707,0 -1046,-189 -339,-189 -339,-586 0,-275 173,-431 174,-156 480,-156 469,0 819,336 350,336 463,898 z"
               transform="scale(0.015625)" />
            <path
               id="DejaVuSans-Oblique-74"
               d="m 2706,3500 -87,-447 H 1472 L 1100,1153 q -19,-106 -28,-178 -9,-72 -9,-112 0,-200 120,-291 120,-91 386,-91 h 581 L 2053,0 H 1503 Q 991,0 739,200 488,400 488,806 q 0,72 9,158 9,86 28,189 L 897,3053 H 409 l 91,447 h 478 l 194,994 h 575 l -191,-994 z"
               transform="scale(0.015625)" />
            <path
               id="DejaVuSans-Oblique-69"
               d="m 1172,4863 h 575 L 1606,4134 H 1031 Z M 909,3500 h 575 L 800,0 H 225 Z"
               transform="scale(0.015625)" />
            <path
               id="DejaVuSans-Oblique-6e"
               d="M 3566,2113 3156,0 h -578 l 410,2091 q 28,147 43,259 16,113 16,178 0,263 -166,409 -165,147 -462,147 -463,0 -797,-308 -334,-307 -438,-835 L 800,0 H 225 l 678,3500 h 575 l -115,-550 q 240,303 577,468 338,166 710,166 463,0 717,-250 255,-250 255,-703 0,-112 -14,-240 -14,-128 -42,-278 z"
               transform="scale(0.015625)" />
            <path
               id="DejaVuSans-Oblique-67"
               d="M 3816,3500 3219,434 q -172,-890 -658,-1327 -486,-438 -1308,-438 -303,0 -563,45 -259,45 -484,139 l 107,559 q 212,-137 449,-202 238,-66 507,-66 547,0 898,299 352,298 464,857 l 50,263 Q 2441,288 2122,144 1803,0 1434,0 903,0 598,351 294,703 294,1319 q 0,484 184,948 185,464 519,824 222,237 517,365 295,128 617,128 353,0 615,-164 263,-164 392,-464 l 100,544 z M 2950,2216 q 0,425 -200,656 -200,231 -569,231 -228,0 -434,-91 -206,-90 -353,-253 -238,-268 -371,-632 -132,-364 -132,-752 0,-431 201,-663 202,-231 580,-231 547,0 912,495 366,496 366,1240 z"
               transform="scale(0.015625)" />
          </defs>
          <use
             xlink:href="#ArialMT-50"
             transform="translate(0,0.09375)"
             id="use27" />
          <use
             xlink:href="#ArialMT-4c"
             transform="translate(66.699219,0.09375)"
             id="use28" />
          <use
             xlink:href="#ArialMT-53"
             transform="translate(122.31445,0.09375)"
             id="use29" />
          <use
             xlink:href="#ArialMT-20"
             transform="translate(189.01367,0.09375)"
             id="use30" />
          <use
             xlink:href="#DejaVuSans-Oblique-58"
             transform="translate(216.79687,0.09375)"
             id="use31" />
          <use
             xlink:href="#DejaVuSans-Oblique-65"
             transform="matrix(0.7,0,0,0.7,285.30273,-16.3125)"
             id="use32" />
          <use
             xlink:href="#DejaVuSans-Oblique-61"
             transform="matrix(0.7,0,0,0.7,328.36914,-16.3125)"
             id="use33" />
          <use
             xlink:href="#DejaVuSans-Oblique-74"
             transform="matrix(0.7,0,0,0.7,371.26465,-16.3125)"
             id="use34" />
          <use
             xlink:href="#DejaVuSans-Oblique-69"
             transform="matrix(0.7,0,0,0.7,398.71094,-16.3125)"
             id="use35" />
          <use
             xlink:href="#DejaVuSans-Oblique-6e"
             transform="matrix(0.7,0,0,0.7,418.15918,-16.3125)"
             id="use36" />
          <use
             xlink:href="#DejaVuSans-Oblique-67"
             transform="matrix(0.7,0,0,0.7,462.52441,-16.3125)"
             id="use37" />
        </g>
      </g>
    </g>
  </g>
  <defs
     id="defs37">
    <clipPath
       id="p9267c42faa">
      <rect
         x="71.350929"
         y="19.440001"
         width="413.20908"
         height="129.66"
         id="rect37" />
    </clipPath>
  </defs>
</svg>
