<?xml version="1.0" encoding="UTF-8" standalone="no"?>
<svg
   width="520pt"
   height="180pt"
   viewBox="0 0 520 180"
   version="1.1"
   id="svg45"
   sodipodi:docname="PLSDimAttackM1_Processed.svg"
   inkscape:version="1.3.2 (091e20e, 2023-11-25)"
   inkscape:export-filename="PLSDimAttackM1_Processed.png"
   inkscape:export-xdpi="96"
   inkscape:export-ydpi="96"
   xmlns:inkscape="http://www.inkscape.org/namespaces/inkscape"
   xmlns:sodipodi="http://sodipodi.sourceforge.net/DTD/sodipodi-0.dtd"
   xmlns:xlink="http://www.w3.org/1999/xlink"
   xmlns="http://www.w3.org/2000/svg"
   xmlns:svg="http://www.w3.org/2000/svg"
   xmlns:rdf="http://www.w3.org/1999/02/22-rdf-syntax-ns#"
   xmlns:cc="http://creativecommons.org/ns#"
   xmlns:dc="http://purl.org/dc/elements/1.1/">
  <sodipodi:namedview
     id="namedview45"
     pagecolor="#ffffff"
     bordercolor="#000000"
     borderopacity="0.25"
     inkscape:showpageshadow="2"
     inkscape:pageopacity="0.0"
     inkscape:pagecheckerboard="0"
     inkscape:deskcolor="#d1d1d1"
     inkscape:document-units="pt"
     inkscape:zoom="0.81944444"
     inkscape:cx="335.59322"
     inkscape:cy="144"
     inkscape:window-width="1680"
     inkscape:window-height="997"
     inkscape:window-x="-1"
     inkscape:window-y="25"
     inkscape:window-maximized="0"
     inkscape:current-layer="svg45" />
  <metadata
     id="metadata1">
    <rdf:RDF>
      <cc:Work>
        <dc:type
           rdf:resource="http://purl.org/dc/dcmitype/StillImage" />
        <dc:date>2023-12-03T20:12:57.665791</dc:date>
        <dc:format>image/svg+xml</dc:format>
        <dc:creator>
          <cc:Agent>
            <dc:title>Matplotlib v3.8.0, https://matplotlib.org/</dc:title>
          </cc:Agent>
        </dc:creator>
      </cc:Work>
    </rdf:RDF>
  </metadata>
  <defs
     id="defs1">
    <style
       type="text/css"
       id="style1">*{stroke-linejoin: round; stroke-linecap: butt}</style>
  </defs>
  <g
     id="figure_1">
    <g
       id="patch_1" />
    <g
       id="axes_1"
       transform="translate(33,-16.5)">
      <g
         id="patch_2">
        <path
           d="M 71.350928,149.1 H 484.56 V 19.44 H 71.350928 Z"
           style="fill:#ffffff"
           id="path2" />
      </g>
      <g
         id="matplotlib.axis_1">
        <g
           id="xtick_1">
          <g
             id="text_1">
            <!-- 0 -->
            <g
               style="fill:#262626"
               transform="matrix(0.165,0,0,-0.165,85.545385,173.41039)"
               id="g2">
              <defs
                 id="defs2">
                <path
                   id="ArialMT-30"
                   d="m 266,2259 q 0,813 167,1308 167,496 496,764 330,269 830,269 369,0 647,-149 278,-148 459,-428 182,-279 285,-681 103,-401 103,-1083 0,-806 -166,-1301 Q 2922,463 2592,192 2263,-78 1759,-78 1097,-78 719,397 266,969 266,2259 Z m 578,0 q 0,-1128 264,-1502 264,-373 651,-373 388,0 652,375 264,375 264,1500 0,1132 -264,1503 -264,372 -658,372 -387,0 -619,-328 Q 844,3388 844,2259 Z"
                   transform="scale(0.015625)" />
              </defs>
              <use
                 xlink:href="#ArialMT-30"
                 id="use2" />
            </g>
          </g>
        </g>
        <g
           id="xtick_2">
          <g
             id="text_2">
            <!-- 1000 -->
            <g
               style="fill:#262626"
               transform="matrix(0.165,0,0,-0.165,130.55919,173.41039)"
               id="g6">
              <defs
                 id="defs3">
                <path
                   id="ArialMT-31"
                   d="M 2384,0 H 1822 V 3584 Q 1619,3391 1289,3197 959,3003 697,2906 v 544 q 472,222 825,537 353,316 500,613 h 362 z"
                   transform="scale(0.015625)" />
              </defs>
              <use
                 xlink:href="#ArialMT-31"
                 id="use3" />
              <use
                 xlink:href="#ArialMT-30"
                 x="55.615234"
                 id="use4" />
              <use
                 xlink:href="#ArialMT-30"
                 x="111.23047"
                 id="use5" />
              <use
                 xlink:href="#ArialMT-30"
                 x="166.8457"
                 id="use6" />
            </g>
          </g>
        </g>
        <g
           id="xtick_3">
          <g
             id="text_3">
            <!-- 2000 -->
            <g
               style="fill:#262626"
               transform="matrix(0.165,0,0,-0.165,189.33632,173.41039)"
               id="g10">
              <defs
                 id="defs6">
                <path
                   id="ArialMT-32"
                   d="M 3222,541 V 0 H 194 q -6,203 65,391 116,309 370,609 255,300 737,694 747,612 1009,970 263,358 263,677 0,334 -240,563 -239,230 -623,230 -406,0 -650,-244 -244,-243 -247,-674 l -578,59 q 59,647 446,986 388,339 1042,339 659,0 1043,-366 385,-365 385,-906 0,-275 -113,-541 Q 2991,2522 2730,2228 2469,1934 1863,1422 1356,997 1212,845 1069,694 975,541 Z"
                   transform="scale(0.015625)" />
              </defs>
              <use
                 xlink:href="#ArialMT-32"
                 id="use7" />
              <use
                 xlink:href="#ArialMT-30"
                 x="55.615234"
                 id="use8" />
              <use
                 xlink:href="#ArialMT-30"
                 x="111.23047"
                 id="use9" />
              <use
                 xlink:href="#ArialMT-30"
                 x="166.8457"
                 id="use10" />
            </g>
          </g>
        </g>
        <g
           id="xtick_4">
          <g
             id="text_4">
            <!-- 3000 -->
            <g
               style="fill:#262626"
               transform="matrix(0.165,0,0,-0.165,248.11344,173.41039)"
               id="g14">
              <defs
                 id="defs10">
                <path
                   id="ArialMT-33"
                   d="m 269,1209 562,75 q 97,-478 330,-689 233,-211 567,-211 397,0 670,275 274,275 274,682 0,387 -253,638 -253,252 -644,252 -159,0 -397,-62 l 63,494 q 56,-7 90,-7 360,0 647,187 288,188 288,579 0,309 -210,512 -209,204 -540,204 -328,0 -547,-207 -219,-206 -281,-618 l -563,100 q 103,565 468,876 366,311 910,311 375,0 690,-161 316,-161 483,-439 168,-278 168,-591 0,-296 -160,-540 -159,-244 -471,-388 406,-93 631,-389 225,-295 225,-739 Q 3269,753 2831,336 2394,-81 1725,-81 1122,-81 723,278 325,638 269,1209 Z"
                   transform="scale(0.015625)" />
              </defs>
              <use
                 xlink:href="#ArialMT-33"
                 id="use11" />
              <use
                 xlink:href="#ArialMT-30"
                 x="55.615234"
                 id="use12" />
              <use
                 xlink:href="#ArialMT-30"
                 x="111.23047"
                 id="use13" />
              <use
                 xlink:href="#ArialMT-30"
                 x="166.8457"
                 id="use14" />
            </g>
          </g>
        </g>
        <g
           id="xtick_5">
          <g
             id="text_5">
            <!-- 4000 -->
            <g
               style="fill:#262626"
               transform="matrix(0.165,0,0,-0.165,306.89057,173.41039)"
               id="g18">
              <defs
                 id="defs14">
                <path
                   id="ArialMT-34"
                   d="M 2069,0 V 1097 H 81 v 516 l 2091,2968 h 459 V 1613 h 619 V 1097 H 2631 V 0 Z m 0,1613 V 3678 L 634,1613 Z"
                   transform="scale(0.015625)" />
              </defs>
              <use
                 xlink:href="#ArialMT-34"
                 id="use15" />
              <use
                 xlink:href="#ArialMT-30"
                 x="55.615234"
                 id="use16" />
              <use
                 xlink:href="#ArialMT-30"
                 x="111.23047"
                 id="use17" />
              <use
                 xlink:href="#ArialMT-30"
                 x="166.8457"
                 id="use18" />
            </g>
          </g>
        </g>
        <g
           id="xtick_6">
          <g
             id="text_6">
            <!-- 5000 -->
            <g
               style="fill:#262626"
               transform="matrix(0.165,0,0,-0.165,365.66769,173.41039)"
               id="g22">
              <defs
                 id="defs18">
                <path
                   id="ArialMT-35"
                   d="m 266,1200 590,50 q 66,-431 305,-649 239,-217 577,-217 406,0 687,306 281,307 281,813 0,481 -270,759 -270,279 -708,279 -272,0 -491,-124 -218,-123 -343,-320 l -528,69 443,2353 H 3088 V 3981 H 1259 L 1013,2750 q 412,288 865,288 600,0 1012,-416 413,-416 413,-1069 Q 3303,931 2941,478 2500,-78 1738,-78 1113,-78 717,272 322,622 266,1200 Z"
                   transform="scale(0.015625)" />
              </defs>
              <use
                 xlink:href="#ArialMT-35"
                 id="use19" />
              <use
                 xlink:href="#ArialMT-30"
                 x="55.615234"
                 id="use20" />
              <use
                 xlink:href="#ArialMT-30"
                 x="111.23047"
                 id="use21" />
              <use
                 xlink:href="#ArialMT-30"
                 x="166.8457"
                 id="use22" />
            </g>
          </g>
        </g>
        <g
           id="xtick_7">
          <g
             id="text_7">
            <!-- 6000 -->
            <g
               style="fill:#262626"
               transform="matrix(0.165,0,0,-0.165,424.44482,173.41039)"
               id="g26">
              <defs
                 id="defs22">
                <path
                   id="ArialMT-36"
                   d="m 3184,3459 -559,-43 q -75,331 -212,481 -229,241 -563,241 -269,0 -472,-150 -265,-194 -419,-566 -153,-372 -159,-1059 203,309 497,459 294,150 616,150 562,0 957,-414 396,-414 396,-1070 0,-432 -186,-802 Q 2894,316 2569,119 2244,-78 1831,-78 1128,-78 684,439 241,956 241,2144 q 0,1328 490,1931 428,525 1153,525 541,0 886,-303 346,-303 414,-838 z M 888,1484 q 0,-290 123,-556 123,-265 345,-405 222,-139 466,-139 356,0 612,287 257,288 257,782 0,475 -254,748 -253,274 -637,274 -381,0 -647,-274 -265,-273 -265,-717 z"
                   transform="scale(0.015625)" />
              </defs>
              <use
                 xlink:href="#ArialMT-36"
                 id="use23" />
              <use
                 xlink:href="#ArialMT-30"
                 x="55.615234"
                 id="use24" />
              <use
                 xlink:href="#ArialMT-30"
                 x="111.23047"
                 id="use25" />
              <use
                 xlink:href="#ArialMT-30"
                 x="166.8457"
                 id="use26" />
            </g>
          </g>
        </g>
        <g
           id="text_8">
          <!-- Index -->
          <g
             style="fill:#262626"
             transform="matrix(0.18,0,0,-0.18,255.94062,193.57383)"
             id="g31">
            <defs
               id="defs26">
              <path
                 id="ArialMT-49"
                 d="m 597,0 v 4581 h 606 V 0 Z"
                 transform="scale(0.015625)" />
              <path
                 id="ArialMT-6e"
                 d="m 422,0 v 3319 h 506 v -472 q 366,547 1056,547 300,0 552,-108 252,-108 377,-283 125,-175 175,-415 31,-157 31,-547 V 0 h -563 v 2019 q 0,344 -66,514 -65,170 -232,271 -167,102 -392,102 -360,0 -621,-228 Q 984,2450 984,1813 V 0 Z"
                 transform="scale(0.015625)" />
              <path
                 id="ArialMT-64"
                 d="M 2575,0 V 419 Q 2259,-75 1647,-75 1250,-75 917,144 584,363 401,755 q -182,392 -182,901 0,497 165,902 166,405 497,620 332,216 741,216 300,0 534,-127 235,-126 382,-329 v 1643 h 559 V 0 Z M 797,1656 q 0,-637 268,-953 269,-315 635,-315 369,0 626,301 258,302 258,920 0,682 -263,1000 -262,319 -646,319 -375,0 -627,-306 -251,-306 -251,-966 z"
                 transform="scale(0.015625)" />
              <path
                 id="ArialMT-65"
                 d="m 2694,1069 581,-72 Q 3138,488 2766,206 2394,-75 1816,-75 1088,-75 661,373 234,822 234,1631 q 0,838 431,1300 432,463 1119,463 666,0 1088,-453 422,-453 422,-1275 0,-50 -3,-150 H 816 q 31,-547 309,-838 278,-290 694,-290 309,0 528,162 219,163 347,519 z M 847,1978 h 1853 q -37,419 -212,628 -269,325 -697,325 -388,0 -652,-259 -264,-259 -292,-694 z"
                 transform="scale(0.015625)" />
              <path
                 id="ArialMT-78"
                 d="M 47,0 1259,1725 138,3319 h 703 l 509,-778 q 144,-222 231,-372 138,206 253,365 l 560,785 h 672 L 1919,1756 3153,0 H 2463 L 1781,1031 1600,1309 728,0 Z"
                 transform="scale(0.015625)" />
            </defs>
            <use
               xlink:href="#ArialMT-49"
               id="use27" />
            <use
               xlink:href="#ArialMT-6e"
               x="27.783203"
               id="use28" />
            <use
               xlink:href="#ArialMT-64"
               x="83.398438"
               id="use29" />
            <use
               xlink:href="#ArialMT-65"
               x="139.01367"
               id="use30" />
            <use
               xlink:href="#ArialMT-78"
               x="194.62891"
               id="use31" />
          </g>
        </g>
      </g>
      <g
         id="matplotlib.axis_2" />
      <g
         id="line2d_1">
        <path
           d="m 90.133158,118.01007 0.05878,-0.0409 0.176332,1.00157 0.176331,1.36676 0.293886,1.56825 0.05878,0.0526 0.176331,1.07504 0.41144,2.4609 0.05878,0.16482 0.05878,-0.11233 0.05878,-0.0974 0.293885,1.52791 0.05878,-0.24715 0.05878,0.0858 0.05878,0.0642 0.176331,-0.94605 0.05878,-0.0829 0.117554,-0.5831 0.176332,0.61225 0.05878,-0.55969 0.05878,0.0658 0.05878,0.10943 0.176331,0.7794 0.05878,0.054 0.05878,-0.55368 0.176331,1.19688 0.352663,2.10231 0.05878,-0.0129 0.05878,-0.0616 0.117554,0.36718 0.293886,-1.20214 0.05878,0.13053 0.05878,0.46439 0.05878,-0.25569 0.176332,0.21032 0.05878,-0.12343 0.05878,0.0757 0.352663,0.56245 0.176331,0.90777 0.235109,-1.25986 0.05878,-0.20649 0.05878,0.13419 0.117554,0.45087 0.117554,0.38045 0.176332,-0.23204 0.117554,0.26165 0.176331,-0.93749 0.05878,0.0874 0.05878,-0.1281 0.293885,1.64888 0.293886,1.46112 0.05878,0.0349 0.05878,-0.24021 0.293886,0.89113 0.117554,-0.26321 0.176331,0.32851 0.05878,0.18366 0.293885,-1.29805 0.352663,1.08306 0.117554,-0.29796 0.176332,0.42416 0.05878,0.0931 0.117554,0.63514 0.05878,-0.0424 0.117554,0.53913 0.05878,-0.11946 0.05878,-0.20038 0.05878,0.20106 0.235108,-0.82958 0.05878,-0.11251 0.470217,-2.71835 0.176336,0.17454 0.35266,-2.56361 0.17633,-0.43327 0.11756,-0.13637 0.23511,1.85289 0.23511,0.8348 0.0588,-0.23457 0.0588,0.92308 0.0588,-0.16418 0.0588,-0.16214 0.23511,0.66297 0.0588,0.0466 0.17633,-0.31196 0.0588,-0.0584 0.41144,-2.35966 0.0588,0.34028 0.0588,-0.37702 0.0588,0.0709 0.35266,0.40811 0.0588,0.49058 0.0588,-0.30328 0.0588,0.26229 0.23511,-1.63605 0.0588,-0.24876 0.0588,0.0231 0.0588,0.34199 0.17633,-1.41916 0.0588,0.0959 0.0588,0.27265 0.0588,-0.47702 0.0588,0.14338 0.0588,-0.0726 0.17633,-0.94617 0.0588,0.0596 0.0588,-0.39191 0.0588,0.0869 0.0588,0.0864 0.17633,0.53324 0.0588,0.0906 0.0588,-0.10217 0.11755,0.24105 0.11755,0.37677 0.0588,-0.28227 0.17633,0.34669 0.0588,0.1382 0.0588,-0.13422 0.2351,0.30017 0.11756,-0.1894 0.41144,2.53337 0.11755,0.26806 0.0588,-0.2084 0.11755,-0.49945 0.11756,0.0219 0.0588,-0.0577 0.0588,-0.36891 0.0588,0.13708 0.17633,1.24378 0.0588,-0.16924 0.11755,-0.79508 0.0588,0.17033 0.23511,-0.82491 0.0588,0.33006 0.35266,3.74934 0.11755,0.66223 0.17634,-0.22069 0.17633,0.96533 0.0588,-0.36316 0.0588,0.0323 0.0588,0.2046 0.0588,-0.2426 0.0588,0.35833 0.0588,-0.23752 0.17633,-0.72053 1.11676,-5.42341 0.11756,-0.8632 0.0588,0.22863 0.0588,-0.13896 0.0588,0.10025 0.35266,1.74488 0.0588,-0.17404 0.29389,1.92074 0.0588,-0.0506 0.47022,1.52345 0.11756,-0.54708 0.0588,0.0543 0.17633,0.71837 0.11756,-0.0711 0.0588,0.0266 0.41144,2.13295 0.41144,2.52814 0.11755,-0.51318 0.0588,0.15101 0.17633,0.31997 0.0588,-0.0526 0.17634,1.02001 0.0588,0.37114 0.0588,-0.31571 0.11755,-0.32194 0.0588,0.10789 0.11756,-0.34757 0.17633,1.09098 0.0588,0.0218 0.17634,0.61718 0.0588,0.022 0.0588,-0.12308 0.29389,-1.45749 0.11755,-0.0715 0.23511,0.065 0.0588,-0.27508 0.29388,-3.51684 0.11756,0.0801 0.0588,-0.10608 0.11756,0.42689 0.0588,0.0155 0.17634,0.625 0.11755,0.51088 0.0588,-0.22551 0.11755,0.33115 0.0588,-0.0544 0.23511,2.64849 0.11755,-0.0232 0.11755,0.67628 0.0588,-0.25361 0.11756,0.008 0.29388,-0.95243 0.0588,0.24606 0.23511,-0.66769 0.0588,-0.0335 0.0588,-0.28236 0.0588,0.25928 0.11755,0.22234 0.47022,-2.76201 0.11755,0.48323 0.11756,-0.81379 0.0588,0.0828 0.0588,-0.45761 0.0588,0.26462 0.35266,1.72336 0.41144,4.37284 0.11756,0.18352 0.0588,0.39821 0.0588,-0.17435 0.0588,-0.29629 0.0588,0.41851 0.0588,-0.0414 0.0588,-0.10508 0.11755,-0.59091 0.11756,0.25625 0.35266,-2.40123 0.0588,-0.11031 0.17633,-1.58644 0.0588,0.009 0.0588,0.0137 0.11756,0.48817 0.0588,-0.0548 0.0588,-0.11673 0.11756,0.25528 0.11755,-0.65148 0.23511,1.56908 0.0588,-0.0184 0.11755,0.36195 0.35266,2.34837 0.0588,-0.12902 0.0588,0.15462 0.0588,-0.13309 0.0588,-0.0565 0.23511,0.33605 0.82288,-3.93752 0.11755,-0.0154 0.29389,-0.79168 0.0588,-0.19454 0.0588,0.15528 0.11756,0.0735 0.35266,-1.37805 0.0588,0.13637 0.29388,0.59759 0.11756,0.47435 0.0588,0.0355 0.58777,3.59418 0.0588,-0.22465 0.0588,-0.22185 0.0588,0.0348 0.0588,0.0454 0.0588,-0.18149 0.0588,0.20457 0.0588,-0.0365 0.23511,-0.84521 0.0588,0.23678 0.0588,0.10186 0.41144,-3.14929 0.11755,1.087 0.0588,-0.17855 0.17633,0.0937 0.11756,0.71281 0.17633,1.31517 0.17633,-0.0299 0.35266,2.28257 0.11756,-0.56323 0.0588,0.12343 0.35267,-1.44731 0.0588,0.0178 0.17633,-1.33492 0.11756,0.10835 0.11755,0.61613 0.29389,-1.19817 0.0588,-0.0728 0.17633,0.94937 0.0588,-0.252 0.17633,-0.0606 0.23511,0.99802 0.17633,-1.623 0.0588,0.0663 0.17633,0.36099 0.0588,0.0602 0.0588,0.22354 0.0588,-0.1982 0.11755,-0.8955 0.0588,0.33938 0.0588,-0.1094 0.0588,-0.11591 0.0588,0.10568 0.0588,0.15414 0.17634,-0.34715 0.0588,0.0379 0.23511,-0.41318 0.0588,-0.0155 0.0588,-0.15142 0.0588,0.17713 0.0588,-0.0795 0.0588,0.01 0.11755,0.56564 0.23511,-0.81618 0.0588,-0.17202 0.52899,2.78075 0.0588,0.0202 0.0588,0.19768 0.0588,-0.0989 0.0588,-0.028 0.41144,-1.96939 0.23511,-2.48225 0.11755,-0.3378 0.47022,1.09649 0.0588,-0.10326 0.41144,4.78766 0.17633,0.94292 0.0588,-0.21287 0.0588,-0.11546 0.0588,0.045 0.0588,0.26957 0.0588,-0.13104 0.11756,-0.45473 0.17633,0.48763 0.17633,-0.87935 0.11755,-0.32696 0.11756,-0.57616 0.0588,-0.006 0.0588,-0.75002 0.0588,0.12912 0.11755,0.27716 0.0588,-0.0957 0.0588,-0.38126 0.0588,0.23004 0.0588,-0.0581 0.0588,0.11925 0.0588,-0.20482 0.7641,2.60272 0.11755,-0.16994 0.0588,0.0781 0.11756,-0.21722 0.2351,0.99373 1.2931,-8.28807 0.17633,0.0518 0.529,1.97131 0.2351,1.49842 0.0588,-0.0817 0.0588,0.0873 0.11755,0.0159 0.17633,-0.28185 0.0588,-0.0528 0.17633,-0.90079 0.11756,-0.49322 0.0588,0.11186 0.0588,0.3008 0.0588,-0.13415 0.23511,-0.91771 0.29388,1.05471 0.23511,1.14242 0.11756,-0.14999 0.0588,0.11015 0.23511,-1.1819 0.11756,0.2615 0.0588,-0.23364 0.0588,0.0702 0.11755,0.0442 0.17634,0.38181 0.11755,-0.51005 0.0588,0.0853 0.41144,3.09197 0.41144,2.4458 0.0588,-0.005 0.17634,0.76298 0.47021,-0.87286 0.17633,0.71706 0.11756,-0.18837 0.0588,0.23607 0.11756,-0.54785 0.0588,0.11863 0.2351,0.78099 0.0588,-0.13505 0.0588,-0.51781 0.0588,0.18779 0.0588,0.13886 0.0588,-0.12673 0.0588,-0.0778 0.11755,-1.13416 0.29389,-2.254 0.0588,0.0908 0.529,-3.23322 0.52899,2.81719 0.0588,-0.0761 0.0588,-0.16378 0.0588,0.15678 0.0588,0.17971 0.35266,2.70576 0.0588,-0.13305 0.0588,0.12986 0.0588,-0.005 0.0588,-0.25117 0.0588,0.15101 0.0588,0.0686 0.17633,-0.90173 0.0588,0.0775 0.17633,0.83743 0.17633,-0.0544 0.29388,-2.06687 0.11756,-1.3099 0.0588,0.27067 0.17633,0.5661 0.11755,0.25699 0.47022,-1.81564 0.0588,0.28447 0.0588,-0.0408 0.23511,-0.63419 0.35266,-1.90131 0.41144,1.82021 0.58777,6.20709 0.17634,0.59478 0.11755,0.21016 0.0588,-0.1158 0.7641,-4.89662 0.11755,0.15839 0.47022,4.57247 0.11756,0.27081 0.0588,-0.13512 0.41144,1.31676 0.11756,0.67945 0.41144,-4.73194 0.0588,-0.21516 0.0588,0.14743 0.11755,-0.39536 0.23511,-1.59776 0.0588,0.17463 0.11755,-0.47305 0.11756,-0.70921 0.0588,0.0939 0.11755,0.26351 0.0588,0.3842 0.0588,-0.0612 0.0588,0.0559 0.11756,0.51174 0.0588,-0.36705 0.0588,0.13789 0.11756,0.62526 0.0588,-0.12491 0.11756,0.53438 0.23511,-0.60638 0.0588,-0.0678 0.17633,0.74646 0.0588,-0.39075 0.17633,0.62474 0.11756,0.41057 0.17633,-0.88801 0.0588,0.27148 0.11756,0.0857 0.23511,1.17117 0.11755,-0.2045 0.47022,-1.72186 0.0588,0.29195 0.0588,-0.61684 0.0588,0.2422 0.17633,0.70444 0.0588,-0.13609 0.0588,0.60131 0.0588,-0.0224 0.23511,-0.47369 0.0588,-0.35621 0.0588,0.18014 0.2351,1.12033 0.11756,-0.17194 0.0588,0.22673 0.0588,-0.0451 0.35266,-2.02413 0.0588,0.0856 0.0588,0.40782 0.0588,-0.10147 0.0588,-0.18583 0.29389,1.40156 0.0588,0.13198 0.2351,1.45603 0.11756,0.22914 0.11755,0.51005 0.11756,0.42517 0.0588,-0.10446 0.0588,0.14797 0.11756,0.91134 0.52899,-1.93867 0.23511,1.10066 0.11755,-0.0636 0.17633,0.52915 0.23511,-0.0677 0.11756,0.544 0.17633,-0.52736 0.0588,0.0807 0.0588,0.10875 0.23511,-1.10414 0.23511,-0.51671 0.0588,-0.0283 0.11755,-0.38002 0.0588,0.25203 0.0588,-0.10527 0.0588,-0.24601 0.0588,0.0143 0.17633,0.75622 0.29389,-0.68907 0.0588,0.18716 0.11756,0.22148 0.23511,-1.0938 0.0588,0.0306 0.17633,-0.66337 0.0588,0.0766 0.35266,-1.39529 0.11756,0.0618 0.11755,-0.52702 0.0588,0.22052 0.0588,0.0795 0.11755,-0.28375 0.29389,-2.09145 0.64655,-3.58606 0.70532,-11.98814 0.17633,-3.38267 0.35267,-13.79398 0.99921,-33.51038 0.11755,-1.11417 0.0588,0.189158 0.17633,-0.424344 0.29388,2.390803 0.11756,1.285406 0.0588,-0.191366 0.17633,-0.0204 0.0588,-0.120559 0.17634,-0.533083 0.0588,0.06247 0.11756,-0.310622 0.29388,2.274123 0.0588,-0.05461 0.17633,-1.763846 0.23511,-3.076905 0.35266,-6.357912 0.529,-9.966675 0.0588,-0.438717 0.0588,0.134004 0.11756,0.88923 0.2351,3.231252 0.41144,3.182717 0.0588,-0.208621 0.0588,0.0013 0.0588,0.122816 0.35266,-2.633958 0.17633,-2.112722 0.23511,-0.891926 0.29388,1.392028 0.64655,-2.088325 0.41144,-6.084173 0.23511,-2.679103 0.41144,-3.190447 0.0588,0.02549 0.23511,1.310909 0.29388,2.285212 0.17633,-0.50852 0.41144,1.299697 0.64655,-5.526827 0.23511,-0.974479 0.0588,0.160411 0.0588,-0.08975 0.47022,4.695836 0.29389,0.759455 0.41144,5.415965 0.11755,-0.478811 0.11755,-0.169901 0.23511,3.428057 0.29389,3.621858 0.0588,-0.139413 0.0588,0.217611 0.17633,-0.588719 0.11756,0.241233 0.99921,7.048805 0.0588,0.04968 0.23511,0.561727 0.11755,-0.581417 0.47022,-3.733164 0.0588,0.325115 0.0588,-0.0073 0.11756,0.838422 0.0588,-0.164747 0.0588,-0.328414 0.94043,-17.542448 0.17634,-3.357215 0.0588,0.02541 0.23511,1.03557 0.0588,-0.372171 0.0588,0.09723 0.47022,7.121845 0.23511,4.099 0.0588,0.07574 0.0588,-0.21041 0.0588,0.274703 0.0588,-0.172874 0.23511,-1.503293 0.23511,-1.557384 0.88165,-3.668291 0.11756,1.315501 0.0588,-0.192043 0.0588,0.04701 0.47022,-1.770444 0.17633,0.346882 0.0588,-0.07424 0.23511,2.266342 0.2351,-2.765326 0.11756,0.210999 0.29388,1.160652 0.11756,-1.262667 0.41144,-7.645332 0.0588,0.59132 0.11755,0.341058 0.47022,-5.524938 0.0588,-0.21225 0.11756,1.303541 0.11755,-0.09929 0.23511,-2.491561 0.17633,-2.43374 0.0588,0.444616 0.0588,-0.461222 0.0588,0.241362 0.17633,0.841495 0.0588,-0.02971 0.94044,13.719379 0.11755,-0.09838 0.11755,-0.09259 0.29389,-3.332134 0.41144,-3.047807 0.0588,-0.02631 0.23511,-1.489485 0.0588,0.109827 0.29389,2.002695 0.23511,3.962209 0.0588,0.272543 0.58777,9.248362 0.0588,-0.03924 0.0588,-0.228099 0.11755,0.492456 0.17633,-0.483251 0.0588,0.190353 0.0588,-0.04838 0.29388,-3.004577 0.23511,0.430958 0.0588,-0.06549 0.0588,-0.29583 0.0588,0.170042 0.0588,-0.159997 0.41144,-4.424146 0.23511,2.837925 0.0588,-0.126827 0.17633,-1.126514 0.0588,0.133098 0.0588,-0.382321 0.17633,1.335744 0.0588,1.182729 0.0588,-0.05166 0.0588,-0.02754 0.35266,4.198538 0.11755,-0.162886 0.0588,-0.179062 0.0588,0.167929 0.11755,0.733456 0.0588,-0.240947 0.0588,0.219397 0.0588,-0.185455 0.0588,0.144336 0.0588,-0.05382 0.11755,-0.748088 0.17633,0.585687 0.0588,-0.101245 0.0588,0.06259 0.17633,0.511062 0.0588,-0.18814 0.17633,1.024715 1.05798,7.418734 0.35267,-2.528966 0.0588,0.129621 0.17634,0.313091 0.0588,-0.181709 0.0588,0.03405 0.52899,4.235698 0.29389,3.672385 0.0588,-0.09745 0.17633,0.460363 0.0588,-0.116248 0.41144,-4.213651 0.47021,-5.192026 0.11756,-0.728597 0.0588,0.147792 0.11756,0.76949 0.35266,5.271507 0.11756,1.226861 0.29388,3.375726 0.11756,0.495976 0.35266,2.479681 0.11755,-0.387191 0.11756,0.555447 0.0588,0.502048 0.0588,-0.09049 0.11755,-0.125413 0.17634,1.090712 0.17633,-1.727627 0.0588,0.04002 0.0588,-0.221358 0.29389,-3.412201 0.23511,-2.11216 0.11755,0.109312 0.0588,-0.02942 0.17633,-0.804681 0.41144,1.866803 0.23511,1.983935 0.0588,0.02578 0.0588,0.177276 0.41144,-2.461729 0.0588,0.140342 0.0588,0.467157 0.0588,-0.20679 0.0588,-0.101163 0.0588,0.24821 0.17633,-2.189577 0.17633,-2.237072 0.0588,-0.05296 0.29388,-1.368174 0.0588,-0.03841 0.41144,-2.537967 0.23511,1.829934 0.11755,-0.224561 0.0588,-0.04933 0.94043,11.269901 0.0588,-0.08183 0.35266,2.751105 0.11756,0.87541 0.17633,0.91046 0.11755,-0.08098 0.23511,-2.495421 0.0588,-0.308364 0.0588,0.109419 0.0588,0.08561 0.11756,-0.490158 0.0588,0.212938 0.11756,-0.929243 0.11755,0.02319 0.11756,-0.270264 0.29388,2.037779 0.11756,0.33211 0.29388,-1.089666 0.17633,-1.112779 0.23511,-4.075578 0.47022,-9.362153 0.17633,-0.764787 0.11756,0.256213 0.0588,0.508767 0.0588,-0.116392 0.0588,-0.0079 0.11755,1.322544 0.47022,9.498883 0.0588,-0.18069 0.47022,3.921078 0.0588,-0.205216 0.0588,-0.261666 0.88165,-12.833423 0.17633,-1.910887 0.82288,9.321997 0.0588,0.357871 0.23511,3.132277 0.11755,0.402114 0.29389,-1.52042 0.0588,0.0585 0.11755,0.880745 0.0588,-0.113001 0.58777,-3.184234 0.35266,-4.453346 0.529,-2.672354 0.0588,0.003 0.23511,0.708729 0.29389,1.924446 0.11755,-0.133749 0.0588,-0.348564 0.0588,0.05667 0.0588,0.02646 0.11756,0.698253 0.0588,-0.06467 0.0588,-0.05111 0.94044,-12.220997 0.2351,-3.519193 0.0588,0.05668 0.0588,-0.287468 0.0588,0.465039 0.0588,-0.266437 0.0588,0.149328 0.88166,9.324619 0.29388,1.506062 0.0588,-0.02749 0.47022,-2.195612 0.0588,0.413658 0.0588,-0.0178 0.0588,-0.03064 0.17633,0.270905 0.0588,-0.04792 0.17633,0.707708 0.11755,0.692471 0.0588,-0.01596 0.0588,0.03418 0.0588,-0.362581 0.529,3.492203 0.0588,-0.214112 0.0588,0.09385 0.17633,0.352028 0.0588,-0.03222 0.11755,-0.714225 0.0588,0.44743 0.0588,-0.230533 0.0588,0.03372 1.17554,-12.868728 0.0588,0.250255 0.0588,-0.04574 0.17633,0.667368 0.47022,3.22635 0.94044,17.168585 0.0588,0.08823 0.17633,1.247389 0.23511,-0.863069 0.11756,-0.114196 0.17633,-1.570336 0.29388,-2.013657 0.23511,1.306552 0.0588,0.138207 0.17633,-0.856997 0.29389,1.962934 0.2351,-0.908812 0.17634,-0.81128 0.17633,-1.038879 0.11755,0.506185 0.29389,3.28827 0.0588,0.01248 0.11756,1.121578 0.29388,4.185534 0.35267,4.688522 0.17633,0.707269 0.11755,0.257092 0.82288,-4.538937 0.64655,-6.604089 0.0588,0.164029 0.35266,-2.900438 0.23511,-1.549387 0.52899,3.652634 0.11756,-0.124527 0.0588,0.05649 0.58778,4.406977 0.0588,0.08316 0.0588,-0.188227 0.11755,0.602836 0.11756,0.01651 0.11755,0.716871 0.0588,-0.02469 0.35266,-2.511844 0.17633,0.32083 0.29389,-1.773411 0.11755,-0.935793 0.11756,-0.887115 0.0588,0.02865 0.11755,0.630245 0.29389,1.743533 0.17633,-0.930273 0.11755,0.629868 0.0588,-0.05572 0.0588,-0.06976 0.41144,-2.781515 0.47021,-4.639226 0.17633,-1.82344 0.11756,-0.0094 0.23511,0.919192 0.0588,-0.19926 0.0588,-0.04333 0.11755,1.003586 0.47022,4.446723 0.0588,0.1799 0.11755,-0.384758 0.47022,1.489301 0.11755,-0.613702 0.11756,0.332658 0.52899,4.180875 0.0588,-0.01697 0.0588,-0.316221 0.0588,0.198704 0.35267,3.735524 0.0588,-0.185777 0.11756,-0.49635 0.29388,2.663817 0.0588,0.3009 0.0588,-0.09348 0.0588,-0.162081 0.0588,0.05317 0.11756,0.680668 0.17633,-1.16421 0.23511,-1.807567 0.11755,0.641667 0.23511,-1.343367 0.29388,1.116834 0.0588,-0.265375 0.0588,-0.175499 0.23511,-1.282515 0.17633,-1.047634 0.58777,-8.123986 0.47022,-6.560235 0.0588,0.137903 0.0588,-0.05638 0.0588,-0.42442 0.0588,0.22263 0.0588,-0.01004 0.23511,1.878197 0.11756,-0.322647 0.11755,0.715438 0.23511,3.554531 0.29388,5.612389 0.17634,1.813372 0.0588,-0.230402 0.0588,0.182236 0.0588,-0.07285 0.0588,0.0347 0.17634,0.684616 0.88165,-7.203869 0.17633,0.04165 0.0588,0.112749 0.17633,2.256924 0.41144,4.409046 0.17633,0.43668 0.41144,2.699494 0.17633,-0.490544 0.0588,0.248858 0.17633,-0.695744 0.0588,-0.03224 0.64655,-3.105066 0.11755,-0.7717 0.0588,0.05683 0.0588,-0.07475 0.17633,-0.609211 0.0588,0.07997 0.29388,1.926459 0.11756,-0.40243 0.0588,0.04368 0.0588,0.04948 0.17633,-0.566147 0.0588,0.363419 0.0588,-0.07639 0.2351,-0.851208 0.0588,-0.01582 0.35266,-2.8977 0.17634,1.054716 0.0588,0.0302 0.17633,1.875658 0.0588,-0.338679 0.0588,-0.11977 0.0588,0.111263 0.0588,0.131805 0.17633,-0.906527 0.11756,0.7082 0.52899,-2.912349 0.17633,-3.25304 0.29389,-3.815269 0.0588,-0.294926 0.58777,-11.41524 0.17633,-3.125158 0.0588,0.735343 0.11755,1.016924 0.0588,-0.0608 0.11755,-0.215228 0.17633,-1.225836 0.0588,0.08232 0.52899,3.338198 0.0588,-0.03946 0.11756,-0.961486 0.11755,-1.600853 0.11755,0.265817 0.70533,5.675515 0.0588,0.03264 0.29388,1.315156 0.0588,-0.255834 0.52899,-3.383583 0.11756,0.302639 0.0588,0.02287 0.64655,6.481305 0.11756,0.612576 0.0588,-0.09167 0.17634,0.768957 0.0588,-0.119668 0.17634,0.431743 0.0588,-0.05103 0.0588,0.314512 0.0588,-0.08606 0.0588,-0.138366 0.0588,0.04033 0.47022,4.321564 0.17633,-1.655493 0.0588,0.265476 0.17633,-0.445891 0.23511,1.62557 0.0588,-0.05161 0.35267,-6.427158 0.0588,0.120243 0.23511,3.062572 0.0588,-0.04413 0.0588,0.08071 0.29388,-2.427248 0.11756,0.457632 0.29388,4.570751 0.0588,-0.05068 0.0588,-0.04756 0.0588,-0.415846 0.0588,0.215543 0.0588,0.175314 0.52899,6.535809 0.52899,3.434514 0.0588,-0.31134 0.35266,1.584944 0.0588,-0.158097 0.82288,-6.594351 0.0588,-0.03667 0.35266,-2.570001 0.0588,-0.150234 0.29388,1.558964 0.29389,4.227665 0.0588,-0.0737 0.23511,1.819656 0.58777,6.28839 0.0588,-0.156387 0.11756,0.203147 0.29388,-2.287054 0.76411,-13.157313 0.41144,-6.121229 0.17633,-1.506724 0.11755,-1.498522 0.0588,0.09226 0.11755,-0.18049 0.0588,-0.351734 0.0588,0.181892 0.0588,0.08237 0.0588,-0.147556 0.29389,1.739105 0.35266,4.089514 0.23511,3.13357 0.0588,0.303819 0.41144,5.683881 0.29388,1.735401 0.23511,1.865475 0.11755,1.198855 0.0588,-0.03431 0.17633,0.338049 0.17633,-0.358782 0.17634,0.68498 0.0588,0.119849 0.0588,-0.04565 0.17633,-2.21834 0.29389,-3.32057 0.0588,0.166314 0.35267,-3.239291 0.2351,-2.569321 0.11756,-0.193726 0.11755,0.382207 0.17633,-0.8335 0.0588,0.02503 0.17633,0.344033 0.0588,-0.25881 0.17633,1.068314 0.17633,-0.40702 0.0588,0.21961 0.0588,-0.04106 0.0588,-0.116238 0.0588,-0.380938 0.0588,0.01993 0.0588,-0.04787 0.0588,0.0954 0.58778,-4.988754 0.0588,0.01965 0.11756,-0.162775 0.35266,-1.775732 0.11755,0.700737 0.35267,3.292949 0.17633,0.695646 0.0588,0.111381 0.29389,2.326014 0.11755,-0.07046 0.23511,-2.488887 0.23511,-1.73504 0.70533,-5.158777 0.0588,0.265021 0.529,3.071082 0.17633,0.515294 0.11755,0.164256 0.17633,-0.455443 0.11756,0.250481 0.17633,-1.564647 0.64655,-5.113638 0.0588,-0.198871 0.0588,0.196681 0.0588,-0.26306 0.41144,3.444351 0.29389,5.53807 0.58777,4.918029 0.11755,0.382645 0.0588,-0.04261 0.17633,-1.139857 0.0588,0.175785 0.11755,0.04043 0.11756,0.821966 0.29388,1.848737 0.17633,0.660672 0.0588,-0.228233 0.0588,0.174304 0.0588,0.09735 0.41144,-1.137347 0.529,-4.211494 0.0588,-0.233973 0.0588,0.258505 0.0588,-0.07806 0.11755,-0.831142 0.17633,-1.526212 0.17634,-1.657958 0.0588,0.268133 0.0588,-0.225987 0.0588,0.167122 0.29388,-1.360269 0.17633,-1.053162 0.23511,1.273908 0.17634,2.476379 0.17633,0.959861 0.35266,1.852828 0.0588,0.04737 0.47021,4.779714 0.17633,-1.672216 0.29389,1.07112 0.0588,-0.107431 0.23511,-0.602599 0.0588,0.06416 0.11756,-1.493253 0.11755,-1.423301 0.0588,0.03021 0.0588,0.281595 0.35267,4.077749 0.0588,-0.07475 0.0588,0.07745 0.35266,3.301909 0.0588,-0.06688 0.0588,0.507604 0.0588,-0.226465 0.29388,-2.103946 0.0588,0.279477 0.35266,-2.884133 0.29389,-3.504283 0.0588,-0.04229 0.0588,-0.379269 0.11756,0.850909 0.0588,-0.245965 0.41144,-2.350877 0.23511,0.617266 0.23511,-0.94396 0.11755,0.286344 0.0588,-0.113546 0.0588,-0.296142 0.0588,0.16943 0.11755,-0.06447 0.0588,-0.230744 0.0588,0.218669 0.11756,-0.01105 0.17633,-0.197554 0.11755,-0.09673 0.23511,1.529394 0.23511,-0.606215 0.0588,-0.03922 0.11755,0.269761 0.0588,-0.102654 0.17633,-0.56508 0.11755,0.317898 0.11756,-0.105073 0.11755,0.69238 0.0588,-0.02147 0.29389,-0.358744 0.0588,0.16957 0.23511,0.584113 0.529,2.429502 0.7641,5.967935 0.17633,-0.08761 0.0588,0.02774 0.17633,-0.526483 0.0588,0.187389 0.2351,1.030305 0.17634,-0.504888 0.11755,0.178826 0.0588,-0.164785 0.0588,0.08489 0.0588,-0.03209 0.35266,1.881186 0.0588,-0.03941 0.23511,-1.764863 0.17633,-0.791726 0.17633,-0.773986 0.0588,0.13208 0.0588,0.290543 0.0588,-0.05905 0.0588,0.03498 0.0588,-0.102378 0.23511,-2.341118 0.29388,-1.088707 0.11756,0.807288 0.0588,-0.02784 0.17633,0.02157 0.0588,-0.08633 0.0588,-0.333638 0.0588,0.305779 0.17633,-0.268267 0.17633,-1.000108 0.17633,0.108733 0.29389,1.312431 0.88165,10.142073 0.11756,1.10291 0.0588,-0.419653 0.0588,0.285571 0.0588,0.06914 0.0588,-0.116176 0.29388,1.736904 0.17633,0.502199 0.35267,-2.298147 1.05798,-17.294239 0.0588,0.381457 0.0588,0.219843 0.29388,3.183683 0.0588,0.0675 0.17633,-1.464144 0.0588,0.365512 0.47022,5.410546 0.11755,-0.358767 0.11756,-0.320988 0.11755,0.310073 0.0588,-0.101592 0.0588,0.09616 0.11756,2.012241 0.29388,4.505179 0.29389,1.647536 0.0588,-0.107122 0.0588,0.176388 0.0588,-0.427706 0.0588,0.2188 0.0588,0.243041 0.17634,-0.885787 0.0588,0.186072 0.17633,-1.557006 0.0588,0.05723 0.0588,0.673499 0.0588,-0.28881 0.0588,0.147051 0.0588,-0.41695 0.0588,0.05157 0.35266,1.765323 0.0588,-0.210685 0.17633,1.158592 0.0588,0.0074 0.17633,1.756265 0.11755,-1.076953 0.23511,2.037418 0.0588,0.02532 0.0588,0.172875 0.0588,-0.122274 0.0588,-0.593803 0.17633,1.534427 0.0588,-0.04174 0.35266,-1.590682 0.0588,0.489252 0.0588,-0.323116 0.11756,-0.906717 0.0588,0.01809 0.0588,-0.196274 0.0588,0.224053 0.0588,-0.346578 0.17633,0.850004 0.0588,-0.03357 0.17634,1.817794 0.29388,3.92075 0.529,4.761598 0.0588,-0.01281 0.23511,-0.559647 0.0588,0.154581 0.0588,-0.116578 0.47021,-2.684385 0.0588,0.09743 0.29389,1.565485 0.0588,-0.06555 0.11756,-0.185151 0.47021,-6.38386 0.35267,-6.588629 0.2351,-3.243666 0.29389,-4.563042 0.35266,-0.658453 0.0588,0.152205 0.0588,-0.04917 0.41144,-2.760798 0.0588,0.271819 0.0588,0.223076 0.0588,-0.197791 0.23511,-1.911604 0.0588,0.0731 0.0588,-0.315853 0.0588,0.110055 0.0588,0.145947 0.2351,-0.79902 0.41144,1.403625 0.0588,-0.155375 0.23511,1.278646 0.35266,-1.387286 0.11756,0.199002 0.0588,-0.385044 0.0588,0.220653 0.47022,-2.194067 0.29388,-1.748533 0.11756,0.01162 0.0588,0.188248 0.0588,-0.02361 0.41144,-2.19766 0.11756,0.647494 0.0588,-0.23016 0.23511,0.376074 0.35266,1.602307 0.0588,0.08558 0.17633,1.356773 0.0588,0.01008 0.41144,1.074844 0.11755,-0.255008 0.11756,0.121643 0.23511,1.424689 0.11755,1.297532 0.0588,-0.02923 0.35266,0.961163 0.17633,0.661818 0.11756,0.612285 0.0588,-0.03986 0.11756,-0.90617 0.35266,-3.450176 0.529,3.260324 0.82288,9.991203 0.58777,6.297232 0.0588,0.257638 0.35267,3.471584 0.0588,0.122127 0.11756,-0.513002 0.0588,0.07998 0.23511,-0.768552 0.23511,-1.624523 0.0588,-0.179394 0.17633,1.359119 0.88166,-8.24922 0.88165,-12.278456 0.0588,0.07028 0.64655,-4.675233 0.0588,0.205631 0.0588,-0.167497 0.11756,0.02483 0.23511,1.165398 0.0588,-0.305033 0.0588,0.128553 0.35266,3.028044 0.17633,0.573566 0.17634,-0.366837 0.0588,0.03809 0.17633,0.440657 0.0588,0.0272 0.0588,-0.181811 0.17633,0.357797 0.11755,0.0024 0.11756,0.794113 0.58777,4.080758 0.0588,-0.01454 0.0588,0.120457 0.17634,1.6783 0.0588,-0.0488 0.17634,0.713193 0.47021,-3.15912 0.11756,-0.23731 0.0588,0.0917 0.17634,0.647345 0.0588,-0.452685 0.0588,0.0389 0.17633,0.393174 0.0588,-0.162799 0.23511,0.449748 0.0588,-0.193998 0.23511,1.811681 0.0588,-0.03238 0.0588,0.228962 0.17633,-0.897805 0.0588,0.283207 0.0588,-0.212039 0.0588,-0.346317 0.0588,0.13628 0.0588,-0.0041 0.29389,-1.611627 0.70532,-2.898303 0.0588,0.126137 0.0588,-0.04671 0.0588,-0.177044 0.17633,0.648523 0.17633,1.18137 0.0588,-0.08118 0.11756,-0.433616 0.17633,-0.524792 0.0588,0.08773 0.11755,0.112498 0.11756,-0.312796 0.35266,0.477904 0.0588,-0.04694 0.11755,-0.02742 0.29389,2.367593 0.29388,1.596536 0.0588,0.08631 0.70532,6.023781 0.29389,2.872927 0.23511,1.553654 0.0588,-0.115946 0.0588,-0.315829 0.0588,0.219104 0.0588,0.277624 0.0588,-0.492418 0.0588,0.135908 0.0588,-0.06008 0.11755,0.111124 0.35267,-2.954431 0.0588,0.310977 0.41144,3.497204 0.47022,4.724137 0.23511,1.835801 0.17633,-0.450962 0.29389,-2.77566 0.52899,-2.966885 0.0588,0.02107 0.23511,1.480806 0.2351,1.863065 0.0588,-0.06651 0.11755,0.406623 0.64655,3.576165 0.11756,-0.222127 0.23511,-0.981883 0.0588,0.07448 0.58777,-4.408497 0.29389,-2.284888 0.0588,0.249337 0.0588,-0.155945 0.17634,-0.856899 0.29388,0.690521 0.17633,-0.565434 0.7641,4.397688 0.35267,3.858182 0.0588,0.565644 0.0588,-0.195633 0.23511,-2.092573 0.0588,0.236334 0.0588,0.305451 0.0588,-0.03334 0.11756,-0.748695 0.0588,0.140477 0.47022,-5.681722 0.17633,-1.552119 0.0588,0.02226 0.17633,-0.922102 0.17633,-0.492862 0.35266,2.952084 0.0588,-0.04974 0.35266,-0.935723 0.41144,-7.625083 0.529,-10.274079 0.29388,-2.264145 0.0588,-0.265993 0.23511,1.383389 0.0588,-0.04406 0.0588,0.179726 0.0588,-0.170911 0.11755,0.35681 0.23511,-1.628279 0.0588,0.10525 0.0588,0.129541 0.17633,-1.038943 0.0588,0.299021 0.0588,-0.143909 0.23511,-1.086989 0.11756,-1.013394 0.0588,0.151925 0.23511,-0.538877 0.11756,0.54391 0.11755,-0.576511 0.23511,-1.070866 0.17633,-0.582085 0.0588,0.107282 0.23511,0.953235 0.11755,-0.656253 0.0588,0.0085 0.23511,0.677421 0.29388,1.5671 0.29389,1.78088 0.2351,1.445921 0.35267,0.840869 0.23511,2.55064 0.2351,1.887697 0.17634,1.595433 0.2351,3.929703 0.529,9.781466 0.47022,4.407078 0.11755,0.505034 0.23511,2.112485 0.23511,1.280767 0.11755,-0.480791 0.58777,2.883002 0.0588,-0.420142 0.0588,0.118031 0.11755,0.530252 0.11756,-0.380608 0.0588,0.06937 0.0588,0.169288 0.11755,0.681592 0.41144,-3.828973 0.17634,-0.95317 0.41143,-2.765406 0.0588,0.132883 0.0588,-0.17334 0.82288,11.605211 0.11755,-0.08927 0.17634,1.492643 0.0588,0.864498 0.0588,-0.351549 0.17633,0.313994 0.17633,-0.595386 0.0588,0.274251 0.0588,-0.118456 0.0588,-0.05307 0.23511,-1.037254 0.17633,1.612697 0.0588,-0.229131 0.58777,5.208937 0.11756,0.947405 0.0588,0.410714 0.0588,-0.115956 0.0588,-0.05706 0.0588,0.389314 0.0588,-0.130086 0.0588,-0.104892 0.11755,0.52228 0.29389,-2.605788 0.17633,-0.836182 0.41144,-2.659602 0.35266,-8.684552 0.29389,-6.61109 0.52899,-8.233817 0.0588,0.141077 0.17633,1.13091 0.23511,1.680305 0.17633,0.376644 0.0588,-0.04708 0.11755,0.598304 0.0588,0.619962 0.0588,-0.01078 0.0588,-0.0489 0.11756,-0.387774 0.11755,0.684347 0.17633,-0.677784 0.0588,0.185753 0.41144,6.24378 0.41144,5.359503 0.0588,0.02601 0.41144,6.097189 0.0588,-0.05179 0.0588,0.11768 0.17633,1.037175 0.17633,-0.253027 0.17634,-0.938614 0.17633,-1.691286 0.35266,-5.460464 0.41144,-6.207593 0.23511,-0.750799 0.70532,4.735678 0.17633,1.59128 0.0588,-0.139855 0.23511,0.512944 0.23511,-1.015985 0.0588,0.101097 0.0588,0.271396 0.0588,-0.191431 0.0588,-0.06213 0.23511,1.357863 0.52899,6.290819 0.47022,10.40458 0.70532,6.07261 0.0588,-0.14724 0.23511,-1.41021 0.0588,0.21998 0.0588,-0.23674 0.0588,0.18153 0.0588,0.14493 0.0588,-0.23665 0.0588,0.43007 0.0588,-0.16764 0.0588,-0.36339 0.0588,0.38263 0.0588,-0.24625 0.23511,0.36848 0.11755,-0.43036 0.0588,0.15459 0.17633,-0.59446 0.0588,0.003 0.11755,-0.53452 0.41144,-2.79456 0.35266,-3.223448 0.29389,-1.267512 0.0588,0.239093 0.0588,-0.154231 0.29389,-0.283094 0.11755,0.327385 0.17634,0.93803 0.11755,0.06519 0.23511,0.6447 0.41144,-2.247924 0.0588,0.157279 0.2351,-0.797061 0.23511,1.988598 0.23511,2.149225 0.58777,4.64363 0.35266,-2.93411 0.17634,-2.332715 0.0588,0.293508 0.0588,-0.319014 0.0588,0.116821 0.0588,0.02162 0.29389,1.43016 0.11755,0.85681 0.29389,2.4325 0.35266,1.64362 0.17633,-1.39434 0.0588,0.0129 0.23511,-1.8266 0.0588,-0.43003 0.0588,0.3001 0.0588,-0.0502 0.11756,0.8788 0.0588,-0.19687 0.0588,-0.20154 0.17633,-1.36252 0.23511,-1.56454 0.35266,-3.398564 0.529,-9.556237 0.0588,-0.200308 0.35267,-3.183617 0.0588,-0.17802 0.17634,-1.851877 0.0588,0.0091 0.11756,-0.771866 0.64654,5.061043 0.47022,1.423128 0.23511,1.489381 0.17633,-0.487363 0.76411,7.492037 0.11755,-0.0773 0.0588,0.138635 0.17633,-0.561095 0.0588,0.682428 0.0588,-0.360142 0.23511,-1.206753 0.35266,-3.194611 0.17633,-1.050346 0.11756,-0.574644 0.0588,0.10616 0.0588,-0.132941 0.94044,-9.419573 0.0588,-0.219996 0.17634,-1.492847 0.0588,0.08916 0.0588,-0.195154 0.0588,0.174254 0.17633,0.667346 0.41144,2.476859 0.23511,2.105261 0.17633,1.030699 0.11755,0.528018 0.23511,-0.542916 0.0588,-0.187751 0.0588,0.04203 0.41143,2.514431 0.0588,0.02051 0.29389,2.01874 0.47021,6.731237 0.0588,-0.07884 0.7641,5.620874 0.529,5.27207 0.0588,0.21035 0.29388,4.29635 0.11756,0.0525 0.2351,1.47124 0.17634,-0.25944 0.0588,0.10407 0.17633,0.88577 0.11756,-0.004 0.29388,-1.43562 0.11756,0.45026 0.23511,-1.50688 0.29388,1.11147 0.0588,-0.0899 0.11755,-0.6534 0.0588,0.24823 0.0588,-0.0841 0.0588,0.033 0.17633,-0.86971 0.11755,-0.48447 0.0588,0.21513 0.0588,-0.0971 0.0588,0.0606 0.0588,-0.0594 0.64655,-4.17044 0.35266,1.64439 0.41144,1.33626 0.29389,2.92435 0.11755,0.25459 0.99921,-5.43971 0.17633,-1.30044 0.17633,-0.0828 0.0588,0.22613 0.11755,-0.44958 0.0588,0.0282 0.0588,-0.008 0.17633,-0.98206 0.11755,0.3735 0.0588,-0.12801 0.11756,-0.54718 0.47021,-7.205437 0.41144,-5.2108 0.29389,-4.216154 0.0588,0.0238 0.52899,-3.930537 0.23511,-2.001963 0.47022,-2.92073 0.0588,0.110164 0.17633,0.320204 0.0588,-0.104306 0.29389,-0.552822 0.0588,0.250995 0.0588,-0.301066 0.0588,0.290308 0.0588,-0.05537 0.0588,0.04624 0.11756,0.482529 0.23511,-0.295098 0.17633,0.782493 0.47021,2.306168 0.23511,-1.06054 0.0588,0.04156 0.0588,-0.09253 0.58777,3.957667 0.47021,9.807846 0.47022,10.095079 0.17633,1.50071 0.17633,0.54884 0.23511,-0.3647 0.17633,-1.292 0.82288,-8.351748 0.58778,-4.003601 0.17633,-0.328707 0.7641,-7.626533 0.47022,-3.780649 0.0588,0.126085 0.0588,0.264956 0.23511,-1.090531 0.41144,1.706872 0.11755,-0.07977 0.17633,-1.004619 0.41145,-3.274683 0.2351,-0.825501 0.23511,-1.768839 0.0588,0.14995 0.23511,0.679179 0.0588,0.09168 0.0588,-0.07422 0.17633,1.199242 0.17633,0.250797 0.17634,-0.852302 0.2351,0.571663 0.0588,0.08441 0.11756,-0.353295 0.2351,1.284756 0.17634,-0.920526 0.2351,-0.09032 0.23511,0.86037 0.0588,0.04525 0.23511,1.221167 0.17633,0.455674 0.35266,2.706524 0.23511,1.308527 0.11755,0.385423 0.17634,-0.700866 0.64654,-5.329042 0.11756,-1.055169 0.0588,0.02312 0.17633,-0.577831 0.0588,0.176379 0.11755,0.08818 0.0588,-0.151667 0.0588,0.13096 0.11756,0.305941 0.23511,1.310524 0.11755,0.03498 0.0588,-0.164315 0.0588,0.206989 0.29389,-1.550925 0.0588,-0.116021 0.17633,-0.483248 0.23511,-0.941385 0.94043,3.62254 0.11756,-0.05974 0.11755,0.476575 0.17633,0.785049 0.0588,-0.05008 0.35266,-1.261959 0.23511,0.321204 0.0588,-0.341822 0.0588,0.04394 0.0588,0.274535 0.0588,-0.04245 0.35266,-1.670725 0.0588,0.303104 0.52899,2.655735 0.35267,5.246243 0.11755,0.616396 0.0588,-0.02785 0.35266,1.213291 0.0588,-0.07372 0.0588,0.111945 0.0588,-0.174645 0.41144,-4.141574 0.0588,0.07597 0.0588,-0.136573 0.11756,0.336127 0.0588,-0.104244 0.2351,-0.712943 0.41144,-1.924781 0.23511,-1.438997 0.11756,0.492202 0.17633,-0.679608 0.0588,-0.03106 0.17633,-0.429367 0.11755,0.441866 0.23511,0.982217 0.29388,0.940883 0.0588,-0.01974 0.0588,-0.141868 0.23511,0.973091 0.17633,0.200433 0.17633,-1.123841 0.0588,0.0086 0.35266,-2.329203 0.29389,-2.123915 0.29388,-0.904387 0.0588,0.223361 0.23511,1.605449 0.29388,5.160282 0.35267,2.986627 0.35266,3.055576 0.0588,-0.104666 0.11755,0.383351 0.11755,-0.32682 0.17633,2.071418 0.29389,3.146488 0.35266,2.652581 0.29389,4.613654 0.11755,0.60329 0.0588,-0.37368 0.17633,1.6234 0.29389,3.62749 0.23511,2.38631 0.0588,-0.0215 0.17633,0.62649 0.0588,-0.28066 0.0588,0.18935 0.0588,-0.1314 0.0588,0.62453 0.0588,-0.10438 0.17633,-0.45763 0.17633,-1.42929 0.0588,0.10613 0.0588,-0.46644 0.0588,0.0901 0.0588,-0.0586 0.29389,-1.53287 0.17633,0.34216 0.11755,-0.62717 0.17633,0.75966 0.0588,-0.0609 0.11756,0.11619 0.17633,-0.50247 0.0588,0.2393 0.0588,0.0479 0.11756,0.59376 0.17633,1.07283 0.0588,0.0702 0.0588,-0.0518 0.11756,-0.27661 0.17633,0.69303 0.2351,1.22986 0.0588,-0.0573 0.17633,0.32294 0.0588,0.12292 0.0588,-0.45166 0.0588,0.0723 0.0588,0.11189 0.17633,1.43015 0.11756,-0.0513 0.0588,-0.52079 0.0588,0.21782 0.0588,0.0616 0.64655,4.01132 0.17633,-0.68112 0.0588,-0.22261 0.17633,0.61435 0.11755,-0.76953 0.35266,-3.63797 0.17634,-1.15868 0.17633,-1.08976 0.23511,1.82627 0.0588,0.0564 0.0588,0.67143 0.0588,-0.28692 0.17633,0.56336 0.0588,0.0104 0.0588,0.12482 0.0588,-0.11088 0.0588,0.015 0.0588,-0.45233 0.0588,0.14735 0.0588,-0.17251 0.0588,0.40259 0.0588,-0.26751 0.0588,0.24558 0.35266,-3.69666 0.47022,1.65689 0.17633,1.05546 0.0588,-0.10135 0.29388,0.92726 0.11756,0.16423 0.11755,0.44716 0.0588,-0.082 0.17633,-0.15084 0.17633,1.09309 0.0588,-0.23567 0.0588,0.11393 0.17633,0.73613 0.17633,-0.19675 0.11755,0.22244 0.23511,-0.70571 0.0588,0.0411 0.11755,0.4757 0.0588,-0.12217 0.23511,-0.57224 0.23511,-1.41211 0.0588,0.1919 0.17634,-1.00221 0.0588,0.24825 0.23511,0.71183 0.11756,0.2537 0.0588,-0.0461 0.0588,-0.28009 0.0588,0.2023 0.23511,1.13852 0.47021,2.13493 0.17633,-0.67214 0.0588,0.29482 0.11756,-0.0263 0.0588,0.23444 0.47022,-2.81285 0.47022,-1.4198 0.23511,-1.6289 0.0588,0.13129 0.17633,-0.659 0.17633,0.42691 0.11756,-0.22214 0.11755,-0.44048 0.41144,3.87224 0.23511,0.76466 0.11756,0.47198 0.0588,-0.2755 0.0588,0.19841 0.29389,2.49518 0.0588,-0.11712 0.35267,-2.18044 0.23511,0.9946 0.2351,2.09145 0.0588,-0.0588 0.0588,-0.14684 0.41144,3.21682 0.0588,0.0158 0.17634,0.95122 0.7641,-4.16952 0.29388,-1.6368 0.0588,-0.0422 0.0588,-0.42834 0.0588,0.17403 0.11756,0.21199 0.17633,0.94117 0.0588,-0.12754 0.41144,1.71441 0.0588,-0.0647 0.11756,0.4224 0.17633,1.20523 0.17633,0.95039 0.0588,-0.42915 0.0588,0.14057 0.11755,-0.13198 0.17633,0.36917 0.17633,0.87688 0.17633,0.70039 0.11756,-0.75359 0.17633,-1.26428 0.17633,-0.55615 0.0588,0.14108 0.11755,0.54826 0.17633,-1.1304 0.0588,0.12333 0.35266,-1.05015 0.47022,3.33723 0.11756,-0.45965 0.0588,0.32661 0.11756,0.12275 0.0588,-0.26487 0.0588,0.21278 0.0588,-0.0137 0.0588,0.11778 0.17634,1.81167 0.0588,-0.0127 0.17633,-0.13813 0.0588,0.22785 0.0588,-0.18244 0.11755,-0.74629 0.35267,1.52969 0.2351,-0.73737 0.0588,-0.0104 0.17633,0.27892 0.17633,-0.22308 0.11756,0.22688 0.0588,-0.079 0.17633,-0.68728 0.0588,0.0853 0.0588,-0.12848 0.11756,0.19051 0.29388,-1.35355 0.41144,1.42585 0.29389,1.10175 0.41144,2.28052 0.0588,-0.17628 0.0588,-0.26593 0.0588,0.0649 0.0588,-0.0721 0.0588,-0.34134 0.0588,0.29038 0.17633,-0.27134 0.0588,-0.34327 0.0588,0.35303 0.0588,-0.31185 0.11756,-0.4054 0.0588,0.14419 0.0588,0.0605 0.0588,-0.30773 0.0588,0.20293 0.11755,-0.1639 0.0588,0.14909 0.17633,-0.21246 0.0588,0.26959 0.0588,-0.53448 0.0588,0.09 0.17633,0.63133 0.0588,-0.37149 0.0588,0.18175 0.23511,-0.50653 0.17633,0.52579 0.11756,-0.28696 0.11755,0.45012 0.0588,-0.23396 0.17633,0.42241 0.17633,-0.17516 0.35267,1.64327 0.0588,-0.0282 0.11756,-0.1397 0.29388,0.52575 0.17634,-0.62394 0.0588,-0.13634 0.0588,0.11334 0.17633,0.29692 0.0588,-0.0582 0.11755,-0.20429 0.11756,0.39434 0.0588,-0.0801 0.41144,-3.1193 0.23511,-0.43204 0.23511,-0.7389 0.0588,0.063 0.11755,-0.21542 0.0588,0.0492 0.29388,1.72252 0.529,3.61962 0.29388,1.23037 0.0588,-0.18831 0.0588,0.0748 0.0588,-0.0803 0.0588,-0.18219 0.11756,0.51774 0.0588,-0.21975 0.0588,-0.0606 0.11756,-0.70808 0.0588,0.32267 0.11756,0.87827 0.0588,-0.14391 0.11756,0.0974 0.23511,-0.70025 0.0588,0.40823 0.0588,-0.30358 0.0588,-0.0289 0.35266,1.38213 0.0588,0.77623 0.0588,-0.005 0.0588,-0.23631 0.0588,0.13254 0.11755,0.47196 0.0588,-0.20457 0.0588,-0.10904 0.0588,0.0759 0.47021,2.19913 0.11756,-0.21293 0.0588,-0.018 0.23511,-1.56431 0.11756,-0.5005 0.0588,0.27599 0.23511,0.25324 0.11756,0.38712 0.0588,-0.0956 0.11756,-0.61623 0.23511,0.9139 0.29388,1.64978 0.0588,-0.10121 0.0588,-0.27422 0.17634,0.79593 0.11755,-0.45474 0.0588,-0.48897 0.0588,0.0725 0.11755,0.26402 0.17633,-0.98881 0.0588,0.15947 0.0588,-0.10046 0.11756,-0.55502 v 0"
           clip-path="url(#p84c342dbe5)"
           style="fill:none;stroke:#990000;stroke-width:2.25;stroke-linecap:round;stroke-opacity:1"
           id="path31" />
      </g>
      <g
         id="patch_3">
        <path
           d="M 71.350928,149.1 V 19.44"
           style="fill:none;stroke:#262626;stroke-width:1.875;stroke-linecap:square;stroke-linejoin:miter"
           id="path32" />
      </g>
      <g
         id="patch_4">
        <path
           d="M 484.56,149.1 V 19.44"
           style="fill:none;stroke:#262626;stroke-width:1.875;stroke-linecap:square;stroke-linejoin:miter"
           id="path33" />
      </g>
      <g
         id="patch_5">
        <path
           d="M 71.350928,149.1 H 484.56"
           style="fill:none;stroke:#262626;stroke-width:1.875;stroke-linecap:square;stroke-linejoin:miter"
           id="path34" />
      </g>
      <g
         id="patch_6">
        <path
           d="M 71.350928,19.44 H 484.56"
           style="fill:none;stroke:#262626;stroke-width:1.875;stroke-linecap:square;stroke-linejoin:miter"
           id="path35" />
      </g>
      <g
         id="text_9">
        <!-- PLS $X_{eating}$ -->
        <g
           style="fill:#262626"
           transform="matrix(0.18,0,0,-0.18,-31.95134,78.27)"
           id="g45">
          <defs
             id="defs35">
            <path
               id="ArialMT-50"
               d="m 494,0 v 4581 h 1728 q 456,0 697,-43 337,-57 565,-215 229,-157 368,-442 139,-284 139,-625 0,-584 -372,-989 -372,-404 -1344,-404 H 1100 V 0 Z m 606,2403 h 1184 q 588,0 835,219 247,219 247,616 0,287 -146,491 -145,205 -382,271 -154,41 -566,41 H 1100 Z"
               transform="scale(0.015625)" />
            <path
               id="ArialMT-4c"
               d="m 469,0 v 4581 h 606 V 541 H 3331 V 0 Z"
               transform="scale(0.015625)" />
            <path
               id="ArialMT-53"
               d="m 288,1472 571,50 q 41,-344 189,-564 149,-220 461,-356 313,-136 704,-136 346,0 612,103 266,103 395,282 130,180 130,393 0,215 -125,376 -125,161 -412,271 -185,72 -816,223 -631,152 -884,286 -329,172 -490,426 -160,255 -160,571 0,347 196,648 197,302 575,458 379,156 841,156 509,0 898,-164 390,-164 599,-483 209,-318 225,-721 l -581,-44 q -47,434 -318,656 -270,222 -798,222 -550,0 -802,-202 -251,-201 -251,-485 0,-247 178,-407 175,-159 914,-326 739,-167 1014,-292 400,-185 590,-468 191,-282 191,-651 0,-366 -209,-690 Q 3516,281 3123,101 2731,-78 2241,-78 1619,-78 1198,103 778,284 539,648 300,1013 288,1472 Z"
               transform="scale(0.015625)" />
            <path
               id="ArialMT-20"
               transform="scale(0.015625)" />
            <path
               id="DejaVuSans-Oblique-58"
               d="m 878,4666 h 638 l 800,-1685 1447,1685 h 737 L 2578,2438 3738,0 H 3103 L 2163,1966 459,0 h -734 l 2181,2509 z"
               transform="scale(0.015625)" />
            <path
               id="DejaVuSans-Oblique-65"
               d="m 3078,2063 q 10,50 14,103 5,53 5,106 0,381 -224,603 -223,222 -607,222 -428,0 -757,-271 -328,-270 -496,-767 z m 500,-450 H 903 q -19,-119 -25,-188 -6,-69 -6,-119 0,-434 267,-672 267,-237 755,-237 375,0 709,84 335,85 622,247 L 3116,159 Q 2806,34 2476,-28 2147,-91 1806,-91 1078,-91 686,257 294,606 294,1247 q 0,547 195,1017 195,470 574,839 243,231 579,356 336,125 714,125 594,0 945,-356 352,-356 352,-956 0,-144 -19,-308 -18,-164 -56,-351 z"
               transform="scale(0.015625)" />
            <path
               id="DejaVuSans-Oblique-61"
               d="M 3438,1997 3047,0 h -575 l 106,531 Q 2325,219 2001,64 1678,-91 1281,-91 834,-91 548,182 263,456 263,884 q 0,613 489,969 489,356 1348,356 h 800 l 31,154 q 7,25 10,54 3,30 3,92 0,279 -227,433 -226,155 -636,155 -281,0 -577,-72 -295,-72 -607,-216 l 100,532 q 325,122 636,182 311,61 601,61 619,0 942,-269 324,-268 324,-781 0,-103 -16,-242 -15,-139 -46,-295 z m -622,-238 h -575 q -707,0 -1046,-189 -339,-189 -339,-586 0,-275 173,-431 174,-156 480,-156 469,0 819,336 350,336 463,898 z"
               transform="scale(0.015625)" />
            <path
               id="DejaVuSans-Oblique-74"
               d="m 2706,3500 -87,-447 H 1472 L 1100,1153 q -19,-106 -28,-178 -9,-72 -9,-112 0,-200 120,-291 120,-91 386,-91 h 581 L 2053,0 H 1503 Q 991,0 739,200 488,400 488,806 q 0,72 9,158 9,86 28,189 L 897,3053 H 409 l 91,447 h 478 l 194,994 h 575 l -191,-994 z"
               transform="scale(0.015625)" />
            <path
               id="DejaVuSans-Oblique-69"
               d="m 1172,4863 h 575 L 1606,4134 H 1031 Z M 909,3500 h 575 L 800,0 H 225 Z"
               transform="scale(0.015625)" />
            <path
               id="DejaVuSans-Oblique-6e"
               d="M 3566,2113 3156,0 h -578 l 410,2091 q 28,147 43,259 16,113 16,178 0,263 -166,409 -165,147 -462,147 -463,0 -797,-308 -334,-307 -438,-835 L 800,0 H 225 l 678,3500 h 575 l -115,-550 q 240,303 577,468 338,166 710,166 463,0 717,-250 255,-250 255,-703 0,-112 -14,-240 -14,-128 -42,-278 z"
               transform="scale(0.015625)" />
            <path
               id="DejaVuSans-Oblique-67"
               d="M 3816,3500 3219,434 q -172,-890 -658,-1327 -486,-438 -1308,-438 -303,0 -563,45 -259,45 -484,139 l 107,559 q 212,-137 449,-202 238,-66 507,-66 547,0 898,299 352,298 464,857 l 50,263 Q 2441,288 2122,144 1803,0 1434,0 903,0 598,351 294,703 294,1319 q 0,484 184,948 185,464 519,824 222,237 517,365 295,128 617,128 353,0 615,-164 263,-164 392,-464 l 100,544 z M 2950,2216 q 0,425 -200,656 -200,231 -569,231 -228,0 -434,-91 -206,-90 -353,-253 -238,-268 -371,-632 -132,-364 -132,-752 0,-431 201,-663 202,-231 580,-231 547,0 912,495 366,496 366,1240 z"
               transform="scale(0.015625)" />
          </defs>
          <use
             xlink:href="#ArialMT-50"
             transform="translate(0,0.09375)"
             id="use35" />
          <use
             xlink:href="#ArialMT-4c"
             transform="translate(66.699219,0.09375)"
             id="use36" />
          <use
             xlink:href="#ArialMT-53"
             transform="translate(122.31445,0.09375)"
             id="use37" />
          <use
             xlink:href="#ArialMT-20"
             transform="translate(189.01367,0.09375)"
             id="use38" />
          <use
             xlink:href="#DejaVuSans-Oblique-58"
             transform="translate(216.79687,0.09375)"
             id="use39" />
          <use
             xlink:href="#DejaVuSans-Oblique-65"
             transform="matrix(0.7,0,0,0.7,285.30273,-16.3125)"
             id="use40" />
          <use
             xlink:href="#DejaVuSans-Oblique-61"
             transform="matrix(0.7,0,0,0.7,328.36914,-16.3125)"
             id="use41" />
          <use
             xlink:href="#DejaVuSans-Oblique-74"
             transform="matrix(0.7,0,0,0.7,371.26465,-16.3125)"
             id="use42" />
          <use
             xlink:href="#DejaVuSans-Oblique-69"
             transform="matrix(0.7,0,0,0.7,398.71094,-16.3125)"
             id="use43" />
          <use
             xlink:href="#DejaVuSans-Oblique-6e"
             transform="matrix(0.7,0,0,0.7,418.15918,-16.3125)"
             id="use44" />
          <use
             xlink:href="#DejaVuSans-Oblique-67"
             transform="matrix(0.7,0,0,0.7,462.52441,-16.3125)"
             id="use45" />
        </g>
      </g>
    </g>
  </g>
  <defs
     id="defs45">
    <clipPath
       id="p84c342dbe5">
      <rect
         x="71.350929"
         y="19.440001"
         width="413.20908"
         height="129.66"
         id="rect45" />
    </clipPath>
  </defs>
</svg>
